<?xml version="1.0" encoding="utf-8"?>
<!-- Generator: Adobe Illustrator 19.1.0, SVG Export Plug-In . SVG Version: 6.00 Build 0)  -->
<!DOCTYPE svg PUBLIC "-//W3C//DTD SVG 1.1//EN" "http://www.w3.org/Graphics/SVG/1.1/DTD/svg11.dtd">
<svg version="1.1" id="Layer_2" xmlns="http://www.w3.org/2000/svg" xmlns:xlink="http://www.w3.org/1999/xlink" x="0px" y="0px"
	 width="150px" height="150px" viewBox="0 0 150 150" enable-background="new 0 0 150 150" xml:space="preserve">
<path d="M34.7,36.7H52h17.3v9.6v9.6h9.6h9.6v28.7v28.7H61.6H34.7V75V36.7z M27,29v46v46h34.6h34.6V86.5V52L84.6,40.5L73.1,29h-23H27
	z"/>
<polygon points="78.9,29 90.4,40.5 101.9,52 101.9,86.5 101.9,121 105.7,121 109.6,121 109.6,86.5 109.6,52 97.9,40.5 86.3,29 
	82.6,29 "/>
<polygon points="92.3,29 103.8,40.5 115.3,52 115.3,86.5 115.3,121 119.2,121 123,121 123,86.5 123,52 111.4,40.5 99.7,29 96,29 "/>
</svg>
