<?xml version="1.0" encoding="utf-8"?>
<!-- Generator: Adobe Illustrator 19.1.0, SVG Export Plug-In . SVG Version: 6.00 Build 0)  -->
<!DOCTYPE svg PUBLIC "-//W3C//DTD SVG 1.1//EN" "http://www.w3.org/Graphics/SVG/1.1/DTD/svg11.dtd">
<svg version="1.1" id="Layer_2" xmlns="http://www.w3.org/2000/svg" xmlns:xlink="http://www.w3.org/1999/xlink" x="0px" y="0px"
	 width="150px" height="150px" viewBox="0 0 150 150" enable-background="new 0 0 150 150" xml:space="preserve">
<polygon points="103,35 107,35 111,35 111,75 111,115 107,115 103,115 103,75 "/>
<polygon points="95,35 97,35 99,35 99,75 99,115 97,115 95,115 95,75 "/>
<polygon points="87,35 89,35 91,35 91,75 91,115 89,115 87,115 87,75 "/>
<polygon points="78.8,35 80.9,35 83,35 83,75 83,115 80.9,115 78.8,115 78.8,75 "/>
<polygon points="63,35 67,35 71,35 71,75 71,115 67,115 63,115 63,75 "/>
<polygon points="55,35 57,35 59,35 59,75 59,115 57,115 55,115 55,75 "/>
<polygon points="47,35 49,35 51,35 51,75 51,115 49,115 47,115 47,75 "/>
<polygon points="35,35 39,35 43,35 43,75 43,115 39,115 35,115 35,75 "/>
<polygon points="27,35 28.9,35 30.8,35 30.8,75 30.8,115 28.9,115 27,115 27,75 "/>
<polygon points="119.2,35 121.1,35 123,35 123,75 123,115 121.1,115 119.2,115 119.2,75 "/>
</svg>
