<?xml version="1.0" encoding="utf-8"?>
<!-- Generator: Adobe Illustrator 19.1.0, SVG Export Plug-In . SVG Version: 6.00 Build 0)  -->
<!DOCTYPE svg PUBLIC "-//W3C//DTD SVG 1.1//EN" "http://www.w3.org/Graphics/SVG/1.1/DTD/svg11.dtd">
<svg version="1.1" id="Layer_2" xmlns="http://www.w3.org/2000/svg" xmlns:xlink="http://www.w3.org/1999/xlink" x="0px" y="0px"
	 width="150px" height="150px" viewBox="0 0 150 150" enable-background="new 0 0 150 150" xml:space="preserve">
<polygon points="87,35 87,31 87,27 75,27 63,27 63,31 63,35 49,35 35,35 35,41 35,47 75,47 115,47 115,41 115,35 101,35 "/>
<path d="M39,55l0,34l0,34h36h36l0-34l0-34H75H39z M59,111h-4h-4V89V67h4h4v22V111z M79,111h-4h-4V89V67h4h4v22V111z M99,111h-4h-4
	V89V67h4h4v22V111z"/>
</svg>
