<?xml version="1.0" encoding="utf-8"?>
<!-- Generator: Adobe Illustrator 19.1.0, SVG Export Plug-In . SVG Version: 6.00 Build 0)  -->
<!DOCTYPE svg PUBLIC "-//W3C//DTD SVG 1.1//EN" "http://www.w3.org/Graphics/SVG/1.1/DTD/svg11.dtd">
<svg version="1.1" id="Layer_2" xmlns="http://www.w3.org/2000/svg" xmlns:xlink="http://www.w3.org/1999/xlink" x="0px" y="0px"
	 width="150px" height="150px" viewBox="0 0 150 150" enable-background="new 0 0 150 150" xml:space="preserve">
<path d="M75,27c-13.3,0-25.3,5.4-33.9,14.1C32.4,49.7,27,61.7,27,75s5.4,25.3,14.1,33.9C49.7,117.6,61.7,123,75,123
	s25.3-5.4,33.9-14.1c8.7-8.7,14.1-20.7,14.1-33.9s-5.4-25.3-14.1-33.9C100.3,32.4,88.3,27,75,27z M80.1,100.2h-5h-5v-4.6V91h5h5v4.6
	V100.2z M79.1,87h-4h-4l-1-20l-1-20h6h6l-1,20L79.1,87z"/>
</svg>
