<?xml version="1.0" encoding="utf-8"?>
<!-- Generator: Adobe Illustrator 19.1.0, SVG Export Plug-In . SVG Version: 6.00 Build 0)  -->
<!DOCTYPE svg PUBLIC "-//W3C//DTD SVG 1.1//EN" "http://www.w3.org/Graphics/SVG/1.1/DTD/svg11.dtd">
<svg version="1.1" id="Layer_2" xmlns="http://www.w3.org/2000/svg" xmlns:xlink="http://www.w3.org/1999/xlink" x="0px" y="0px"
	 width="150px" height="150px" viewBox="0 0 150 150" enable-background="new 0 0 150 150" xml:space="preserve">
<path d="M75,27c-13.3,0-25.3,5.4-33.9,14.1S27,61.7,27,75s5.4,25.3,14.1,33.9S61.7,123,75,123s25.3-5.4,33.9-14.1S123,88.3,123,75
	s-5.4-25.3-14.1-33.9S88.3,27,75,27z M69,46h6h6v4.5v4.5h-6h-6v-4.5V46z M85,103h-2.1h-2.1h0h0H75h-5.8h0h0h-2.1H65v-4.5V94h2h2
	V82.5V71h-2h-2v-4v-4h2.1h2.1v0v0h5.9H81v15.5V94h2h2v4.5V103z"/>
</svg>
