<?xml version="1.0" encoding="utf-8"?>
<!-- Generator: Adobe Illustrator 19.1.0, SVG Export Plug-In . SVG Version: 6.00 Build 0)  -->
<!DOCTYPE svg PUBLIC "-//W3C//DTD SVG 1.1//EN" "http://www.w3.org/Graphics/SVG/1.1/DTD/svg11.dtd">
<svg version="1.1" id="Layer_2" xmlns="http://www.w3.org/2000/svg" xmlns:xlink="http://www.w3.org/1999/xlink" x="0px" y="0px"
	 width="150px" height="150px" viewBox="0 0 150 150" enable-background="new 0 0 150 150" xml:space="preserve">
<polygon points="69,46 75,46 81,46 81,50.6 81,55.1 75,55.1 69,55.1 69,50.6 "/>
<polygon points="81,63 73,63 65,63 65,67 65,71 67,71 69,71 69,82.5 69,94 67,94 65,94 65,98.5 65,103 75,103 85,103 85,98.5 85,94 
	83,94 81,94 81,78.5 "/>
<path d="M75,27c-13.2,0-25.2,5.4-33.9,14.1S27,61.8,27,75s5.4,25.2,14.1,33.9S61.8,123,75,123s25.2-5.4,33.9-14.1S123,88.3,123,75
	s-5.4-25.2-14.1-33.9S88.3,27,75,27z M75,115c-11.1,0-21.1-4.5-28.3-11.7C39.5,96.1,35,86.1,35,75C35,64,39.5,54,46.7,46.7
	S64,35,75,35s21.1,4.5,28.3,11.7S115,64,115,75c0,11-4.5,21-11.7,28.3C96.1,110.5,86.1,115,75,115z"/>
</svg>
