<?xml version="1.0" encoding="utf-8"?>
<!-- Generator: Adobe Illustrator 19.1.0, SVG Export Plug-In . SVG Version: 6.00 Build 0)  -->
<!DOCTYPE svg PUBLIC "-//W3C//DTD SVG 1.1//EN" "http://www.w3.org/Graphics/SVG/1.1/DTD/svg11.dtd">
<svg version="1.1" id="Layer_2" xmlns="http://www.w3.org/2000/svg" xmlns:xlink="http://www.w3.org/1999/xlink" x="0px" y="0px"
	 width="150px" height="150px" viewBox="0 0 150 150" enable-background="new 0 0 150 150" xml:space="preserve">
<path d="M98,85.3c-3.8-5.1-9.7-9.5-16.4-9.5h-8.5c-2.3,0-4.5,0-6.8,0c-1.1,0-2.2,0-3.2,0.1c-2.8,0.2-5.4,1.2-7.8,2.7l9.9,9.8
	l9.9,9.8l-9.7,0l-9.7,0v6.7v6.7h24.6h24.6v-3.6c0-3,0.1-5.9-0.5-8.8C103.3,94.3,101,89.4,98,85.3C97,84,99,86.7,98,85.3z"/>
<path d="M72.4,71.4c7.2,0,13.9-4.6,16.4-11.4c2.6-6.9,0.4-14.5-5.1-19.3c-5.4-4.7-13.8-5.5-20-1.8c-6.4,3.8-9.6,11.2-8.2,18.5
	C56.9,65.5,64.3,71.4,72.4,71.4z"/>
<path d="M121.1,84.9c-3.4-8.9-10.8-18.7-21.3-18.7h-4.6c-0.7,0-1.3,0-2,0c-0.7,0-1.8-0.2-2.4,0c-0.5,0.2-0.8,0.8-1.1,1.2
	c-0.5,0.6-1,1.2-1.5,1.7c-1.3,1.3-2.7,2.5-4.3,3.4H84c7,0,13.2,4.3,17.3,9.7c4.3,5.5,7.3,12.8,7.6,19.8h7.1h7.1v-3.6
	C123,93.7,122.8,89.3,121.1,84.9C120.5,83.2,121.8,86.6,121.1,84.9z"/>
<path d="M94.4,54.1c0,2.5-0.4,5-1.3,7.4c9.3-1.2,15.9-10.1,14.9-19.3c-1-9-9.1-15.5-18.1-15.2c-5,0.2-9.5,2.5-12.7,6.3
	c4.9,0.9,9.3,3.6,12.5,7.4C92.8,44.5,94.4,49.2,94.4,54.1z"/>
<polygon points="46.2,75.3 36.6,84.9 27,94.5 33.9,94.5 40.8,94.5 40.8,108.6 40.8,122.8 46.2,122.8 51.6,122.8 51.6,108.6 
	51.6,94.5 58.5,94.5 65.4,94.5 55.8,84.9 "/>
</svg>
