<?xml version="1.0" encoding="utf-8"?>
<!-- Generator: Adobe Illustrator 19.1.0, SVG Export Plug-In . SVG Version: 6.00 Build 0)  -->
<!DOCTYPE svg PUBLIC "-//W3C//DTD SVG 1.1//EN" "http://www.w3.org/Graphics/SVG/1.1/DTD/svg11.dtd">
<svg version="1.1" id="Layer_2" xmlns="http://www.w3.org/2000/svg" xmlns:xlink="http://www.w3.org/1999/xlink" x="0px" y="0px"
	 width="150px" height="150px" viewBox="0 0 150 150" enable-background="new 0 0 150 150" xml:space="preserve">
<path d="M71,95v14v14H51H31v-14V95h2.8h2.8c0,0,0-0.3,0-1.6c0-1.3,0-3.8,0-8.1v0v0c0-4.1,1.6-7.8,4.2-10.5c2.6-2.7,6.2-4.3,10.2-4.3
	s7.6,1.7,10.2,4.3c2.6,2.7,4.2,6.4,4.2,10.5v0v0.1v4.8V95l2.8,0L71,95z M58.7,84.3L58.7,84.3L58.7,84.3c0-2.2-0.9-4.2-2.2-5.6
	c-1.4-1.4-3.3-2.3-5.4-2.3c-2.1,0-4,0.9-5.4,2.3s-2.2,3.4-2.2,5.6v0v0v5.3V95H51h7.7v-5.3V84.3z M47.7,116.7H51h3.3
	c0.2,0,0.4-0.1,0.5-0.2c0.1-0.1,0.1-0.3,0.1-0.5l-1.4-3.4l-1.4-3.4c0.9-0.3,1.6-0.8,2.1-1.4s0.8-1.5,0.8-2.4c0-1.3-0.6-2.4-1.5-3.1
	c-0.9-0.7-2.1-1.1-3.4-0.8c-0.8,0.2-1.5,0.6-2,1.1c-0.5,0.6-0.9,1.3-1.1,2.1c-0.2,1.1,0,2.1,0.6,2.9c0.5,0.8,1.3,1.4,2.3,1.7
	l-1.4,3.4l-1.4,3.4c-0.1,0.2,0,0.4,0.1,0.5C47.3,116.6,47.5,116.7,47.7,116.7z"/>
<path d="M75,123h22h22V87V51l-12-12L95,27H71H47v20v20c0,0,0.5-0.1,1.2-0.3s1.7-0.3,2.8-0.3s2.1,0.1,2.8,0.3S55,67,55,67V51V35h18
	h18v10v10h10h10v30v30H93H75v4V123z"/>
</svg>
