<?xml version="1.0" encoding="utf-8"?>
<!-- Generator: Adobe Illustrator 19.1.0, SVG Export Plug-In . SVG Version: 6.00 Build 0)  -->
<!DOCTYPE svg PUBLIC "-//W3C//DTD SVG 1.1//EN" "http://www.w3.org/Graphics/SVG/1.1/DTD/svg11.dtd">
<svg version="1.1" id="Layer_2" xmlns="http://www.w3.org/2000/svg" xmlns:xlink="http://www.w3.org/1999/xlink" x="0px" y="0px"
	 width="150px" height="150px" viewBox="0 0 150 150" enable-background="new 0 0 150 150" xml:space="preserve">
<polygon points="27,55 37,55 47,55 47,59 47,63 41,63 35,63 35,89 35,115 63,115 91,115 91,107 91,99 95,99 99,99 99,111 99,123 
	63,123 27,123 "/>
<polygon points="67.1,91.2 91.1,91.2 115,91.2 115,63.1 115,35 85,35 55,35 55,57 55,79 51,83.1 47,87.1 47,57.1 47,27 85,27 
	123,27 123,63 123,99 91,99 59,99 63.1,95.1 "/>
<polygon points="59.2,67.2 69.1,67.2 79,67.2 79,77.1 79,87.1 75.5,83.5 71.9,80 58.4,93.5 44.9,107 42.1,104.2 39.2,101.4 
	52.8,87.8 66.3,74.3 62.7,70.8 "/>
<polygon points="63,43 85,43 107,43 107,45.1 107,47.2 85,47.2 63,47.2 63,45.1 "/>
<polygon points="63,55 85,55 107,55 107,57 107,59 85,59 63,59 63,57 "/>
<polygon points="86.9,67 96.9,67 107,67 107,69 107,71 96.9,71 86.9,71 86.9,69 "/>
<polygon points="87,79 97,79 107,79 107,81 107,83 97,83 87,83 87,81 "/>
</svg>
