<?xml version="1.0" encoding="utf-8"?>
<!-- Generator: Adobe Illustrator 19.1.0, SVG Export Plug-In . SVG Version: 6.00 Build 0)  -->
<!DOCTYPE svg PUBLIC "-//W3C//DTD SVG 1.1//EN" "http://www.w3.org/Graphics/SVG/1.1/DTD/svg11.dtd">
<svg version="1.1" id="Layer_2" xmlns="http://www.w3.org/2000/svg" xmlns:xlink="http://www.w3.org/1999/xlink" x="0px" y="0px"
	 width="150px" height="150px" viewBox="0 0 150 150" enable-background="new 0 0 150 150" xml:space="preserve">
<path d="M35,27v48v48h16h16v-16V91h8h8v16v16h16h16V75V27H75H35z M59,110.2h-8h-8v-9.6V91h8h8v9.6V110.2z M59,83h-8h-8V73V63h8h8v10
	V83z M59,55h-8h-8v-9.9v-9.9h8h8v9.9V55z M83,83h-8h-8V73V63h8h8v10V83z M83,55h-8h-8v-9.7v-9.7h8h8v9.7V55z M107,111h-8h-8v-10V91
	h8h8v10V111z M107,83h-8h-8V73V63h8h8v10V83z M107,55h-8h-8v-9.8v-9.8h8h8v9.8V55z"/>
</svg>
