<?xml version="1.0" encoding="utf-8"?>
<!-- Generator: Adobe Illustrator 19.1.0, SVG Export Plug-In . SVG Version: 6.00 Build 0)  -->
<!DOCTYPE svg PUBLIC "-//W3C//DTD SVG 1.1//EN" "http://www.w3.org/Graphics/SVG/1.1/DTD/svg11.dtd">
<svg version="1.1" id="Layer_2" xmlns="http://www.w3.org/2000/svg" xmlns:xlink="http://www.w3.org/1999/xlink" x="0px" y="0px"
	 width="150px" height="150px" viewBox="0 0 150 150" enable-background="new 0 0 150 150" xml:space="preserve">
<path d="M79,72.1V59.5V47h-4h-4v12.5v12.5c-1.2,0.7-2.2,1.7-2.9,2.9C67.4,76.1,67,77.5,67,79c0,2.2,0.9,4.2,2.3,5.7S72.8,87,75,87
	c2.2,0,4.2-0.9,5.7-2.3S83,81.2,83,79c0-1.5-0.4-2.9-1.1-4.1C81.2,73.8,80.2,72.8,79,72.1z"/>
<path d="M75,27c-13.2,0-25.2,5.4-33.9,14.1C32.4,49.8,27,61.8,27,75s5.4,25.2,14.1,33.9C49.8,117.6,61.8,123,75,123
	s25.2-5.4,33.9-14.1c8.7-8.7,14.1-20.7,14.1-33.9s-5.4-25.2-14.1-33.9C100.2,32.4,88.2,27,75,27z M75,115
	c-10.4,0-19.8-3.9-26.9-10.4C41,98.1,36.2,89.1,35.2,79h5.9H47v-4v-4h-5.9h-5.9c0.5-4.7,1.7-9.2,3.7-13.2c1.9-4.1,4.6-7.8,7.7-10.9
	l4.3,4.3l4.3,4.3l2.8-2.8l2.8-2.8l-4-4l-4-4c3.2-2.1,6.7-3.8,10.4-4.9S70.9,35,75,35c4.1,0,8.1,0.6,11.8,1.8c3.7,1.2,7.2,2.9,10.4,5
	l-4,4l-4,4l2.8,2.8l2.8,2.8l4.3-4.3l4.3-4.3c3.1,3.2,5.7,6.9,7.7,10.9c1.9,4.1,3.2,8.5,3.7,13.2h-5.9H103v4v4h5.9h5.9
	c-1,10.1-5.8,19.1-12.9,25.6C94.8,111.1,85.4,115,75,115z"/>
</svg>
