<?xml version="1.0" encoding="utf-8"?>
<!-- Generator: Adobe Illustrator 19.1.0, SVG Export Plug-In . SVG Version: 6.00 Build 0)  -->
<!DOCTYPE svg PUBLIC "-//W3C//DTD SVG 1.1//EN" "http://www.w3.org/Graphics/SVG/1.1/DTD/svg11.dtd">
<svg version="1.1" id="Layer_2" xmlns="http://www.w3.org/2000/svg" xmlns:xlink="http://www.w3.org/1999/xlink" x="0px" y="0px"
	 width="150px" height="150px" viewBox="0 0 150 150" enable-background="new 0 0 150 150" xml:space="preserve">
<path d="M115.8,80.9c-0.3,4.6-1.6,10.2-4.7,15.4c-3,5.3-7.8,10.3-15,13.5h-2.2h-2.2H73.9H56.2h-1.1h-1.1c-7.3-3.3-12-8.3-15.1-13.5
	c-3-5.3-4.3-10.9-4.6-15.5c0-0.6,0-1.2,0-1.7c0-0.4,0-0.7,0-0.7H75h40.8c0,0,0,0.3,0,0.7C115.8,79.7,115.8,80.3,115.8,80.9z"/>
<path d="M95.2,115.3H75H54.8v2.9v2.9c0,0.5,0,1,0,1.4s0,0.6,0,0.6H75h20.2c0,0,0-0.2,0-0.6s0-0.8,0-1.4v-2.9V115.3z"/>
<path d="M58.9,70.8c0,0,0.2-0.2,0.4-0.4c0.2-0.2,0.5-0.5,0.7-0.8c2.1-2.9,4.1-6.5,4.4-10.5s-1-8.3-5.4-12.9c-3-3.2-4.3-5.7-4.4-8.1
	c0-2.4,1.2-4.6,3.2-7.1c0.2-0.2,0.3-0.4,0.5-0.6c0.1-0.2,0.2-0.3,0.2-0.3l-2.5-1.6L53.7,27c0,0-0.2,0.2-0.5,0.4s-0.6,0.5-0.8,0.8
	c-2.1,2.9-3.9,6-3.9,9.6c0,3.6,1.6,7.8,6.3,12.9c2.9,3.1,3.7,6.2,3.3,9c-0.3,2.8-1.8,5.2-3.3,7.1c-0.6,0.7-0.8,1.1-0.8,1.2
	c0,0.2,0.1,0.1,0.1,0.1l2.3,1.3L58.9,70.8z"/>
<path d="M76.5,70.8c0,0,0.2-0.2,0.4-0.4c0.2-0.2,0.5-0.5,0.7-0.8c2.1-2.9,4.1-6.5,4.4-10.5s-1-8.3-5.4-12.9c-3-3.2-4.3-5.7-4.4-8.1
	c0-2.4,1.2-4.6,3.2-7.1c0.2-0.2,0.3-0.4,0.5-0.6c0.1-0.2,0.2-0.3,0.2-0.3l-2.5-1.6L71.3,27c0,0-0.2,0.2-0.5,0.4s-0.6,0.5-0.8,0.8
	c-2.1,2.9-3.9,6-3.9,9.6c0,3.6,1.6,7.8,6.3,12.9c2.9,3.1,3.7,6.2,3.3,9c-0.3,2.8-1.8,5.2-3.3,7.1c-0.6,0.7-0.8,1.1-0.8,1.2
	c0,0.2,0.1,0.1,0.1,0.1l2.3,1.3L76.5,70.8z"/>
<path d="M93.2,70.8c0,0,0.2-0.2,0.4-0.4c0.2-0.2,0.5-0.5,0.7-0.8c2.1-2.9,4.1-6.5,4.4-10.5s-1-8.3-5.4-12.9c-3-3.2-4.3-5.7-4.4-8.1
	c0-2.4,1.2-4.6,3.2-7.1c0.2-0.2,0.3-0.4,0.5-0.6c0.1-0.2,0.2-0.3,0.2-0.3l-2.5-1.6L88,27c0,0-0.2,0.2-0.5,0.4
	c-0.3,0.2-0.6,0.5-0.8,0.8c-2.1,2.9-3.9,6-3.9,9.6c0,3.6,1.6,7.8,6.3,12.9c2.9,3.1,3.7,6.2,3.3,9c-0.3,2.8-1.8,5.2-3.3,7.1
	c-0.6,0.7-0.8,1.1-0.8,1.2c0,0.2,0.1,0.1,0.1,0.1l2.3,1.3L93.2,70.8z"/>
</svg>
