<?xml version="1.0" encoding="utf-8"?>
<!-- Generator: Adobe Illustrator 19.1.0, SVG Export Plug-In . SVG Version: 6.00 Build 0)  -->
<!DOCTYPE svg PUBLIC "-//W3C//DTD SVG 1.1//EN" "http://www.w3.org/Graphics/SVG/1.1/DTD/svg11.dtd">
<svg version="1.1" id="Layer_2" xmlns="http://www.w3.org/2000/svg" xmlns:xlink="http://www.w3.org/1999/xlink" x="0px" y="0px"
	 width="150px" height="150px" viewBox="0 0 150 150" enable-background="new 0 0 150 150" xml:space="preserve">
<polygon points="107,108.5 107,93.7 107,78.9 115,78.9 123,78.9 123,101 123,123 75,123 27,123 27,101 27,78.9 35,78.9 43,78.9 
	43,93.7 43,108.5 75,108.5 "/>
<polygon points="49,66 62,79 75,92 88,79 101,66 92,66 83,66 83,46.5 83,27 75,27 67,27 67,46.5 67,66 58,66 "/>
</svg>
