<?xml version="1.0" encoding="utf-8"?>
<!-- Generator: Adobe Illustrator 19.1.0, SVG Export Plug-In . SVG Version: 6.00 Build 0)  -->
<!DOCTYPE svg PUBLIC "-//W3C//DTD SVG 1.1//EN" "http://www.w3.org/Graphics/SVG/1.1/DTD/svg11.dtd">
<svg version="1.1" id="Layer_2" xmlns="http://www.w3.org/2000/svg" xmlns:xlink="http://www.w3.org/1999/xlink" x="0px" y="0px"
	 width="150px" height="150px" viewBox="0 0 150 150" enable-background="new 0 0 150 150" xml:space="preserve">
<path d="M74.1,47.1c0.2,0,0.4-0.1,0.6-0.1c0.2,0,0.4,0,0.6,0.1l23.9,9.1l23.9,9.1l-23.9,9.2l-23.9,9.2c-0.2,0-0.4,0.1-0.6,0.1
	c-0.2,0-0.4,0-0.6-0.1l-23.6-9.1L27,65.4l23.6-9.2L74.1,47.1z M75.3,86.7L87.4,82l12.1-4.7v7v7c0,2.5-2.8,4.7-7.3,6.3
	c-4.5,1.6-10.7,2.5-17.5,2.5c-6.9,0-13.1-1-17.6-2.6s-7.3-3.8-7.3-6.3v-7v-7L62,82l12.1,4.7c0.2,0.1,0.4,0.1,0.6,0.1
	C74.9,86.9,75.1,86.8,75.3,86.7z M105.9,105.5V90.3V75.1l3.1-1.2l3.1-1.2v15.2v15.2c0,0-0.1,0-0.3,0.1c-0.2,0.1-0.4,0.2-0.8,0.3
	l-1.5,0.6l-1.5,0.6c-0.5,0.1-1.1,0.4-1.5,0.5S105.9,105.5,105.9,105.5z"/>
</svg>
