<?xml version="1.0" encoding="utf-8"?>
<!-- Generator: Adobe Illustrator 19.1.0, SVG Export Plug-In . SVG Version: 6.00 Build 0)  -->
<!DOCTYPE svg PUBLIC "-//W3C//DTD SVG 1.1//EN" "http://www.w3.org/Graphics/SVG/1.1/DTD/svg11.dtd">
<svg version="1.1" id="Layer_2" xmlns="http://www.w3.org/2000/svg" xmlns:xlink="http://www.w3.org/1999/xlink" x="0px" y="0px"
	 width="150px" height="150px" viewBox="0 0 150 150" enable-background="new 0 0 150 150" xml:space="preserve">
<polygon points="85.5,27 104.2,27 123,27 123,45.8 123,64.5 116.3,57.8 109.5,51.1 99,61.7 88.4,72.2 83.1,66.9 77.8,61.6 88.3,51 
	98.9,40.5 92.2,33.7 "/>
<polygon points="64.5,27 45.8,27 27,27 27,45.8 27,64.5 33.7,57.8 40.5,51.1 51,61.7 61.6,72.2 66.9,66.9 72.3,61.6 61.7,51 
	51.1,40.5 57.8,33.7 "/>
<polygon points="85.5,123 104.2,123 123,123 123,104.2 123,85.5 116.3,92.2 109.5,98.9 99,88.3 88.4,77.8 83.1,83.1 77.8,88.4 
	88.3,99 98.9,109.5 92.2,116.3 "/>
<polygon points="64.5,123 45.8,123 27,123 27,104.2 27,85.5 33.7,92.2 40.5,98.9 51,88.3 61.6,77.8 66.9,83.1 72.2,88.4 61.7,99 
	51.1,109.5 57.8,116.3 "/>
</svg>
