<?xml version="1.0" encoding="utf-8"?>
<!-- Generator: Adobe Illustrator 19.1.0, SVG Export Plug-In . SVG Version: 6.00 Build 0)  -->
<!DOCTYPE svg PUBLIC "-//W3C//DTD SVG 1.1//EN" "http://www.w3.org/Graphics/SVG/1.1/DTD/svg11.dtd">
<svg version="1.1" id="Layer_2" xmlns="http://www.w3.org/2000/svg" xmlns:xlink="http://www.w3.org/1999/xlink" x="0px" y="0px"
	 width="150px" height="150px" viewBox="0 0 150 150" enable-background="new 0 0 150 150" xml:space="preserve">
<path fill="#231F20" d="M75,27c-13.3,0-25.3,5.4-33.9,14.1C32.4,49.7,27,61.7,27,75s5.4,25.3,14.1,33.9C49.7,117.6,61.7,123,75,123
	s25.3-5.4,33.9-14.1c8.7-8.7,14.1-20.7,14.1-33.9s-5.4-25.3-14.1-33.9C100.3,32.4,88.3,27,75,27z M92.9,37.5c-0.3-0.1-0.6-0.2-1-0.3
	c-0.3-0.1-0.6-0.2-0.9-0.3l-0.1-0.2l-0.1-0.2c0.3,0.1,0.7,0.3,1,0.5C92.2,37.2,92.6,37.3,92.9,37.5z M103.6,48.5
	c0,0.8-0.1,1.7-0.2,2.5c-0.1,0.8-0.3,1.7-0.5,2.5c-1.9-1.6-3.8-3-5.8-4.3c-2-1.3-3.9-2.4-5.9-3.5c0.1-0.3,0.2-0.7,0.3-1
	c0.1-0.3,0.2-0.7,0.3-1c1.9,0.6,3.9,1.3,5.8,2S101.6,47.5,103.6,48.5z M87.9,51.2c0.2,0.1,0.5,0.2,0.7,0.3s0.5,0.2,0.7,0.4
	c2.1,1.1,4,2.3,5.8,3.6c1.8,1.3,3.5,2.6,5,4c-0.7,1.2-1.6,2.3-2.5,3.5c-0.9,1.1-2,2.2-3.1,3.3c-1.5-2.3-3-4.4-4.6-6.5
	s-3.2-4-4.8-5.7c0.5-0.5,1-0.9,1.5-1.4C87,52.1,87.5,51.6,87.9,51.2z M89.4,70.2c-1.6,1.1-3.3,2.1-5.2,3s-3.8,1.7-5.8,2.4
	c-0.8-2.9-1.6-5.7-2.3-8.2c-0.7-2.6-1.4-5-2-7.2c1-0.4,2-0.8,2.9-1.2c0.9-0.4,1.8-0.9,2.7-1.4c1.7,1.8,3.3,3.8,5,5.9
	C86.4,65.6,87.9,67.8,89.4,70.2z M81.6,36.3c1,0.5,1.9,1.1,2.6,1.7s1.1,1.4,1.4,2.2c0.1,0.4,0.2,0.9,0.1,1.4c0,0.5-0.1,1-0.3,1.5
	c-2.2-0.9-4.3-1.7-6.2-2.3c-2-0.7-3.8-1.2-5.5-1.6c1.3-0.6,2.6-1.1,4-1.5S80.3,36.7,81.6,36.3z M81.8,48.4c-1.1,1.1-2.5,2.1-4.1,3.1
	c-1.6,1-3.4,1.8-5.3,2.6c-0.5-1.8-1-3.5-1.4-5.1c-0.4-1.6-0.9-3-1.2-4.3c1.6,0.3,3.4,0.8,5.4,1.4C77.2,46.7,79.4,47.4,81.8,48.4z
	 M72.4,77.4c-2.1,0.5-4.2,0.8-6.2,1c-2,0.2-4,0.2-6,0.2c0-2.8,0.2-5.5,0.5-8.2c0.3-2.6,0.7-5.2,1.1-7.6c1,0,2-0.1,3.1-0.3
	s2.1-0.3,3.1-0.5l2.2,7.7L72.4,77.4z M63.5,46.4c0.1,0.2,0.1,0.5,0.2,0.7c0.1,0.2,0.1,0.5,0.2,0.8l1.1,3.9l1.1,3.9
	c-1,0.2-2.1,0.4-3.1,0.5c-1,0.1-2,0.2-3,0.2c-0.9,0-1.7,0-2.5-0.1c-0.8-0.1-1.6-0.2-2.3-0.4c1.5-2,3-3.8,4.4-5.4
	C61.1,48.9,62.4,47.5,63.5,46.4z M55.4,62.4c-0.4,2.4-0.8,4.9-1.1,7.4s-0.5,5.2-0.5,7.9c-1.5-0.3-3-0.7-4.4-1.1
	c-1.4-0.5-2.7-1-4-1.6c0.6-2,1.3-4,2.2-6.1c0.9-2,1.9-4.1,3.1-6.1c0.1-0.2,0.3-0.4,0.4-0.7c0.1-0.2,0.3-0.4,0.4-0.7
	c0.6,0.2,1.2,0.4,1.9,0.5C54,62.2,54.7,62.3,55.4,62.4z M49.1,45.5c1.2-0.3,2.6-0.7,4-1c1.4-0.3,2.8-0.6,4.2-0.8
	c-1.2,1.2-2.5,2.7-3.8,4.3c-1.3,1.6-2.7,3.4-4.1,5.3c-0.4-0.4-0.7-0.7-1-1.1c-0.3-0.4-0.5-0.8-0.6-1.3c-0.2-0.8-0.2-1.7,0-2.6
	S48.4,46.5,49.1,45.5z M41.3,50.7l0,0.2l0,0.2c-0.2,0.2-0.4,0.4-0.6,0.7c-0.2,0.2-0.4,0.5-0.6,0.7c0.2-0.3,0.4-0.6,0.6-0.9
	C40.9,51.3,41.1,51,41.3,50.7z M37.5,90.7l-0.7-0.6L36,89.6c-0.2-0.5-0.4-1.1-0.6-1.6s-0.3-1.1-0.5-1.6c-0.6-2.1-1-4.3-1.3-6.4
	c-0.3-2.1-0.3-4.2-0.3-6.3c0.7,0.8,1.5,1.6,2.3,2.3c0.8,0.7,1.7,1.4,2.6,2.1c-0.4,2-0.7,4.1-0.8,6.2S37.3,88.5,37.5,90.7z M40,71.4
	c-0.6-0.6-1.2-1.2-1.8-1.8s-1-1.3-1.5-2c1.2-1.9,2.4-3.7,3.7-5.5c1.3-1.7,2.6-3.3,3.9-4.8c0.2,0.2,0.5,0.5,0.7,0.7s0.5,0.5,0.8,0.7
	c-1.1,1.9-2.2,3.9-3.2,6.1C41.7,66.9,40.8,69.1,40,71.4z M44.1,81.3c1.5,0.7,3.1,1.2,4.7,1.7s3.3,0.9,5.1,1.2
	c0.1,2.4,0.4,4.9,0.8,7.4c0.4,2.5,0.9,4.9,1.6,7.4c-2.1-0.3-4.1-0.8-6.1-1.4s-3.8-1.3-5.6-2.2c-0.5-2.3-0.8-4.6-0.9-7
	C43.6,86,43.8,83.7,44.1,81.3z M49.5,107.8c-0.4-0.8-0.8-1.5-1.2-2.3c-0.4-0.8-0.7-1.5-1.1-2.3c1.8,0.6,3.6,1.1,5.5,1.5
	c1.9,0.4,3.8,0.7,5.8,0.9c0.6,1.6,1.3,3.1,2.1,4.6c0.8,1.5,1.6,3,2.6,4.5c-2.5-0.7-4.9-1.7-7.2-2.9
	C53.7,110.8,51.5,109.4,49.5,107.8z M63.1,99.7c-0.8-2.5-1.4-4.9-1.9-7.4s-0.8-4.9-0.9-7.4c0.3,0,0.6,0,0.8,0s0.6,0,0.8,0
	c2,0,3.9-0.1,6-0.3c2-0.2,4.1-0.6,6.1-1l2.1,7.3l2.1,7.3c-2.6,0.6-5.1,1-7.6,1.3C68.1,99.7,65.6,99.7,63.1,99.7z M75,116.6
	c-0.5,0-1,0-1.4,0s-0.9-0.1-1.4-0.1c-1.3-1.7-2.5-3.4-3.6-5.1s-2-3.5-2.9-5.3c2.3,0,4.7-0.2,7.1-0.5s4.8-0.7,7.2-1.3l1.6,5.7
	l1.6,5.7c-1.4,0.3-2.8,0.5-4.1,0.6C77.8,116.5,76.4,116.6,75,116.6z M80.2,81.8c2.3-0.8,4.5-1.7,6.5-2.7c2.1-1,4-2.1,5.9-3.4
	c1.1,2.2,2.2,4.4,3.1,6.8c0.9,2.3,1.7,4.8,2.3,7.3c-2,1.4-4.2,2.6-6.5,3.7c-2.3,1.1-4.7,2.1-7.2,3c-0.8-2.6-1.5-5.2-2.2-7.6
	C81.5,86.3,80.9,84,80.2,81.8z M99.3,108.8c-1.5,1.1-3.1,2.1-4.7,2.9c-1.6,0.9-3.4,1.6-5.1,2.3c-0.6-2-1.1-4-1.7-5.9
	s-1.1-3.8-1.6-5.6c2.3-0.8,4.6-1.7,6.8-2.7s4.3-2.1,6.3-3.3c0.2,2,0.4,4,0.4,6C99.6,104.6,99.5,106.6,99.3,108.8z M97.8,71.7
	c1.3-1.2,2.6-2.4,3.7-3.7c1.1-1.3,2.2-2.6,3.1-4c1.5,1.8,2.9,3.8,4,5.8c1.2,2,2.1,4.2,2.9,6.4c-1,1.7-2.2,3.3-3.6,4.8
	c-1.3,1.5-2.8,3-4.4,4.4c-0.7-2.5-1.6-4.9-2.5-7.2C100,76.1,99,73.9,97.8,71.7z M111.3,95.2c-0.8,1.4-1.6,2.7-2.5,3.9
	c-0.9,1.2-1.8,2.4-2.8,3.6c0-1.8-0.1-3.5-0.2-5.2s-0.4-3.4-0.6-5c1.6-1.2,3.1-2.5,4.4-3.9s2.7-2.7,3.9-4.2c0.1,0.8,0.2,1.7,0.3,2.5
	c0.1,0.8,0.1,1.7,0.2,2.6c-0.4,1-0.8,2-1.2,2.9S111.9,94.3,111.3,95.2z M107.8,58.2c0.4-1,0.8-2.1,1.1-3.1s0.5-2.1,0.7-3.1
	c1.2,1.8,2.2,3.6,3.1,5.6c0.9,1.9,1.7,4,2.3,6.1c0.2,0.5,0.3,1.1,0.4,1.6c0.1,0.5,0.2,1.1,0.4,1.6l-0.3,0.9l-0.3,0.9
	c-1-2-2.1-3.8-3.4-5.5C110.5,61.4,109.2,59.8,107.8,58.2z"/>
</svg>
