<?xml version="1.0" encoding="utf-8"?>
<!-- Generator: Adobe Illustrator 19.1.0, SVG Export Plug-In . SVG Version: 6.00 Build 0)  -->
<!DOCTYPE svg PUBLIC "-//W3C//DTD SVG 1.1//EN" "http://www.w3.org/Graphics/SVG/1.1/DTD/svg11.dtd">
<svg version="1.1" id="Layer_2" xmlns="http://www.w3.org/2000/svg" xmlns:xlink="http://www.w3.org/1999/xlink" x="0px" y="0px"
	 width="150px" height="150px" viewBox="0 0 150 150" enable-background="new 0 0 150 150" xml:space="preserve">
<g>
	<path d="M86.7,57.8c-3.3-2.3-7.3-3.6-11.7-3.6c-3.6,0-7,0.9-9.9,2.5L52.3,44c0.4-1.3,0.6-2.6,0.6-4c0-7.2-5.8-13-13-13
		s-13,5.8-13,13c0,7.2,5.8,13,13,13c2.9,0,5.6-1,7.8-2.6l11.3,11.3c-3,3.6-4.8,8.2-4.8,13.3c0,4.3,1.3,8.3,3.6,11.7L46,98.5
		c-1.8-0.9-3.8-1.5-6-1.5c-7.2,0-13,5.8-13,13c0,7.2,5.8,13,13,13s13-5.8,13-13c0-2.2-0.5-4.2-1.5-6l11.9-11.9
		c3.3,2.3,7.3,3.6,11.7,3.6c5.1,0,9.7-1.8,13.3-4.8l11.3,11.3c-1.6,2.2-2.6,4.8-2.6,7.8c0,7.2,5.8,13,13,13c7.2,0,13-5.8,13-13
		c0-7.2-5.8-13-13-13c-1.4,0-2.7,0.2-4,0.6L93.3,84.9c1.6-2.9,2.5-6.3,2.5-9.9c0-4.3-1.3-8.3-3.6-11.7L104,51.5
		c1.8,0.9,3.8,1.5,6,1.5c7.2,0,13-5.8,13-13c0-7.2-5.8-13-13-13c-7.2,0-13,5.8-13,13c0,2.2,0.5,4.2,1.5,6L86.7,57.8z"/>
</g>
</svg>
