<?xml version="1.0" encoding="utf-8"?>
<!-- Generator: Adobe Illustrator 19.1.0, SVG Export Plug-In . SVG Version: 6.00 Build 0)  -->
<!DOCTYPE svg PUBLIC "-//W3C//DTD SVG 1.1//EN" "http://www.w3.org/Graphics/SVG/1.1/DTD/svg11.dtd">
<svg version="1.1" id="Layer_2" xmlns="http://www.w3.org/2000/svg" xmlns:xlink="http://www.w3.org/1999/xlink" x="0px" y="0px"
	 width="150px" height="150px" viewBox="0 0 150 150" enable-background="new 0 0 150 150" xml:space="preserve">
<path d="M27,123V75V27h48h48v36v36l-12,12l-12,12H63H27z M35,35v40v40h30h30v-10V95h10h10V65V35H75H35z"/>
<path d="M75.2,43c2.2,0,4.2,0.9,5.7,2.3c1.4,1.4,2.3,3.4,2.3,5.7s-0.9,4.2-2.3,5.7c-1.4,1.4-3.4,2.3-5.7,2.3c-2.2,0-4.2-0.9-5.7-2.3
	c-1.4-1.4-2.3-3.4-2.3-5.7s0.9-4.2,2.3-5.7C71,43.9,73,43,75.2,43z"/>
</svg>
