<?xml version="1.0" encoding="utf-8"?>
<!-- Generator: Adobe Illustrator 19.1.0, SVG Export Plug-In . SVG Version: 6.00 Build 0)  -->
<!DOCTYPE svg PUBLIC "-//W3C//DTD SVG 1.1//EN" "http://www.w3.org/Graphics/SVG/1.1/DTD/svg11.dtd">
<svg version="1.1" id="Layer_2" xmlns="http://www.w3.org/2000/svg" xmlns:xlink="http://www.w3.org/1999/xlink" x="0px" y="0px"
	 width="150px" height="150px" viewBox="0 0 150 150" enable-background="new 0 0 150 150" xml:space="preserve">
<path d="M35,67c2.2,0,4.2,0.9,5.7,2.3c1.4,1.4,2.3,3.4,2.3,5.7s-0.9,4.2-2.3,5.7C39.2,82.1,37.2,83,35,83s-4.2-0.9-5.7-2.3
	C27.9,79.2,27,77.2,27,75s0.9-4.2,2.3-5.7C30.8,67.9,32.8,67,35,67z"/>
<path d="M75,67c2.2,0,4.2,0.9,5.7,2.3c1.4,1.4,2.3,3.4,2.3,5.7s-0.9,4.2-2.3,5.7C79.2,82.1,77.2,83,75,83c-2.2,0-4.2-0.9-5.7-2.3
	C67.9,79.2,67,77.2,67,75s0.9-4.2,2.3-5.7C70.8,67.9,72.8,67,75,67z"/>
<path d="M115,67c2.2,0,4.2,0.9,5.7,2.3c1.4,1.4,2.3,3.4,2.3,5.7s-0.9,4.2-2.3,5.7c-1.4,1.4-3.4,2.3-5.7,2.3s-4.2-0.9-5.7-2.3
	c-1.4-1.4-2.3-3.4-2.3-5.7s0.9-4.2,2.3-5.7C110.8,67.9,112.8,67,115,67z"/>
</svg>
