<?xml version="1.0" encoding="utf-8"?>
<!-- Generator: Adobe Illustrator 19.1.0, SVG Export Plug-In . SVG Version: 6.00 Build 0)  -->
<!DOCTYPE svg PUBLIC "-//W3C//DTD SVG 1.1//EN" "http://www.w3.org/Graphics/SVG/1.1/DTD/svg11.dtd">
<svg version="1.1" id="Layer_2" xmlns="http://www.w3.org/2000/svg" xmlns:xlink="http://www.w3.org/1999/xlink" x="0px" y="0px"
	 width="150px" height="150px" viewBox="0 0 150 150" enable-background="new 0 0 150 150" xml:space="preserve">
<polygon points="80.5,55 57.8,55 35,55 35,85 35,115 64.9,115 94.9,115 94.9,92.2 95,69.5 99.4,65.1 103.8,60.7 103.8,91.8 
	103.8,123 65.4,123 27,123 27,84.6 27,46.2 58.2,46.2 89.3,46.2 84.9,50.6 "/>
<polygon points="85.5,27 104.2,27 123,27 123,45.8 123,64.5 116.2,57.8 109.5,51.1 88.9,71.7 68.3,92.3 63,87 57.7,81.7 78.3,61.1 
	98.9,40.5 92.2,33.8 "/>
</svg>
