<?xml version="1.0" encoding="utf-8"?>
<!-- Generator: Adobe Illustrator 19.1.0, SVG Export Plug-In . SVG Version: 6.00 Build 0)  -->
<!DOCTYPE svg PUBLIC "-//W3C//DTD SVG 1.1//EN" "http://www.w3.org/Graphics/SVG/1.1/DTD/svg11.dtd">
<svg version="1.1" id="Layer_2" xmlns="http://www.w3.org/2000/svg" xmlns:xlink="http://www.w3.org/1999/xlink" x="0px" y="0px"
	 width="150px" height="150px" viewBox="0 0 150 150" enable-background="new 0 0 150 150" xml:space="preserve">
<path d="M27,27v48v48h48h48V75V27H75H27z M119,119H75H31V75V31h44h44v44V119z"/>
<polygon points="79,39 95,39 111,39 111,59 111,79 95,79 79,79 79,59 "/>
<polygon points="39,39 55,39 71,39 71,43 71,47 55,47 39,47 39,43 "/>
<polygon points="39,55 55,55 71,55 71,59 71,63 55,63 39,63 39,59 "/>
<polygon points="39,71 55,71 71,71 71,75 71,79 55,79 39,79 39,75 "/>
<polygon points="39,87 55,87 71,87 71,91 71,95 55,95 39,95 39,91 "/>
<polygon points="39,103 55,103 71,103 71,107 71,111 55,111 39,111 39,107 "/>
<polygon points="79,87 95,87 111,87 111,91 111,95 95,95 79,95 79,91 "/>
<polygon points="79,103 95,103 111,103 111,107 111,111 95,111 79,111 79,107 "/>
</svg>
