<?xml version="1.0" encoding="utf-8"?>
<!-- Generator: Adobe Illustrator 19.1.0, SVG Export Plug-In . SVG Version: 6.00 Build 0)  -->
<!DOCTYPE svg PUBLIC "-//W3C//DTD SVG 1.1//EN" "http://www.w3.org/Graphics/SVG/1.1/DTD/svg11.dtd">
<svg version="1.1" id="Layer_2" xmlns="http://www.w3.org/2000/svg" xmlns:xlink="http://www.w3.org/1999/xlink" x="0px" y="0px"
	 width="150px" height="150px" viewBox="0 0 150 150" enable-background="new 0 0 150 150" xml:space="preserve">
<path d="M111,75l0-6l0-6H97H83v-8v-8h6h6L85,37l-10-10L65,37.1L55,47.1h6h6v7.9V63H47H27v24v24h6h6v6v6h42h42V99V75h-6H111z M33,105
	V87V69h36h36v3v3H72H39v15v15h-3H33z M117,107.3c-0.3-0.1-0.7-0.1-1-0.2c-0.3,0-0.7-0.1-1-0.1c-2.2,0-4.2,0.9-5.7,2.3
	c-1.4,1.4-2.3,3.4-2.3,5.7c0,0.3,0,0.7,0.1,1c0,0.3,0.1,0.7,0.2,1H81H54.7c0.1-0.3,0.1-0.6,0.2-1c0-0.3,0.1-0.7,0.1-1
	c0-2.2-0.9-4.2-2.3-5.7c-1.4-1.4-3.4-2.3-5.7-2.3c-0.3,0-0.7,0-1,0.1c-0.3,0-0.7,0.1-1,0.2V99v-8.3c0.3,0.1,0.6,0.1,1,0.2
	c0.3,0,0.7,0.1,1,0.1c2.2,0,4.2-0.9,5.7-2.3c1.4-1.4,2.3-3.4,2.3-5.7c0-0.3,0-0.7-0.1-1c0-0.3-0.1-0.7-0.2-1H81h26.3
	c-0.1,0.3-0.1,0.6-0.2,1s-0.1,0.7-0.1,1c0,2.2,0.9,4.2,2.3,5.7c1.4,1.4,3.4,2.3,5.7,2.3c0.3,0,0.7,0,1-0.1c0.3,0,0.7-0.1,1-0.2V99
	V107.3z"/>
<path d="M79,87c3.3,0,6.3,1.3,8.5,3.5c2.2,2.2,3.5,5.2,3.5,8.5s-1.3,6.3-3.5,8.5c-2.2,2.2-5.2,3.5-8.5,3.5s-6.3-1.3-8.5-3.5
	c-2.2-2.2-3.5-5.2-3.5-8.5s1.3-6.3,3.5-8.5C72.7,88.3,75.7,87,79,87z"/>
</svg>
