<?xml version="1.0" encoding="utf-8"?>
<!-- Generator: Adobe Illustrator 19.1.0, SVG Export Plug-In . SVG Version: 6.00 Build 0)  -->
<!DOCTYPE svg PUBLIC "-//W3C//DTD SVG 1.1//EN" "http://www.w3.org/Graphics/SVG/1.1/DTD/svg11.dtd">
<svg version="1.1" id="Layer_2" xmlns="http://www.w3.org/2000/svg" xmlns:xlink="http://www.w3.org/1999/xlink" x="0px" y="0px"
	 width="150px" height="150px" viewBox="0 0 150 150" enable-background="new 0 0 150 150" xml:space="preserve">
<path d="M111,79V65V51L99,39L87,27H63H39v26v26h-6h-6v22v22h48h48v-22V79h-6H111z M47,35h18h18v10v10h10h10v12v12H75H47V57V35z
	 M107,107c-1.7,0-3.2-0.7-4.2-1.8c-1.1-1.1-1.8-2.6-1.8-4.2s0.7-3.2,1.8-4.2c1.1-1.1,2.6-1.8,4.2-1.8s3.2,0.7,4.2,1.8
	c1.1,1.1,1.8,2.6,1.8,4.2s-0.7,3.2-1.8,4.2C110.2,106.3,108.7,107,107,107z"/>
</svg>
