<?xml version="1.0" encoding="utf-8"?>
<!-- Generator: Adobe Illustrator 19.1.0, SVG Export Plug-In . SVG Version: 6.00 Build 0)  -->
<!DOCTYPE svg PUBLIC "-//W3C//DTD SVG 1.1//EN" "http://www.w3.org/Graphics/SVG/1.1/DTD/svg11.dtd">
<svg version="1.1" id="Layer_2" xmlns="http://www.w3.org/2000/svg" xmlns:xlink="http://www.w3.org/1999/xlink" x="0px" y="0px"
	 width="150px" height="150px" viewBox="0 0 150 150" enable-background="new 0 0 150 150" xml:space="preserve">
<path d="M61.8,110.7H44.4H27V98.2V85.8c0-5.1,0.2-9.6,0.7-13.5s1.1-7.4,2-10.4c0.9-2.9,2.2-5.7,3.8-8.3c1.7-2.6,3.7-5.1,6.1-7.4
	c2.4-2.3,5.1-4.4,8.2-6.2c3.1-1.8,6.4-3.4,10.1-4.7l3.4,7.2l3.4,7.2c-3.4,1.2-6.4,2.5-8.9,4.1c-2.5,1.6-4.5,3.5-6,5.6
	c-1.5,2-2.7,4.4-3.4,7.2c-0.8,2.8-1.2,5.8-1.3,9.3h8.4h8.4v17.4v17.4H61.8L61.8,110.7z M120,110.7h-17.4H85.2V98.2V85.8
	c0-5.1,0.2-9.6,0.7-13.6c0.4-4,1.1-7.4,2-10.3c0.9-2.9,2.2-5.7,3.8-8.2c1.7-2.6,3.7-5,6.1-7.3s5.1-4.4,8.2-6.2
	c3-1.8,6.4-3.4,10.1-4.7l3.4,7.2l3.4,7.2c-3.4,1.1-6.4,2.5-8.9,4.1s-4.5,3.5-6,5.6c-1.5,2.1-2.6,4.4-3.4,7.2s-1.2,5.9-1.3,9.3h8.4
	h8.4v17.3v17.3H120L120,110.7z"/>
</svg>
