<?xml version="1.0" encoding="utf-8"?>
<!-- Generator: Adobe Illustrator 19.1.0, SVG Export Plug-In . SVG Version: 6.00 Build 0)  -->
<!DOCTYPE svg PUBLIC "-//W3C//DTD SVG 1.1//EN" "http://www.w3.org/Graphics/SVG/1.1/DTD/svg11.dtd">
<svg version="1.1" id="Layer_2" xmlns="http://www.w3.org/2000/svg" xmlns:xlink="http://www.w3.org/1999/xlink" x="0px" y="0px"
	 width="150px" height="150px" viewBox="0 0 150 150" enable-background="new 0 0 150 150" xml:space="preserve">
<polygon points="106.4,37.3 110,41 113.6,44.7 79.6,78.9 45.7,113.1 42.1,109.4 38.4,105.7 72.4,71.5 "/>
<path d="M64.9,54.1c0,2.8-1.1,5.3-2.9,7.2c-1.8,1.8-4.3,3-7.1,3s-5.3-1.2-7.2-3c-1.8-1.9-2.9-4.4-2.9-7.2s1.1-5.3,2.9-7.2
	c1.8-1.8,4.3-3,7.2-3s5.3,1.2,7.1,3S64.9,51.3,64.9,54.1z M54.9,34.7c-5.3,0-10.1,2.2-13.6,5.7c-3.5,3.5-5.6,8.4-5.6,13.7
	s2.2,10.2,5.6,13.7c3.5,3.5,8.3,5.7,13.6,5.7s10.1-2.2,13.6-5.7s5.6-8.4,5.6-13.7S72,43.9,68.5,40.4C65,36.9,60.2,34.7,54.9,34.7z"
	/>
<path d="M107.2,95.9c0,2.8-1.1,5.3-2.9,7.2s-4.4,3-7.1,3c-2.8,0-5.3-1.2-7.2-3S87,98.7,87,95.9c0-2.8,1.1-5.4,2.9-7.2s4.4-3,7.2-3
	c2.8,0,5.3,1.2,7.1,3C106.1,90.6,107.2,93.1,107.2,95.9z M97.1,76.5c-5.3,0-10.1,2.2-13.6,5.7s-5.6,8.4-5.6,13.7s2.1,10.2,5.6,13.7
	c3.5,3.5,8.3,5.7,13.6,5.7c5.3,0,10.1-2.2,13.6-5.7c3.5-3.5,5.6-8.4,5.6-13.7c0-5.4-2.2-10.2-5.6-13.7
	C107.2,78.7,102.4,76.5,97.1,76.5z"/>
</svg>
