<?xml version="1.0" encoding="utf-8"?>
<!-- Generator: Adobe Illustrator 19.1.0, SVG Export Plug-In . SVG Version: 6.00 Build 0)  -->
<!DOCTYPE svg PUBLIC "-//W3C//DTD SVG 1.1//EN" "http://www.w3.org/Graphics/SVG/1.1/DTD/svg11.dtd">
<svg version="1.1" id="Layer_2" xmlns="http://www.w3.org/2000/svg" xmlns:xlink="http://www.w3.org/1999/xlink" x="0px" y="0px"
	 width="150px" height="150px" viewBox="0 0 150 150" enable-background="new 0 0 150 150" xml:space="preserve">
<path d="M108.9,41c-4.3-4.3-9.5-7.9-15.3-10.3C88,28.3,81.6,27,75,27c-13.3,0-25.3,5.4-33.9,14.1C32.4,49.7,27,61.7,27,75
	s5.4,25.3,14.1,33.9C49.8,117.6,61.8,123,75,123s25.3-5.4,33.9-14.1c8.7-8.7,14.1-20.7,14.1-33.9h-6h-6c0,9.9-4,18.9-10.5,25.5
	C94,107,85,111,75,111c-9.9,0-18.9-4-25.5-10.5C43,93.9,39,84.9,39,75s4-18.9,10.5-25.5C56.1,43,65.1,39,75,39c5,0,9.7,1,14,2.8
	c4.3,1.8,8.2,4.5,11.4,7.7l-7.4,7.4l-7.4,7.4l18.7,0l18.7,0l0-18.7l0-18.7l-7,7L108.9,41z"/>
</svg>
