<?xml version="1.0" encoding="utf-8"?>
<!-- Generator: Adobe Illustrator 19.1.0, SVG Export Plug-In . SVG Version: 6.00 Build 0)  -->
<!DOCTYPE svg PUBLIC "-//W3C//DTD SVG 1.1//EN" "http://www.w3.org/Graphics/SVG/1.1/DTD/svg11.dtd">
<svg version="1.1" id="Layer_2" xmlns="http://www.w3.org/2000/svg" xmlns:xlink="http://www.w3.org/1999/xlink" x="0px" y="0px"
	 width="150px" height="150px" viewBox="0 0 150 150" enable-background="new 0 0 150 150" xml:space="preserve">
<polygon points="43,55 45,55 47,55 47,63 47,71 45,71 43,71 43,63 "/>
<polygon points="43,27 43,37 43,47 45,47 47,47 47,39 47,31 77,31 107,31 107,75 107,119 77,119 47,119 47,111 47,103 45,103 
	43,103 43,113 43,123 77,123 111,123 111,75 111,27 77,27 "/>
<polygon points="43,79 45,79 47,79 47,87 47,95 45,95 43,95 43,87 "/>
<polygon points="63,47 79,47 95,47 95,51 95,55 79,55 63,55 63,51 "/>
<polygon points="63,63 79,63 95,63 95,67 95,71 79,71 63,71 63,67 "/>
<polygon points="39,49 45,49 51,49 51,51 51,53 45,53 39,53 39,51 "/>
<polygon points="39,73 45,73 51,73 51,75 51,77 45,77 39,77 39,75 "/>
<polygon points="39,97 45,97 51,97 51,99 51,101 45,101 39,101 39,99 "/>
</svg>
