<?xml version="1.0" encoding="utf-8"?>
<!-- Generator: Adobe Illustrator 19.1.0, SVG Export Plug-In . SVG Version: 6.00 Build 0)  -->
<!DOCTYPE svg PUBLIC "-//W3C//DTD SVG 1.1//EN" "http://www.w3.org/Graphics/SVG/1.1/DTD/svg11.dtd">
<svg version="1.1" id="icon" xmlns="http://www.w3.org/2000/svg" xmlns:xlink="http://www.w3.org/1999/xlink" x="0px" y="0px"
	 width="150px" height="150px" viewBox="0 0 150 150" enable-background="new 0 0 150 150" xml:space="preserve">
<g>
	<path d="M123,112.1l-16.9-16.9L89.1,78.3c1.7-2.6,2.9-5.4,3.8-8.3s1.3-6.1,1.3-9.3c0-4.7-0.8-9-2.5-13c-1.6-4-4.1-7.6-7.5-10.9
		c-3.2-3.2-6.9-5.7-10.9-7.3c-4-1.6-8.3-2.4-13-2.4c-4.7,0-9,0.8-12.9,2.4s-7.5,4.1-10.8,7.3c-3.2,3.2-5.7,6.9-7.3,10.9
		s-2.4,8.3-2.4,13c0,4.6,0.8,8.9,2.5,12.8c1.6,4,4.1,7.6,7.5,10.8c3.1,3.3,6.7,5.8,10.7,7.5s8.2,2.5,12.8,2.5c3.3,0,6.5-0.4,9.5-1.3
		c3-0.8,5.8-2.1,8.4-3.8l16.9,16.9l16.9,16.9l5.4-5.4L123,112.1z M34.7,60.6c0-7.2,2.9-13.6,7.6-18.3c4.7-4.7,11.2-7.6,18.3-7.6
		s13.6,2.9,18.3,7.6c4.7,4.7,7.6,11.2,7.6,18.3c0,7.2-2.9,13.6-7.6,18.3c-4.7,4.7-11.2,7.6-18.3,7.6c-7.2,0-13.6-2.9-18.3-7.6
		C37.6,74.2,34.7,67.8,34.7,60.6z"/>
</g>
</svg>
