<?xml version="1.0" encoding="utf-8"?>
<!-- Generator: Adobe Illustrator 19.1.0, SVG Export Plug-In . SVG Version: 6.00 Build 0)  -->
<!DOCTYPE svg PUBLIC "-//W3C//DTD SVG 1.1//EN" "http://www.w3.org/Graphics/SVG/1.1/DTD/svg11.dtd">
<svg version="1.1" id="icon" xmlns="http://www.w3.org/2000/svg" xmlns:xlink="http://www.w3.org/1999/xlink" x="0px" y="0px"
	 width="150px" height="150px" viewBox="0 0 150 150" enable-background="new 0 0 150 150" xml:space="preserve">
<g>
	<path d="M39,27v48v48h36h36V75V27H75H39z M63,115h-8h-8v-8v-8h8h8v8V115z M63,95h-8h-8v-8v-8h8h8v8V95z M63,75h-8h-8v-8v-8h8h8v8
		V75z M83,115h-8h-8v-8v-8h8h8v8V115z M83,95h-8h-8v-8v-8h8h8v8V95z M83,75h-8h-8v-8v-8h8h8v8V75z M103,115h-8h-8v-8v-8h8h8v8V115z
		 M103,95h-8h-8v-8v-8h8h8v8V95z M103,75h-8h-8v-8v-8h8h8v8V75z M103,51H75H47v-8v-8h28h28v8V51z"/>
</g>
</svg>
