<?xml version="1.0" encoding="utf-8"?>
<!-- Generator: Adobe Illustrator 19.1.0, SVG Export Plug-In . SVG Version: 6.00 Build 0)  -->
<!DOCTYPE svg PUBLIC "-//W3C//DTD SVG 1.1//EN" "http://www.w3.org/Graphics/SVG/1.1/DTD/svg11.dtd">
<svg version="1.1" id="icon" xmlns="http://www.w3.org/2000/svg" xmlns:xlink="http://www.w3.org/1999/xlink" x="0px" y="0px"
	 width="150px" height="150px" viewBox="0 0 150 150" enable-background="new 0 0 150 150" xml:space="preserve">
<g>
	<path d="M123,82.9v-8v-8h-4.4h-4.4c-0.5-2.6-1.3-5-2.3-7.4c-1-2.3-2.2-4.6-3.6-6.7l3.1-3.1l3.1-3.1l-5.7-5.7l-5.7-5.7l-3.1,3.1
		L97,41.6c-2.1-1.4-4.3-2.6-6.7-3.6c-2.4-1-4.8-1.7-7.4-2.2v-4.4V27h-8h-8v4.4v4.4c-2.6,0.5-5,1.3-7.4,2.3c-2.3,1-4.6,2.2-6.7,3.6
		l-3.1-3.1l-3.1-3.1L41,41.1l-5.7,5.7l3.1,3.1l3.1,3.1c-1.4,2.1-2.6,4.3-3.6,6.7c-1,2.4-1.7,4.8-2.2,7.4h-4.4H27v8v8h4.4h4.4
		c0.5,2.6,1.3,5,2.3,7.4c1,2.3,2.2,4.6,3.6,6.7l-3.1,3.1l-3.1,3.1l5.7,5.7l5.7,5.7l3.1-3.1l3.1-3.1c2.1,1.4,4.3,2.6,6.7,3.6
		c2.4,1,4.8,1.7,7.4,2.2v4.4v4.4h8h8v-4.4v-4.4c2.6-0.5,5-1.3,7.4-2.3c2.3-1,4.6-2.2,6.7-3.6l3.1,3.1l3.1,3.1l5.7-5.7l5.7-5.7
		l-3.1-3.1l-3.1-3.1c1.4-2.1,2.6-4.3,3.6-6.7c1-2.4,1.7-4.8,2.2-7.4h4.4L123,82.9L123,82.9L123,82.9z M75,99c-6.6,0-12.6-2.7-17-7
		c-4.3-4.3-7-10.3-7-17s2.7-12.6,7-17c4.3-4.3,10.3-7,17-7s12.6,2.7,17,7c4.3,4.3,7,10.3,7,17s-2.7,12.6-7,17
		C87.6,96.3,81.6,99,75,99z"/>
</g>
</svg>
