<?xml version="1.0" encoding="utf-8"?>
<!-- Generator: Adobe Illustrator 19.1.0, SVG Export Plug-In . SVG Version: 6.00 Build 0)  -->
<!DOCTYPE svg PUBLIC "-//W3C//DTD SVG 1.1//EN" "http://www.w3.org/Graphics/SVG/1.1/DTD/svg11.dtd">
<svg version="1.1" id="icon" xmlns="http://www.w3.org/2000/svg" xmlns:xlink="http://www.w3.org/1999/xlink" x="0px" y="0px"
	 width="150px" height="150px" viewBox="0 0 150 150" enable-background="new 0 0 150 150" xml:space="preserve">
<g>
	<polygon points="27.2,47.2 35.2,47.2 43.2,47.2 43.2,55.2 43.2,63.2 35.2,63.2 27.2,63.2 27.2,55.2 	"/>
	<polygon points="47,47.2 55,47.2 63,47.2 63,55.2 63,63.2 55,63.2 47,63.2 47,55.2 	"/>
	<polygon points="67,47.2 75,47.2 83,47.2 83,55.2 83,63.2 75,63.2 67,63.2 67,55.2 	"/>
	<polygon points="86.9,47.2 94.9,47.2 102.9,47.2 102.9,55.2 102.9,63.2 94.9,63.2 86.9,63.2 86.9,55.2 	"/>
	<polygon points="106.9,47.2 114.9,47.2 122.9,47.2 122.9,55.2 122.9,63.2 114.9,63.2 106.9,63.2 106.9,55.2 	"/>
	<polygon points="37.1,67.1 45.1,67.1 53.1,67.1 53.1,75.1 53.1,83.1 45.1,83.1 37.1,83.1 37.1,75.1 	"/>
	<polygon points="57,67.1 65,67.1 73,67.1 73,75.1 73,83.1 65,83.1 57,83.1 57,75.1 	"/>
	<polygon points="77,67.1 85,67.1 93,67.1 93,75.1 93,83.1 85,83.1 77,83.1 77,75.1 	"/>
	<polygon points="96.9,67.1 104.9,67.1 112.9,67.1 112.9,75.1 112.9,83.1 104.9,83.1 96.9,83.1 96.9,75.1 	"/>
	<polygon points="39.1,87 75,87 110.8,87 110.8,95 110.8,103 75,103 39.1,103 39.1,95 	"/>
</g>
</svg>
