<?xml version="1.0" encoding="utf-8"?>
<!-- Generator: Adobe Illustrator 19.1.0, SVG Export Plug-In . SVG Version: 6.00 Build 0)  -->
<!DOCTYPE svg PUBLIC "-//W3C//DTD SVG 1.1//EN" "http://www.w3.org/Graphics/SVG/1.1/DTD/svg11.dtd">
<svg version="1.1" id="icon" xmlns="http://www.w3.org/2000/svg" xmlns:xlink="http://www.w3.org/1999/xlink" x="0px" y="0px"
	 width="150px" height="150px" viewBox="0 0 150 150" enable-background="new 0 0 150 150" xml:space="preserve">
<g>
	<polygon points="127,55 112.9,41 98.9,27 84.9,41 71,55 81,55 91,55 91,87 91,119 99,119 107,119 107,87 107,55 117,55 	"/>
	<polygon points="23,95 37.1,109 51.1,123 65.1,109 79,95 69,95 59,95 59,63 59,31 51,31 43,31 43,63 43,95 33,95 	"/>
</g>
</svg>
