<?xml version="1.0" encoding="utf-8"?>
<!-- Generator: Adobe Illustrator 19.1.0, SVG Export Plug-In . SVG Version: 6.00 Build 0)  -->
<!DOCTYPE svg PUBLIC "-//W3C//DTD SVG 1.1//EN" "http://www.w3.org/Graphics/SVG/1.1/DTD/svg11.dtd">
<svg version="1.1" id="icon" xmlns="http://www.w3.org/2000/svg" xmlns:xlink="http://www.w3.org/1999/xlink" x="0px" y="0px"
	 width="150px" height="150px" viewBox="0 0 150 150" enable-background="new 0 0 150 150" xml:space="preserve">
<g>
	<path d="M115.3,39H75H34.7c-2.1,0-4.1,0.9-5.5,2.3c-1.4,1.4-2.3,3.3-2.3,5.4V75v28.3c0,2.1,0.9,4.1,2.3,5.4
		c1.4,1.4,3.3,2.3,5.5,2.3H75h40.3c2.1,0,4.1-0.9,5.5-2.3c1.4-1.4,2.3-3.3,2.3-5.4V75V46.7c0-2.1-0.9-4-2.3-5.4
		C119.4,39.9,117.4,39,115.3,39z M113.9,102.8H75H36.1V75V47.2H75h38.9V75V102.8z M118.2,76.9c-0.5,0-1-0.2-1.4-0.6
		c-0.3-0.3-0.6-0.8-0.6-1.4c0-0.5,0.2-1,0.6-1.4c0.3-0.3,0.8-0.6,1.4-0.6c0.5,0,1,0.2,1.4,0.6c0.3,0.3,0.6,0.8,0.6,1.4
		c0,0.5-0.2,1-0.6,1.4S118.7,76.9,118.2,76.9z"/>
</g>
</svg>
