<?xml version="1.0" encoding="utf-8"?>
<!-- Generator: Adobe Illustrator 19.1.0, SVG Export Plug-In . SVG Version: 6.00 Build 0)  -->
<!DOCTYPE svg PUBLIC "-//W3C//DTD SVG 1.1//EN" "http://www.w3.org/Graphics/SVG/1.1/DTD/svg11.dtd">
<svg version="1.1" id="icon" xmlns="http://www.w3.org/2000/svg" xmlns:xlink="http://www.w3.org/1999/xlink" x="0px" y="0px"
	 width="150px" height="150px" viewBox="0 0 150 150" enable-background="new 0 0 150 150" xml:space="preserve">
<g>
	<polygon points="55,23 41,37.1 27,51.1 41,65.1 55,79 55,69 55,59 87,59 119,59 119,51 119,43 87,43 55,43 55,33 	"/>
	<polygon points="95,127 109,112.9 123,98.9 109,84.9 95,71 95,81 95,91 63,91 31,91 31,99 31,107 63,107 95,107 95,117 	"/>
</g>
</svg>
