<?xml version="1.0" encoding="utf-8"?>
<!-- Generator: Adobe Illustrator 19.1.0, SVG Export Plug-In . SVG Version: 6.00 Build 0)  -->
<!DOCTYPE svg PUBLIC "-//W3C//DTD SVG 1.1//EN" "http://www.w3.org/Graphics/SVG/1.1/DTD/svg11.dtd">
<svg version="1.1" id="icon" xmlns="http://www.w3.org/2000/svg" xmlns:xlink="http://www.w3.org/1999/xlink" x="0px" y="0px"
	 width="150px" height="150px" viewBox="0 0 150 150" enable-background="new 0 0 150 150" xml:space="preserve">
<g>
	<path d="M64,77.2h11h11c2,0,3.9,0.3,5.8,0.8c1.9,0.6,3.8,1.4,5.7,2.6s3.6,2.5,5.1,3.9s3,3.1,4.4,4.8c1.3,1.8,2.4,3.7,3.5,5.7
		c1.1,2,2,4.1,2.8,6.3c0.8,2.2,1.4,4.3,1.8,6.4c0.4,2.1,0.6,4.2,0.6,6.2v4.6v4.6H75H34.3v-4.6v-4.6c0-2.7,0.3-5.5,1-8.3
		c0.7-2.8,1.6-5.6,2.9-8.4c1.4-2.9,2.9-5.5,4.7-7.8c1.8-2.4,3.9-4.5,6.2-6.5c2.4-1.9,4.8-3.3,7.2-4.2C58.8,77.6,61.4,77.2,64,77.2z"
		/>
	<path d="M74,71.5c3.1,0,6-0.5,8.6-1.6c2.6-1.1,5-2.7,7.2-5c2.2-2.2,3.8-4.6,4.9-7.2s1.7-5.5,1.7-8.5c0-3.1-0.5-6-1.6-8.6
		c-1.1-2.6-2.7-5-5-7.2c-2.2-2.2-4.6-3.8-7.2-4.8C80,27.5,77.2,27,74,27c-3.1,0-6,0.5-8.6,1.6c-2.6,1.1-5,2.7-7.1,4.8
		c-2.2,2.2-3.8,4.6-4.8,7.2s-1.6,5.5-1.6,8.6c0,3.1,0.5,5.9,1.6,8.5c1.1,2.6,2.7,5,5,7.2c2.1,2.2,4.4,3.9,7,5
		C68.1,71,71,71.5,74,71.5z"/>
</g>
</svg>
