<?xml version="1.0" encoding="utf-8"?>
<!-- Generator: Adobe Illustrator 19.1.0, SVG Export Plug-In . SVG Version: 6.00 Build 0)  -->
<!DOCTYPE svg PUBLIC "-//W3C//DTD SVG 1.1//EN" "http://www.w3.org/Graphics/SVG/1.1/DTD/svg11.dtd">
<svg version="1.1" id="icon" xmlns="http://www.w3.org/2000/svg" xmlns:xlink="http://www.w3.org/1999/xlink" x="0px" y="0px"
	 width="150px" height="150px" viewBox="0 0 150 150" enable-background="new 0 0 150 150" xml:space="preserve">
<g>
	<polygon points="27,115 43,115 59,115 59,99 59,83 43,83 27,83 27,99 	"/>
	<polygon points="27,67 43,67 59,67 59,51 59,35 43,35 27,35 27,51 	"/>
	<polygon points="75,51 99,51 123,51 123,43 123,35 99,35 75,35 75,43 	"/>
	<polygon points="75,115 99,115 123,115 123,107 123,99 99,99 75,99 75,107 	"/>
	<polygon points="75,83 99,83 123,83 123,75 123,67 99,67 75,67 75,75 	"/>
</g>
</svg>
