<?xml version="1.0" encoding="utf-8"?>
<!-- Generator: Adobe Illustrator 19.1.0, SVG Export Plug-In . SVG Version: 6.00 Build 0)  -->
<!DOCTYPE svg PUBLIC "-//W3C//DTD SVG 1.1//EN" "http://www.w3.org/Graphics/SVG/1.1/DTD/svg11.dtd">
<svg version="1.1" id="icon" xmlns="http://www.w3.org/2000/svg" xmlns:xlink="http://www.w3.org/1999/xlink" x="0px" y="0px"
	 width="150px" height="150px" viewBox="0 0 150 150" enable-background="new 0 0 150 150" xml:space="preserve">
<g>
	<path d="M97.1,71.8c0-0.8,0.4-1.6,0.8-2.7s0.8-2.3,0.8-4c0-1.7-0.5-3.5-1.9-4.9c-1.4-1.4-3.7-2.4-7.2-2.4c-3.4,0-6.8,0.9-9.4,1.8
		c-2.6,0.9-4.6,1.8-5.2,1.8c-0.2,0-0.4,0-0.6-0.1s-0.4-0.3-0.4-0.7c0-0.3,0.3-0.8,0.5-1.9c0.3-1,0.5-2.5,0.5-4.8
		c0-2.4-0.8-4.1-2.2-5.3c-1.4-1.2-3.3-1.7-5.5-1.7c-7.8,0-17.7,6.3-25.6,14.5s-14,18.3-14,26.1c0,8.3,5.3,14.6,12.9,18.9
		c7.6,4.3,17.4,6.5,26.4,6.5c12.1,0,22.9-3.4,30.8-8.5c7.8-5.1,12.7-11.9,12.7-18.8c0-5.6-3.3-8.7-6.6-10.6
		C100.4,73.3,97.1,72.5,97.1,71.8z M63.3,107.7c-7.7,0-14.2-2.1-18.9-5.3s-7.3-7.6-7.3-12.1c0-4.6,3-9.7,8.4-13.6
		c5.4-4,13.1-6.8,22.6-6.8c6.4,0,13,1.6,17.9,4.5c4.9,3,8.3,7.3,8.3,12.9c0,5.6-3.9,10.7-9.7,14.4C78.7,105.5,71,107.7,63.3,107.7z"
		/>
	<path d="M106.1,67.2c0.6,0,1.5-0.1,2.2-0.9c0.7-0.8,1.3-2.2,1.3-4.9c0-4.6-1.9-7.7-4.5-9.6c-2.5-2-5.6-2.8-7.9-2.8
		c-1.7,0-2.9,0.4-3.7,1s-1.2,1.5-1.2,2.4c0,0.9,0.3,1.7,0.8,2.3c0.5,0.5,1.2,0.9,1.9,0.9c0.3,0,0.7-0.1,1.1-0.1s0.8-0.1,1.1-0.1
		c2.1,0,3.7,0.9,4.7,2.1c1,1.2,1.5,2.7,1.6,3.8c0,0.8-0.1,1.3-0.2,1.8s-0.2,0.8-0.2,1.2c0,1,0.4,1.8,1,2.3S105.5,67.2,106.1,67.2z"
		/>
	<path d="M97.3,36.4c-3.2,0-5.2,0.4-6.5,1.2c-1.2,0.7-1.7,1.8-1.7,3c0,0.8,0.3,1.7,0.9,2.4c0.6,0.7,1.5,1.2,2.8,1.2
		c0.7,0,1.1-0.2,1.7-0.3s1.4-0.3,2.8-0.3c4.4,0,8.9,1.8,12.3,4.9c3.4,3.1,5.6,7.5,5.6,12.9c0,2.3-0.3,3.7-0.6,4.6s-0.6,1.5-0.6,2.3
		c0,0.7,0.3,1.6,0.9,2.3c0.6,0.7,1.5,1.2,2.7,1.2c1.4,0,2.6-0.6,3.4-2.2c0.8-1.6,1.3-4.1,1.2-8.1c0-8.5-3.7-14.7-8.6-18.9
		C108.8,38.4,102.5,36.4,97.3,36.4z"/>
	<path d="M64.9,77.7c-4.4,0-8.5,1.7-11.4,4.3s-4.9,6.1-4.9,9.7c0,2.3,0.9,5.3,3.1,7.8s5.6,4.4,10.7,4.4c5.1,0,9.1-2,11.9-4.7
		s4.3-6.3,4.3-9.4s-1.3-6.1-3.6-8.4S69.3,77.7,64.9,77.7z M58.5,98.2c-1.4,0-2.6-0.4-3.5-1.2s-1.3-1.9-1.3-3.2
		c0-1.4,0.7-2.7,1.7-3.6c1-0.9,2.5-1.5,4.1-1.5c1.6,0,2.7,0.5,3.4,1.3c0.8,0.8,1.1,1.8,1.2,3c0,1.4-0.8,2.8-1.9,3.7
		C61.2,97.6,59.7,98.2,58.5,98.2z M66.4,90.1c-0.6,0-1-0.3-1.3-0.6s-0.5-0.8-0.5-1.2c0-0.4,0.2-0.9,0.5-1.3c0.4-0.4,0.9-0.7,1.7-0.7
		c0.8,0,1.2,0.2,1.4,0.5c0.2,0.3,0.3,0.7,0.3,1.1c0,0.4-0.2,0.9-0.6,1.3S67.1,90.1,66.4,90.1z"/>
</g>
</svg>
