<?xml version="1.0" standalone="no"?>
<!DOCTYPE svg PUBLIC "-//W3C//DTD SVG 1.1//EN" "http://www.w3.org/Graphics/SVG/1.1/DTD/svg11.dtd" >
<svg xmlns="http://www.w3.org/2000/svg">
<metadata>
Created by FontPrep 20130207 at Fri Jul 25 15:28:23 2014
 By Alan Offord
A^(c) Copyright. HSBC Holdings plc [September] 2013 ALL RIGHTS RESERVED. 
  
No part of this publication may be reproduced, stored in a retrieval system, or transmitted, on any form or by any means, electronic, mechanical, photocopying, recording, or otherwise, without the prior written permission of HSBC Holdings plc.
</metadata>
<defs>
<font id="b15f2828272fca4026032acd61901131" horiz-adv-x='1024' >
  <font-face 
    font-family="HSBCIcon-Font"
    font-weight="400"
    font-stretch="normal"
    units-per-em="2048"
    panose-1="0 0 0 0 0 0 0 0 0 0"
    ascent="1754"
    descent="-294"
    bbox="46 -34 2002 1754"
    underline-thickness="18"
    underline-position="-16"
    unicode-range="U+0020-F084"
  />
<missing-glyph horiz-adv-x="1024" 
d="M127 0v1754h770v-1754h-770zM257 127h512v1500h-512v-1500z" />
    <glyph glyph-name=".notdef" horiz-adv-x="1024" 
d="M127 0v1754h770v-1754h-770zM257 127h512v1500h-512v-1500z" />
    <glyph glyph-name=".null" horiz-adv-x="0" 
 />
    <glyph glyph-name="nonmarkingreturn" horiz-adv-x="682" 
 />
    <glyph glyph-name="space" unicode=" " horiz-adv-x="512" 
 />
    <glyph glyph-name="download" unicode="&#xf000;" 
d="M1652 662q27 0 27 -27v-533q0 -27 -27 -27h-1256q-27 0 -27 27v533q0 27 27 27h150q27 0 27 -27v-355h902v355q0 27 27 27h150zM922 1354q0 27 27 27h136q27 0 28 -27v-551h154q11 0 17 -10t-3 -19l-252 -289q-11 -11 -28 0l-248 286q-9 9 -3 21t17 11h155v551z" />
    <glyph glyph-name="edit" unicode="&#xf001;" 
d="M1249 1161l205 -205q16 -16 0 -32l-739 -740l-299 -95q-16 -5 -27 7t-7 27l94 300l739 740q16 16 34 -2zM1675 1145l-103 -105q-16 -16 -31 0l-208 207q-16 16 0 32l103 105q16 18 34 0l205 -208q16 -15 0 -31z" />
    <glyph glyph-name="delete" unicode="&#xf002;" 
d="M1493 1024l-294 -296l294 -291q16 -16 0 -32l-139 -143q-16 -16 -34 0l-294 296l-296 -296q-16 -16 -31 0l-144 143q-16 16 0 32l296 291l-296 296q-16 16 0 32l144 143q16 16 31 0l296 -293l294 293q18 16 34 0l139 -143q16 -16 0 -32z" />
    <glyph glyph-name="privacy" unicode="&#xf003;" 
d="M1024 255q-123 0 -258 49t-240 118q-221 146 -330 261l-48 47q18 18 50 52t131 115q99 83 198 145t237 113t260 51q123 0 258 -49t240 -118q221 -146 330 -261l48 -48q-18 -18 -50 -51t-131 -115t-198 -144t-237 -114q-138 -51 -260 -51zM1361 735q0 139 -98 238t-239 99
t-239 -99t-98 -238t99 -237t238 -98t238 98t99 237zM1190 736q0 -67 -49 -116t-117 -49t-116 49t-48 116t48 116t116 49t117 -49t49 -116z" />
    <glyph glyph-name="print" unicode="&#xf004;" 
d="M1443 637h159q25 0 25 -23v-509q0 -23 -25 -23h-1156q-25 0 -25 23v509q0 23 25 23h159v719q0 23 25 23h417q23 0 23 -2l354 -351q18 -18 19 -41v-348zM1440 241v68q0 14 -13 14h-808q-14 0 -14 -14v-68q0 -14 14 -13h808q13 -1 13 13zM744 1229v-578q0 -14 14 -14h532
q14 0 14 14v343q0 14 -14 14h-207q-14 0 -13 14v207q0 14 -14 13h-298q-14 1 -14 -13z" />
    <glyph glyph-name="phone" unicode="&#xf005;" 
d="M562 1363q158 48 244 -196q43 -127 25 -145l-137 -135q0 -11 5 -31t53 -96t139 -167q90 -90 164 -139t101 -54l30 -2l159 160q11 11 27 6q116 -36 291 -148q18 -7 14 -27q-25 -148 -125 -230t-237 -67t-279 88q-142 72 -249 158t-219 243q-113 156 -181 352
q-41 116 8 255t167 175z" />
    <glyph glyph-name="message" unicode="&#xf006;" 
d="M1675 300q0 -23 -23 -22h-1256q-23 0 -23 22v822l633 -605q18 -16 38 0l631 605v-822zM1006 653l-558 530h1149l-553 -530q-20 -20 -38 0z" />
    <glyph glyph-name="search" unicode="&#xf007;" 
d="M403 907q0 190 134 323t325 133t323 -134t133 -323q-1 -126 -69 -242l389 -389q18 -16 0 -34l-136 -136q-18 -18 -34 0l-396 396q-98 -52 -212 -53q-189 0 -323 134t-134 325zM1124 906q0 109 -77 186q-77 78 -188 78t-188 -78t-77 -186t77 -186t187 -78t189 77
q77 78 77 187z" />
    <glyph glyph-name="banking" unicode="&#xf008;" 
d="M1743 1024v-36q0 -23 -23 -23h-1392q-23 0 -23 23v36q0 18 30 30l691 318l82 -41l2 -2l603 -275q30 -11 30 -30zM1718 234v-113q0 -32 -30 -32h-1328q-30 0 -30 32v113q0 30 30 30h1328q30 0 30 -30zM687 899v-576h-214v576h214zM1131 899v-576h-214v576h214zM1575 899
v-576h-216v576h216z" />
    <glyph glyph-name="pay" unicode="&#xf009;" 
d="M901 897q5 57 45 101t90 40q49 -4 80 -42t26 -94t-41 -96q-35 -40 -87 -38q-52 4 -84 38t-29 91zM1641 755q0 -20 -19 -25l-1181 -384q-13 -5 -23 3t-11 22v685q0 18 19 25l1178 384q14 5 25 -3t12 -22v-685zM1518 944v244q-12 -12 -48 -15q-37 -3 -52 8q-27 18 -28 91
l-735 -241q0 -73 -25 -107t-100 -59v-244q11 11 48 15t57 -10t20 -89l735 241q0 73 26 107t102 59zM1004 157q-27 0 -28 27v123q0 27 28 28h329v143q-1 11 11 16t21 -2l267 -233q16 -11 0 -27l-264 -230q-11 -9 -22 -3q-10 6 -10 17v141h-332z" />
    <glyph glyph-name="agree" unicode="&#xf00a;" 
d="M1668 1058l-817 -815q-23 -9 -32 0l-439 444q-16 16 0 32l134 134q16 16 32 0l289 -289l665 663q16 16 34 0l134 -135q16 -18 0 -34z" />
    <glyph glyph-name="menu" unicode="&#xf00b;" 
d="M1645 974h-1247q-27 0 -27 27v139q0 27 27 27h1247q27 0 28 -27v-139q-1 -27 -28 -27zM1645 635h-1247q-27 0 -27 27v139q0 27 27 27h1247q27 0 28 -27v-139q-1 -27 -28 -27zM1645 296h-1247q-27 0 -27 27v139q0 27 27 27h1247q27 0 28 -27v-139q-1 -27 -28 -27z" />
    <glyph glyph-name="view_all" unicode="&#xf00c;" 
d="M755 1261v-396q0 -20 -18 -21h-389q-23 0 -23 21v396q0 18 23 18h389q18 0 18 -18zM348 614h389q18 0 18 -20v-396q0 -20 -18 -21h-389q-23 0 -23 21v396q0 20 23 20zM988 1283h710q25 0 25 -25v-195q0 -25 -25 -25h-710q-25 0 -25 25v195q0 25 25 25zM988 851h710
q25 0 25 -23v-195q0 -23 -25 -23h-710q-25 0 -25 23v195q0 23 25 23zM988 426h710q25 0 25 -26v-195q0 -25 -25 -25h-710q-25 0 -25 25v195q0 26 25 26z" />
    <glyph glyph-name="transfer" unicode="&#xf00d;" 
d="M867 439h651l2 2v394q0 27 27 27h137q27 0 27 -27v-560q0 -11 -9 -19t-18 -8h-817l-2 -155q1 -11 -11 -18t-21 2l-285 248q-16 14 0 30l283 246q11 9 22 3t12 -17l2 -146v-2zM1181 1022h-651v-396q0 -27 -27 -28h-137q-27 0 -27 28v560q0 27 27 27h815l2 155q-1 11 11 18
t21 -2l285 -248q16 -14 0 -30l-283 -246q-9 -9 -21 -3t-13 17l-2 145v3z" />
    <glyph glyph-name="switch" unicode="&#xf00e;" 
d="M1217 1067q0 27 28 28h136q27 0 28 -28v-726h157q11 0 16 -11t-3 -21l-252 -286q-11 -16 -28 0l-250 286q-7 9 -2 21t16 11h154v726zM831 394q0 -12 -8 -20t-20 -8h-136q-27 0 -28 28v726h-157q-11 0 -16 11t3 20l252 287q11 16 28 0l250 -287q7 -9 2 -20t-16 -11h-154
v-726z" />
    <glyph glyph-name="refresh" unicode="&#xf010;" 
d="M398 730h160q23 0 27 -20q2 0 2 -2v-32q20 -171 149 -286t309 -115q181 1 311 135t130 323t-132 321t-321 132t-321 -132l112 -112q9 -9 3 -20t-17 -12l-391 -25q-7 -2 -13 5t-6 16l26 387q2 11 13 15t21 -2l109 -111q191 184 457 184t457 -189q190 -188 190 -458
t-190 -460t-451 -190q-262 0 -448 168t-204 414l-5 41v5q5 20 23 20z" />
    <glyph glyph-name="home" unicode="&#xf011;" 
d="M1707 635h-232v-519q1 -11 -9 -19t-19 -8h-246q-27 0 -27 27v355q0 14 -13 14h-274q-14 0 -13 -14v-355q0 -11 -9 -19t-18 -8h-246q-27 0 -28 27v519h-232q-18 0 -25 17t7 31l681 680q20 20 38 0l683 -680q14 -14 7 -31t-25 -17z" />
    <glyph glyph-name="help" unicode="&#xf012;" 
d="M1459 1001q0 -113 -47 -177t-133 -128l-62 -47q-49 -37 -63 -81t-14 -111q0 -25 -23 -25h-186q-23 0 -23 25q7 155 27 205t116 123l62 48q25 20 50 52q34 53 34 111t-40 112t-139 55q-99 0 -141 -68t-42 -137q0 -25 -23 -25h-200q-11 0 -18 8t-5 17q9 243 169 346
q105 66 250 66q196 0 324 -94t127 -275zM926 339h207q25 0 25 -23v-200q0 -25 -25 -25h-207q-25 0 -25 25v200q0 23 25 23z" />
    <glyph glyph-name="favourite" unicode="&#xf013;" 
d="M1024 1347q18 0 23 -16l141 -432h460q14 1 20 -17t-9 -29l-369 -268l144 -437q5 -18 -9 -27t-30 -3l-371 269l-371 -269q-17 -11 -31 0t-8 30l141 437l-366 268q-16 11 -11 25q5 20 22 21h456l145 432q5 16 23 16z" />
    <glyph glyph-name="passcode" unicode="&#xf014;" 
d="M1479 82h-910q-27 0 -27 27v1243q0 27 27 27h910q27 0 27 -27v-1243q0 -27 -27 -27zM1411 1070v163q0 27 -27 28h-717q-27 0 -28 -28v-163q0 -27 28 -28h717q27 1 27 28zM803 947h-136q-27 0 -28 -28v-138q0 -11 8 -19t20 -9h136q11 0 20 8q8 8 8 20v138q-1 28 -28 28z
M803 660h-136q-11 0 -19 -9t-9 -18v-141q0 -8 8 -18t20 -10h136q11 0 20 9q8 9 8 19v141q-1 9 -9 18t-19 9zM803 371h-136q-11 0 -19 -8t-9 -19v-139q0 -27 28 -28h136q27 0 28 28v139q0 11 -8 19q-9 8 -20 8zM1095 947h-139q-27 0 -28 -28v-138q0 -27 28 -28h139
q27 0 27 28v138q0 28 -27 28zM1095 660h-139q-27 0 -28 -27v-141q0 -27 28 -28h139q27 0 27 28v141q0 27 -27 27zM1095 371h-139q-27 0 -28 -27v-139q0 -27 28 -28h139q27 0 27 28v139q0 27 -27 27zM1384 947h-139q-27 0 -28 -28v-138q0 -27 28 -28h139q27 0 27 28v138
q0 28 -27 28zM1384 660h-139q-27 0 -28 -27v-141q0 -27 28 -28h139q27 0 27 28v141q0 27 -27 27zM1384 371h-139q-27 0 -28 -27v-139q0 -27 28 -28h139q27 0 27 28v139q0 27 -27 27z" />
    <glyph glyph-name="video" unicode="&#xf015;" 
d="M1713 362q1 -18 -13 -25t-27 2l-337 223q-11 7 -12 23v300q0 11 12 23l337 223q13 9 27 1t13 -24v-746zM1242 1099v-728q0 -27 -27 -27h-853q-27 0 -27 27v728q0 27 27 27h853q27 0 27 -27z" />
    <glyph glyph-name="chat" unicode="&#xf016;" 
d="M1648 464h-736q-11 0 -18 -7l-255 -259q-11 -14 -28 -7t-17 25v221q0 27 -27 27h-167q-9 0 -18 9t-9 19v791q0 27 27 28h1248q27 0 27 -28v-791q0 -8 -9 -18t-18 -10z" />
    <glyph glyph-name="alert" unicode="&#xf017;" 
d="M1025 71q-58 0 -99 41q-41 40 -41 96t39 96t93 42h-366q-51 -6 -105 0q-55 7 -80 25t-10 65t88 117q27 27 54 184t39 301l14 143q6 29 35 69q28 40 64 68t109 50q72 23 163 22h4q91 0 163 -22t108 -52q81 -70 93 -115l7 -20q43 -564 107 -628q73 -71 89 -119t-14 -64
q-60 -34 -145 -29l-37 5h-364q55 -2 95 -42t40 -96t-43 -96q-42 -40 -100 -41z" />
    <glyph glyph-name="fast_track" unicode="&#xf018;" 
d="M1584 618q0 -231 -164 -395t-396 -164t-396 164t-164 395t164 396t396 165t396 -165t164 -396zM1447 619q0 175 -124 299t-299 124t-299 -124t-124 -299t124 -300t299 -125t299 124q124 126 124 301zM1126 1222h-204q-20 0 -21 25v134q0 20 21 21h204q20 0 21 -21v-134
q-1 -25 -21 -25zM1067 924v-314l155 -155q7 -9 0 -16l-48 -48q-9 -9 -16 0l-175 176q-7 7 -7 22v335q0 11 14 11h66q11 0 11 -11zM1331 1160q-2 0 -4 3l41 57q14 18 29 4l116 -86q18 -14 5 -30l-48 -61q-17 23 -66 62q-50 39 -60 43q-9 4 -10 6t-3 2z" />
    <glyph glyph-name="location" unicode="&#xf019;" 
d="M1481 972q0 -82 -41 -185v-2q-4 -9 -14 -26t-15 -26l-387 -687l-385 687q-7 11 -17 30t-12 22v2q-43 86 -43 185q0 184 134 314t323 130t323 -130t134 -314zM1215 972q0 76 -56 130q-55 54 -135 54t-134 -53t-55 -131q0 -78 55 -130q54 -54 134 -54t136 53q56 54 55 131z
" />
    <glyph glyph-name="error" unicode="&#xf01a;" 
d="M878 1381q0 11 9 20q10 8 19 8h236q8 0 18 -8t10 -20v-296l-73 -632q-5 -23 -27 -23h-89q-25 0 -25 23l-73 585q0 17 -5 47v296zM885 77v219q0 25 27 25h226q25 0 25 -25v-219q0 -25 -25 -25h-226q-27 0 -27 25z" />
    <glyph glyph-name="online" unicode="&#xf01b;" 
d="M366 1318h1316q25 0 25 -25v-854q0 -25 -25 -25h-501q-25 -112 7 -152q16 -21 84 -69l21 -13q7 -7 6 -12v-11q0 -14 -13 -14h-521q-14 0 -14 14v11q0 9 7 12q77 50 103 81t13 124l-5 29h-503q-25 0 -25 25v854q0 25 25 25zM1559 1183h-1067q-14 0 -14 -13v-606
q0 -14 14 -13h1067q14 0 13 13v606q1 13 -13 13z" />
    <glyph glyph-name="user" unicode="&#xf01c;" 
d="M887 744h274q147 0 259 -148t111 -312v-150q0 -27 -27 -27h-960q-27 0 -27 27v150q0 164 111 312t259 148zM744 1074q0 116 82 198t198 82t199 -82t83 -198t-83 -198t-199 -82t-198 82t-82 198z" />
    <glyph glyph-name="articles" unicode="&#xf01d;" 
d="M687 1174q0 27 28 27h250v-157l-78 62h-200v68zM1361 883v-596q0 -27 -28 -28h-68v544l-100 80h196zM1074 965q-27 0 -27 27v203l289 -230h-262zM1538 1060v-596q0 -27 -27 -27h-68v544l-100 79h195zM1252 1142q-27 0 -28 28v202l289 -230h-261zM865 1352q0 27 27 27h250
v-157l-77 61h-200v69zM897 787q-27 0 -28 28v202l289 -230h-261zM869 705h314v-596q0 -27 -27 -27h-619q-27 0 -27 27v888q0 27 27 27h250v-237q0 -34 24 -58t58 -24z" />
    <glyph glyph-name="tools" unicode="&#xf01e;" 
d="M1538 91q-23 0 -41 18l-421 426q-32 27 -6 68l-28 27l-416 -496q-29 -23 -75 -36q-46 -14 -73 14q-32 22 -38 28t-28 36q-39 55 -2 120l16 25l468 460l-273 273l-79 43l-89 132l66 66l132 -89l45 -75l278 -275l143 148q-5 5 -23 76q-18 70 21 140q68 121 201 143
q104 17 134 -2q15 -4 4 -21l-168 -166l-3 -36l94 -82l36 4l150 176q16 9 23 1q8 -9 12 -45t-2 -92t-34 -112t-93 -98q-65 -43 -126 -32l-89 18l-137 -157l-7 -7l37 -29q20 11 68 -7l423 -426q18 -18 18 -41t-18 -41l-59 -59q-18 -18 -41 -18z" />
    <glyph glyph-name="accounts" unicode="&#xf021;" 
d="M309 862l1036 519q32 16 65 5t49 -43l316 -631q17 -32 5 -65t-44 -49l-1033 -518q-32 -16 -66 -4t-52 45l-312 628q-16 33 -6 65t42 48zM1456 1170l-66 127q-9 14 -18 7l-1015 -510q-11 -7 -4 -18l61 -130q7 -11 18 -7l1018 510q11 7 6 21z" />
    <glyph glyph-name="share" unicode="&#xf022;" 
d="M505 853q-14 0 -13 -13v-492q0 -14 13 -13h874q14 0 14 13v198l177 157v-519q0 -27 -27 -27h-1202q-27 0 -27 27v820q0 27 27 27h440q-107 -82 -162 -178h-114zM1297 1283q0 9 11 13t16 -3l374 -326q14 -11 2 -23l-376 -327q-7 -7 -17 -4t-10 13v191q-191 7 -369 -64
q-209 -82 -279 -261q-2 -5 -5 -4q-2 1 -2 6q-5 2 -7 117t65 215t165 148q200 98 364 114l68 4v191z" />
    <glyph glyph-name="information" unicode="&#xf023;" 
d="M815 821q-25 -1 -25 25t8 34t30 28q109 107 264 107q48 -1 81 -21t48 -75t-24 -148l-143 -386q-34 -89 -34 -114t28 -25q30 0 48 23t28 22q25 0 25 -27q0 -52 -98 -117q-97 -65 -219 -65t-122 109q0 86 82 291l139 349q19 54 -30 54q-23 0 -49 -32t-37 -32zM1196 1379
q62 0 102 -38t40 -101t-49 -109t-113 -46t-101 38q-37 37 -37 99t48 110t110 47z" />
    <glyph glyph-name="investment" unicode="&#xf024;" 
d="M1695 266q25 0 25 -25v-107q0 -32 -32 -32h-1331q-30 0 -29 30v1199q0 27 27 28h109q27 0 28 -28v-612l302 216q7 7 16 0l246 -209q9 -9 18 2l423 496q9 11 19 3l200 -173q5 -5 4 -10v-175q0 -9 -9 -11t-13 2l-167 139q-9 9 -18 0l-418 -498q-9 -9 -19 0l-275 232
q-11 5 -18 0l-291 -214v-253h1203z" />
    <glyph glyph-name="expand" unicode="&#xf025;" 
d="M676 503v728q0 23 23 23h967q23 0 22 -23v-728q0 -23 -22 -23h-967q-23 0 -23 23zM1365 389v-159q0 -18 -16 -18h-967q-27 0 -27 18v728q0 18 27 18h205v-496q0 -39 25 -65t64 -26h689z" />
    <glyph glyph-name="rewards" unicode="&#xf026;" 
d="M362 778v590q0 25 25 25h566v-364q-43 50 -113 97q-143 100 -269 101q-86 0 -120 -55q-48 -71 9 -170t173 -178q39 -27 77 -46h-348zM953 68h-566q-25 0 -25 25v569h521l-180 -355l100 -52l150 291v-478zM924 840q-2 0 -23 -3q-86 0 -202 82q-57 39 -112 100t-43 87
q7 7 27 7q89 0 205 -82q57 -39 110 -98t45 -91h-3q-2 -2 -4 -2zM1659 1393q27 0 27 -25v-590h-334q86 68 116 150t-12 140t-130 56q-88 0 -195 -77q-34 -25 -64 -57l3 403h589zM1686 662v-569q0 -25 -27 -25h-592v505l123 -132l84 76l-132 145h544zM1140 808q-23 0 -30 7
q-6 14 14 58q20 43 84 89t123 46q23 0 30 -7q12 -22 -21 -68q-34 -45 -88 -85t-112 -40z" />
    <glyph glyph-name="products_services" unicode="&#xf027;" 
d="M1679 983v-887q0 -27 -27 -28h-243v150h109q14 0 13 14l-2 749q0 14 -13 13h-223q-14 0 -14 14v223q0 14 -14 14h-323q-14 0 -14 -14v-446h-147v578q0 27 27 27h459q14 0 21 -6l382 -383q9 -9 9 -18zM1261 630h-808q-14 0 -14 -13v-98q0 -14 14 -14h808q14 0 13 14v98
q1 13 -13 13zM1329 91q0 -23 -23 -23h-901q-23 0 -23 23v578q0 23 23 23h901q23 0 23 -23v-578z" />
    <glyph glyph-name="calendar" unicode="&#xf028;" 
d="M1693 1338v-1211q0 -25 20 -25h-1358q-20 0 -20 21v1215q0 20 20 21h221q14 0 13 -14v-59q0 -7 -4 -9q-43 -43 -30 -107q18 -71 91 -82q52 -9 91 25t39 82t-34 82q-5 5 -5 9v59q0 14 14 14h526q14 0 13 -14v-59q0 -5 -4 -9q-32 -31 -32 -75t25 -74t72 -40q47 -9 85 24
t39 83q0 50 -32 82q-2 2 -3 9v59q0 14 14 14h259q-20 -1 -20 -21zM992 316v71q0 14 -14 13h-207q-9 0 -12 10t3 13q223 241 223 376q0 168 -191 168q-89 1 -138 -45t-46 -130q0 -14 14 -14h106q14 0 14 14q0 82 59 82q50 0 50 -60q-1 -60 -37 -110q-36 -51 -58 -79
q-22 -29 -66 -89q-46 -60 -70 -91t-24 -33v-96q0 -14 14 -13h366q14 -1 14 13zM1429 485q0 141 -100 159v2q89 14 89 148q0 91 -44 132t-143 41q-100 0 -141 -34t-43 -123q0 -14 13 -14h107q14 0 14 14q5 64 53 64t49 -72q0 -72 -19 -90t-78 -16q-14 0 -14 -13v-78
q0 -14 14 -13q66 -2 88 -20t21 -80q0 -105 -64 -105q-57 0 -57 79q0 14 -13 14h-110q-14 0 -13 -16q2 -96 44 -134t140 -36q207 0 207 191z" />
    <glyph glyph-name="clock" unicode="&#xf029;" 
d="M1707 730q1 -282 -201 -482t-484 -200t-482 200q-199 200 -199 482t199 482q198 200 482 201q284 -1 484 -201t201 -482zM1611 730q0 244 -173 418t-415 174t-415 -174t-173 -418q-1 -244 171 -415q172 -172 416 -172t416 172q173 172 173 415zM1513 739
q0 -203 -143 -347t-347 -144t-348 143q-145 143 -145 347t144 349q144 144 349 144q204 0 347 -144t143 -348zM1092 1104q0 20 -22 20h-66q-20 0 -21 -20v-401q2 -27 7 -29l216 -217q13 -11 27 3l48 47q16 16 2 30l-191 191v376z" />
    <glyph glyph-name="security" unicode="&#xf02a;" 
d="M1381 803h103q23 0 22 -25v-687q0 -23 -22 -23h-920q-23 0 -22 23v687q0 25 22 25h100v219q0 155 105 263t254 108t254 -108t104 -263v-219zM1215 803v241q0 82 -56 140q-55 58 -135 58t-136 -58t-55 -140v-241h382zM940 234h166q18 0 14 19l-71 170q71 20 73 103
q0 40 -36 70t-85 21q-66 -14 -77 -80q-6 -41 14 -73t59 -41l-71 -170q-4 -19 14 -19z" />
    <glyph glyph-name="insurance" unicode="&#xf02b;" 
d="M1632 831q-171 0 -267 -73q-14 -11 -32 0q-86 57 -241 68v-594q0 -23 15 -39t47 -16t41 37q9 25 27 25h73q27 0 27 -32v-7q-12 -64 -64 -106t-122 -42t-126 52q-55 52 -54 128v594q-157 -11 -246 -71q-16 -11 -32 0q-98 75 -266 76q-102 0 -187 -30q-7 0 -7 5
q0 196 214 336t524 157v87q0 27 27 27h77q32 0 32 -32v-82q308 -16 524 -158t214 -335q0 -2 -4 -6t-6 -1q-84 32 -188 32z" />
    <glyph glyph-name="log_off" unicode="&#xf02c;" 
d="M1643 676q0 -257 -182 -438t-437 -181t-437 181t-182 438q0 196 112 354t289 226v-223q-93 -57 -148 -151t-55 -206q0 -175 124 -298t297 -123t297 123t124 298q0 112 -55 206t-148 151v223q177 -68 289 -226t112 -354zM1113 746h-180q-27 0 -27 28v603q0 27 27 27h180
q27 0 27 -27v-603q0 -28 -27 -28z" />
    <glyph glyph-name="settings" unicode="&#xf02d;" 
d="M1500 300q18 39 2 79t-55 56t-77 0t-56 -55q-17 -40 -2 -78q16 -38 54 -55t78 -1t56 54zM1465 605q5 9 23 5l57 -25q16 -5 7 -16l-21 -48q30 -20 55 -57l50 18q16 9 21 -9l22 -57q9 -16 -9 -20l-48 -21q7 -43 -2 -79l48 -21q16 -5 7 -16l-25 -56q-5 -18 -18 -14l-48 20
q-18 -23 -55 -52l21 -45q5 -16 -9 -21l-60 -25q-16 -5 -20 9l-21 50q-43 -9 -77 2l-20 -50q-9 -14 -21 -11l-57 25q-18 9 -9 25l21 48q-30 18 -53 54l-48 -20q-18 -5 -20 9l-23 57q-7 16 7 20l50 19q-7 41 0 77l-48 20q-18 5 -9 26l23 56q7 9 23 5l48 -21q27 36 56 55
l-20 50q-5 16 9 21l59 22q11 9 21 -9l18 -47q39 7 75 0zM858 726q73 0 125 52t52 125t-52 125t-125 53q-73 0 -125 -52q-53 -51 -53 -125t52 -126t126 -52zM1322 990q10 0 20 -10t10 -22v-109q0 -23 -30 -23h-91q-11 -61 -50 -125l64 -68q20 -18 0 -39l-78 -77
q-20 -16 -38 0l-64 66q-55 -36 -123 -53v-91q0 -23 -30 -23h-109q-25 0 -25 23v91q-73 16 -125 53l-66 -64q-18 -20 -39 0l-77 77q-18 18 0 39l66 66q-41 61 -52 125h-91q-25 0 -25 23v109q0 32 25 32h91q14 64 52 123l-66 61q-16 18 0 39l77 77q20 20 41 0l64 -63
q55 34 125 50v91q0 32 25 31h109q10 0 20 -10t10 -21v-91q66 -14 123 -50l64 63q18 20 38 0l78 -77q20 -18 0 -39l-64 -61q36 -61 50 -123h91z" />
    <glyph glyph-name="market" unicode="&#xf02e;" 
d="M614 651v-455q0 -27 -27 -28h-202q-27 0 -28 28v455q0 27 28 27h202q27 0 27 -27zM974 446v-250q0 -27 -27 -28h-203q-27 0 -27 28v250q0 27 27 27h203q27 0 27 -27zM1333 858v-662q0 -27 -27 -28h-200q-27 0 -27 28v662q0 27 27 27h200q9 0 18 -8t9 -19zM1691 1265
v-1069q0 -27 -28 -28h-200q-27 0 -27 28v1069q0 27 27 28h200q28 -1 28 -28z" />
    <glyph glyph-name="rates" unicode="&#xf02f;" 
d="M639 730q-261 0 -261 314t273 315q155 0 211 -81t55 -220q0 -328 -278 -328zM555 1049q-1 -98 19 -141t69 -43t73 41t24 150q0 175 -89 175q-96 0 -96 -182zM1263 1370h116q16 0 24 -13t1 -26l-596 -1224q-7 -16 -25 -16h-116q-14 0 -22 13t-1 26l596 1224q7 16 23 16z
M1670 426q0 -330 -280 -330q-259 0 -259 314t273 314q154 0 210 -80t56 -218zM1493 421q0 173 -91 173q-96 0 -96 -180q0 -98 20 -141t69 -43q50 0 74 41t24 150z" />
    <glyph glyph-name="list" unicode="&#xf030;" 
d="M528 1096q0 -44 -30 -74t-74 -30t-75 30t-31 74t32 76q30 30 74 30t74 -31t30 -75zM528 730q0 -43 -30 -74q-30 -30 -74 -30t-75 30t-30 74q0 43 30 73q31 30 75 30t74 -30t30 -73zM528 364q0 -43 -30 -74t-74 -31t-75 31q-31 32 -31 76t32 74q30 30 74 29q44 0 74 -31
t30 -74zM699 1201h1010q20 0 20 -22v-166q0 -20 -20 -21h-1010q-20 0 -21 21v166q1 22 21 22zM699 833h1010q20 0 20 -21v-166q0 -20 -20 -20h-1010q-20 0 -21 20v166q1 21 21 21zM699 469h1010q20 0 20 -21v-166q0 -23 -20 -23h-1010q-20 0 -21 23v166q1 21 21 21z" />
    <glyph glyph-name="add" unicode="&#xf031;" 
d="M1145 851h418q25 0 25 -23v-195q0 -25 -25 -25h-418v-417q0 -23 -23 -23h-198q-23 0 -23 23v417h-416q-25 0 -25 25v195q0 23 25 23h416v419q0 23 23 23h198q23 0 23 -23v-419z" />
    <glyph glyph-name="mobile" unicode="&#xf032;" 
d="M762 1415h524q43 1 74 -31t30 -76v-1153q0 -46 -30 -78t-74 -31h-524q-43 0 -74 32t-30 77v1153q0 46 30 77q31 30 74 30zM1304 280v903q0 14 -14 14h-532q-14 0 -14 -14v-903q0 -14 14 -14h532q14 0 14 14zM924 1299v-6q0 -14 14 -14h172q14 0 14 14v6q0 14 -14 14h-172
q-14 0 -14 -14z" />
    <glyph glyph-name="devices" unicode="&#xf033;" 
d="M357 1065h339q30 -1 50 -21t21 -47v-783q-1 -30 -21 -50t-50 -21h-339q-30 1 -50 21t-20 50v783q0 27 20 47t50 21zM710 300v608q0 14 -14 14h-339q-14 0 -13 -14v-608q0 -14 13 -13h339q14 -1 14 13zM482 1318h1254q25 0 25 -23v-869q0 -23 -25 -23h-478
q-23 -107 7 -146q15 -19 82 -66l18 -11q7 -2 7 -12v-11q0 -14 -13 -14h-494q-14 0 -14 14v11q0 9 7 12q73 46 99 78t10 117l-4 28h-98v152h728q14 0 14 14v580q0 14 -14 14h-1133v132q-1 23 22 23z" />
    <glyph glyph-name="reply" unicode="&#xf034;" 
d="M874 994q48 0 155 -19t190 -43t184 -75t173 -117t122 -170t50 -231v-132q0 -5 -5 -5t-7 5q-128 323 -596 403q-123 20 -193 23h-73v-251q0 -11 -10 -16t-20 3l-484 432q-18 14 0 27l484 428q9 9 20 4q10 -6 10 -18v-248z" />
    <glyph glyph-name="wireless" unicode="&#xf035;" 
d="M696 728q0 -139 -82 -250q-18 -25 -48 -30q-30 -4 -53 14q-24 18 -29 48q-6 30 12 52q59 74 57 170t-57 165q-18 23 -12 53t28 49q24 17 54 13t48 -27q82 -118 82 -257zM974 730q0 -203 -107 -377q-16 -25 -44 -32t-54 9q-25 16 -33 44t8 54q86 140 86 302t-86 303
q-16 25 -8 53t32 45q24 16 54 9t45 -32q107 -175 107 -378zM1270 730q0 -271 -139 -512q-16 -25 -44 -33t-56 8q-25 17 -32 45t7 53q120 203 120 439t-120 440q-14 25 -7 53t32 44q27 16 55 8t45 -33q139 -241 139 -512zM1566 731q0 -347 -173 -649q-14 -25 -44 -33
q-31 -8 -55 7t-33 43t6 53q153 269 153 575t-153 579q-17 28 -7 56t35 43t53 7t45 -35q173 -299 173 -646z" />
    <glyph glyph-name="global" unicode="&#xf037;" 
d="M1211 73q-273 -77 -520 61t-326 409q-79 272 61 520t412 325q272 78 519 -60t325 -411t-60 -520t-411 -324zM498 687q-39 27 -68 62q-5 -93 23 -182l18 -44l11 -12q5 -3 7 -6q-7 98 9 182zM608 963q-9 7 -23 20q-57 -66 -107 -148q14 -25 48 -54q27 89 82 182zM592 439
q77 -39 166 -52q-30 109 -34 211q-77 14 -141 41q-11 -104 9 -200zM687 922q-1 -2 -31 -57t-53 -135q52 -27 118 -38q5 123 23 218q-21 3 -57 12zM858 162q-41 66 -68 129q-91 11 -162 37q5 -11 32 -66q91 -66 198 -100zM635 1074q2 -18 23 -34q50 73 111 136
q-66 -11 -116 -27q-27 -43 -18 -75zM865 1117l-5 21q-66 -66 -120 -134q82 -16 157 2zM985 699l-61 218q-52 -11 -89 -11q-18 -98 -23 -226q77 -1 173 19zM1070 398l-60 212q-89 -20 -170 -21h-25q11 -123 41 -211q105 -5 214 20zM1036 137q40 0 104 11l-45 166
q-91 -23 -203 -27q32 -71 91 -148q13 -2 53 -2zM949 1163l36 -132q78 30 137 79q-77 33 -173 53zM1006 1242q86 -20 168 -56q5 30 0 43q-7 32 -54 54q-71 -23 -114 -41zM1010 942l64 -218q84 30 155 75q-52 89 -137 179q-30 -16 -82 -36zM1099 635l59 -209q107 39 194 93
q-27 109 -78 202l-20 -13q-71 -46 -155 -73zM1167 1031q82 -96 135 -175q43 36 82 95q-71 64 -155 109q-7 5 -21 10q-11 -14 -41 -39zM1370 423q-86 -52 -187 -86l46 -164q76 30 139 75q9 84 2 175zM1263 1174l-7 -27q91 -48 166 -109q11 39 12 68q-94 45 -171 68zM1431 578
q71 66 114 132q-32 93 -98 175q-43 -61 -98 -109q48 -93 82 -198zM1579 523q0 36 -7 73q-50 -59 -118 -114q11 -80 11 -147q78 86 114 188zM1597 819q0 8 7 25q-17 109 -86 214q-7 -43 -25 -89q64 -71 104 -150z" />
    <glyph glyph-name="insight" unicode="&#xf038;" 
d="M1024 1413q173 -1 296 -121t123 -298q0 -126 -87 -256q-24 -34 -38 -61q-41 -73 -48 -204h-489q-10 131 -52 204q-15 26 -37 60q-87 129 -87 257q0 175 123 297t296 122zM1354 994q0 139 -97 235q-97 95 -235 95t-232 -96t-94 -222q0 -127 64 -207q75 -109 98 -226
q0 -11 11 -11h312q11 0 11 11q23 116 98 226q14 18 16 25q48 86 48 170zM1252 416q20 0 34 -14t14 -34t-14 -35t-34 -14h-19v-57q43 -7 44 -50q0 -18 -15 -33t-33 -15h-408q-20 0 -34 15t-13 33q0 41 41 50v57h-16q-20 0 -36 14q-32 32 0 69q15 15 36 14h453zM1025 48
q-90 0 -117 59h234q-27 -59 -117 -59z" />
    <glyph glyph-name="pie_chart" unicode="&#xf039;" 
d="M949 1258v-491l-2 -82q0 -7 9 -11l532 -214q25 -14 14 -37q-76 -175 -244 -276t-368 -86q-237 19 -397 191t-165 418t166 426q171 181 428 190q27 0 27 -28zM1720 767q0 -107 -36 -212q-9 -27 -36 -16l-558 223q-7 2 -7 14l2 598q0 27 28 28q255 -12 431 -196t176 -439z
" />
    <glyph glyph-name="in_branch" unicode="&#xf03a;" 
d="M1413 55h-61q-27 0 -28 27v1192q0 14 -13 14h-574q-14 0 -13 -14v-1192q0 -27 -28 -27h-61q-27 0 -27 27v1297q0 27 27 27h778q27 0 27 -27v-1297q0 -27 -27 -27zM781 1195q1 13 13 21t23 4l284 -130q16 -7 16 -25v-840q0 -16 -16 -25l-284 -127q-11 -7 -24 1t-12 24
v1097z" />
    <glyph glyph-name="presentation" unicode="&#xf03b;" 
d="M1065 1293h544q27 0 27 -28v-880q0 -30 -27 -30h-435l185 -237q11 -14 3 -28t-24 -15h-39q-14 0 -22 9l-210 271v-159q0 -27 -27 -28h-30q-27 0 -27 28v159l-212 -271q-9 -9 -22 -9h-39q-16 0 -24 15t3 28l185 237h-435q-27 0 -27 30v878q0 30 29 30h540v66q0 27 27 27
h30q27 0 27 -27v-66zM1541 466v715q0 14 -14 14h-1006q-14 0 -14 -14v-715q0 -14 14 -13h1006q14 -1 14 13zM746 1026q0 -25 -16 -41t-41 -16t-41 16t-15 41q0 25 16 42q17 17 41 17t40 -17t16 -42zM746 824q0 -23 -16 -40t-41 -17t-41 17t-15 40q0 23 16 40q17 17 41 17
t40 -17t16 -40zM633 621q0 25 16 41q17 16 41 16t40 -16t16 -41t-17 -42t-40 -17t-39 17t-17 42zM847 1085h555q14 0 13 -15v-85q0 -16 -13 -16h-555q-16 0 -16 16v85q0 15 16 15zM847 881h555q14 0 13 -14v-86q0 -14 -13 -14h-555q-16 0 -16 14v86q0 14 16 14zM1402 678
q14 0 13 -14v-86q0 -16 -13 -16h-555q-16 0 -16 16v86q0 14 16 14h555z" />
    <glyph glyph-name="portfolio" unicode="&#xf03c;" 
d="M662 794h1011q36 0 64 -27t15 -55l-243 -491q-39 -80 -132 -80h-999q-52 0 -73 25q-20 25 -7 55l244 491q16 32 51 57t69 25zM1126 1190v-139h-97v139q0 30 -30 30h-203q-30 0 -29 -30v-139h-98v139q0 52 38 91t89 39h203q51 0 89 -39t38 -91zM1320 598v142h-98v-142
q0 -30 -27 -29h-203q-32 0 -32 29v142h-95v-142q-1 -52 37 -90t90 -37h203q53 -1 89 37t36 90zM662 867q-52 0 -106 -35t-78 -86l-191 -382v567q0 32 26 59t60 27h1051q32 0 55 -26t23 -60v-64h-840z" />
    <glyph glyph-name="warning" unicode="&#xf03d;" 
d="M1754 217q0 -42 -32 -75t-77 -33h-1240q-64 0 -98 57q-30 57 2 112l619 1021q34 52 96 52t96 -52l609 -1010q25 -30 25 -72zM1049 460q16 0 16 13l41 337v198q0 16 -14 16h-136q-16 0 -16 -16v-168l43 -367q0 -14 16 -13h50zM1104 259v123q0 16 -16 16h-130
q-14 0 -14 -16v-123q0 -16 14 -16h130q16 0 16 16z" />
    <glyph glyph-name="education" unicode="&#xf03e;" 
d="M262 947l753 291q9 5 20 0l751 -291q18 -7 18 -25t-18 -25l-751 -292q-11 -5 -20 0l-753 292q-18 7 -19 25q1 18 19 25zM1454 428q0 -64 -126 -108t-304 -44t-304 44t-126 108v243l421 -161q9 -5 20 0l419 161v-243zM1563 225v485l110 43v-507q0 -20 -19 -25l-54 -21
q-11 -5 -24 3t-13 22z" />
    <glyph glyph-name="new" unicode="&#xf040;" 
d="M1488 969v-892q0 -27 -25 -27h-878q-25 0 -25 27v1307q0 27 25 27h464q21 0 46 -25l375 -369q18 -23 18 -48zM1336 216v769q0 14 -14 14h-232q-14 0 -14 14v232q0 14 -13 13h-337q-14 0 -14 -13v-1029q0 -14 14 -13h596q14 -1 14 13z" />
    <glyph glyph-name="report" unicode="&#xf041;" 
d="M794 826h460q11 0 11 -11v-82q0 -11 -11 -12h-460q-11 0 -11 12v82q0 11 11 11zM794 642h460q11 0 11 -12v-84q0 -9 -11 -9h-460q-11 0 -11 9v84q0 12 11 12zM794 455h460q11 0 11 -11v-82q0 -11 -11 -12h-460q-11 0 -11 12v82q0 11 11 11zM1488 969v-892q0 -27 -25 -27
h-878q-25 0 -25 27v1307q0 27 25 27h464q21 0 46 -25l375 -369q18 -23 18 -48zM1336 216v769q0 14 -14 14h-232q-14 0 -14 14v232q0 14 -13 13h-337q-14 0 -14 -13v-1029q0 -14 14 -13h596q14 -1 14 13z" />
    <glyph glyph-name="assets" unicode="&#xf042;" 
d="M655 496v-271h-79q-7 0 -14 5t-11 7q-5 9 -5 13v467h-205q-17 0 -23 17t5 28l624 626q18 18 34 -2l409 -410h-346q-150 0 -202 -127l-71 -166q-50 -25 -83 -75t-33 -112zM1518 444q0 -30 20 -50t50 -19q28 -1 47 19t19 50t-19 49t-49 19t-49 -19t-19 -49zM942 594h605
q23 0 14 18l-55 146q-16 41 -45 41h-430q-32 0 -48 -41l-55 -146q-4 -18 14 -18zM835 444q1 -30 21 -50t48 -19q28 -1 48 19q19 20 20 50q0 30 -20 49t-46 19h-3q-30 0 -49 -19t-19 -49zM1748 482v-229q0 -27 -28 -28h-54v-88q0 -30 -22 -52q-22 -21 -52 -21t-54 24
q-23 24 -22 55v82h-547v-88q0 -33 -18 -53t-48 -20t-50 22t-20 51v88h-55q-27 0 -27 28v229q0 50 28 80t58 34l82 210q30 75 112 75h428q84 0 113 -75l85 -210q31 -4 61 -34t30 -80z" />
    <glyph glyph-name="multiple_users" unicode="&#xf043;" 
d="M1215 951q0 107 -60 195t-156 128q75 110 193 110t194 -76q75 -76 75 -180t-75 -179t-180 -75q9 50 9 77zM1318 831q140 0 238 -99t98 -238v-214q0 -27 -27 -27h-218v63q1 136 -77 248t-203 157q39 46 63 110h126zM1120 951q0 -105 -76 -180t-180 -75t-179 75t-75 180
t75 180t180 75t180 -75t75 -180zM396 237q0 173 122 295t292 121h166q139 0 238 -99t99 -238v-214q0 -27 -27 -27h-863q-27 0 -27 27v135z" />
    <glyph glyph-name="dashboard" unicode="&#xf044;" 
d="M309 819v344q0 23 23 23h865q23 0 23 -23v-344q0 -25 -23 -25h-865q-23 0 -23 25zM309 298v346q0 23 23 23h344q25 0 25 -23v-346q0 -23 -25 -23h-344q-23 0 -23 23zM828 298v346q0 23 23 23h346q23 0 23 -23v-346q0 -23 -23 -23h-346q-23 0 -23 23zM1347 819v344
q0 23 23 23h346q23 0 23 -23v-344q0 -25 -23 -25h-346q-23 0 -23 25zM1347 298v346q0 23 23 23h346q23 0 23 -23v-346q0 -23 -23 -23h-346q-23 0 -23 23z" />
    <glyph glyph-name="pin" unicode="&#xf045;" 
d="M1255 1252q88 -36 172 -120t119 -172q35 -86 2 -118t-105 -11l-253 -271q73 -146 14 -210q-43 -42 -134 -14t-194 110l-330 -232q-18 -14 -35 3t-4 36l230 325q-82 102 -107 196t16 136q61 61 207 -11l273 248q-25 75 8 108t121 -3z" />
    <glyph glyph-name="tasks" unicode="&#xf047;" 
d="M348 1290h1352q25 0 43 -18t18 -43v-187q0 -25 -18 -43t-43 -18h-1352q-25 0 -43 18t-18 43v187q0 25 18 43t43 18zM287 637v184q0 25 18 45t43 19h1352q25 0 43 -19t18 -45v-184q0 -25 -18 -43t-43 -18h-1352q-25 0 -43 18t-18 43zM287 232v187q0 25 18 43t43 18h1352
q25 0 43 -18t18 -43v-187q0 -25 -18 -43t-43 -18h-1352q-25 0 -43 18t-18 43zM1688 255v139q0 14 -13 13h-867q-14 0 -14 -13v-139q0 -14 14 -14h867q13 0 13 14zM1688 1065v139q0 14 -13 13h-508q-14 0 -13 -13v-139q0 -14 13 -14h508q13 0 13 14zM1688 662v137
q0 14 -13 13h-294q-14 0 -13 -13v-137q0 -14 13 -13h294q13 -1 13 13z" />
    <glyph glyph-name="confirm" unicode="&#xf048;" 
d="M1424 262v427l162 164v-741q0 -27 -27 -28h-1234q-27 0 -27 28v1237q0 27 27 28h1213l-164 -164h-898q-14 0 -14 -14v-937q0 -14 14 -14h935q13 0 13 14zM1732 1126l-749 -751q-17 -14 -25 -6l-9 6l-380 385q-18 18 0 34l123 123q16 16 32 0l241 -243l610 607q18 16 34 0
l123 -123q16 -16 0 -32z" />
    <glyph glyph-name="plus_minus" unicode="&#xf049;" 
d="M749 1420q171 0 291 -122t121 -292q0 -170 -121 -292q-122 -120 -292 -120t-292 121t-122 291t122 292t293 122zM1019 958v96q0 11 -11 11h-200v202q0 11 -12 12h-95q-11 0 -12 -12v-202h-202q-11 0 -11 -11v-96q0 -11 11 -11h202v-201q0 -11 12 -11h95q11 0 12 11v201
h200q11 0 11 11zM1713 455q1 -171 -121 -293t-292 -121q-170 0 -292 122q-121 122 -121 292q0 66 16 116q209 75 280 280q50 16 119 16q168 -1 290 -121t121 -291zM1572 407v94q0 14 -11 13h-521q-11 0 -11 -13v-94q0 -11 11 -11h521q11 0 11 11z" />
    <glyph glyph-name="camera" unicode="&#xf04a;" 
d="M1736 1156q27 0 28 -27v-924q0 -27 -28 -28h-1424q-27 0 -28 28v924q0 27 28 27h455l39 96q0 32 31 31h374q32 0 31 -31l39 -96h455zM1429 668q0 166 -119 286q-120 120 -286 120t-286 -119t-119 -287q0 -168 118 -286q119 -120 287 -120t287 119q118 120 118 287z
M1320 667q0 -121 -88 -207t-208 -86t-207 86q-86 86 -87 207q0 121 86 207t208 86q120 0 208 -86t88 -207zM1688 947v109q0 25 -25 25h-163q-27 0 -28 -25v-109q0 -9 8 -19t20 -9h163q25 1 25 28z" />
    <glyph glyph-name="save" unicode="&#xf04b;" 
d="M1609 1151v-948q0 -25 -17 -41t-40 -16h-1054q-25 0 -42 17t-17 40v1055q0 23 17 40t42 17h942q30 0 48 -18l107 -109q14 -14 14 -37zM1422 785v428q0 14 -13 14h-770q-14 0 -13 -14v-428q0 -14 13 -14h770q13 0 13 14zM878 1147v-296q0 -14 -13 -14h-150q-14 0 -14 14
v296q0 14 14 14h150q13 0 13 -14z" />
    <glyph glyph-name="survey" unicode="&#xf04c;" 
d="M1340 1136h57q23 0 38 -16t15 -37v-976q0 -23 -15 -38t-38 -14h-746q-23 1 -38 15t-15 37v976q0 21 15 37t38 16h59v-153q0 -14 14 -14h603q14 0 13 14v153zM1126 1318v-46q0 -67 32 -88q14 -6 37 -8q77 0 77 -86v-36q0 -14 -14 -14h-466q-14 0 -14 14v36q0 86 78 86
q38 0 49 19q19 32 19 84v27q0 41 29 71q30 29 73 29t72 -29q28 -31 28 -59zM1072 1305q0 19 -14 33t-33 14t-34 -14t-15 -33t15 -34t34 -15t33 15t14 34z" />
    <glyph glyph-name="client_upload" unicode="&#xf04d;" 
d="M1063 699q139 0 237 -98t99 -237v-214q0 -27 -27 -27h-673v277h29q68 0 99 65t-15 120l-72 84q77 30 157 30h166zM1404 876q139 0 238 -98t99 -236v-214q0 -27 -28 -28h-218v64q0 137 -77 246t-203 157q39 46 64 109h125zM1302 999q0 107 -60 195t-157 128
q77 107 195 107t192 -74t75 -180q0 -105 -75 -179t-179 -74q9 50 9 77zM950 744q-106 0 -180 74t-74 180t75 180t180 74t180 -74t75 -180t-75 -180t-181 -74zM603 50q0 -27 -27 -27h-105q-27 0 -27 27v446h-128q-9 0 -12 9t1 16l207 237q14 14 23 0l205 -235q7 -7 2 -17
t-14 -10h-125v-446z" />
    <glyph glyph-name="client_download" unicode="&#xf04e;" 
d="M1063 699q139 0 237 -98t99 -237v-214q0 -27 -27 -27h-632l77 86q46 57 16 121t-100 64h-32v255q93 50 196 50h166zM1404 876q139 0 238 -98t99 -236v-214q0 -27 -28 -28h-218v64q0 137 -77 246t-203 157q39 46 64 109h125zM950 744q-106 0 -180 74t-74 180t75 180
t180 74t180 -74t75 -180t-75 -180t-181 -74zM1302 999q0 107 -60 195t-157 128q77 107 195 107t192 -74t75 -180q0 -105 -75 -179t-179 -74q9 50 9 77zM448 744q0 27 28 27h102q27 0 27 -27v-446h128q11 0 15 -9t-4 -18l-207 -235q-9 -14 -23 0l-205 235q-5 7 -1 16t13 9
h127v448z" />
    <glyph glyph-name="compose" unicode="&#xf050;" 
d="M1263 89q0 -25 -27 -25h-858q-27 0 -28 27v1281q0 25 28 25h453q23 0 45 -23l337 -332l-100 -100v50h-257v255h-355v-1033h612v202l150 148v-475zM1412 1122q6 0 12 -5l128 -127q12 -12 0 -23l-464 -464l-196 -64q-9 -2 -15 4t-3 14l64 196l466 464q2 5 8 5zM1472 1182
q0 6 5 10l64 66q11 11 20 0l132 -129q9 -12 0 -21l-66 -64q-5 -4 -11 -4t-9 4l-130 128q-5 4 -5 10z" />
    <glyph glyph-name="newspaper" unicode="&#xf051;" 
d="M355 1411h1338q27 0 27 -25v-1311q0 -25 -27 -25h-1338q-27 0 -27 25v1311q0 25 27 25zM462 1172h498q14 0 14 11v73q0 11 -14 11h-498q-11 0 -11 -11v-73q0 -11 11 -11zM974 988v72q0 11 -14 12h-498q-11 0 -11 -12v-72q0 -11 11 -12h498q14 1 14 12zM974 792v73
q0 14 -14 13h-498q-11 0 -11 -13v-73q0 -11 11 -11h498q14 0 14 11zM974 596v73q0 14 -14 14h-498q-11 0 -11 -14v-73q0 -14 11 -13h498q14 -1 14 13zM974 400v73q0 14 -14 14h-498q-11 0 -11 -14v-73q0 -11 11 -11h498q14 0 14 11zM974 205v73q0 11 -14 11h-498
q-11 0 -11 -11v-73q0 -11 11 -12h498q14 1 14 12zM1597 792v464q0 11 -11 11h-501q-11 0 -11 -11v-464q0 -11 11 -11h501q11 0 11 11zM1597 596v73q0 14 -11 14h-501q-11 0 -11 -14v-73q0 -14 11 -13h501q11 -1 11 13zM1597 400v73q0 14 -11 14h-501q-11 0 -11 -14v-73
q0 -11 11 -11h501q11 0 11 11zM1597 205v73q0 11 -11 11h-501q-11 0 -11 -11v-73q0 -11 11 -12h501q11 1 11 12z" />
    <glyph glyph-name="circle_error" unicode="&#xf052;" 
d="M1743 730q0 -298 -212 -508q-213 -210 -509 -210t-506 210t-211 508q0 298 210 508q209 210 507 212q298 0 510 -211t211 -509zM1666 730q0 264 -189 453t-454 189t-453 -189t-188 -453t188 -452t453 -189q265 1 454 189t189 452zM1106 1101v-168q0 -20 -2 -27l-39 -333
q0 -14 -16 -13h-50q-16 0 -16 13l-41 333v195q0 14 14 14h136q14 0 14 -14zM1101 482v-122q0 -14 -13 -14h-130q-14 0 -14 14v122q0 16 14 16h130q13 0 13 -16z" />
    <glyph glyph-name="circle_information" unicode="&#xf053;" 
d="M1743 730q0 -298 -212 -508q-213 -210 -509 -210t-506 210t-211 508q0 298 210 508q209 210 507 212q298 0 510 -211t211 -509zM1666 730q0 264 -189 453t-454 189t-453 -189t-188 -453t188 -452t453 -189q265 1 454 189t189 452zM948 853q-14 0 -31 -20q-15 -21 -27 -21
t-12 16t23 39q71 68 166 68q51 0 71 -32t-5 -122l-89 -242q-23 -68 -22 -73q0 -16 20 -16t30 16q11 14 18 14q14 0 14 -25t-62 -66t-137 -41q-76 0 -77 66q1 66 53 184l86 221q7 16 1 25t-20 9zM1035 1066q0 40 30 68q29 28 69 29q40 0 64 -23q24 -22 24 -62t-31 -70
t-71 -30t-62 24q-23 24 -23 64z" />
    <glyph glyph-name="circle_confirmation" unicode="&#xf054;" 
d="M1743 730q0 -298 -212 -508q-213 -210 -509 -210t-506 210t-211 508q0 298 210 508q209 210 507 212q298 0 510 -211t211 -509zM1666 730q0 264 -189 453t-454 189t-453 -189t-188 -453t188 -452t453 -189q265 1 454 189t189 452zM924 646l350 348q20 20 39 0l52 -50
q20 -20 0 -38l-425 -428q-4 -2 -10 -8t-24 12l-217 217q-20 20 0 38l51 53q23 18 38 0z" />
    <glyph glyph-name="chevron_down" unicode="&#xf055;" 
d="M1670 1172l109 -107q18 -20 0 -39l-737 -737q-18 -20 -38 0l-735 737q-18 16 0 39l109 107q18 20 38 0l599 -599q9 -9 18 0l599 599q20 20 38 0z" />
    <glyph glyph-name="chevron_up" unicode="&#xf056;" 
d="M378 289l-109 107q-18 23 0 39l737 737q18 20 38 0l735 -737q18 -18 0 -39l-109 -107q-18 -20 -38 0l-599 598q-9 9 -18 0l-601 -598q-18 -23 -36 0z" />
    <glyph glyph-name="chevron_right" unicode="&#xf057;" 
d="M583 1377l106 109q20 18 39 0l737 -737q20 -18 0 -39l-737 -735q-18 -18 -39 0l-106 109q-18 20 0 39l598 598q9 9 0 19l-598 600q-23 19 0 37z" />
    <glyph glyph-name="chevron_left" unicode="&#xf058;" 
d="M1465 1340l-598 -600q-9 -9 0 -19l598 -598q18 -18 0 -39l-106 -109q-20 -18 -39 0l-737 737q-20 20 0 39l737 735q18 18 39 0l106 -109q23 -19 0 -37z" />
    <glyph glyph-name="bullet" unicode="&#xf059;" 
d="M1270 732q0 -101 -73 -174t-174 -73t-173 73t-72 174t72 173q72 71 173 71t174 -72t73 -172z" />
    <glyph glyph-name="circle_help" unicode="&#xf060;" 
d="M1743 730q0 -298 -212 -508q-211 -210 -507 -210t-508 210t-211 508q0 298 212 508q211 210 507 212q296 0 508 -211t211 -509zM1666 730q0 264 -189 453t-453 189t-453 -189t-189 -453t189 -452t453 -189q264 1 453 189t189 452zM1024 1120q104 0 182 -57
q80 -55 80 -187q0 -48 -30 -88t-82 -83l-38 -29q-32 -25 -39 -50t-7 -68q0 -14 -16 -14h-114q-16 0 -16 14q2 86 19 122q16 36 70 80l39 30q52 48 52 90q0 40 -25 76t-85 36t-88 -41q-25 -43 -25 -71t-14 -29h-125q-14 0 -13 16q2 148 104 214q67 39 171 39zM1085 487
q14 0 14 -16v-123q0 -16 -14 -16h-129q-14 0 -14 16v123q0 16 14 16h129z" />
    <glyph glyph-name="barcode" unicode="&#xf061;" 
d="M744 353h-111q-14 0 -14 13v729q0 14 14 13h111q14 0 14 -13v-729q0 -13 -14 -13zM828 353q-14 0 -13 13v729q0 14 13 13q14 0 14 -13v-729q0 -13 -14 -13zM353 1054h-28q-14 0 -13 13v223q0 14 13 14h196q14 0 14 -14v-27q0 -14 -14 -14h-141q-14 0 -14 -13v-169
q1 -13 -13 -13zM521 157h-196q-14 0 -13 14v225q0 14 13 14h28q14 0 13 -14v-171q0 -14 14 -13h141q14 0 14 -14v-27q0 -14 -14 -14zM521 353h-29q-14 0 -14 13v729q0 14 14 13h29q14 0 14 -13v-729q0 -13 -14 -13zM997 353h-85q-14 0 -13 13v729q0 14 13 13h85q14 0 13 -13
v-729q1 -13 -13 -13zM1108 353q-14 0 -13 13v729q0 14 13 13q14 0 14 -13v-729q0 -13 -14 -13zM1220 353q-14 0 -14 13v729q0 14 14 13q14 0 13 -13v-729q1 -13 -13 -13zM1415 353h-111q-14 0 -14 13v729q0 14 14 13h111q14 0 14 -13v-729q0 -13 -14 -13zM1723 157h-223
q-14 0 -14 14v27q0 14 14 14h168q14 0 14 13v171q0 14 13 14h28q14 0 13 -14v-225q1 -14 -13 -14zM1723 1054h-28q-14 0 -13 13v169q0 14 -14 13h-141q-14 0 -14 14v27q0 14 14 14h196q14 0 13 -14v-223q1 -13 -13 -13zM1556 353h-29q-14 0 -14 13v729q0 14 14 13h29
q14 0 14 -13v-729q0 -13 -14 -13z" />
    <glyph glyph-name="back" unicode="&#xf062;" 
d="M1682 908q25 0 25 -27v-301q0 -27 -25 -27h-740v-294q0 -18 -15 -26t-28 4l-551 473q-11 9 -11 22t11 19l551 476q15 11 29 3t14 -26v-296h740z" />
    <glyph glyph-name="warning_outline" unicode="&#xf063;" 
d="M1775 251q0 -65 -47 -115t-115 -54l-2 -2h-1163q-105 0 -154 91q-48 91 4 177l574 949q52 84 151 84t151 -84l567 -933q34 -48 34 -113zM1702 254q0 40 -23 67l-566 937q-34 50 -90 50t-88 -50l-573 -946q-32 -50 -4 -104t90 -53h1152q43 0 73 29q29 30 29 70zM1049 480
h-48q-14 0 -18 14l-39 334q-2 9 -2 30v168q0 16 14 16h136q16 0 16 -16v-168l-43 -364q0 -14 -16 -14zM1104 400v-122q0 -16 -14 -16h-130q-14 0 -13 16v122q0 16 13 16h130q14 0 14 -16z" />
    <glyph glyph-name="tablet" unicode="&#xf064;" 
d="M1750 1172v-883q0 -46 -33 -79t-79 -33h-1228q-46 0 -79 33t-33 79v883q0 46 33 78t79 33h1228q46 -1 79 -33t33 -78zM423 1110v-762q0 -14 14 -13h1142q14 0 14 13v762q0 14 -14 14h-1142q-14 0 -14 -14zM1698 726q0 32 -31 32t-31 -32t31 -32t31 32z" />
    <glyph glyph-name="bin" unicode="&#xf065;" 
d="M1579 1204v-62q0 -30 -32 -29h-1046q-32 0 -32 29v62q0 32 32 32h364v86q0 23 16 39t38 16h219q50 -9 50 -55v-86h359q32 0 32 -32zM1579 990v-62q0 -30 -32 -29h-61l-91 -767q0 -18 -14 -33t-34 -15h-648q-18 0 -32 15t-14 33l-91 767h-61q-32 0 -32 29v62q0 30 32 29
h1046q32 1 32 -29zM769 853h-64q-18 0 -13 -13l66 -597q0 -14 13 -13h66q14 0 14 16l-68 596q0 11 -14 11zM1058 853h-64q-14 0 -13 -13v-597q0 -14 13 -13h64q14 0 14 13v597q0 13 -14 13zM1347 853h-64q-14 0 -13 -11l-62 -596q-5 -16 14 -16h64q14 0 13 13l62 597
q0 13 -14 13z" />
    <glyph glyph-name="upload" unicode="&#xf066;" 
d="M1504 664h146q25 0 25 -22v-530q0 -25 -25 -26h-1252q-25 0 -25 26v530q0 23 25 22h146q23 0 23 -22v-362h914v362q0 22 23 22zM922 1049h-169q-23 0 -9 18l257 298q18 20 34 0l258 -298q11 -18 -10 -18h-168v-555q0 -23 -25 -23h-146q-23 0 -22 23v555z" />
    <glyph glyph-name="circle_delete" unicode="&#xf067;" 
d="M1743 730q0 -298 -212 -508q-213 -210 -509 -210t-506 210t-211 508q0 298 210 508q209 210 507 212q298 0 510 -211t211 -509zM1666 730q0 264 -189 453t-454 189t-453 -189t-188 -453t188 -452t453 -189q265 1 454 189t189 452zM1320 922l-187 -187l187 -182
q7 -11 0 -23l-89 -89q-11 -11 -20 0l-187 185l-184 -185q-11 -11 -21 0l-91 89q-11 11 0 23l184 182l-184 187q-11 9 0 20l91 91q9 9 21 0l184 -186l187 186q9 9 20 0l89 -91q9 -11 0 -20z" />
    <glyph glyph-name="backspace" unicode="&#xf068;" 
d="M1996 1283v-1090q0 -59 -36 -99t-87 -39h-1122q-68 0 -125 57l-537 534q-37 41 -37 92t39 90l535 528q50 50 125 50l1207 -35q38 -35 38 -88zM751 1318q-34 0 -55 -25l-537 -535q-25 -20 0 -46l537 -537q27 -32 55 -32h1122q14 0 25 17t11 33v1090q0 32 -25 32l-4 3
h-1129zM1374 733l210 -210q11 -11 0 -22l-103 -101q-9 -14 -22 0l-210 210l-207 -210q-11 -11 -25 0l-100 101q-7 11 0 22l209 210l-209 209q-7 11 0 23l100 100q14 11 25 0l207 -209l210 209q14 14 22 0l103 -100q11 -11 0 -23z" />
    <glyph glyph-name="more" unicode="&#xf070;" 
d="M562 730q0 -107 -76 -182t-183 -75t-182 75t-75 182t75 182q75 76 182 76t183 -76t76 -182zM765 730q0 107 76 182q76 76 183 76t183 -76t76 -182q0 -107 -76 -182t-183 -75t-183 75t-76 182zM1486 730q0 107 76 182q76 76 183 76t182 -76t75 -182q0 -107 -75 -182
t-182 -75t-183 75t-76 182z" />
    <glyph glyph-name="stock_up" unicode="&#xf071;" 
d="M1525 257h-1002q-15 -1 -23 13t1 28l500 865q7 13 23 13t25 -13l498 -865q9 -14 1 -28t-23 -13z" />
    <glyph glyph-name="stock_down" unicode="&#xf072;" 
d="M1024 284q-16 0 -23 14l-500 865q-9 13 -1 27t23 14h1002q15 0 23 -14t-1 -27l-498 -865q-9 -14 -25 -14z" />
    <glyph glyph-name="circle_fill_information" unicode="&#xf073;" 
d="M1743 730q0 -298 -212 -508q-213 -210 -509 -210t-506 210t-211 508q0 298 210 508q209 210 507 212q298 0 510 -211t211 -509zM828 414q0 -66 76 -66t138 41t62 66t-14 25q-7 0 -18 -15q-10 -15 -30 -15t-20 16q0 5 22 73l89 242q25 91 5 123t-71 31q-96 0 -166 -68
q-23 -23 -23 -39t16 -16q7 0 23 20q17 20 31 21q14 0 20 -9t-1 -25l-86 -221q-53 -118 -53 -184zM1121 978q41 0 71 30t30 70t-24 62t-64 23q-40 -1 -69 -29q-30 -28 -30 -68t23 -64t63 -24z" />
    <glyph glyph-name="circle_fill_anchor_down" unicode="&#xf074;" 
d="M1024 339q6 0 11 5l376 375q14 14 0 25l-68 68q-11 11 -23 0l-228 -227v525q0 16 -20 16h-96q-20 0 -20 -16v-525l-228 227q-11 11 -23 0l-68 -68q-14 -11 0 -25l376 -375q5 -5 11 -5zM1025 9q-297 0 -509 212q-212 211 -211 507q0 296 212 508q213 212 509 212t508 -211
t212 -509t-212 -508t-509 -211z" />
    <glyph glyph-name="anchor_down" unicode="&#xf075;" 
d="M915 1333q0 25 32 26h154q32 0 32 -26v-828l357 360q20 20 37 0l109 -110q20 -18 0 -38l-592 -592q-9 -9 -20 -9t-18 9l-594 592q-20 20 0 38l107 110q18 18 39 0l357 -360v828z" />
    <glyph glyph-name="travel" unicode="&#xf078;" 
d="M1147 699q-73 -71 -165 -156t-118 -109t-27 -40l21 -189q2 -9 -7 -23l-20 -18q-27 -23 -44 7l-102 207q-5 7 -11 11l-208 105q-32 16 -9 43l19 18q9 9 22 9l189 -20q16 0 40 26q191 207 265 283q5 5 2 13q-2 8 -9 10l-453 77q-16 1 -20 19t7 29l64 62q7 7 15 7l615 25
q7 0 20 9q102 107 119 126t25 22q80 64 186 68q39 5 46 -5q9 -7 4 -45q-5 -107 -66 -187q-11 -11 -16 -18q-27 -23 -134 -125q-9 -14 -9 -21l-23 -612q-5 -14 -9 -18l-61 -66q-18 -18 -32 -6q-14 11 -16 22l-77 450q-2 9 -10 12t-13 -2z" />
    <glyph glyph-name="health" unicode="&#xf079;" 
d="M1186 735q-27 0 -39 -23l-50 -104l-105 384q-7 25 -35 30t-42 -23l-125 -264h-310q-98 147 -98 275t99 226t238 97q100 0 182 -53t123 -140q39 86 122 140t183 53q139 1 237 -97q199 -198 0 -501h-380zM1024 146q-22 0 -39 16q-273 262 -446 491h278q25 0 36 23l89 184
l105 -384q9 -32 36 -32h5q25 0 36 25l87 184h295q-148 -196 -373 -421l-73 -70q-14 -16 -36 -16z" />
    <glyph glyph-name="circle_fill_anchor_up" unicode="&#xf07a;" 
d="M956 346q0 -11 20 -11h98q18 0 18 11v526l228 -230q14 -9 25 0l68 70q11 11 0 25l-375 376q-8 8 -25 0l-376 -376q-14 -14 0 -25l71 -70q11 -7 22 0l226 230v-526zM305 728q-1 296 211 508t509 211q297 0 509 -210q212 -211 212 -509t-212 -508t-509 -210t-509 211
t-211 507z" />
    <glyph glyph-name="anchor_up" unicode="&#xf07b;" 
d="M1133 141q0 -25 -32 -25h-154q-32 0 -32 25v828l-360 -359q-18 -20 -34 0l-109 109q-23 18 0 36l592 594q22 22 38 0l594 -594q23 -18 0 -36l-107 -109q-18 -18 -39 0l-357 359v-828z" />
    <glyph glyph-name="minimize" unicode="&#xf07c;" 
d="M482 853h1079q25 0 25 -22v-198q0 -25 -23 -25h-1081q-20 0 -20 22v201q0 22 20 22z" />
    <glyph glyph-name="shopping" unicode="&#xf080;" 
d="M1595 1004v-927q0 -27 -27 -27h-1088q-27 0 -27 27v927q0 27 27 27h157q0 -77 18 -169q-34 -66 -2 -129q39 -83 115 -87t124 40q46 44 46 114t-64 115q-11 61 -12 116h324q-5 -68 -14 -121q-71 -59 -52 -148q11 -43 42 -74t74 -39q72 -17 126 29t54 104t-23 90
q16 75 18 159h157q27 0 27 -27zM1354 794q0 -36 -26 -62t-62 -26t-62 26q-25 26 -25 72t50 68q85 438 -203 436q-118 0 -173 -70q-86 -116 -34 -362q57 -25 57 -82q0 -36 -26 -62t-62 -26t-62 26q-25 26 -25 60t18 57q-59 303 55 450q86 112 252 112t251 -112
q114 -150 52 -443q25 -26 25 -62z" />
    <glyph glyph-name="food_dining" unicode="&#xf081;" 
d="M1231 230v-87q0 -27 -27 -27h-387q-27 0 -27 27v87h441zM1245 824h-21q-18 0 -26 16t3 27q89 105 0 196q-137 139 -29 270q7 11 20 12h28q16 0 24 -16t-4 -30q-41 -43 -40 -86t54 -98q130 -130 11 -282q-6 -9 -20 -9zM1035 824h-22q-16 0 -24 16t3 27q86 107 0 196
q-137 139 -29 270q7 11 20 12h25q18 0 26 -16t-3 -30q-43 -43 -42 -86t55 -98q130 -130 12 -282q-7 -9 -21 -9zM815 824h-21q-18 0 -26 16t3 27q89 105 0 196q-137 139 -29 270q7 11 20 12h28q16 0 24 -16t-4 -30q-41 -43 -40 -86t54 -98q130 -130 11 -282q-6 -9 -20 -9z
M1288 314h-528q-123 55 -181 156t-67 204q0 30 27 29h970q27 1 27 -29q-9 -102 -67 -204t-181 -156z" />
    <glyph glyph-name="shopping_cart" unicode="&#xf082;" 
d="M1534 414h-767q-20 0 -25 18l-212 722q-5 9 -13 9h-171q-20 0 -39 27q-18 28 -18 64t17 64t40 29h291q20 0 25 -18l87 -257h955q20 0 33 -18t6 -37l-184 -585q-5 -18 -25 -18zM1552 933h-790q-18 0 -13 -16l32 -114q5 -9 13 -9h724q9 0 13 9l35 112q4 18 -14 18zM892 321
q50 0 84 -34t34 -84q0 -51 -34 -85t-84 -34t-84 34t-34 84t34 85q34 34 84 34zM1475 687h-644q-16 0 -12 -16l30 -109q5 -11 13 -11h578q9 0 14 11l34 107q5 18 -13 18zM1279 209q0 51 34 85t83 34t84 -34q36 -34 36 -84t-36 -85q-36 -34 -84 -34q-49 0 -83 34t-34 84z" />
    <glyph glyph-name="corporate" unicode="&#xf083;" 
d="M1447 990v205q0 14 -13 13h-192q-14 0 -13 -13v-205q0 -14 13 -14h192q13 0 13 14zM1447 635v205q0 14 -13 13h-192q-14 0 -13 -13v-205q0 -14 13 -14h192q13 0 13 14zM1447 280v205q0 14 -13 13h-192q-14 0 -13 -13v-205q0 -14 13 -14h192q13 0 13 14zM1133 990v205
q0 14 -13 13h-192q-14 0 -13 -13v-205q0 -14 13 -14h192q13 0 13 14zM1133 635v205q0 14 -13 13h-192q-14 0 -13 -13v-205q0 -14 13 -14h192q13 0 13 14zM819 990v205q0 14 -13 13h-192q-14 0 -13 -13v-205q0 -14 13 -14h192q13 0 13 14zM819 635v205q0 14 -13 13h-192
q-14 0 -13 -13v-205q0 -14 13 -14h192q13 0 13 14zM819 280v205q0 14 -13 13h-192q-14 0 -13 -13v-205q0 -14 13 -14h192q13 0 13 14zM1547 1372q23 0 23 -23v-1237q0 -23 -23 -23h-393q-14 0 -14 13h-7v383q0 14 -11 13h-196q-11 0 -11 -13v-383h-7q0 -14 -14 -13h-393
q-23 0 -23 23v1237q0 23 23 23h1046z" />
    <glyph glyph-name="borrowing" unicode="&#xf084;" 
d="M1720 457q14 0 14 14v82q0 14 -14 14h-778q-14 0 -14 -14v-82q0 -14 14 -14h778zM1789 594v-505q0 -27 -28 -28h-860q-27 0 -27 28v505q0 27 27 27h860q28 0 28 -27zM1545 717h-655q-48 0 -80 -32t-32 -82v-366q0 -25 -23 -25h-225q-25 0 -25 25v480h-211q-18 0 -24 15
t5 26l626 623q18 14 37 0l625 -623q11 -11 5 -26t-23 -15z" />
    <glyph glyph-name="savings_banknotes" 
d="M1170 1138q18 0 32 -14t13 -33q0 -19 -14 -33t-31 -14h-312q-18 0 -32 14t-14 33t14 33t32 14h312zM1370 307v369q0 14 -14 13h-632q-14 0 -14 -13v-369q0 -14 14 -13h632q14 0 14 13zM1561 487q0 -239 -113 -356t-413 -120q-2 -2 -11 -2q-307 -1 -422 119t-115 359
q0 130 86 256t208 172q43 18 77 57h312q14 0 18 2q45 -45 79 -59q121 -46 207 -172t87 -256zM1040 426q27 0 47 19q19 19 19 47t-19 47q-19 21 -47 21t-46 -20q-20 -20 -20 -48q0 -27 19 -47q20 -19 47 -19zM790 558q56 0 54 54q0 11 14 12h366q14 0 14 -12q0 -56 55 -54
q11 0 11 -14v-103q0 -14 -14 -13q-52 0 -52 -55q0 -14 -14 -13h-366q-14 0 -14 13q0 55 -54 55q-14 0 -14 13v103q0 14 14 14zM933 1361q25 0 23 35t11 42q84 20 138 6t108 -65l-37 -178h-316l-57 139q-5 16 5 30t27 9q68 -18 98 -18z" />
    <glyph glyph-name="savings_gbp" 
d="M1215 1095v-5q0 -18 -14 -32t-31 -14h-319q-18 0 -32 14t-13 32v5q0 17 14 31t31 14h319q18 0 32 -14t13 -31zM1092 567h-95v13q0 123 70 123q61 0 62 -68h98q-2 132 -160 132q-171 0 -170 -200h-64v-69h68v-163h-54v-69h354v69h-204v163h95v69zM1561 487
q0 -239 -113 -356t-413 -120h-22q-300 1 -413 119t-113 359q0 130 86 255t208 173q43 18 77 57v2h330q49 -50 79 -61q121 -46 207 -172t87 -256zM933 1361q25 0 23 35t11 42q80 18 136 4t110 -68l-37 -179h-316l-57 143q-5 16 5 30t27 9q80 -16 98 -16z" />
    <glyph glyph-name="savings_dollar" 
d="M1215 1095v-5q0 -18 -14 -32t-31 -14h-319q-18 0 -32 14t-13 32v5q0 17 14 31t31 14h319q18 0 32 -14t13 -31zM1120 403q0 -50 -55 -62v130q55 -18 55 -68zM1217 415q0 63 -37 91q-38 28 -115 47v134q43 -14 43 -66h93q-2 123 -136 134v71h-55v-71q-152 -14 -152 -136
q0 -57 36 -87t116 -50v-141q-61 9 -61 75h-96q2 -134 157 -141v-63h55v63q66 5 109 41t43 99zM1561 487q0 -239 -113 -356t-413 -120h-22q-300 1 -413 119t-113 359q0 130 86 255t208 173q43 18 77 57v2h330q49 -50 79 -61q121 -46 207 -172t87 -256zM953 632q0 52 57 57
v-125q-57 16 -57 68zM933 1361q25 0 23 35t11 42q80 18 136 4t110 -68l-37 -179h-316l-57 143q-5 16 5 30t27 9q80 -16 98 -16z" />
    <glyph glyph-name="savings_euro" 
d="M1215 1095v-5q0 -18 -14 -32t-31 -14h-319q-18 0 -32 14t-13 32v5q0 17 14 31t31 14h319q18 0 32 -14t13 -31zM847 526v-55h-37l-16 -55h62q8 -93 54 -134t130 -41t107 23v84q-23 -34 -91 -34q-91 0 -103 102h132l16 55h-148v55h162l16 54h-175q9 96 102 96q66 0 93 -32
l23 73q-52 30 -116 29q-175 0 -202 -166h-46l-16 -54h53zM1561 487q0 -239 -113 -356t-413 -120h-22q-300 1 -413 119t-113 359q0 130 86 255t208 173q43 18 77 57v2h330q49 -50 79 -61q121 -46 207 -172t87 -256zM933 1361q25 0 23 35t11 42q80 18 136 4t110 -68l-37 -179
h-316l-57 143q-5 16 5 30t27 9q80 -16 98 -16z" />
    <glyph glyph-name="savings_renminbi" 
d="M1170 1140q18 0 32 -14t13 -31v-5q0 -18 -14 -32t-31 -14h-319q-18 0 -32 14t-13 32v5q0 17 14 31t31 14h319zM1201 498h-86l134 232h-102l-105 -218l-100 218h-114l132 -232h-86v-68h109v-41h-109v-54h109v-82h109v82h109v54h-109v41h109v68zM1561 487q0 -239 -113 -356
t-413 -120h-22q-300 1 -413 119t-113 359q0 130 86 255t208 173q43 18 77 57v2h330q49 -50 79 -61q121 -46 207 -172t87 -256zM933 1361q25 0 23 35t11 42q80 18 136 4t110 -68l-37 -179h-316l-57 143q-5 16 5 30t27 9q80 -16 98 -16z" />
  </font>
</defs>
</svg>
