<?xml version="1.0" standalone="no"?>
<!DOCTYPE svg PUBLIC "-//W3C//DTD SVG 1.1//EN" "http://www.w3.org/Graphics/SVG/1.1/DTD/svg11.dtd" >
<svg xmlns="http://www.w3.org/2000/svg" xmlns:xlink="http://www.w3.org/1999/xlink" version="1.1">
<metadata>
Created by FontForge 20150913 at Mon Mar 28 23:23:00 2016
 By Steve Wikeley
Copyright (c) 2016, Steve Wikeley
</metadata>
<defs>
<font id="HSBCIcon-Font" horiz-adv-x="291" >
  <font-face 
    font-family="HSBCIcon-Font"
    font-weight="400"
    font-stretch="normal"
    units-per-em="454"
    panose-1="2 0 5 3 0 0 0 0 0 0"
    ascent="390"
    descent="-64"
    bbox="-0.805085 -5 335 331"
    underline-thickness="25"
    underline-position="-76"
    unicode-range="U+E000-F106"
  />
<missing-glyph horiz-adv-x="165" 
d="M15 0v302h120v-302h-120zM30 15h90v272h-90v-272z" />
    <glyph glyph-name=".notdef" horiz-adv-x="165" 
d="M15 0v302h120v-302h-120zM30 15h90v272h-90v-272z" />
    <glyph glyph-name=".null" horiz-adv-x="0" 
 />
    <glyph glyph-name="nonmarkingreturn" horiz-adv-x="151" 
 />
    <glyph glyph-name="uniE000" unicode="&#xe000;" horiz-adv-x="271" 
d="M119 163l126 126l26 -27l-98 -99l98 -99l-26 -27zM0 163l126 126l26 -27l-98 -99l98 -99l-26 -27z" />
    <glyph glyph-name="uniE002" unicode="&#xe002;" horiz-adv-x="271" 
d="M27 289l125 -126l-125 -126l-27 27l99 99l-99 99zM146 289l125 -126l-125 -126l-27 27l99 99l-99 99z" />
    <glyph glyph-name="uniE003" unicode="&#xe003;" horiz-adv-x="213" 
d="M107 98l-107 107l23 23l84 -84l83 84l23 -23z" />
    <glyph glyph-name="uniE004" unicode="&#xe004;" horiz-adv-x="130" 
d="M0 163l107 107l23 -23l-84 -84l84 -84l-23 -23z" />
    <glyph glyph-name="uniE005" unicode="&#xe005;" horiz-adv-x="130" 
d="M130 163l-107 -107l-23 23l84 84l-84 84l23 23z" />
    <glyph glyph-name="uniE006" unicode="&#xe006;" horiz-adv-x="213" 
d="M107 228l106 -107l-23 -23l-83 84l-84 -84l-23 23z" />
    <glyph glyph-name="uniE007" unicode="&#xe007;" 
d="M145 308q60 0 103 -42.5t43 -102.5t-43 -102.5t-103 -42.5t-102.5 42.5t-42.5 102.5t42.5 102.5t102.5 42.5zM205 120l-42 43l42 43l-17 17l-43 -43l-42 43l-18 -17l43 -43l-43 -43l18 -17l42 43l43 -43z" />
    <glyph glyph-name="uniE008" unicode="&#xe008;" 
d="M145 308q60 0 103 -42.5t43 -102.5t-43 -102.5t-103 -42.5t-102.5 42.5t-42.5 102.5t42.5 102.5t102.5 42.5zM127 109l92 91l-20 19l-72 -71l-35 34q-1 0 -2 -1l-17 -18q0 -1 1 -2l36 -35l15 -16z" />
    <glyph glyph-name="uniE009" unicode="&#xe009;" 
d="M145 308q60 0 103 -42.5t43 -102.5t-43 -102.5t-103 -42.5t-102.5 42.5t-42.5 102.5t42.5 102.5t102.5 42.5zM161 87v28h-31v-28h31zM158 127l6 121h-37l6 -121h25z" />
    <glyph glyph-name="uniE010" unicode="&#xe010;" 
d="M145 308q60 0 103 -42.5t43 -102.5t-43 -102.5t-103 -42.5t-102.5 42.5t-42.5 102.5t42.5 102.5t102.5 42.5zM160 87v28h-30v-28h30zM171 159q32 26 32 47q0 41 -57 41q-16 0 -31 -3v-23q12 3 23 3q31 0 31 -22q0 -12 -20 -31q-16 -15 -16 -28v-16h27v11q0 11 11 21z" />
    <glyph glyph-name="uniE011" unicode="&#xe011;" horiz-adv-x="290" 
d="M18 187l34 34l-52 52l35 35l52 -52l34 34v-103h-103zM272 187h-103v103l34 -34l52 52l35 -35l-52 -52zM18 139h103v-103l-34 34l-52 -52l-35 35l52 52zM272 139l-34 -34l52 -52l-35 -35l-52 52l-34 -34v103h103z" />
    <glyph glyph-name="uniE012" unicode="&#xe012;" horiz-adv-x="330" 
d="M0 328h69h69v-165v-165h-69h-69v165v165zM110 25v138v138h-41h-41v-138v-138h41h41zM193 328h68h69v-165v-165h-69h-68v165v165zM303 25v138v138h-42h-41v-138v-138h41h42z" />
    <glyph glyph-name="uniE013" unicode="&#xe013;" 
d="M0 284h291v-169h-170l-73 -73v73h-48v169zM134 159v-21h23v21h-23zM131 260l5 -92h19l4 92h-28z" />
    <glyph glyph-name="uniE014" unicode="&#xe014;" 
d="M145 308q60 0 103 -42.5t43 -102.5t-43 -102.5t-103 -42.5t-102.5 42.5t-42.5 102.5t42.5 102.5t102.5 42.5zM93 144q7 9 7 20q0 9 -6 17q-7 7 -14 1q-6 -6 -2 -10t4 -10q0 -4 -5 -9q-4 -4 2 -10q6 -7 14 1zM126 126q12 15 12 38t-11 37q-5 8 -15 2q-8 -5 -2 -15
q7 -14 7 -24q0 -9 -8 -25q-5 -9 2 -15q9 -5 15 2zM147 104q9 -5 14 4q16 26 16 55q0 31 -14 56q-5 9 -14 4q-10 -6 -4 -15q11 -18 11 -45q0 -25 -12 -44q-6 -10 3 -15zM196 87q21 35 22 76q0 40 -19 75q-5 9 -14 4t-4 -14q16 -28 16 -65q-2 -37 -18 -65q-5 -9 3 -14
q9 -5 14 3z" />
    <glyph glyph-name="uniE015" unicode="&#xe015;" 
d="M145 308q60 0 103 -42.5t43 -102.5t-43 -102.5t-103 -42.5t-102.5 42.5t-42.5 102.5t42.5 102.5t102.5 42.5zM145 42q50 0 85.5 35.5t35.5 85.5t-35.5 85.5t-85.5 35.5t-85.5 -35.5t-35.5 -85.5t35.5 -85.5t85.5 -35.5zM80 182q7 6 14 -1q5 -7 5 -17q0 -12 -6 -20
q-7 -8 -14 -1q-6 6 -2 10q5 5 5 9q0 6 -4 10t2 10zM112 203q9 7 15 -2q11 -14 11 -37t-12 -38q-7 -9 -15 -2q-7 6 -2 15q8 8 8 25q0 10 -7 24q-6 10 2 15zM185 242q10 6 13 -3q19 -36 19 -76t-21 -76q-5 -8 -14 -3q-8 5 -3 14q18 31 18 65q1 35 -16 65q-5 9 4 14zM163 219
q15 -27 15 -56q0 -28 -17 -55q-5 -9 -14 -4t-3 15q12 19 12 44q0 27 -11 45q-6 9 4 15q9 5 14 -4z" />
    <glyph glyph-name="uniE016" unicode="&#xe016;" 
d="M0 224h61v-25h-37v-157h170v48h24v-72h-218v206zM121 114h145v170h-181v-133l-24 -25v182h230v-218h-194zM97 187h60v-61l-21 22l-82 -82l-17 17l82 82zM109 247v13h133v-13h-133zM109 211v13h133v-13h-133zM181 175v12h61v-12h-61zM182 139v12h60v-12h-60z" />
    <glyph glyph-name="uniE017" unicode="&#xe017;" horiz-adv-x="160" 
d="M160 220l-57 -57l57 -57l-23 -23l-57 57l-57 -57l-23 23l57 57l-57 57l23 23l57 -57l57 57z" />
    <glyph glyph-name="uniE018" unicode="&#xe018;" 
d="M285 284q6 0 6 -5v-171q0 -6 -5 -6h-107q-6 -26 1 -35q3 -4 9.5 -8.5t11.5 -6.5l5 -3v-7h-121v7q20 10 26 18q3 4 3.5 12.5t-0.5 15.5l-2 7h-107q-5 0 -5 6v171q0 5 5 5h280zM267 127v133h-242v-133h242z" />
    <glyph glyph-name="uniE019" unicode="&#xe019;" horiz-adv-x="290" 
d="M0 223v85h85v-85h-85zM103 223v85h84v-85h-84zM205 223v85h85v-85h-85zM0 18v85h85v-85h-85zM103 18v85h84v-85h-84zM205 18v85h85v-85h-85zM0 120v85h85v-85h-85zM103 120v85h84v-85h-84zM205 120v85h85v-85h-85z" />
    <glyph glyph-name="uniE020" unicode="&#xe020;" horiz-adv-x="290" 
d="M260 309l11 -12l-260 -259l-11 11l50 50q-14 12 -26.5 28t-17.5 26l-6 10q2 4 6 10.5t17.5 23.5t28.5 30t40.5 23.5t52.5 10.5q31 0 56 -11zM117 227q-15 -7 -21 -18q-7 -12 -7 -27q0 -7 8 -7q7 2 7 9q0 10 4 17q5 7 14 12q7 4 4 10q-2 8 -9 4zM24 163q15 -27 42 -48
l19 19q-14 19 -14 43q0 30 21 51q-42 -20 -68 -65zM219 177q0 -31 -21.5 -52.5t-52.5 -21.5q-18 0 -36 10l100 100q10 -18 10 -36zM230 234q17 -12 32 -29.5t22 -29.5l6 -12q-2 -4 -6 -10.5t-17.5 -23.5t-28.5 -30t-40.5 -23.5t-52.5 -10.5q-38 0 -68 16l16 16
q24 -11 52 -11q32 0 60.5 17t40.5 31.5t20 28.5q-21 34 -51 55z" />
    <glyph glyph-name="uniE021" unicode="&#xe021;" horiz-adv-x="218" 
d="M145 308l73 -72v-218h-218v290h145zM194 42v182h-61v60h-109v-242h170z" />
    <glyph glyph-name="uniE022" unicode="&#xe022;" 
d="M0 248h291v-170h-291v170zM266 138v50q-1 0 -3 -0.5t-3 -0.5q-13 0 -21.5 8.5t-8.5 21.5q0 1 0.5 3.5t0.5 3.5h-171q0 -1 0.5 -3.5t0.5 -3.5q0 -13 -9 -21.5t-22 -8.5q-1 0 -3 0.5t-3 0.5v-50q1 0 3 0.5t3 0.5q13 0 22 -8.5t9 -21.5q0 -1 -0.5 -3.5t-0.5 -3.5h171
q0 1 -0.5 3.5t-0.5 3.5q0 13 8.5 21.5t21.5 8.5q1 0 3 -0.5t3 -0.5zM145 211q20 0 34.5 -14t14.5 -34t-14.5 -34t-34.5 -14t-34 14t-14 34t14 34t34 14zM156 127v72h-16q-6 -6 -19 -11v-15q11 3 17 10v-56h18z" />
    <glyph glyph-name="uniE024" unicode="&#xe024;" 
d="M228 146l23 19v-112h-251v158h91q-7 -9 -15 -24h-52v-111h204v70zM206 243v42l85 -69l-85 -69v42q-23 0 -35 -2q-17 -3 -28 -6l-10 -4q-12 -4 -23 -12q-7 -5 -16 -14q-6 -5 -10 -13q-5 -8 -5 -10q0 -1 -2 -5q-1 31 8 53q5 15 17 27q11 13 22 19q15 8 35 14q19 5 47 7z
" />
    <glyph glyph-name="uniE025" unicode="&#xe025;" 
d="M0 308h291v-290h-85v107h41l2 38h-42v26v2q0 17 16 17h25l1 36q-12 2 -27 2q-28 0 -42 -14.5t-14 -35.5v-33h-28v-38h28v-107h-166v290z" />
    <glyph glyph-name="uniE026" unicode="&#xe026;" horiz-adv-x="128" 
d="M33 18v124h-33v44h33v38q0 25 16 41.5t48 16.5l31 -2l-1 -42h-28q-19 0 -19 -19v-2v-31h48l-2 -44h-47v-124h-46z" />
    <glyph glyph-name="uniE027" unicode="&#xe027;" 
d="M0 308h291v-36l-122 -136v-118l-48 40v78l-121 136v36z" />
    <glyph glyph-name="uniE028" unicode="&#xe028;" 
d="M112 246q6 -4 11 -13q8 -18 8 -33q0 -1 -0.5 -4t-0.5 -5q-2 -6 -4 -10q-8 -8 -18 -8q-7 0 -15 5q-6 5 -11 13q-9 17 -9 30q0 12 6 21q7 9 18 9q8 0 15 -5zM110 129h7q17 -12 23 -18t6 -18q0 -14 -10 -21q-11 -8 -29 -8q-22 0 -34 9q-13 9 -13 24q0 7 3 12q1 1 2 3t2 3.5
t2 2.5l8 4l6 3q7 2 17 4h5h3h2zM0 308h291v-290h-291v290zM141 245l-5 5h17l16 10h-54q-11 0 -23 -3q-14 -3 -25 -12q-16 -16 -16 -37q0 -18 11 -29q12 -14 33 -14q1 0 4 0.5t5 0.5q0 -3 -1 -5t-1 -6q0 -7 2 -10q1 -1 3 -3.5t3 -4.5q-14 0 -24 -2q-16 -3 -28 -10
q-12 -8 -17 -17q-4 -8 -4 -17q0 -14 14 -26q13 -12 43 -12q35 0 52 16q17 14 17 35q0 14 -6 23q-6 7 -15 15l-9 8l-4 4q-3 3 -3 7q0 5 3 8q1 1 2 3t2 3q3 2 8 7q2 2 6 8q7 10 7 23q0 6 -2 14q-1 4 -5 10t-6 8zM254 158v17h-1h-28v29h-17v-29h-29v-16h1v-1h28v-28h17v28h29z
" />
    <glyph glyph-name="uniE029" unicode="&#xe029;" horiz-adv-x="257" 
d="M156 284l-20 -11h-20q4 -2 7 -5q0 -1 3 -4.5t4 -5.5l6 -12q2 -5 2 -17q0 -16 -8 -27q-6 -9 -7 -10q-2 -2 -5.5 -4t-4.5 -4q-1 -1 -2.5 -3.5t-2.5 -3.5q-3 -5 -3 -9q0 -6 3 -9l5 -5l11 -9q11 -10 18 -19q7 -10 7 -26q0 -25 -20 -42q-22 -19 -62 -19q-33 0 -50 14t-17 32
q0 11 5 20q4 10 20 19q15 9 32 12q16 3 28 3l-6 9q-3 4 -3 13q0 5 1 7q1 1 1 2.5t1 2.5q-2 0 -5.5 -0.5t-4.5 -0.5q-25 0 -39 17q-14 16 -14 34q0 23 20 43q14 12 28 15q15 3 28 3h64zM121 108q-7 8 -26 21h-8q-5 0 -12 -1q-14 -2 -21 -4l-2 -1l-4 -2t-10 -6q-4 -3 -7 -9
q-4 -8 -4 -15q0 -17 16 -28t40 -11q21 0 34 10q12 10 12 25q0 11 -8 21zM110 203q0 2 0.5 6t0.5 5q0 19 -9 38q-4 9 -12 15t-18 6q-13 0 -22 -10q-7 -10 -7 -24q0 -17 11 -37q4 -7 12 -14q9 -7 18 -7q11 0 21 10q3 4 5 12zM256 184h1v-20h-35v-34h-19v34h-34v1v19h34v34h19
v-34h34z" />
    <glyph glyph-name="uniE030" unicode="&#xe030;" 
d="M0 188v120h121v-120h-121zM24 285v-74h73v74h-73zM170 308h121v-120h-121v120zM266 211v74h-72v-74h72zM0 18v120h121v-120h-121zM24 115v-74h73v74h-73zM170 18v120h121v-120h-121zM194 115v-74h72v74h-72z" />
    <glyph glyph-name="uniE031" unicode="&#xe031;" 
d="M181 215l36 36q-5 8 -5 18q0 16 11.5 27.5t28.5 11.5q16 0 27.5 -11t11.5 -28t-11.5 -28t-27.5 -11q-12 0 -19 4l-35 -36q11 -16 11 -35q0 -16 -8 -30l39 -38q4 1 12 1q16 0 27.5 -11t11.5 -28t-11.5 -28t-27.5 -11q-17 0 -28.5 11.5t-11.5 27.5q0 13 8 24l-34 34
q-18 -15 -40 -15q-20 0 -36 11l-36 -36q5 -8 5 -18q0 -17 -11.5 -28t-27.5 -11q-17 0 -28.5 11.5t-11.5 27.5t11.5 27.5t28.5 11.5q11 0 18 -4l36 36q-11 16 -11 35q0 23 14 40l-34 34q-10 -7 -24 -7q-17 0 -28 11t-11 28t11 28t28 11t28.5 -11.5t11.5 -27.5q0 -4 -2 -12
l39 -39q14 8 30 8q19 0 35 -11z" />
    <glyph glyph-name="uniE032" unicode="&#xe032;" 
d="M140 108l-9 8l17 16l25 -24l-90 -90l-83 83l90 89l24 -24l-16 -17l-8 8l-57 -56l50 -50zM151 218l9 -8l-17 -16l-25 24l89 90l84 -83l-90 -89l-25 24l16 17l9 -8l57 56l-51 50zM85 119l104 104l17 -17l-104 -103z" />
    <glyph glyph-name="uniE033" unicode="&#xe033;" 
d="M0 308h291v-290h-291v290zM70 260q-10 0 -16 -6.5t-6 -15.5t6 -15.5t16 -6.5q22 0 22 22q0 9 -6 15.5t-16 6.5zM94 70h1v132h-44v-132h43zM254 70v74q0 29 -13 45t-35 16q-23 0 -39 -21v18h-44v-132h44v72q0 7 1 10q6 16 22 16q21 0 21 -29v-69h43z" />
    <glyph glyph-name="uniE034" unicode="&#xe034;" horiz-adv-x="238" 
d="M25 273q11 0 18 -7t7 -18t-6.5 -18.5t-18.5 -7.5q-11 0 -18 7.5t-7 18.5t7 18t18 7zM53 54h-50v152h50v-152zM238 54h-50v79q0 34 -24 34q-18 0 -26 -19q-1 -3 -1 -11v-83h-51q1 138 0 152h51v-21q17 25 45 25q25 0 40.5 -19t15.5 -52v-85z" />
    <glyph glyph-name="uniE035" unicode="&#xe035;" 
d="M0 18v290h291v-218l-73 -72h-218zM24 284v-242h182v60h60v182h-242zM122 236q0 10 7 17t17 7t17 -7t7 -17t-7 -17.5t-17 -7.5t-17 7.5t-7 17.5z" />
    <glyph glyph-name="uniE036" unicode="&#xe036;" horiz-adv-x="168" 
d="M133 43h-37v36q31 5 51.5 28t20.5 54q0 12 -12 12t-12 -12q0 -25 -17.5 -42.5t-42.5 -17.5t-42.5 17.5t-17.5 42.5q0 12 -12 12t-12 -12q0 -31 20.5 -54t51.5 -28v-36h-36q-12 0 -12 -13q0 -12 12 -12h97q12 0 12 12q0 13 -12 13v0zM84 115q20 0 34 14t14 34v97
q0 20 -14 34t-34 14t-34 -14t-14 -34v-97q0 -20 14 -34t34 -14v0z" />
    <glyph glyph-name="uniE037" unicode="&#xe037;" horiz-adv-x="48" 
d="M0 42q0 10 7 17t17 7t17 -7t7 -17t-7 -17t-17 -7t-17 7t-7 17zM0 163q0 10 7 17t17 7t17 -7t7 -17t-7 -17t-17 -7t-17 7t-7 17zM0 284q0 10 7 17t17 7t17 -7t7 -17t-7 -17t-17 -7t-17 7t-7 17z" />
    <glyph glyph-name="uniE038" unicode="&#xe038;" horiz-adv-x="278" 
d="M0 60v145q0 9 9 9h200q9 0 9 -9v-145q0 -9 -9 -9h-200q-9 0 -9 9zM18 192v-14h182v14q0 4 -5 4h-172q-5 0 -5 -4zM195 69q5 0 5 5v68h-182v-68q0 -5 5 -5h172zM239 245q9 0 9 -9v-146q0 -9 -9 -9h-9v136q0 10 -9 10h-191v9q0 9 9 9h200zM269 275q9 0 9 -9v-145
q0 -9 -9 -9h-9v136q0 9 -9 9h-190v9q0 9 9 9h199z" />
    <glyph glyph-name="uniE039" unicode="&#xe039;" 
d="M162 224h-138v-182h182v138l26 26v-188h-232v232h189zM177 308h114v-113l-41 40l-125 -124l-32 32l125 124z" />
    <glyph glyph-name="uniE040" unicode="&#xe040;" horiz-adv-x="145" 
d="M0 308l145 -145l-145 -145v290z" />
    <glyph glyph-name="uniE041" unicode="&#xe041;" 
d="M0 248h36v-194h206v-36h-242v230zM291 78h-230v230h230v-230zM266 284h-181v-182h181v182z" />
    <glyph glyph-name="uniE042" unicode="&#xe042;" horiz-adv-x="290" 
d="M185 283h105v-75q0 -44 -8 -73q-7 -26 -30 -47t-55 -33l-21 44q32 11 45 29t15 50h-51v105zM9 283h105v-75q0 -44 -8 -73q-7 -26 -30 -47t-55 -33l-21 44q32 11 45 29t15 50h-52v105h1z" />
    <glyph glyph-name="uniE043" unicode="&#xe043;" horiz-adv-x="290" 
d="M105 55h-105v75q0 44 8 73q7 26 30 47q22 21 56 33l20 -43q-32 -10 -45 -30q-13 -18 -15 -50h52v-105h-1zM281 55h-105v75q0 44 8 73q7 26 30 47q22 21 56 33l20 -44q-32 -11 -45 -29q-12 -17 -14 -50h51v-105h-1z" />
    <glyph glyph-name="uniE044" unicode="&#xe044;" 
d="M36 163q0 45 32 77t77 32t77 -32l-44 -45h113v113l-43 -42q-42 42 -103 42q-60 0 -102.5 -42.5t-42.5 -102.5h36zM254 163q0 -45 -32 -77t-77 -32t-77 32l45 45h-113v-113l43 42q42 -42 103 -42q60 0 102.5 42.5t42.5 102.5h-37z" />
    <glyph glyph-name="uniE045" unicode="&#xe045;" 
d="M267 284h24l-24 -24h-15l-130 -129l-2 -1l10 -9l28 28q3 -7 3 -15q0 -19 -13 -31.5t-31 -12.5q-19 0 -32 13t-13 31t13.5 31t31.5 13q14 0 26 -9l13 12q-18 15 -40 15q-26 0 -44.5 -18.5t-18.5 -44.5t18.5 -44t44.5 -18t44 18t18 44q0 17 -7 30l15 14q12 -20 12 -44
q0 -35 -24 -58.5t-58 -23.5q-35 0 -59 24t-24 58q0 35 24.5 59t58.5 24q30 0 54 -21l13 13q-28 25 -67 25q-41 0 -70 -29t-29 -70t29 -70t70 -29t70 29t29 70q0 31 -17 56l12 12q22 -30 22 -68q0 -48 -34 -82t-82 -34t-82 34t-34 82t34 82t82 34q46 0 79 -30l49 49v17l23 22
v-24z" />
    <glyph glyph-name="uniE046" unicode="&#xe046;" 
d="M66 252q28 0 47.5 6.5t19.5 15.5v-23q0 -9 -20 -15.5t-47 -6.5t-46.5 6.5t-19.5 15.5v23q0 -9 19 -15.5t47 -6.5zM66 217q28 0 47.5 6.5t19.5 15.5v-23q0 -9 -20 -15.5t-47 -6.5t-46.5 6.5t-19.5 15.5v23q0 -9 19 -15.5t47 -6.5zM66 182q28 0 47.5 6.5t19.5 15.5v-23
q0 -9 -20 -16t-47 -7t-46.5 7t-19.5 16v23q0 -9 19 -15.5t47 -6.5zM66 147q28 0 47.5 6.5t19.5 15.5v-24q0 -9 -20 -15.5t-47 -6.5t-46.5 6.5t-19.5 15.5v24q0 -9 19 -15.5t47 -6.5zM66 112q28 0 47.5 6.5t19.5 15.5v-24q0 -9 -20 -15.5t-47 -6.5t-46.5 6.5t-19.5 15.5v24
q0 -9 19.5 -15.5t46.5 -6.5zM66 76q27 0 47 7t20 16v-24q0 -9 -20 -15.5t-47 -6.5t-46.5 6.5t-19.5 15.5v24q0 -9 19.5 -16t46.5 -7zM66 41q28 0 47.5 6.5t19.5 15.5v-23q0 -9 -20 -16t-47 -7t-46.5 7t-19.5 16v23q0 -9 19.5 -15.5t46.5 -6.5zM66 264q-28 0 -47 6.5
t-19 15.5t19.5 15.5t46.5 6.5q28 0 47.5 -6.5t19.5 -15.5t-19.5 -15.5t-47.5 -6.5zM225 147q27 0 46.5 6.5t19.5 15.5v-24q0 -9 -19 -15.5t-47 -6.5t-48 6.5t-20 15.5v24q0 -9 20.5 -15.5t47.5 -6.5zM225 112q27 0 46.5 6.5t19.5 15.5v-24q0 -9 -19 -15.5t-47 -6.5t-48 6.5
t-20 15.5v24q0 -9 20.5 -15.5t47.5 -6.5zM225 76q27 0 46.5 7t19.5 16v-24q0 -9 -19 -15.5t-47 -6.5t-48 6.5t-20 15.5v24q0 -9 20.5 -16t47.5 -7zM225 41q27 0 46.5 6.5t19.5 15.5v-23q0 -9 -19 -15.5t-47 -6.5t-48 6.5t-20 15.5v23q0 -9 20.5 -15.5t47.5 -6.5zM225 159
q-27 0 -47.5 6.5t-20.5 15.5t20 15.5t48 6.5t47 -6.5t19 -15.5t-19.5 -15.5t-46.5 -6.5z" />
    <glyph glyph-name="uniE047" unicode="&#xe047;" horiz-adv-x="288" 
d="M71 235v12h109v-12h-109zM71 200v11h109v-11h-109zM71 163v12h109v-12h-109zM71 126v13h73v-13h-73zM288 266h-60v-176v-23q0 -20 -14.5 -34.5t-34.5 -14.5h-37h-91h-3q-20 0 -34 14t-14 34h24v193q0 20 14 34.5t34 14.5h173h1q17 0 29.5 -12.5t12.5 -29.5zM204 194v72v0
q0 11 4 18h-135q-11 0 -18 -7t-7 -18v-192h107v-1q0 -22 22 -24h2q11 0 18 7t7 18v127z" />
    <glyph glyph-name="uniE048" unicode="&#xe048;" horiz-adv-x="218" 
d="M0 308h218v-290h-218v290zM73 42v48h-49v-48h49zM73 102v49h-49v-49h49zM73 163v48h-49v-48h49zM133 42v48h-48v-48h48zM133 102v49h-48v-49h48zM133 163v48h-48v-48h48zM194 42v48h-49v-48h49zM194 102v49h-49v-49h49zM194 163v48h-49v-48h49zM194 236v48h-170v-48h170z
" />
    <glyph glyph-name="uniE049" unicode="&#xe049;" horiz-adv-x="290" 
d="M0 199v48h48v-48h-48zM60 199v48h48v-48h-48zM120 199v48h49v-48h-49zM181 199v48h48v-48h-48zM241 199v48h49v-48h-49zM30 138v49h48v-49h-48zM90 138v49h49v-49h-49zM151 138v49h48v-49h-48zM211 138v49h48v-49h-48zM36 78v49h217v-49h-217z" />
    <glyph glyph-name="uniE050" unicode="&#xe050;" horiz-adv-x="289" 
d="M289 247l-21 -20l-35 36l20 21l36 -37v0zM225 255l35 -36l-111 -111l-53 -17l17 53l112 111v0zM0 42v25h289v-25h-289zM85 164l-12 12l-30 -30l-31 30l-12 -12l31 -30l-31 -31l12 -12l31 31l30 -31l12 12l-30 31l30 30v0z" />
    <glyph glyph-name="uniE051" unicode="&#xe051;" horiz-adv-x="157" 
d="M60 211l97 97v-290l-97 84h-60v109h60z" />
    <glyph glyph-name="uniE052" unicode="&#xe052;" 
d="M0 308h291v-290h-291v290zM233 207q14 11 23 23q-8 -4 -26 -6q16 9 20 25q-18 -10 -28 -12q-15 15 -33 15q-19 0 -32 -13t-13 -32q0 -7 1 -10q-58 3 -93 47q-6 -10 -6 -23q0 -24 20 -37q-9 0 -21 6v-1q0 -16 10 -28.5t26 -15.5q-8 -2 -11 -2q-7 0 -9 1q10 -30 42 -32
q-24 -19 -56 -19q-8 0 -11 1q32 -21 69 -21q58 0 93.5 40t35.5 89q0 1 -0.5 2.5t-0.5 2.5z" />
    <glyph glyph-name="uniE053" unicode="&#xe053;" horiz-adv-x="268" 
d="M241 218v-7q0 -60 -43 -108.5t-114 -48.5q-45 0 -84 25h13q40 0 69 23q-40 2 -52 38q3 -1 11 -1q7 0 14 3q-19 4 -31.5 19t-12.5 34v1q12 -7 25 -7q-25 17 -25 46q0 15 8 28q44 -55 113 -58q-1 4 -1 12q0 23 16 39t39 16t40 -17q24 6 35 13q-6 -20 -24 -30q20 4 31 9
q-14 -20 -27 -29z" />
    <glyph glyph-name="uniE054" unicode="&#xe054;" 
d="M0 308h291v-290h-291v290zM242 199q2 40 -29 40q-42 1 -57 -47q8 3 15 3q15 0 14 -17q-1 -9 -14 -30q-12 -20 -18 -20q-8 0 -15 30q-1 4 -8 46q-6 36 -29 33q-12 -2 -30 -18q-5 -5 -16.5 -15t-12.5 -11l9 -12q13 9 16 9q11 0 20 -32q3 -10 8.5 -30t7.5 -30q12 -32 29 -32
q28 0 69 53q40 52 41 80z" />
    <glyph glyph-name="uniE055" unicode="&#xe055;" horiz-adv-x="250" 
d="M250 221q-1 -37 -51 -100q-52 -67 -86 -67q-22 0 -37 41q-3 12 -9.5 37t-10.5 37q-12 40 -25 40q-4 0 -19 -11l-12 15q6 5 18.5 15.5t18.5 16.5q25 21 37 23q28 3 36 -40q8 -51 10 -58q9 -38 18 -38q8 0 24 25q16 24 17 37q3 22 -17 22q-11 0 -19 -4q18 61 71 59
q39 -1 36 -50z" />
    <glyph glyph-name="uniE056" unicode="&#xe056;" 
d="M108 130q11 0 11 -10q0 -5 -4 -9t-9 -4q-12 0 -12 11q0 12 14 12zM126 136q4 0 4 -4q0 -5 -5 -5t-5 4q0 5 6 5zM128 175q25 0 44 -11t19 -30q0 -20 -23 -34.5t-51 -14.5q-27 0 -45 12t-18 29q0 18 21 33.5t53 15.5zM115 94q17 0 28 11t11 23t-9 20.5t-24 8.5t-27 -10.5
t-12 -23.5q0 -10 8.5 -19.5t24.5 -9.5zM0 308h291v-290h-291v290zM126 72q42 0 73 20t31 45q0 12 -8 19t-16 10t-8 4q0 2 2 7t2 9q0 18 -22 18q-7 0 -15.5 -2t-13.5 -4.5t-6 -2.5q-3 0 -3 2q0 1 1 2.5t1.5 5t0.5 8.5q0 17 -18 17q-28 0 -61.5 -34.5t-33.5 -62.5t29 -44.5
t65 -16.5zM198 211q7 0 11 -4.5t4 -9.5q0 -2 -0.5 -4.5t-0.5 -3.5q0 -7 7 -7q9 0 9 14q0 15 -10 22.5t-20 7.5q-12 0 -12 -9q0 -7 7 -7q1 0 2.5 0.5t2.5 0.5zM248 171q11 0 10 25q0 28 -19 44t-41 16q-19 0 -19 -10q0 -9 9 -9q1 0 4 1t7 1q17 0 30 -12t13 -31
q0 -6 -1.5 -10.5t-1.5 -5.5q0 -9 9 -9z" />
    <glyph glyph-name="uniE057" unicode="&#xe057;" horiz-adv-x="287" 
d="M210 173q0 -1 10 -5t20.5 -13.5t10.5 -24.5q0 -32 -39 -57t-93 -25q-45 0 -82 21t-37 56t42.5 78.5t77.5 43.5q23 0 23 -21q0 -6 -0.5 -10.5t-1.5 -6.5t-1 -3q0 -2 3 -2q1 0 8 3t17 5.5t19 2.5q28 0 28 -22q0 -6 -2.5 -12t-2.5 -8zM108 64q36 0 65 18.5t29 43.5
q0 24 -24 38t-56 14q-40 0 -66.5 -19t-26.5 -42q0 -22 22.5 -37.5t56.5 -15.5zM238 187q-9 0 -9 9q0 1 0.5 3.5t0.5 5.5q-3 18 -19 18q-1 0 -3.5 -0.5t-3.5 -0.5q-8 0 -8 9q0 11 15 11q13 0 25 -9.5t12 -28.5q0 -17 -10 -17zM211 280q27 0 51.5 -20.5t24.5 -55.5
q1 -31 -14 -31q-11 0 -11 11q0 1 1.5 6.5t1.5 13.5q0 24 -16.5 39t-37.5 15q-5 0 -9 -0.5t-5 -0.5q-11 0 -11 10q0 13 25 13zM113 155q19 0 30.5 -10.5t11.5 -25.5q0 -16 -14 -29.5t-36 -13.5q-21 0 -31 11.5t-10 24.5q0 17 14.5 30t34.5 13zM94 93q6 0 11 5t5 11
q0 13 -13 13q-7 0 -12.5 -5t-5.5 -11q0 -13 15 -13zM117 117q7 0 7 7q0 5 -5 5q-7 0 -7 -6t5 -6z" />
    <glyph glyph-name="uniE058" unicode="&#xe058;" 
d="M0 308h291v-290h-291v290zM253 152v23q0 20 -2 32q-3 16 -9 22t-18 8q-11 2 -79 2q-64 0 -80 -2q-12 -2 -19 -10q-5 -6 -7 -19q-3 -21 -3 -34v-23q0 -13 2 -27q2 -13 6 -21q6 -10 18 -13q15 -3 83 -3q56 0 76 2q12 2 19 7q9 8 11 24t2 32zM123 133v61l59 -31z" />
    <glyph glyph-name="uniE059" unicode="&#xe059;" horiz-adv-x="268" 
d="M265 217q3 -22 3 -44v-21l-3 -43q-3 -19 -11 -27q-6 -7 -27 -11l-93 -2q-70 0 -91 2q-23 4 -30 12q-4 4 -6.5 10.5t-2.5 10.5l-1 5q-3 22 -3 44v20l3 43q2 19 10 27q6 7 27 11l94 3q55 0 93 -3q21 -4 27 -11q4 -4 6.5 -10.5t3.5 -10.5zM106 128l73 37l-73 38v-75z" />
    <glyph glyph-name="uniE060" unicode="&#xe060;" horiz-adv-x="270" 
d="M255 200l15 -15q-132 -139 -136 -143q-8 -8 -21 -15.5t-40 -7.5t-50 23q-53 54 12 119l138 140q7 7 20 7q7 0 11.5 -2t5.5 -4l2 -1l39 -38q7 -6 7 -18q0 -6 -2 -10.5t-4 -6.5l-1 -2q-147 -150 -150 -153q-23 -23 -46 0q-11 11 -11 22.5t6 17.5l5 6l72 74l16 -16l-73 -76
q-7 -7 0 -14q4 -3 7 -3t5 2l2 2l144 147q4 4 4 9l-4 9l-25 25q-3 4 -10 4l-10 -4q-131 -135 -136 -140q-4 -4 -8 -10t-10 -17.5t-3 -25.5t15 -26q39 -39 83 6z" />
    <glyph glyph-name="uniE061" unicode="&#xe061;" 
d="M194 42v59l24 25v-108h-218v290h145l73 -72v-16l-24 -24v28h-61v60h-109v-242h170zM124 109l111 111l30 -30l-111 -111l-45 -15zM261 246l30 -30l-17 -17l-30 30z" />
    <glyph glyph-name="uniE062" unicode="&#xe062;" horiz-adv-x="242" 
d="M66 142q0 -2 -2 -6q-4 -2 -6 -2h-10v16h10q2 0 6 -2q2 -1 2 -6zM112 150q8 0 11 -4q2 -3 2 -13q0 -4 -2 -10q-3 -8 -11 -8h-10v35h10zM169 308l73 -72v-218h-218v60h-24v109h24v121h145zM48 105v20h11q10 0 14 4t4 14q0 9 -4 13t-13 4h-24v-55h12zM218 42v36h-170v-36
h170zM91 105h23q13 0 19 10q4 7 4 19q0 6 -1 9q-2 6 -4 9q-4 6 -9 7q-2 1 -9 1h-23v-55zM185 138h-24v12h28v10h-39v-55h11v23h24v10zM218 187v37h-61v60h-109v-97h170z" />
    <glyph glyph-name="uniE063" unicode="&#xe063;" horiz-adv-x="290" 
d="M288 168l2 -5l-2 -5q-3 -5 -6.5 -11.5t-16.5 -22.5t-28 -28t-40 -21.5t-52 -9.5t-51.5 9.5t-39.5 21.5t-28.5 28t-17.5 22.5t-6 11.5l-2 5l2 5q3 5 6.5 11.5t16.5 22.5t28 28t40 21.5t52 9.5t51.5 -9.5t39.5 -21.5t28.5 -28t17.5 -22.5t6 -11.5zM104 184q0 10 4 17
q5 7 14 12q7 4 4 10q-2 8 -9 4q-15 -7 -21 -18q-7 -12 -7 -27q0 -7 8 -7q7 2 7 9zM145 86q32 0 60.5 17t40.5 31.5t20 28.5q-27 46 -67 65q20 -22 20 -51q0 -31 -21.5 -52.5t-52.5 -21.5t-52.5 21.5t-21.5 52.5q0 30 21 51q-42 -20 -68 -65q8 -14 20 -28.5t40.5 -31.5
t60.5 -17z" />
    <glyph glyph-name="uniF000" unicode="&#xf000;" 
d="M242 62v89h49v-133h-291v133h48v-89h194zM67 190h54v118h48v-118h55l-79 -78z" />
    <glyph glyph-name="uniF001" unicode="&#xf001;" 
d="M291 253l-31 -30l-54 54l31 31zM194 265l54 -54l-169 -168l-79 -25l25 79z" />
    <glyph glyph-name="uniF002" unicode="&#xf002;" horiz-adv-x="240" 
d="M240 249l-86 -86l86 -86l-34 -34l-86 86l-86 -86l-34 34l86 86l-86 86l34 34l86 -86l86 86z" />
    <glyph glyph-name="uniF004" unicode="&#xf004;" 
d="M254 151h37v-133h-291v133h36v157h146l72 -72v-85zM61 284v-133h169v73h-61v60h-108zM242 66q8 0 13 5t5 13t-5 13t-13 5t-13 -5t-5 -13t5 -13t13 -5z" />
    <glyph glyph-name="uniF005" unicode="&#xf005;" horiz-adv-x="290" 
d="M43 307q16 5 31.5 -15t23.5 -42l8 -23l-34 -28q10 -32 44 -67q15 -16 31.5 -27t24.5 -15l9 -3l30 37q42 -9 77 -32q4 -2 2 -6q-5 -34 -27 -53t-56 -15q-12 1 -33.5 9.5t-54 27.5t-64.5 59.5t-51 95.5q-10 26 1.5 57t37.5 40z" />
    <glyph glyph-name="uniF006" unicode="&#xf006;" 
d="M145 119l146 139v-199v-5h-291v5v199zM17 272h257l-129 -123z" />
    <glyph glyph-name="uniF007" unicode="&#xf007;" 
d="M291 51l-33 -33l-103 102q-24 -15 -54 -15q-42 0 -71 30q-30 30 -30 72q0 43 29 72t72 29t72 -29q30 -30 30 -72q0 -30 -15 -54zM23 207q0 -32 23.5 -55.5t55.5 -23.5t55 23.5t23 55.5t-23 55t-55 23t-55.5 -23t-23.5 -55z" />
    <glyph glyph-name="uniF008" unicode="&#xf008;" 
d="M291 187h-25v-145h25v-24h-291v24h24v145h-24v24l145 97l146 -97v-24zM73 42h48v145h-48v-145zM218 42v145h-49v-145h49z" />
    <glyph glyph-name="uniF009" unicode="&#xf009;" 
d="M254 163h37v-145h-255v36h-36v145h121v48h-36l61 61l60 -60h-37v-49h85v-36zM18 72h18v91h200v18h-218v-109zM272 65v50q-2 -1 -6 -1q-10 0 -17 7t-7 17q0 5 1 7h-159q1 -2 1 -7q0 -10 -7 -17t-17 -7q-5 0 -7 1v-50q2 1 7 1q10 0 17 -7t7 -17q0 -4 -1 -6h159q-1 2 -1 6
q0 10 7 17t17 7q4 0 6 -1zM121 90q0 15 10.5 26t25.5 11t26 -11t11 -26t-11 -25.5t-26 -10.5t-25.5 10.5t-10.5 25.5z" />
    <glyph glyph-name="uniF00A" unicode="&#xf00a;" horiz-adv-x="278" 
d="M107 125l137 137l34 -35l-171 -171l-107 107l34 34z" />
    <glyph glyph-name="uniF00B" unicode="&#xf00b;" 
d="M0 139v48h291v-48h-291zM0 54v48h291v-48h-291zM0 224v48h291v-48h-291z" />
    <glyph glyph-name="uniF00C" unicode="&#xf00c;" 
d="M0 42v97h97v-97h-97zM0 187v97h97v-97h-97zM145 236v48h146v-48h-146zM145 42v48h146v-48h-146zM145 139v48h146v-48h-146z" />
    <glyph glyph-name="uniF00D" unicode="&#xf00d;" 
d="M85 320v-60h193v-49h-193v-60l-85 84zM206 6v60h-194v49h194v60l85 -84z" />
    <glyph glyph-name="uniF00E" unicode="&#xf00e;" horiz-adv-x="315" 
d="M315 224h-61v-194h-48v194h-61l85 84zM0 102h61v194h48v-194h60l-84 -84z" />
    <glyph glyph-name="uniF010" unicode="&#xf010;" 
d="M248 266l43 42v-113h-113l44 45q-32 32 -77 32t-77 -32t-32 -77t32 -77t77 -32t77 32t32 77h37q0 -60 -43 -102.5t-103 -42.5t-102.5 42.5t-42.5 102.5t42.5 102.5t102.5 42.5q61 0 103 -42z" />
    <glyph glyph-name="uniF011" unicode="&#xf011;" 
d="M145 308l146 -145h-49v-145h-60v94h-73v-94h-61v145h-48z" />
    <glyph glyph-name="uniF012" unicode="&#xf012;" horiz-adv-x="157" 
d="M99 152q-12 -10 -16 -16.5t-4 -19.5v-20h-48v28q0 15 5 23.5t25 26.5q20 19 27.5 30t7.5 25q0 39 -55 39q-20 0 -41 -6v41q30 5 55 5q102 0 102 -73q0 -24 -13.5 -41.5t-44.5 -41.5zM27 18v51h58v-51h-58z" />
    <glyph glyph-name="uniF013" unicode="&#xf013;" 
d="M201 130l34 -110l-89 67l-92 -69l35 112l-89 69l110 1l36 108l34 -108l111 -1z" />
    <glyph glyph-name="uniF015" unicode="&#xf015;" 
d="M196 248v-169h-6h-190v7v154v8h190h6zM206 139v48l85 85v-218z" />
    <glyph glyph-name="uniF016" unicode="&#xf016;" 
d="M0 284h291v-169h-170l-73 -73v73h-48v169z" />
    <glyph glyph-name="uniF017" unicode="&#xf017;" horiz-adv-x="281" 
d="M259 101q1 -1 3 -3.5t7.5 -9t8 -11.5t4 -12t-3.5 -10t-14.5 -6t-30.5 1h-58q-1 -13 -10.5 -22.5t-23.5 -9.5t-23.5 9.5t-10.5 22.5h-58q-40 -5 -47 7.5t6 28.5l14 15q16 16 27 156q5 23 28 36t43 14l20 1h1h8.5t20 -3t26 -7.5t22.5 -15t14 -25.5q5 -62 11.5 -101
t10.5 -47z" />
    <glyph glyph-name="uniF018" unicode="&#xf018;" horiz-adv-x="241" 
d="M241 139q0 -50 -35.5 -85.5t-85.5 -35.5t-85 35.5t-35 85.5t35 85.5t85 35.5t85.5 -35.5t35.5 -85.5zM212 139q0 38 -27 64.5t-65 26.5t-64.5 -26.5t-26.5 -64.5t26.5 -65t64.5 -27t65 27t27 65zM96 308h48v-38q-12 2 -24 2l-24 -2v38zM187 256q-1 1 -2 1l9 12l3 3
l28 -21l4 -3l-12 -17l-4 4l-4.5 4.5t-5.5 4.5q-2 2 -4.5 3.5t-3.5 2.5q-5 3 -8 6zM132 137l41 -42l-17 -17l-48 49v0v84h24v-74z" />
    <glyph glyph-name="uniF019" unicode="&#xf019;" horiz-adv-x="192" 
d="M192 214q0 -17 -9 -39l-6 -12l-81 -145l-81 145l-6 12q-9 18 -9 39q0 39 28 66.5t68 27.5t68 -27.5t28 -66.5zM136 214q0 16 -11.5 27.5t-28.5 11.5t-28.5 -11.5t-11.5 -27.5t11.5 -27.5t28.5 -11.5t28.5 11.5t11.5 27.5z" />
    <glyph glyph-name="uniF01A" unicode="&#xf01a;" horiz-adv-x="68" 
d="M57 96h-46l-11 212h68zM4 18v48h60v-48h-60z" />
    <glyph glyph-name="uniF01D" unicode="&#xf01d;" 
d="M23 279v-232h163v174h-58v58h-105zM0 302h140l69 -69v-209h-209v278zM157 302h22l71 -69v-209h-23v209zM198 302h22l71 -69v-209h-24v209z" />
    <glyph glyph-name="uniF01E" unicode="&#xf01e;" horiz-adv-x="290" 
d="M286 54q10 -10 0 -19l-13 -14q-9 -9 -19 0l-97 97q-8 8 -1 16l-7 6l-95 -113q-8 -7 -16.5 -8.5t-13.5 1.5l-4 2q-1 1 -3 2.5t-3 2t-2 1.5q-3 2 -7 8q-12 14 3 34l107 105l-63 61l-18 11l-20 29l15 16l30 -20l10 -18l64 -63l2 3l31 31l-6 20q-4 14 5 30t25 25q9 5 22 7
t21.5 1.5t9.5 -1.5l1 -5l-39 -38l-1 -8l11 -9l11 -10l8 1l35 40h5q1 -1 2.5 -9.5t0.5 -21.5t-6 -22q-8 -16 -23.5 -26t-29.5 -7q-18 3 -20 5l-32 -36l-1 -2l8 -7l16 -1z" />
    <glyph glyph-name="uniF021" unicode="&#xf021;" 
d="M0 66v194q0 12 12 12h266q13 0 13 -12v-194q0 -12 -13 -12h-266q-12 0 -12 12zM24 242v-19h242v19q0 6 -6 6h-230q-6 0 -6 -6zM260 78q6 0 6 6v91h-242v-91q0 -6 6 -6h230z" />
    <glyph glyph-name="uniF022" unicode="&#xf022;" 
d="M247 105q18 0 31 -12.5t13 -30.5t-13 -31t-31 -13t-31 13t-13 31q0 1 0.5 2.5t0.5 2.5l-127 68q-14 -16 -33 -16q-18 0 -31 13t-13 31t13 31t31 13q19 0 32 -15l128 68q0 1 -0.5 2.5t-0.5 2.5q0 18 13 30.5t31 12.5t31 -12.5t13 -30.5t-13 -31t-31 -13q-23 0 -35 17
l-126 -67q1 -3 1 -8v-7l126 -67q13 16 34 16z" />
    <glyph glyph-name="uniF024" unicode="&#xf024;" 
d="M36 54h255v-36h-291v290h36v-157l48 48l61 -60l109 108l36 -36l-25 -26l-11 11l-109 -109v0l-61 61l-48 -48v-46z" />
    <glyph glyph-name="uniF025" unicode="&#xf025;" 
d="M177 308h114v-113l-41 40l-64 -64l-32 33l64 63zM114 308l-41 -41l64 -63l-32 -33l-64 64l-41 -40v113h114zM177 18l41 41l-64 63l32 33l64 -64l41 40v-113h-114zM114 18h-114v113l41 -40l64 64l32 -33l-64 -63z" />
    <glyph glyph-name="uniF026" unicode="&#xf026;" 
d="M0 303v5h130v-79q-9 10 -25 21q-31 22 -59 22q-17 0 -27 -12q-11 -16 2 -37.5t38 -39.5q5 -4 17 -10h-76v130zM75 70l22 -11l33 63v-104h-130v5v128h114zM125 188h-3q-2 -1 -4 -1q-19 0 -44 17q-13 9 -21.5 18.5t-11 15.5t-1.5 8q2 1 6 1q19 0 45 -18q13 -9 21.5 -18.5
t11 -15t1.5 -7.5zM155 220v88h130h6v-135h-74q19 15 25 33t-3 31q-7 12 -26 12q-24 0 -44 -16q-10 -8 -14 -13zM172 151h119v-133h-6h-130v111l27 -30l18 17zM219 222q1 -2 -0.5 -6.5t-6.5 -11.5t-13 -13q-14 -11 -28 -11q-4 0 -6 2t1 9q5 13 18 22q14 11 29 11q4 0 6 -2z
" />
    <glyph glyph-name="uniF027" unicode="&#xf027;" 
d="M218 308l73 -72v-218h-94v24h69v182h-60v60h-109v-115h-24v139h145zM0 25v121q0 8 8 8h166q8 0 8 -8v-121q0 -7 -8 -7h-166q-8 0 -8 7zM15 135v-12h151v12q0 4 -3 4h-144q-4 0 -4 -4zM163 33q4 0 4 4v56h-152v-57q0 -3 4 -3h144z" />
    <glyph glyph-name="uniF028" unicode="&#xf028;" 
d="M73 260v48h24v-48h-24zM194 260v48h24v-48h-24zM291 18h-291v266h61v-36h48v36h73v-36h48v36h61v-266zM79 96h-49v-48h49v48zM140 96h-49v-48h48v48h1zM200 96h-49v-48h49v48zM261 96h-49v-48h48v48h1zM79 157h-49v-49h49v49zM140 157h-49v-49h48v49h1zM200 157h-49v-49
h49v49zM261 157h-49v-49h48v49h1zM79 217h-49v-48h49v48zM140 217h-49v-48h48v48h1zM200 217h-49v-48h49v48zM261 217h-49v-48h48v48h1z" />
    <glyph glyph-name="uniF029" unicode="&#xf029;" 
d="M291 163q0 -60 -43 -102.5t-103 -42.5t-102.5 42.5t-42.5 102.5t42.5 102.5t102.5 42.5t103 -42.5t43 -102.5zM267 163q0 50 -36 86t-86 36t-86 -36t-36 -86t36 -86t86 -36t86 36t36 86zM157 173l54 -54l-17 -17l-61 61v85h24v-75z" />
    <glyph glyph-name="uniF02A" unicode="&#xf02a;" horiz-adv-x="218" 
d="M218 175v-157h-218v157h24v52q0 33 25 57t58 24q34 0 60.5 -24t26.5 -57v-1v-51h24zM157 232q0 17 -16 30t-34 13t-32 -12.5t-14 -30.5v-1v-56h96v57zM91 54h36q5 0 3 4l-15 38q16 5 16 21q0 10 -8 16.5t-19 4.5q-14 -3 -17 -17q-3 -20 16 -25l-15 -38q-2 -4 3 -4z" />
    <glyph glyph-name="uniF02B" unicode="&#xf02b;" horiz-adv-x="290" 
d="M157 288v20h-23v-20q-57 -3 -95.5 -28.5t-38.5 -60.5v-2q15 6 35 6q33 0 51 -16q16 13 48 16v-152q0 -13 10 -23t23 -10t23 10t10 23h-23q0 -10 -10 -10q-11 0 -11 10v151q35 -3 48 -14q17 15 51 15q20 0 35 -6v1q0 36 -38 61.5t-95 28.5v0z" />
    <glyph glyph-name="uniF02D" unicode="&#xf02d;" 
d="M291 139h-27q-4 -20 -18 -43l19 -18l-34 -35l-19 19q-23 -14 -42 -18v-26h-49v26q-19 4 -42 18l-19 -19l-34 34l18 19q-13 21 -17 42h-27v49h26q4 20 18 43l-19 18l35 35l18 -19q23 14 43 18v26h48v-26q20 -4 43 -18l19 19l34 -34l-19 -19q14 -23 18 -42h27v-49zM145 90
q30 0 51.5 21.5t21.5 51.5t-21.5 51.5t-51.5 21.5t-51 -21.5t-21 -51.5t21 -51.5t51 -21.5z" />
    <glyph glyph-name="uniF02E" unicode="&#xf02e;" 
d="M236 18v290h55v-290h-55zM157 18v181h55v-181h-55zM79 18v84h54v-84h-54zM0 18v133h54v-133h-54z" />
    <glyph glyph-name="uniF02F" unicode="&#xf02f;" horiz-adv-x="244" 
d="M214 277l22 -22l-206 -207l-22 22zM88 226q0 13 -8.5 22t-21.5 9t-22 -9t-9 -22t9 -22t22 -9t21.5 9t8.5 22zM58 285q24 0 41 -17.5t17 -41.5t-17 -41t-41 -17t-41 17t-17 41t17 41.5t41 17.5zM216 100q0 13 -8.5 22t-21.5 9t-22 -9t-9 -22t9 -22t22 -9t21.5 9t8.5 22z
M186 158q24 0 41 -17t17 -41t-17 -41.5t-41 -17.5t-41 17.5t-17 41.5t17 41t41 17z" />
    <glyph glyph-name="uniF030" unicode="&#xf030;" 
d="M61 254v36h230v-36h-230zM61 181v36h230v-36h-230zM61 109v36h230v-36h-230zM61 36v36h230v-36h-230zM0 272q0 8 5 13t13 5t13 -5t5 -13t-5 -13t-13 -5t-13 5t-5 13zM0 199q0 7 5 12.5t13 5.5t13 -5.5t5 -12.5t-5 -12.5t-13 -5.5t-13 5.5t-5 12.5zM0 127q0 7 5 12.5
t13 5.5t13 -5.5t5 -12.5t-5 -12.5t-13 -5.5t-13 5.5t-5 12.5zM0 54q0 8 5 13t13 5t13 -5t5 -13t-5 -13t-13 -5t-13 5t-5 13z" />
    <glyph glyph-name="uniF031" unicode="&#xf031;" 
d="M291 187v-48h-122v-121h-48v121h-121v48h121v121h48v-121h122z" />
    <glyph glyph-name="uniF032" unicode="&#xf032;" horiz-adv-x="145" 
d="M122 308q10 0 16.5 -6.5t6.5 -16.5v-244q0 -10 -6.5 -16.5t-16.5 -6.5h-99q-10 0 -16.5 6.5t-6.5 16.5v244q0 10 6.5 16.5t16.5 6.5h99zM51 284v-12h43v12h-43zM121 66v194h-97v-194h97z" />
    <glyph glyph-name="uniF033" unicode="&#xf033;" 
d="M286 272h-245q-5 0 -5 -5v-19h230v-5v-7v-105v-4h-157v-25h22h1q3 -19 -2 -26l-21 -16v-6h103v6q-16 9 -21 16t-2 26h1h96q5 0 5 5v160q0 5 -5 5v0zM97 221v-153q0 -14 -12 -14h-71q-14 0 -14 14v153q0 15 14 15h71q12 0 12 -15zM35 218h25v4h-25v-4zM85 82v125h-73v-125
h73z" />
    <glyph glyph-name="uniF034" unicode="&#xf034;" horiz-adv-x="290" 
d="M109 215q39 -2 71 -10q26 -7 47 -19q19 -13 31 -26q14 -15 22 -37q5 -13 7.5 -31t2.5 -30v-11q0 1 -0.5 4t-1.5 4q-3 6 -7 13q-7 12 -13 18q-8 8 -21 18q-10 8 -32 17l-14 5q-8 3 -38 8q-31 6 -54 4v-76l-109 109l109 109v-69z" />
    <glyph glyph-name="uniF037" unicode="&#xf037;" 
d="M145 308q60 0 103 -42.5t43 -102.5t-43 -102.5t-103 -42.5t-102.5 42.5t-42.5 102.5t42.5 102.5t102.5 42.5zM199 276l-6 3l1 -1q1 0 5 -2zM232 243q-12 6 -36 14q0 -1 -1 -3t-1 -3q20 -10 36 -23q2 10 2 15zM184 235q-2 -3 -8 -9q18 -20 29 -37q7 7 17 21q-12 11 -33 23
q-1 1 -2.5 1t-2.5 1zM189 178q-14 22 -30 38q-9 -5 -17 -8q2 -6 6.5 -21.5t7.5 -25.5q22 9 33 17zM165 280q-8 -2 -24 -8q22 -7 36 -12q1 4 0 8q-1 7 -12 12zM166 244q-13 6 -37 11q1 -4 4 -13.5t4 -14.5q18 7 29 17zM137 156l-13 47q-9 -3 -19 -3q-5 -25 -5 -48q14 -1 37 4
zM110 250q-13 -13 -25 -29q10 -2 15 -2q6 0 18 2l-6 24q0 1 -1 2.5t-1 2.5zM86 201l-12 3l-1 -2l-1 -2q-9 -15 -16 -37q7 -4 25 -8q0 21 5 46zM67 252q-7 -10 -4 -16q1 -3 5 -7q4 7 24 29q-4 -1 -12.5 -3t-12.5 -3zM43 237q-1 -1 -2 -3t-2 -3l4 4v2zM32 115q-1 18 2 39
q-13 10 -15 13q-1 -18 5 -39l3 -9zM39 174q7 18 18 38l-2 2q-1 2 -2 3q-13 -14 -23 -32q2 -4 9 -11zM52 144q-3 -23 1 -42q21 -10 36 -12q-7 25 -8 45q-15 3 -29 9zM68 64q19 -14 42 -22q-8 12 -15 28q-19 2 -34 7q1 -2 3.5 -6t3.5 -7zM109 88q26 0 46 5l-12 44
q-16 -4 -37 -4h-5q2 -26 8 -45zM145 37q13 0 25 3l-10 34q-19 -5 -43 -5q7 -16 20 -32h8zM161 142q2 -6 6 -20.5t7 -23.5q22 7 41 20q-7 26 -16 43q-15 -11 -38 -19zM219 61q2 13 0 37q-15 -10 -40 -19q1 -4 4.5 -15.5t5.5 -18.5q18 6 30 16zM214 173q13 -25 18 -42
q14 11 24 28q-8 21 -21 37q-10 -13 -21 -23zM255 102q5 9 8 17q0 11 -1 16q-11 -14 -25 -25q2 -10 2 -31q6 7 16 23zM245 214q14 -15 22 -32l2 6q-1 2 -2 5.5t-1 4.5q-6 19 -16 35q-2 -13 -5 -19z" />
    <glyph glyph-name="uniF038" unicode="&#xf038;" horiz-adv-x="200" 
d="M149 121v-19h-98v19q-51 28 -51 87q0 41 29.5 70.5t70.5 29.5t70.5 -29.5t29.5 -70.5q0 -59 -51 -87zM51 90h98v-12h-98v12zM51 66h98v-13h-98v13zM130 41q-5 -23 -30 -23q-24 0 -29 23h59z" />
    <glyph glyph-name="uniF039" unicode="&#xf039;" 
d="M272 204q8 -24 8 -46q0 -58 -41 -99t-99 -41t-99 41t-41 99t41 98.5t99 40.5q26 0 46 -7l-46 -132zM205 308q30 -10 53 -33t33 -53l-133 -46z" />
    <glyph glyph-name="uniF03A" unicode="&#xf03a;" horiz-adv-x="245" 
d="M120 174q29 0 48 20q20 20 20 47q0 29 -20 48q-19 19 -48 19q-28 0 -47 -19q-20 -20 -20 -48t20 -47q20 -20 47 -20v0zM77 111q0 -16 3.5 -39.5t7.5 -38.5l3 -15h-91v28q0 24 12 50q12 25 33 43q19 14 36 17q-4 -23 -4 -45zM169 109l-5 47h1q11 -1 25 -10q19 -12 29 -26
q11 -15 19 -36q7 -18 7 -38v-28h-90q14 47 14 91zM91 18l23 99l-23 40h63l-22 -40l23 -99h-64zM220 90h-36v-18h36v18z" />
    <glyph glyph-name="uniF03B" unicode="&#xf03b;" 
d="M154 291h137v-204h-291v204h137v17h17v-17zM273 105v168h-255v-168h255zM137 41v46h17v-46h-17zM55 18l58 69h24l-59 -69h-23zM154 87h23l58 -69h-23zM41 235q0 12 11 12q4 0 8 -3.5t4 -8.5q0 -11 -12 -11q-11 0 -11 11zM81 224v23h169v-23h-169zM41 189q0 12 11 12
q4 0 8 -3.5t4 -8.5q0 -11 -12 -11q-11 0 -11 11zM81 177v24h169v-24h-169zM41 142q0 12 11 12q4 0 8 -4t4 -8q0 -11 -12 -11q-11 0 -11 11zM81 131v23h169v-23h-169z" />
    <glyph glyph-name="uniF03C" unicode="&#xf03c;" 
d="M291 181l-62 -128q-8 -17 -28 -17h-182q-19 0 -19 17l62 128h229zM145 241h-18v25q0 6 -6 6h-42q-6 0 -6 -6v-25h-18v25q0 11 7.5 17.5t19.5 6.5h36q12 0 19.5 -6.5t7.5 -17.5v-25zM220 169h-18v-33q0 -6 -6 -6h-49q-7 0 -7 6v33h-17v-30q0 -11 8 -19t19 -8h43q11 0 19 8
t8 19v30zM55 195l-53 -109v142h218v-33h-165z" />
    <glyph glyph-name="uniF03E" unicode="&#xf03e;" 
d="M143 247h3l145 -54l-145 -56h-3l-143 55zM146 128l73 28v-42q0 -11 -22 -19t-53 -8t-53 8t-22 19v42l74 -28q1 -2 3 0zM239 71v92l19 7v-92q-2 0 -4 -1l-9 -4z" />
    <glyph glyph-name="uniF041" unicode="&#xf041;" horiz-adv-x="218" 
d="M12 175v49h12v-49h-12zM12 308h206v-290h-206v60h12v-48h182v266h-182v-48h-12v60zM12 102v49h12v-49h-12zM73 224v24h96v-24h-96zM73 175v24h96v-24h-96zM0 230v12h36v-12h-36zM0 157v12h36v-12h-36zM0 84v12h36v-12h-36z" />
    <glyph glyph-name="uniF042" unicode="&#xf042;" 
d="M225 147q27 0 46.5 6.5t19.5 15.5v-24q0 -9 -19 -15.5t-47 -6.5t-48 6.5t-20 15.5v24q0 -9 20 -15.5t48 -6.5zM225 112q27 0 46.5 6.5t19.5 15.5v-24q0 -9 -19 -15.5t-47 -6.5t-48 6.5t-20 15.5v24q0 -9 20.5 -15.5t47.5 -6.5zM225 77q27 0 46.5 6.5t19.5 15.5v-24
q0 -9 -19 -15.5t-47 -6.5t-48 6.5t-20 15.5v24q0 -9 20.5 -15.5t47.5 -6.5zM225 41q27 0 46.5 6.5t19.5 15.5v-23q0 -9 -19 -15.5t-47 -6.5t-48 6.5t-20 15.5v23q0 -9 20.5 -15.5t47.5 -6.5zM157 181q0 9 20 15.5t48 6.5q27 0 46.5 -6.5t19.5 -15.5t-19 -15.5t-47 -6.5
t-48 6.5t-20 15.5zM237 217q-9 1 -23 1q-25 0 -47 -8t-22 -17v-139h-97v109h-48l48 48v61h37v-24l60 60z" />
    <glyph glyph-name="uniF043" unicode="&#xf043;" horiz-adv-x="278" 
d="M79 140h58q16 0 31 -9q13 -8 25 -23q6 -8 17 -32q6 -14 6 -33v-25h-216v25q0 20 11 44t28 38q19 15 40 15zM106 155q-26 0 -42 17q-17 17 -17 42t17 42t42 17t42 -17q18 -18 18 -42t-18 -42q-17 -17 -42 -17zM278 76v-25h-48q0 13 -7 32q-9 20 -18 34q-15 18 -27 25
q-15 9 -32 9h-2q8 5 15 12q8 8 9 10h31q16 0 31 -9q13 -8 25 -23q8 -10 17 -32q6 -17 6 -33zM181 214q0 30 -22 51q-17 17 -37 20l2 2q1 2 2 3q17 17 42 17t42 -17t17 -43q0 -24 -17 -41q-14 -14 -34 -17q5 13 5 25z" />
    <glyph glyph-name="uniF044" unicode="&#xf044;" 
d="M157 172q12 -7 12 -21q0 -10 -7 -17t-17 -7t-17 7t-7 17q0 14 12 21v76h24v-76zM145 308q60 0 103 -42.5t43 -102.5t-43 -102.5t-103 -42.5t-102.5 42.5t-42.5 102.5t42.5 102.5t102.5 42.5zM145 42q47 0 81.5 31.5t39.5 77.5h-36v24h36q-5 44 -34 73l-26 -26l-17 18
l24 24q-29 20 -68 20q-38 0 -67 -20l25 -24l-18 -18l-26 26q-29 -29 -34 -73h36v-24h-36q5 -46 39 -77.5t81 -31.5z" />
    <glyph glyph-name="uniF045" unicode="&#xf045;" 
d="M286 193q-8 -8 -27 -2l-67 -72q20 -41 4 -57q-24 -24 -87 26l-109 -70l72 106q-21 27 -28 51.5t4 36.5q16 16 55 -3l72 67q-7 20 1 28q10 10 33 0.5t46 -32.5q22 -23 31 -46t0 -33z" />
    <glyph glyph-name="uniF047" unicode="&#xf047;" 
d="M0 102h291v-60h-291v60zM278 54v36h-181v-36h181zM0 193h291v-60h-291v60zM278 145v36h-60v-36h60zM0 284h291v-60h-291v60zM278 236v36h-109v-36h109z" />
    <glyph glyph-name="uniF04A" unicode="&#xf04a;" 
d="M206 248h85v-194h-291v194h85l24 24h73zM145 71q33 0 56.5 23.5t23.5 56.5t-23.5 56t-56.5 23t-56.5 -23t-23.5 -56t23.5 -56.5t56.5 -23.5zM278 199v37h-48v-37h48zM145 209q24 0 41 -17t17 -41t-17 -41.5t-41 -17.5t-41 17.5t-17 41.5t17 41t41 17z" />
    <glyph glyph-name="uniF04B" unicode="&#xf04b;" 
d="M291 272v-254h-15h-276v14v262v14h254zM242 175v109h-194v-109h194zM61 187v85h48v-85h-48z" />
    <glyph glyph-name="uniF04C" unicode="&#xf04c;" horiz-adv-x="194" 
d="M194 248v-230h-194v230h36v-37h121l1 37h36zM48 224v16q0 20 17 20q6 0 8.5 3t2.5 6t-0.5 9.5t-0.5 8.5q0 9 6 15t16 6q9 0 15.5 -6t6.5 -15q0 -3 -1 -9t-1 -9t2.5 -6t8.5 -3q17 0 17 -20v-16h-97zM107 286q0 10 -10 10q-11 0 -11 -10t11 -10q10 0 10 10z" />
    <glyph glyph-name="uniF04D" unicode="&#xf04d;" 
d="M215 132q8 -11 15 -28q6 -15 6 -30v-22h-149v40h58l-59 60q14 9 28 9h51q11 0 27 -9q14 -8 23 -20zM137 174q-21 0 -36 15q-16 16 -16 37q0 22 15 37q16 16 37 16q22 0 38 -16q15 -15 15 -37t-15 -37t-38 -15zM285 133q6 -15 6 -30v-21h-43q0 13 -6 28q-5 13 -16 30
q-10 12 -24 22q-14 9 -29 9h-1q7 4 13 10q3 3 7 9h28q14 0 28 -8q11 -6 22 -21q8 -11 15 -28zM204 226q0 28 -19 46q-14 14 -33 17l4 4q15 15 36 15q23 0 38 -15t15 -37t-15 -37q-10 -12 -30 -15q4 14 4 22zM58 162l58 -58h-42v-86h-32v86h-42z" />
    <glyph glyph-name="uniF04E" unicode="&#xf04e;" 
d="M215 132q8 -11 15 -28q5 -12 5 -30v-22h-125l35 35h-58v66q13 8 27 8h51q11 0 27 -9q14 -8 23 -20zM137 174q-21 0 -36 15q-16 16 -16 37q0 22 15 37q16 16 37 16q22 0 38 -16q15 -15 15 -37t-15 -37t-38 -15zM285 133q6 -15 6 -30v-21h-43q0 13 -6 28q-5 13 -16 30
q-10 12 -24 22q-14 9 -29 9h-1q7 4 13 10q3 3 7 9h28q14 0 28 -8q11 -6 22 -21q8 -11 15 -28zM204 226q0 28 -19 46q-14 14 -33 17l4 4q15 15 36 15q23 0 38 -15t15 -37t-15 -37q-10 -12 -30 -15q4 14 4 22zM74 76h42l-58 -58l-58 58h42v85h32v-85z" />
    <glyph glyph-name="uniF050" unicode="&#xf050;" horiz-adv-x="266" 
d="M121 102v-84h-121v84h17v30q0 19 13 32t31 13t30.5 -13t12.5 -32v-30h17zM84 135q0 10 -6.5 17t-16.5 7t-16.5 -7t-6.5 -17v-33h46v33zM51 37h20q3 0 1 2l-8 21q9 4 9 11q0 6 -4.5 9.5t-10.5 2.5q-8 -2 -10 -10q-2 -10 9 -14l-8 -20q0 -2 2 -2zM133 18v24h109v182h-60v60
h-109v-97q-5 2 -12 2l-13 -2v121h146l72 -72v-218h-133z" />
    <glyph glyph-name="uniF051" unicode="&#xf051;" 
d="M0 308h291v-290h-291v290zM278 30v266h-266v-266h266zM157 151v121h97v-121h-97zM36 248v24h97v-24h-97zM36 199v25h97v-25h-97zM36 151v24h97v-24h-97zM36 102v25h97v-25h-97zM36 54v24h97v-24h-97zM157 102v25h97v-25h-97zM157 54v24h97v-24h-97z" />
    <glyph glyph-name="uniF052" unicode="&#xf052;" 
d="M130 87v28h31v-28h-31zM133 127l-6 121h37l-6 -121h-25zM145 308q60 0 103 -42.5t43 -102.5t-43 -102.5t-103 -42.5t-102.5 42.5t-42.5 102.5t42.5 102.5t102.5 42.5zM145 42q50 0 85.5 35.5t35.5 85.5t-35.5 85.5t-85.5 35.5t-85.5 -35.5t-35.5 -85.5t35.5 -85.5
t85.5 -35.5z" />
    <glyph glyph-name="uniF053" unicode="&#xf053;" 
d="M127 223v28h36v-28h-36zM163 199v-94h13v-27h-61v27h12v70h-12v24h48zM145 308q60 0 103 -42.5t43 -102.5t-43 -102.5t-103 -42.5t-102.5 42.5t-42.5 102.5t42.5 102.5t102.5 42.5zM145 42q50 0 85.5 35.5t35.5 85.5t-35.5 85.5t-85.5 35.5t-85.5 -35.5t-35.5 -85.5
t35.5 -85.5t85.5 -35.5z" />
    <glyph glyph-name="uniF054" unicode="&#xf054;" 
d="M127 148l72 71l20 -19l-92 -91l-54 55l19 19zM145 308q60 0 103 -42.5t43 -102.5t-43 -102.5t-103 -42.5t-102.5 42.5t-42.5 102.5t42.5 102.5t102.5 42.5zM145 42q50 0 85.5 35.5t35.5 85.5t-35.5 85.5t-85.5 35.5t-85.5 -35.5t-35.5 -85.5t35.5 -85.5t85.5 -35.5z" />
    <glyph glyph-name="uniF055" unicode="&#xf055;" 
d="M256 248l35 -34l-115 -115l-31 -31l-145 146l34 34l111 -112z" />
    <glyph glyph-name="uniF056" unicode="&#xf056;" 
d="M34 69l-34 33l114 115l31 31l146 -146l-35 -34l-111 112z" />
    <glyph glyph-name="uniF057" unicode="&#xf057;" horiz-adv-x="176" 
d="M176 163l-145 -145l-31 31l114 114l-114 114l31 31z" />
    <glyph glyph-name="uniF058" unicode="&#xf058;" horiz-adv-x="179" 
d="M145 18l-145 145l145 145l34 -34l-111 -111l111 -111z" />
    <glyph glyph-name="uniF060" unicode="&#xf060;" 
d="M131 90v26h29v-26h-29zM146 244q55 0 56 -40q0 -20 -32 -45q-10 -7 -10 -20v-11h-27v16q0 11 17 27q19 18 19 30q0 22 -30 22q-7 0 -23 -4v22q15 3 30 3zM145 308q60 0 103 -42.5t43 -102.5t-43 -102.5t-103 -42.5t-102.5 42.5t-42.5 102.5t42.5 102.5t102.5 42.5z
M145 42q50 0 85.5 35.5t35.5 85.5t-35.5 85.5t-85.5 35.5t-85.5 -35.5t-35.5 -85.5t35.5 -85.5t85.5 -35.5z" />
    <glyph glyph-name="uniF061" unicode="&#xf061;" 
d="M230 42v242h24v-242h-24zM206 42v242h12v-242h-12zM182 42v242h12v-242h-12zM157 42v242h12v-242h-12zM109 42v242h24v-242h-24zM85 42v242h12v-242h-12zM61 42v242h12v-242h-12zM24 42v242h24v-242h-24zM0 42v242h12v-242h-12zM279 42v242h12v-242h-12z" />
    <glyph glyph-name="uniF062" unicode="&#xf062;" horiz-adv-x="218" 
d="M85 246v-59h133v-48h-133v-59l-85 83z" />
    <glyph glyph-name="uniF064" unicode="&#xf064;" 
d="M267 272q10 0 17 -6.5t7 -16.5v-172q0 -10 -7 -16.5t-17 -6.5h-244q-10 0 -16.5 6.5t-6.5 16.5v172q0 10 6.5 16.5t16.5 6.5h244zM263 79v168h-235v-168h235zM276 157q6 0 6 6t-6 6t-6 -6t6 -6z" />
    <glyph glyph-name="uniF065" unicode="&#xf065;" horiz-adv-x="242" 
d="M157 284h85v-36h-242v36h85v24h72v-24zM12 224h218v-206h-218v206zM73 54v133h-25v-133h25zM133 54v133h-24v-133h24zM194 54v133h-25v-133h25z" />
    <glyph glyph-name="uniF066" unicode="&#xf066;" 
d="M242 66v85h49v-133h-291v133h48v-85h194zM224 230h-55v-119h-48v119h-54l78 78z" />
    <glyph glyph-name="uniF067" unicode="&#xf067;" 
d="M188 223l17 -17l-42 -43l42 -43l-17 -17l-43 43l-42 -43l-18 17l43 43l-43 43l18 17l42 -43zM145 308q60 0 103 -42.5t43 -102.5t-43 -102.5t-103 -42.5t-102.5 42.5t-42.5 102.5t42.5 102.5t102.5 42.5zM145 42q50 0 85.5 35.5t35.5 85.5t-35.5 85.5t-85.5 35.5
t-85.5 -35.5t-35.5 -85.5t35.5 -85.5t85.5 -35.5z" />
    <glyph glyph-name="uniF070" unicode="&#xf070;" 
d="M0 163q0 10 7 17t17 7t17 -7t7 -17t-7 -17t-17 -7t-17 7t-7 17zM121 163q0 10 7 17t17 7t17 -7t7 -17t-7 -17t-17 -7t-17 7t-7 17zM242 163q0 10 7 17t17 7t17.5 -7t7.5 -17t-7.5 -17t-17.5 -7t-17 7t-7 17z" />
    <glyph glyph-name="uniF071" unicode="&#xf071;" 
d="M0 102l145 146l146 -146h-291z" />
    <glyph glyph-name="uniF072" unicode="&#xf072;" 
d="M291 224l-146 -146l-145 146h291z" />
    <glyph glyph-name="uniF073" unicode="&#xf073;" 
d="M145 308q60 0 103 -42.5t43 -102.5t-43 -102.5t-103 -42.5t-102.5 42.5t-42.5 102.5t42.5 102.5t102.5 42.5zM127 251v-28h36v28h-36zM176 78v27h-13v94h-35h-13v-24h12v-70h-12v-27h13h35h13z" />
    <glyph glyph-name="uniF075" unicode="&#xf075;" horiz-adv-x="169" 
d="M0 102h61v194h48v-194h60l-84 -84z" />
    <glyph glyph-name="uniF078" unicode="&#xf078;" 
d="M174 153q-17 -16 -39.5 -37t-35.5 -33q-2 -2 -2 -6l5 -47q0 -4 -2 -6l-5 -4q-2 -2 -6 -2t-5 3l-26 52l-3 3l-51 26q-3 1 -3.5 5t1.5 6l5 4q2 2 5 2l48 -5q3 0 5 2q12 13 33 35.5t37 39.5q4 4 -1 6l-113 20q-4 1 -5.5 4.5t1.5 6.5l16 16q1 1 4 1l154 7q2 0 4 2
q19 20 32 33l4 4q17 14 47 17q9 1 12 -2q2 -2 1 -11q-2 -28 -17 -47l-4 -4q-13 -13 -33 -32q-3 -3 -3 -5l-6 -153q0 -3 -1 -4l-16 -16q-3 -3 -7 -2t-5 5l-19 113q-2 7 -6 3z" />
    <glyph glyph-name="uniF079" unicode="&#xf079;" 
d="M268 165h-97l-14 -33l-31 101l-31 -68h-73q-22 32 -22 59q0 31 22 53t54 22q49 0 69 -44q20 44 69 44q32 0 54.5 -22t22.5 -53q0 -25 -23 -59zM179 153h81q-44 -59 -106 -118l-9 -7q-6 5 -8 7q-28 26 -54.5 55.5t-39.5 45.5l-13 17h73l22 51l31 -104z" />
    <glyph glyph-name="uniF07B" unicode="&#xf07b;" horiz-adv-x="169" 
d="M169 224h-60v-194h-48v194h-61l85 84z" />
    <glyph glyph-name="uniF07C" unicode="&#xf07c;" 
d="M0 139v48h291v-48h-291z" />
    <glyph glyph-name="uniF082" unicode="&#xf082;" 
d="M39 263h-39v19h54l11 -38h226l-36 -136h-175zM266 224h-196l10 -39h175zM250 166h-165l10 -39h145zM87 74q0 10 7 17t17 7t17.5 -7t7.5 -17t-7.5 -17t-17.5 -7t-17 7t-7 17zM203 74q0 10 7.5 17t17.5 7t17 -7t7 -17t-7 -17t-17 -7t-17.5 7t-7.5 17z" />
    <glyph glyph-name="uniF083" unicode="&#xf083;" horiz-adv-x="242" 
d="M0 308h242v-290h-97v97h-48v-97h-97v290zM73 56v59h-49v-59h49zM73 139v60h-49v-60h49zM73 224v59h-49v-59h49zM145 139v60h-48v-60h48zM145 224v58h-48v-58h48zM218 54v61h-49v-61h49zM218 139v60h-49v-60h49zM218 224v59h-49v-59h49z" />
    <glyph glyph-name="uniF084" unicode="&#xf084;" 
d="M101 42h-53v121h-48l48 48v61h37v-24l60 60l146 -145h-49h-135q-6 0 -6 -6v-19v-24v-72zM113 25v119q0 7 7 7h163q7 0 7 -7v-119q0 -7 -7 -7h-163q-7 0 -7 7zM128 132v-11h147v11q0 4 -3 4h-141q-3 0 -3 -4zM272 33q4 0 4 3v55h-148v-55q0 -3 3 -3h141z" />
    <glyph glyph-name="uniF101" unicode="&#xf101;" horiz-adv-x="323" 
d="M0 324h67h68v-161v-161h-68h-67v161v161zM108 28v135v135h-41h-40v-135v-135h40h41zM188 324h68h67v-161v-161h-67h-68v161v161zM296 28v135v135h-40h-41v-135v-135h41h40z" />
    <glyph glyph-name="uniF102" unicode="&#xf102;" 
d="M0 308h121v-290h-121v290zM97 42v242h-73v-242h73zM169 308h122v-290h-122v290zM266 42v242h-72v-242h72z" />
    <glyph glyph-name="uniF103" unicode="&#xf103;" horiz-adv-x="311" 
d="M0 319h65h65v-156v-156h-65h-65v156v156zM104 33v130v130h-39h-39v-130v-130h39h39zM182 319h64h65v-156v-156h-65h-64v156v156zM285 33v130v130h-39h-38v-130v-130h38h39z" />
    <glyph glyph-name="uniF104" unicode="&#xf104;" horiz-adv-x="335" 
d="M0 331h70h70v-168v-168h-70h-70v168v168zM112 23v140v140h-42h-42v-140v-140h42h42zM196 331h69h70v-168v-168h-70h-69v168v168zM307 23v140v140h-42h-41v-140v-140h41h42z" />
    <glyph glyph-name="uniF105" unicode="&#xf105;" horiz-adv-x="247" 
d="M247 145q-4 -63 -60 -88h-13h-107h-7q-56 25 -60 88v7h247v-7zM185 41h-1v-18v-5h-122v5v18h123zM75 176l-14 8l2 4q21 27 0 49q-32 35 -7 68l3 3l15 -9q-1 -2 -2 -3q-19 -23 3 -46q31 -32 3 -71zM128 176l-14 8l2 4q21 27 0 49q-32 35 -7 68l3 3l15 -9q-1 -2 -2 -3
q-19 -23 3 -46q31 -32 3 -71zM179 176l-14 8l2 4q21 27 0 49q-32 36 -8 68l4 3l15 -9q-1 -2 -2 -3q-19 -23 3 -46q31 -32 3 -71z" />
    <glyph glyph-name="uniF106" unicode="&#xf106;" horiz-adv-x="246" 
d="M90 156h66q19 0 35 -10q19 -12 29 -26q11 -15 19 -36q7 -18 7 -38v-28h-246v28q0 24 12 50q12 25 33 43q22 17 45 17zM120 174q-29 0 -47 20q-20 19 -20 47t20 48q19 19 47 19q29 0 48 -19q20 -19 20 -48q0 -27 -20 -47q-19 -20 -48 -20z" />
  </font>
</defs>
</svg>
