<?xml version="1.0" encoding="utf-8"?>
<!-- Generator: Adobe Illustrator 19.1.0, SVG Export Plug-In . SVG Version: 6.00 Build 0)  -->
<!DOCTYPE svg PUBLIC "-//W3C//DTD SVG 1.1//EN" "http://www.w3.org/Graphics/SVG/1.1/DTD/svg11.dtd">
<svg version="1.1" id="ic" xmlns="http://www.w3.org/2000/svg" xmlns:xlink="http://www.w3.org/1999/xlink" x="0px" y="0px"
	 width="150px" height="150px" viewBox="0 0 150 150" enable-background="new 0 0 150 150" xml:space="preserve">
<g>
	<path d="M27,107c0,2.2,1.8,4,4,4h88c2.2,0,4-1.8,4-4V43c0-2.2-1.8-4-4-4H31c-2.2,0-4,1.8-4,4V107z M35,49c0-1.1,0.9-2,2-2h76
		c1.1,0,2,0.9,2,2v6.2H35V49z M113,103H37c-1.1,0-2-0.9-2-2V71.2h80V101C115,102.1,114.1,103,113,103z"/>
</g>
</svg>
