<?xml version="1.0" encoding="utf-8"?>
<!-- Generator: Adobe Illustrator 19.1.0, SVG Export Plug-In . SVG Version: 6.00 Build 0)  -->
<!DOCTYPE svg PUBLIC "-//W3C//DTD SVG 1.1//EN" "http://www.w3.org/Graphics/SVG/1.1/DTD/svg11.dtd">
<svg version="1.1" id="Layer_2" xmlns="http://www.w3.org/2000/svg" xmlns:xlink="http://www.w3.org/1999/xlink" x="0px" y="0px"
	 width="132px" height="132px" viewBox="0 0 132 132" enable-background="new 0 0 132 132" xml:space="preserve">
<path d="M18,98c0,1.1,0.4,2.1,1.2,2.8s1.7,1.2,2.8,1.2h44h44c1.1,0,2.1-0.4,2.8-1.2c0.7-0.7,1.2-1.7,1.2-2.8V66V34
	c0-1.1-0.4-2.1-1.2-2.8c-0.7-0.7-1.7-1.2-2.8-1.2H66H22c-1.1,0-2.1,0.4-2.8,1.2S18,32.9,18,34V98z M26,40c0-0.6,0.2-1.1,0.6-1.4
	S27.5,38,28,38h38h38c0.6,0,1.1,0.2,1.4,0.6s0.6,0.9,0.6,1.4v3.1v3.1H66H26v-3.1V40z M104,94H66H28c-0.6,0-1.1-0.2-1.4-0.6
	S26,92.6,26,92V77.1V62.2h40h40v14.9V92c0,0.6-0.2,1.1-0.6,1.4S104.6,94,104,94z"/>
</svg>
