<?xml version="1.0" encoding="utf-8"?>
<!-- Generator: Adobe Illustrator 19.1.0, SVG Export Plug-In . SVG Version: 6.00 Build 0)  -->
<!DOCTYPE svg PUBLIC "-//W3C//DTD SVG 1.1//EN" "http://www.w3.org/Graphics/SVG/1.1/DTD/svg11.dtd">
<svg version="1.1" id="Layer_2" xmlns="http://www.w3.org/2000/svg" xmlns:xlink="http://www.w3.org/1999/xlink" x="0px" y="0px"
	 width="150px" height="150px" viewBox="0 0 150 150" enable-background="new 0 0 150 150" xml:space="preserve">
<path d="M27,107c0,1.1,0.4,2.1,1.2,2.8s1.7,1.2,2.8,1.2h44h44c1.1,0,2.1-0.4,2.8-1.2c0.7-0.7,1.2-1.7,1.2-2.8V75V43
	c0-1.1-0.4-2.1-1.2-2.8c-0.7-0.7-1.7-1.2-2.8-1.2H75H31c-1.1,0-2.1,0.4-2.8,1.2S27,41.9,27,43V107z M35,49c0-0.6,0.2-1.1,0.6-1.4
	S36.5,47,37,47h38h38c0.6,0,1.1,0.2,1.4,0.6s0.6,0.9,0.6,1.4v3.1v3.1H75H35v-3.1V49z M113,103H75H37c-0.6,0-1.1-0.2-1.4-0.6
	S35,101.6,35,101V86.1V71.2h40h40v14.9V101c0,0.6-0.2,1.1-0.6,1.4S113.6,103,113,103z"/>
</svg>
