<?xml version="1.0" encoding="utf-8"?>
<!-- Generator: Adobe Illustrator 19.1.0, SVG Export Plug-In . SVG Version: 6.00 Build 0)  -->
<!DOCTYPE svg PUBLIC "-//W3C//DTD SVG 1.1//EN" "http://www.w3.org/Graphics/SVG/1.1/DTD/svg11.dtd">
<svg version="1.1" id="Layer_2" xmlns="http://www.w3.org/2000/svg" xmlns:xlink="http://www.w3.org/1999/xlink" x="0px" y="0px"
	 width="150px" height="150px" viewBox="0 0 150 150" enable-background="new 0 0 150 150" xml:space="preserve">
<path d="M114.1,95.5c0,0-1.3-1.3-3.1-8.3c-1.8-7.1-3.9-19.9-5.7-43c-1.9-8.7-9.5-13-16.5-15.1C81.8,27,75.2,27,75.2,27H75h-0.2
	c0,0-6.6,0-13.7,2.1s-14.6,6.4-16.5,15.1c-1.8,23.2-4,36-5.7,43c-1.7,7.1-3.1,8.3-3.1,8.3s-5.3,5.2-6.9,9.9c-1.6,4.7,0.6,9,15.7,7
	h9.6h9.6c0.2,2.9,1.5,5.6,3.5,7.5c2,1.9,4.7,3.1,7.7,3.1s5.7-1.2,7.7-3.1c2-1.9,3.3-4.5,3.5-7.5h9.6h9.6c15,1.9,17.2-2.3,15.7-7
	C119.5,100.7,114.1,95.5,114.1,95.5z"/>
</svg>
