<?xml version="1.0" encoding="utf-8"?>
<!-- Generator: Adobe Illustrator 19.1.0, SVG Export Plug-In . SVG Version: 6.00 Build 0)  -->
<!DOCTYPE svg PUBLIC "-//W3C//DTD SVG 1.1//EN" "http://www.w3.org/Graphics/SVG/1.1/DTD/svg11.dtd">
<svg version="1.1" id="Layer_2" xmlns="http://www.w3.org/2000/svg" xmlns:xlink="http://www.w3.org/1999/xlink" x="0px" y="0px"
	 width="132px" height="132px" viewBox="0 0 132 132" enable-background="new 0 0 132 132" xml:space="preserve">
<path d="M25.7,27.7H43h17.3v9.6v9.6h9.6h9.6v28.7v28.7H52.6H25.7V66V27.7z M18,20v46v46h34.6h34.6V77.5V43L75.6,31.5L64.1,20h-23H18
	z"/>
<polygon points="69.9,20 81.4,31.5 92.9,43 92.9,77.5 92.9,112 96.7,112 100.6,112 100.6,77.5 100.6,43 88.9,31.5 77.3,20 73.6,20 
	"/>
<polygon points="83.3,20 94.8,31.5 106.3,43 106.3,77.5 106.3,112 110.2,112 114,112 114,77.5 114,43 102.4,31.5 90.7,20 87,20 "/>
</svg>
