<?xml version="1.0" encoding="utf-8"?>
<!-- Generator: Adobe Illustrator 19.1.0, SVG Export Plug-In . SVG Version: 6.00 Build 0)  -->
<!DOCTYPE svg PUBLIC "-//W3C//DTD SVG 1.1//EN" "http://www.w3.org/Graphics/SVG/1.1/DTD/svg11.dtd">
<svg version="1.1" id="ic" xmlns="http://www.w3.org/2000/svg" xmlns:xlink="http://www.w3.org/1999/xlink" x="0px" y="0px"
	 width="150px" height="150px" viewBox="0 0 150 150" enable-background="new 0 0 150 150" xml:space="preserve">
<g>
	<path d="M101.2,80.3C89.1,80.3,79,77,79,73v7.8c0,4,10.1,7.3,22.2,7.3c12.1,0,21.8-3.3,21.8-7.3V73C123,77,113.2,80.3,101.2,80.3z"
		/>
	<path d="M101.2,91.9c-12,0-22.2-3.3-22.2-7.3v7.8c0,4,10.1,7.3,22.2,7.3c12.1,0,21.8-3.3,21.8-7.3v-7.8
		C123,88.6,113.2,91.9,101.2,91.9z"/>
	<path d="M101.2,103.5c-12,0-22.2-3.3-22.2-7.3v7.8c0,4,10.1,7.3,22.2,7.3c12.1,0,21.8-3.3,21.8-7.3v-7.8
		C123,100.3,113.2,103.5,101.2,103.5z"/>
	<path d="M101.2,115.2c-12,0-22.2-3.3-22.2-7.3v7.8c0,4,10.1,7.3,22.2,7.3c12.1,0,21.8-3.3,21.8-7.3v-7.8
		C123,111.9,113.2,115.2,101.2,115.2z"/>
	<path d="M79,69.1c0,4,10.1,7.3,22.2,7.3c12.1,0,21.8-3.3,21.8-7.3c0-4-9.8-7.3-21.8-7.3C89.1,61.8,79,65.1,79,69.1z"/>
	<path d="M105.3,57.2L75,27L55,47v-8H43v20L27,75h16v36l32-0.1V65.1c0-4,12-8.3,22.8-8.3C101.2,56.8,102.4,56.9,105.3,57.2z"/>
</g>
</svg>
