<?xml version="1.0" encoding="utf-8"?>
<!-- Generator: Adobe Illustrator 19.1.0, SVG Export Plug-In . SVG Version: 6.00 Build 0)  -->
<!DOCTYPE svg PUBLIC "-//W3C//DTD SVG 1.1//EN" "http://www.w3.org/Graphics/SVG/1.1/DTD/svg11.dtd">
<svg version="1.1" id="Layer_2" xmlns="http://www.w3.org/2000/svg" xmlns:xlink="http://www.w3.org/1999/xlink" x="0px" y="0px"
	 width="132px" height="132px" viewBox="0 0 132 132" enable-background="new 0 0 132 132" xml:space="preserve">
<path d="M92.2,71.3c-6,0-11.6-0.8-15.6-2.1C72.5,67.8,70,66,70,64v3.9v3.9c0,2,2.5,3.8,6.6,5.1c4,1.3,9.6,2.1,15.6,2.1
	c6,0,11.5-0.8,15.4-2.1s6.4-3.1,6.4-5.1v-3.9V64c0,2-2.4,3.8-6.4,5.1S98.2,71.3,92.2,71.3z"/>
<path d="M92.2,82.9c-6,0-11.6-0.8-15.6-2.1c-4-1.3-6.6-3.1-6.6-5.1v3.9v3.9c0,2,2.5,3.8,6.6,5.1c4,1.3,9.6,2.1,15.6,2.1
	c6,0,11.5-0.8,15.4-2.1s6.4-3.1,6.4-5.1v-3.9v-3.9c0,2-2.4,3.8-6.4,5.1S98.2,82.9,92.2,82.9z"/>
<path d="M92.2,94.5c-6,0-11.6-0.8-15.6-2.1c-4-1.3-6.6-3.1-6.6-5.1v3.9V95c0,2,2.5,3.8,6.6,5.1c4,1.3,9.6,2.1,15.6,2.1
	c6,0,11.5-0.8,15.4-2.1S114,97,114,95v-3.9v-3.9c0,2-2.4,3.8-6.4,5.1C103.7,93.7,98.2,94.5,92.2,94.5z"/>
<path d="M92.2,106.2c-6,0-11.6-0.8-15.6-2.1c-4-1.3-6.6-3.1-6.6-5.1v3.9v3.9c0,2,2.5,3.8,6.6,5.1c4,1.3,9.6,2.1,15.6,2.1
	c6,0,11.5-0.8,15.4-2.1c3.9-1.3,6.4-3.1,6.4-5.1v-3.9v-3.9c0,2-2.4,3.8-6.4,5.1S98.2,106.2,92.2,106.2z"/>
<path d="M70,60.1c0,2,2.5,3.8,6.6,5.1c4,1.3,9.6,2.1,15.6,2.1c6,0,11.5-0.8,15.4-2.1c3.9-1.3,6.4-3.1,6.4-5.1s-2.4-3.8-6.4-5.1
	s-9.4-2.1-15.4-2.1c-6,0-11.6,0.8-15.6,2.1C72.5,56.3,70,58.1,70,60.1z"/>
<path d="M96.3,48.2L81.2,33.1L66,18L56,28L46,38v-4v-4h-6h-6v10v10l-8,8l-8,8h8h8v18v18l16,0l16,0V79V56.1c0-2,3-4.1,7.4-5.6
	c4.4-1.6,10.1-2.6,15.5-2.6c1.7,0,2.8,0,3.9,0.1C93.8,48,94.8,48.1,96.3,48.2z"/>
</svg>
