<?xml version="1.0" encoding="utf-8"?>
<!-- Generator: Adobe Illustrator 19.1.0, SVG Export Plug-In . SVG Version: 6.00 Build 0)  -->
<!DOCTYPE svg PUBLIC "-//W3C//DTD SVG 1.1//EN" "http://www.w3.org/Graphics/SVG/1.1/DTD/svg11.dtd">
<svg version="1.1" id="Layer_2" xmlns="http://www.w3.org/2000/svg" xmlns:xlink="http://www.w3.org/1999/xlink" x="0px" y="0px"
	 width="132px" height="132px" viewBox="0 0 132 132" enable-background="new 0 0 132 132" xml:space="preserve">
<path d="M105.6,53.8l5,5c0,0-44.4,46.6-45.1,47.3c-1.2,1.2-6.2,5.4-12.9,7.1c-6.8,1.8-15.3,1.1-23.7-7.3c-7.9-7.9-8.6-16-6.4-23.1
	c2.1-7,7.1-12.9,10.4-16.3c0.9-0.9,45.7-46.2,45.7-46.2s0.5-0.6,1.6-1.2s2.7-1.2,4.9-1.2c2.4,0,4.1,0.6,5.1,1.2s1.5,1.2,1.5,1.2
	l12.6,12.6c0,0,0.6,0.5,1.3,1.5c0.6,1,1.3,2.5,1.3,4.5c0,2.1-0.6,3.7-1.3,4.7c-0.6,1.1-1.3,1.6-1.3,1.6S55.4,95.3,54.9,95.8
	c-0.8,0.8-2.8,2.6-5.5,3.3c-2.7,0.7-6.1,0.3-9.7-3.3c-3.9-3.9-3.9-7.7-2.9-10.6c1-2.8,2.9-4.7,2.9-4.7l23.8-24.5l5.4,5.4L44.4,86.5
	c0,0-0.6,0.5-0.9,1.4c-0.3,0.8-0.3,1.9,0.9,3.1c1.1,1.1,2.3,1,3.2,0.7c0.9-0.3,1.5-0.9,1.5-0.9l47.4-48.7c0,0,0.3-0.3,0.7-0.8
	s0.7-1.3,0.7-2.1c0-0.8-0.3-1.6-0.7-2.1c-0.3-0.5-0.7-0.9-0.7-0.9L88.4,28c0,0-0.3-0.4-0.8-0.7c-0.6-0.4-1.4-0.7-2.5-0.7
	c-1.1,0-1.9,0.4-2.5,0.7c-0.6,0.4-0.9,0.7-0.9,0.7S37.6,73.5,36.7,74.4c-0.9,0.9-4.4,4.4-6.1,9.1c-1.8,4.7-1.8,10.8,4.2,16.8
	c6.5,6.5,12.9,6.5,17.9,4.6c5-1.9,8.7-5.6,9.6-6.5C64.1,96.6,105.6,53.8,105.6,53.8z"/>
</svg>
