<?xml version="1.0" encoding="utf-8"?>
<!-- Generator: Adobe Illustrator 19.1.0, SVG Export Plug-In . SVG Version: 6.00 Build 0)  -->
<!DOCTYPE svg PUBLIC "-//W3C//DTD SVG 1.1//EN" "http://www.w3.org/Graphics/SVG/1.1/DTD/svg11.dtd">
<svg version="1.1" id="ic" xmlns="http://www.w3.org/2000/svg" xmlns:xlink="http://www.w3.org/1999/xlink" x="0px" y="0px"
	 width="150px" height="150px" viewBox="0 0 150 150" enable-background="new 0 0 150 150" xml:space="preserve">
<g>
	<path d="M114.6,62.8l5,5c0,0-43.7,45.9-45.1,47.3c-2.4,2.4-19.8,16.7-36.7-0.2c-15.8-15.8-2.8-32.6,4-39.4
		c1.8-1.8,45.7-46.2,45.7-46.2s2-2.3,6.4-2.3c4.8,0,6.6,2.3,6.6,2.3l12.6,12.6c0,0,2.6,2,2.6,6c0,4.2-2.6,6.4-2.6,6.4
		s-48.4,49.6-49.3,50.5c-1.6,1.6-8.1,7.2-15.3,0c-7.8-7.8,0-15.3,0-15.3l23.8-24.5l5.4,5.4L53.4,95.5c0,0-2.3,2.2,0,4.5
		c2.2,2.2,4.7-0.2,4.7-0.2l47.4-48.7c0,0,1.4-1.3,1.4-2.9c0-1.7-1.4-3-1.4-3L97.4,37c0,0-1.1-1.4-3.3-1.4c-2.2,0-3.3,1.4-3.3,1.4
		S47.5,81.6,45.7,83.4c-1.8,1.8-13.9,13.9-1.9,25.9c13,12.9,25.6,0,27.5-1.9C75,103.7,114.6,62.8,114.6,62.8z"/>
</g>
</svg>
