<?xml version="1.0" encoding="utf-8"?>
<!-- Generator: Adobe Illustrator 19.1.0, SVG Export Plug-In . SVG Version: 6.00 Build 0)  -->
<svg version="1.1" id="Icons_3_" xmlns="http://www.w3.org/2000/svg" xmlns:xlink="http://www.w3.org/1999/xlink" x="0px" y="0px"
	 viewBox="0 0 150 150" enable-background="new 0 0 150 150" xml:space="preserve">
<g id="Savings">
</g>
<g id="Savings_goals">
</g>
<g id="Save">
</g>
<g id="Report">
</g>
<g id="Reply">
</g>
<g id="Renew">
</g>
<g id="Refresh">
</g>
<g id="Rates">
</g>
<g id="Quote_open">
</g>
<g id="Quote_Close">
</g>
<g id="Print">
</g>
<g id="Presentation">
</g>
<g id="Portfolio">
</g>
<g id="Pop_Up_Window">
</g>
<g id="Play">
</g>
<g id="Pin">
</g>
<g id="Phone">
</g>
<g id="PDF">
</g>
<g id="Pay">
</g>
<g id="Rewards">
</g>
<g id="New_Window">
</g>
<g id="Multiple_Users">
</g>
<g id="Articles">
</g>
<g id="More">
</g>
<g id="Mobile">
</g>
<g id="Messages">
</g>
<g id="Menu">
</g>
<g id="Memo">
</g>
<g id="Security_Lock">
</g>
<g id="Location">
</g>
<g id="List">
</g>
<g id="Link">
</g>
<g id="Investment">
</g>
<g id="Intranet">
</g>
<g id="Insurance">
</g>
<g id="Home">
</g>
<g id="Help">
</g>
<g id="Health">
</g>
<g id="Grid_view">
</g>
<g id="Global">
</g>
<g id="Filter">
</g>
<g id="Favourite">
</g>
<g id="Export">
</g>
<g id="Expand">
</g>
<g id="Education">
</g>
<g id="Edit">
</g>
<g id="Download">
</g>
<g id="Dollar_Bill">
</g>
<g id="Document">
</g>
<g id="Do_Not_View">
</g>
<g id="Dining">
</g>
<g id="Devices">
</g>
<g id="Desktop_Computer">
</g>
<g id="Bin">
</g>
<g id="Dashboard">
</g>
<g id="Copy">
</g>
<g id="Contactless_Payment">
</g>
<g id="Confidential">
</g>
<g id="Compose">
</g>
<g id="Column_View">
</g>
<g id="Collapse">
</g>
<g id="Client_Upload">
</g>
<g id="Client_Download">
</g>
<g id="Circle_Warning">
</g>
<g id="Circle_Error_Solid">
</g>
<g id="Circle_Info">
</g>
<g id="Circle_Fill_Information">
</g>
<g id="Circle_Help">
</g>
<g id="Circle_Help_Solid">
</g>
<g id="Circle_Delete">
</g>
<g id="Circle_Delete_Solid">
</g>
<g id="Circle_Confirmation">
</g>
<g id="Circle_Confirmation_Solid">
</g>
<g id="Chevron_Up">
</g>
<g id="Chevron_Right">
</g>
<g id="Chevron_Right_Small">
</g>
<g id="Chevron_Left">
</g>
<g id="Chevron_Down">
</g>
<g id="Chevron_Double_Right">
</g>
<g id="Chevron_Double_Left">
</g>
<g id="Chat">
</g>
<g id="Pie_Chart">
</g>
<g id="Delete">
</g>
<g id="Calendar">
</g>
<g id="Corporate">
</g>
<g id="Barcode">
</g>
<g id="Banking">
</g>
<g id="Back">
</g>
<g id="Attachment">
	<path d="M114.6,62.8l5,5c0,0-43.7,45.9-45.1,47.3c-2.4,2.4-19.8,16.7-36.7-0.2c-15.8-15.8-2.8-32.6,4-39.4
		c1.8-1.8,45.7-46.2,45.7-46.2s2-2.3,6.4-2.3c4.8,0,6.6,2.3,6.6,2.3l12.6,12.6c0,0,2.6,2,2.6,6c0,4.2-2.6,6.4-2.6,6.4
		s-48.4,49.6-49.3,50.5c-1.6,1.6-8.1,7.2-15.3,0c-7.8-7.8,0-15.3,0-15.3l23.8-24.5l5.4,5.4L53.4,95.5c0,0-2.3,2.2,0,4.5
		c2.2,2.2,4.7-0.2,4.7-0.2l47.4-48.7c0,0,1.4-1.3,1.4-2.9c0-1.7-1.4-3-1.4-3L97.4,37c0,0-1.1-1.4-3.3-1.4c-2.2,0-3.3,1.4-3.3,1.4
		S47.5,81.6,45.7,83.4c-1.8,1.8-13.9,13.9-1.9,25.9c13,12.9,25.6,0,27.5-1.9C75,103.7,114.6,62.8,114.6,62.8z"/>
</g>
<g id="In_Branch">
</g>
<g id="Assets">
</g>
<g id="Newspaper">
</g>
<g id="Anchor_Up">
</g>
<g id="Anchor_down">
</g>
<g id="Insight">
</g>
<g id="Alert">
</g>
<g id="Agree">
</g>
<g id="Add">
</g>
<g id="Accounts">
</g>
</svg>
