<?xml version="1.0" encoding="utf-8"?>
<!-- Generator: Adobe Illustrator 19.1.0, SVG Export Plug-In . SVG Version: 6.00 Build 0)  -->
<!DOCTYPE svg PUBLIC "-//W3C//DTD SVG 1.1//EN" "http://www.w3.org/Graphics/SVG/1.1/DTD/svg11.dtd">
<svg version="1.1" id="Layer_2" xmlns="http://www.w3.org/2000/svg" xmlns:xlink="http://www.w3.org/1999/xlink" x="0px" y="0px"
	 width="132px" height="132px" viewBox="0 0 132 132" enable-background="new 0 0 132 132" xml:space="preserve">
<polygon points="94,26 98,26 102,26 102,66 102,106 98,106 94,106 94,66 "/>
<polygon points="86,26 88,26 90,26 90,66 90,106 88,106 86,106 86,66 "/>
<polygon points="78,26 80,26 82,26 82,66 82,106 80,106 78,106 78,66 "/>
<polygon points="69.8,26 71.9,26 74,26 74,66 74,106 71.9,106 69.8,106 69.8,66 "/>
<polygon points="54,26 58,26 62,26 62,66 62,106 58,106 54,106 54,66 "/>
<polygon points="46,26 48,26 50,26 50,66 50,106 48,106 46,106 46,66 "/>
<polygon points="38,26 40,26 42,26 42,66 42,106 40,106 38,106 38,66 "/>
<polygon points="26,26 30,26 34,26 34,66 34,106 30,106 26,106 26,66 "/>
<polygon points="18,26 19.9,26 21.8,26 21.8,66 21.8,106 19.9,106 18,106 18,66 "/>
<polygon points="110.2,26 112.1,26 114,26 114,66 114,106 112.1,106 110.2,106 110.2,66 "/>
</svg>
