<?xml version="1.0" encoding="utf-8"?>
<!-- Generator: Adobe Illustrator 19.1.0, SVG Export Plug-In . SVG Version: 6.00 Build 0)  -->
<!DOCTYPE svg PUBLIC "-//W3C//DTD SVG 1.1//EN" "http://www.w3.org/Graphics/SVG/1.1/DTD/svg11.dtd">
<svg version="1.1" id="Layer_2" xmlns="http://www.w3.org/2000/svg" xmlns:xlink="http://www.w3.org/1999/xlink" x="0px" y="0px"
	 width="132px" height="132px" viewBox="0 0 132 132" enable-background="new 0 0 132 132" xml:space="preserve">
<polygon points="78,26 78,22 78,18 66,18 54,18 54,22 54,26 40,26 26,26 26,32 26,38 66,38 106,38 106,32 106,26 92,26 "/>
<path d="M30,46l0,34l0,34h36h36l0-34l0-34H66H30z M50,102h-4h-4V80V58h4h4v22V102z M70,102h-4h-4V80V58h4h4v22V102z M90,102h-4h-4
	V80V58h4h4v22V102z"/>
</svg>
