<?xml version="1.0" encoding="utf-8"?>
<!-- Generator: Adobe Illustrator 19.1.0, SVG Export Plug-In . SVG Version: 6.00 Build 0)  -->
<!DOCTYPE svg PUBLIC "-//W3C//DTD SVG 1.1//EN" "http://www.w3.org/Graphics/SVG/1.1/DTD/svg11.dtd">
<svg version="1.1" id="icon" xmlns="http://www.w3.org/2000/svg" xmlns:xlink="http://www.w3.org/1999/xlink" x="0px" y="0px"
	 width="150px" height="150px" viewBox="0 0 150 150" enable-background="new 0 0 150 150" xml:space="preserve">
<g>
	<path d="M60.3,115v-12v-12h0h0v-4v-4h0h0v-3v-3c0-0.6,0.2-1.1,0.6-1.4s0.9-0.6,1.4-0.6h22.3H107v0v0h8h8L99,51L75,27L65,37L55,47
		v-4v-4h-6h-6v10v10l-8,8l-8,8h8h8v20v20h8.7H60.3z"/>
	<path d="M64.3,120.6c0,0.7,0.3,1.3,0.7,1.7c0.4,0.4,1.1,0.7,1.7,0.7h26.9h26.9c0.7,0,1.3-0.3,1.7-0.7c0.4-0.4,0.7-1.1,0.7-1.7V101
		V81.4c0-0.7-0.3-1.3-0.7-1.7c-0.4-0.4-1.1-0.7-1.7-0.7H93.7H66.8c-0.7,0-1.3,0.3-1.7,0.7c-0.4,0.4-0.7,1.1-0.7,1.7V101V120.6z
		 M69.2,85.1c0-0.3,0.1-0.6,0.4-0.9c0.2-0.2,0.5-0.4,0.9-0.4h23.2h23.2c0.3,0,0.6,0.1,0.9,0.4c0.2,0.2,0.4,0.5,0.4,0.9V87v1.9H93.7
		H69.2V87V85.1z M116.9,118.1H93.7H70.4c-0.3,0-0.6-0.1-0.9-0.4c-0.2-0.2-0.4-0.5-0.4-0.9v-9.1v-9.1h24.4h24.4v9.1v9.1
		c0,0.3-0.1,0.6-0.4,0.9C117.5,118,117.2,118.1,116.9,118.1z"/>
</g>
</svg>
