<?xml version="1.0" encoding="utf-8"?>
<!-- Generator: Adobe Illustrator 19.1.0, SVG Export Plug-In . SVG Version: 6.00 Build 0)  -->
<svg version="1.1" id="Icons_3_" xmlns="http://www.w3.org/2000/svg" xmlns:xlink="http://www.w3.org/1999/xlink" x="0px" y="0px"
	 viewBox="0 0 150 150" enable-background="new 0 0 150 150" xml:space="preserve">
<g id="Error">
</g>
<g id="View">
</g>
<g id="Video">
</g>
<g id="User_Personal">
</g>
<g id="Upload">
</g>
<g id="Travel">
</g>
<g id="Transfers">
</g>
<g id="Tools">
</g>
<g id="Clock">
</g>
<g id="Fast_Track">
</g>
<g id="Camera">
</g>
<g id="Tablet">
</g>
<g id="Switch">
</g>
<g id="Survey">
</g>
<g id="Minimize">
</g>
<g id="Stock_Up">
</g>
<g id="Stock_Down">
</g>
<g id="Sound">
</g>
<g id="Shopping_Cart">
</g>
<g id="Share">
</g>
<g id="Settings">
</g>
<g id="Secure_Key_Passcode">
</g>
<g id="Search">
</g>
<g id="Script">
</g>
<g id="Staff_Channels">
	<g id="Signature">
	</g>
	<g id="Shortcuts">
	</g>
	<g id="Microphone">
	</g>
	<g id="Dial">
	</g>
</g>
<g id="Social_Icons">
	<g id="Youtube">
	</g>
	<g id="Youtube_Solid">
	</g>
	<g id="Weibo">
	</g>
	<g id="Weibo_Solid">
	</g>
	<g id="Vimeo">
	</g>
	<g id="Vimeo_Solid">
	</g>
	<g id="Twitter">
	</g>
	<g id="Twitter_Solid">
	</g>
	<g id="LinkedIn">
	</g>
	<g id="LinkedIn_Solid">
	</g>
	<g id="GooglePlus">
	</g>
	<g id="GooglePlus_Solid">
	</g>
	<g id="Facebook">
	</g>
	<g id="Facebook_Solid">
	</g>
</g>
<g id="Borrowing">
	<path d="M60.3,115V91.1h0v-8h0V77c0-1.1,0.9-2,2-2H107v0h16L75,27L55,47v-8H43v20L27,75h16v40H60.3z"/>
	<path d="M120.6,79H66.8c-1.3,0-2.4,1.1-2.4,2.4v7.4h0v9.8h0v21.9c0,1.3,1.1,2.4,2.4,2.4h53.8c1.3,0,2.4-1.1,2.4-2.4V81.4
		C123,80.1,121.9,79,120.6,79z M69.2,85.1c0-0.7,0.5-1.2,1.2-1.2h46.4c0.7,0,1.2,0.5,1.2,1.2v3.8H69.2V85.1z M116.9,118.1H70.4
		c-0.7,0-1.2-0.5-1.2-1.2V98.7h48.9v18.2C118.1,117.6,117.6,118.1,116.9,118.1z"/>
</g>
</svg>
