<?xml version="1.0" encoding="utf-8"?>
<!-- Generator: Adobe Illustrator 19.1.0, SVG Export Plug-In . SVG Version: 6.00 Build 0)  -->
<!DOCTYPE svg PUBLIC "-//W3C//DTD SVG 1.1//EN" "http://www.w3.org/Graphics/SVG/1.1/DTD/svg11.dtd">
<svg version="1.1" id="icon" xmlns="http://www.w3.org/2000/svg" xmlns:xlink="http://www.w3.org/1999/xlink" x="0px" y="0px"
	 width="132px" height="132px" viewBox="0 0 132 132" enable-background="new 0 0 132 132" xml:space="preserve">
<g>
	<path d="M51.3,106V94v-12h0h0v-4v-4h0h0v-3v-3c0-0.6,0.2-1.1,0.6-1.4s0.9-0.6,1.4-0.6h22.3H98v0v0h8h8L90,42L66,18L56,28L46,38v-4
		v-4h-6h-6v10v10l-8,8l-8,8h8h8v20v20h8.7H51.3z"/>
	<path d="M55.3,111.6c0,0.7,0.3,1.3,0.7,1.7c0.4,0.4,1.1,0.7,1.7,0.7h26.9h26.9c0.7,0,1.3-0.3,1.7-0.7c0.4-0.4,0.7-1.1,0.7-1.7V92
		V72.4c0-0.7-0.3-1.3-0.7-1.7c-0.4-0.4-1.1-0.7-1.7-0.7H84.7H57.8c-0.7,0-1.3,0.3-1.7,0.7c-0.4,0.4-0.7,1.1-0.7,1.7V92V111.6z
		 M60.2,76.1c0-0.3,0.1-0.6,0.4-0.9c0.2-0.2,0.5-0.4,0.9-0.4h23.2h23.2c0.3,0,0.6,0.1,0.9,0.4c0.2,0.2,0.4,0.5,0.4,0.9V78v1.9H84.7
		H60.2V78V76.1z M107.9,109.1H84.7H61.4c-0.3,0-0.6-0.1-0.9-0.4c-0.2-0.2-0.4-0.5-0.4-0.9v-9.1v-9.1h24.4h24.4v9.1v9.1
		c0,0.3-0.1,0.6-0.4,0.9C108.5,109,108.2,109.1,107.9,109.1z"/>
</g>
</svg>
