<?xml version="1.0" encoding="utf-8"?>
<!-- Generator: Adobe Illustrator 19.1.0, SVG Export Plug-In . SVG Version: 6.00 Build 0)  -->
<!DOCTYPE svg PUBLIC "-//W3C//DTD SVG 1.1//EN" "http://www.w3.org/Graphics/SVG/1.1/DTD/svg11.dtd">
<svg version="1.1" id="Layer_2" xmlns="http://www.w3.org/2000/svg" xmlns:xlink="http://www.w3.org/1999/xlink" x="0px" y="0px"
	 width="150px" height="150px" viewBox="0 0 150 150" enable-background="new 0 0 150 150" xml:space="preserve">
<polygon points="51,27 55,27 59,27 59,35 59,43 55,43 51,43 51,35 "/>
<polygon points="91,27 95,27 99,27 99,35 99,43 95,43 91,43 91,35 "/>
<path d="M123,123H75H27V79V35h10h10v6v6h8h8v-6v-6h12h12l0,6l0,6h8h8l0-6l0-6h10h10v44V123z M53,97.1h-8h-8v8v8h8h8v-8V97.1z
	 M73.1,97.1h-8h-8v8v8h8h8v-8V97.1z M93,97.1h-8h-8v8v8h8h8v-8V97.1z M113.1,97.1h-8h-8v8v8h8h8v-8V97.1z M53,77.1h-8h-8v8v8h8h8v-8
	V77.1z M73.1,77.1h-8h-8v8v8h8h8v-8V77.1z M93,77.1h-8h-8v8v8h8h8v-8V77.1z M113.1,77.1h-8h-8v8v8h8h8v-8V77.1z M53,57.1h-8h-8v8v8
	h8h8v-8V57.1z M73.1,57.1h-8h-8v8v8h8h8v-8V57.1z M93,57.1h-8h-8v8v8h8h8v-8V57.1z M113.1,57.1h-8h-8v8v8h8h8v-8V57.1z"/>
</svg>
