<?xml version="1.0" encoding="utf-8"?>
<!-- Generator: Adobe Illustrator 19.1.0, SVG Export Plug-In . SVG Version: 6.00 Build 0)  -->
<!DOCTYPE svg PUBLIC "-//W3C//DTD SVG 1.1//EN" "http://www.w3.org/Graphics/SVG/1.1/DTD/svg11.dtd">
<svg version="1.1" id="Layer_2" xmlns="http://www.w3.org/2000/svg" xmlns:xlink="http://www.w3.org/1999/xlink" x="0px" y="0px"
	 width="132px" height="132px" viewBox="0 0 132 132" enable-background="new 0 0 132 132" xml:space="preserve">
<polygon points="42,18 46,18 50,18 50,26 50,34 46,34 42,34 42,26 "/>
<polygon points="82,18 86,18 90,18 90,26 90,34 86,34 82,34 82,26 "/>
<path d="M114,114H66H18V70V26h10h10v6v6h8h8v-6v-6h12h12l0,6l0,6h8h8l0-6l0-6h10h10v44V114z M44,88.1h-8h-8v8v8h8h8v-8V88.1z
	 M64.1,88.1h-8h-8v8v8h8h8v-8V88.1z M84,88.1h-8h-8v8v8h8h8v-8V88.1z M104.1,88.1h-8h-8v8v8h8h8v-8V88.1z M44,68.1h-8h-8v8v8h8h8v-8
	V68.1z M64.1,68.1h-8h-8v8v8h8h8v-8V68.1z M84,68.1h-8h-8v8v8h8h8v-8V68.1z M104.1,68.1h-8h-8v8v8h8h8v-8V68.1z M44,48.1h-8h-8v8v8
	h8h8v-8V48.1z M64.1,48.1h-8h-8v8v8h8h8v-8V48.1z M84,48.1h-8h-8v8v8h8h8v-8V48.1z M104.1,48.1h-8h-8v8v8h8h8v-8V48.1z"/>
</svg>
