<?xml version="1.0" encoding="utf-8"?>
<!-- Generator: Adobe Illustrator 19.1.0, SVG Export Plug-In . SVG Version: 6.00 Build 0)  -->
<!DOCTYPE svg PUBLIC "-//W3C//DTD SVG 1.1//EN" "http://www.w3.org/Graphics/SVG/1.1/DTD/svg11.dtd">
<svg version="1.1" id="icon" xmlns="http://www.w3.org/2000/svg" xmlns:xlink="http://www.w3.org/1999/xlink" x="0px" y="0px"
	 width="132px" height="132px" viewBox="0 0 132 132" enable-background="new 0 0 132 132" xml:space="preserve">
<g>
	<path d="M86,38l-4-4l-4-4H66H54L50,34l-3.9,4H32H18v32v32h48h48V70V38h-14H86z M66,96.5c-7.3,0-13.9-3-18.7-7.7
		c-4.8-4.8-7.7-11.4-7.7-18.7c0-7.3,3-13.9,7.7-18.6c4.8-4.8,11.4-7.8,18.7-7.8s13.9,3,18.7,7.8c4.8,4.8,7.7,11.4,7.7,18.6
		c0,7.3-3,13.9-7.7,18.7C79.9,93.5,73.3,96.5,66,96.5z M110,54h-8h-8v-6v-6h8h8v6V54z"/>
	<path d="M66,50.9c-5.3,0-10.1,2.2-13.6,5.6c-3.5,3.5-5.6,8.3-5.6,13.5c0,5.3,2.1,10.1,5.6,13.6s8.3,5.6,13.6,5.6s10.1-2.2,13.6-5.6
		s5.6-8.3,5.6-13.6c0-5.3-2.2-10-5.6-13.5S71.3,50.9,66,50.9z"/>
</g>
</svg>
