<?xml version="1.0" encoding="utf-8"?>
<!-- Generator: Adobe Illustrator 19.1.0, SVG Export Plug-In . SVG Version: 6.00 Build 0)  -->
<!DOCTYPE svg PUBLIC "-//W3C//DTD SVG 1.1//EN" "http://www.w3.org/Graphics/SVG/1.1/DTD/svg11.dtd">
<svg version="1.1" id="Layer_2" xmlns="http://www.w3.org/2000/svg" xmlns:xlink="http://www.w3.org/1999/xlink" x="0px" y="0px"
	 width="150px" height="150px" viewBox="0 0 150 150" enable-background="new 0 0 150 150" xml:space="preserve">
<polygon points="89.2,55.2 82.1,62.2 75,69.3 67.9,62.2 60.9,55.2 58.1,58.1 55.2,60.9 62.3,67.9 69.4,75 62.3,82.1 55.2,89.1 
	58.1,92 60.9,94.8 67.9,87.8 75,80.7 82.1,87.8 89.2,94.8 92,92 94.8,89.1 87.8,82.1 80.7,75 87.8,67.9 94.8,60.9 92,58.1 "/>
<path d="M75,27c-13.2,0-25.2,5.4-33.9,14.1S27,61.8,27,75s5.4,25.2,14.1,33.9S61.8,123,75,123s25.2-5.4,33.9-14.1S123,88.2,123,75
	s-5.4-25.2-14.1-33.9S88.2,27,75,27z M75,115c-11.1,0-21.1-4.5-28.3-11.7C39.5,96.1,35,86.1,35,75s4.5-21.1,11.7-28.3
	C53.9,39.5,63.9,35,75,35s21.1,4.5,28.3,11.7C110.5,53.9,115,63.9,115,75s-4.5,21.1-11.7,28.3C96.1,110.5,86.1,115,75,115z"/>
</svg>
