<?xml version="1.0" encoding="utf-8"?>
<!-- Generator: Adobe Illustrator 19.1.0, SVG Export Plug-In . SVG Version: 6.00 Build 0)  -->
<!DOCTYPE svg PUBLIC "-//W3C//DTD SVG 1.1//EN" "http://www.w3.org/Graphics/SVG/1.1/DTD/svg11.dtd">
<svg version="1.1" id="Layer_2" xmlns="http://www.w3.org/2000/svg" xmlns:xlink="http://www.w3.org/1999/xlink" x="0px" y="0px"
	 width="132px" height="132px" viewBox="0 0 132 132" enable-background="new 0 0 132 132" xml:space="preserve">
<path d="M66,18c-13.3,0-25.3,5.4-33.9,14.1C23.4,40.7,18,52.7,18,66s5.4,25.3,14.1,33.9C40.7,108.6,52.7,114,66,114
	s25.3-5.4,33.9-14.1C108.6,91.3,114,79.3,114,66s-5.4-25.3-14.1-33.9C91.3,23.4,79.3,18,66,18z M60,84c0,0-0.1-0.1-0.2-0.2
	c-0.1-0.1-0.3-0.3-0.4-0.4l0,0l0,0l-2.6-2.6l-2.6-2.6l-5.8-5.9l-5.8-5.9c-0.2-0.2-0.3-0.3-0.4-0.5c-0.1-0.1-0.2-0.2-0.2-0.2l2.9-2.9
	l2.9-2.9c0.2-0.2,0.3-0.3,0.4-0.4c0.1-0.1,0.2-0.2,0.2-0.2l5.8,5.8l5.8,5.8l11.9-11.8l11.9-11.8l3.2,3.2l3.2,3.2L75.1,68.9L60,84z"
	/>
</svg>
