<?xml version="1.0" encoding="utf-8"?>
<!-- Generator: Adobe Illustrator 19.1.0, SVG Export Plug-In . SVG Version: 6.00 Build 0)  -->
<!DOCTYPE svg PUBLIC "-//W3C//DTD SVG 1.1//EN" "http://www.w3.org/Graphics/SVG/1.1/DTD/svg11.dtd">
<svg version="1.1" id="ic" xmlns="http://www.w3.org/2000/svg" xmlns:xlink="http://www.w3.org/1999/xlink" x="0px" y="0px"
	 width="150px" height="150px" viewBox="0 0 150 150" enable-background="new 0 0 150 150" xml:space="preserve">
<g>
	<path d="M75,27c-26.5,0-48,21.5-48,48c0,26.5,21.5,48,48,48c26.5,0,48-21.5,48-48C123,48.5,101.5,27,75,27z M80,100H70v-9h10V100z
		 M83.4,76.3c-2.8,2.2-3.7,3.3-3.7,6.8V87h-8.9v-5.4c0-3.7,0.7-4.8,5.5-9.3c4.7-4.4,6.6-6.7,6.6-10.3c0-5.1-4.6-7.3-10.3-7.3
		c-2.6,0-5.1,0.4-7.7,1.2v-7.6c3.4-0.6,6.8-1,10.2-1c9.2,0,19,2.9,19,13.6C94.2,67.3,90.1,71,83.4,76.3z"/>
</g>
</svg>
