<?xml version="1.0" encoding="utf-8"?>
<!-- Generator: Adobe Illustrator 19.1.0, SVG Export Plug-In . SVG Version: 6.00 Build 0)  -->
<!DOCTYPE svg PUBLIC "-//W3C//DTD SVG 1.1//EN" "http://www.w3.org/Graphics/SVG/1.1/DTD/svg11.dtd">
<svg version="1.1" id="ic" xmlns="http://www.w3.org/2000/svg" xmlns:xlink="http://www.w3.org/1999/xlink" x="0px" y="0px"
	 width="150px" height="150px" viewBox="0 0 150 150" enable-background="new 0 0 150 150" xml:space="preserve">
<g>
	<rect x="69" y="46" width="12" height="9.1"/>
	<polygon points="81,63 65,63 65,71 69,71 69,94 65,94 65,103 85,103 85,94 81,94 	"/>
	<path d="M75,27c-26.5,0-48,21.5-48,48s21.5,48,48,48s48-21.5,48-48S101.5,27,75,27z M75,115c-22.1,0-40-17.9-40-40
		c0-22.1,17.9-40,40-40s40,17.9,40,40C115,97.1,97.1,115,75,115z"/>
</g>
</svg>
