<?xml version="1.0" encoding="utf-8"?>
<!-- Generator: Adobe Illustrator 19.1.0, SVG Export Plug-In . SVG Version: 6.00 Build 0)  -->
<!DOCTYPE svg PUBLIC "-//W3C//DTD SVG 1.1//EN" "http://www.w3.org/Graphics/SVG/1.1/DTD/svg11.dtd">
<svg version="1.1" id="Layer_2" xmlns="http://www.w3.org/2000/svg" xmlns:xlink="http://www.w3.org/1999/xlink" x="0px" y="0px"
	 width="150px" height="150px" viewBox="0 0 150 150" enable-background="new 0 0 150 150" xml:space="preserve">
<g>
	<rect x="70.2" y="90.5" width="9.7" height="8.7"/>
	<path d="M75.2,48.1c-3.3,0-6.6,0.4-9.9,1v7.4c2.5-0.7,4.8-1.2,7.5-1.2c5.5,0,10,2.1,10,7.1c0,3.5-1.8,5.7-6.4,10
		c-4.6,4.4-5.3,5.4-5.3,9v5.3h8.6v-3.8c0-3.4,0.9-4.5,3.6-6.6c6.4-5,10.5-8.6,10.5-14.9C93.6,50.9,84.1,48.1,75.2,48.1z"/>
	<path d="M75,27c-26.5,0-48,21.5-48,48s21.5,48,48,48s48-21.5,48-48S101.5,27,75,27z M75,115c-22.1,0-40-17.9-40-40s17.9-40,40-40
		s40,17.9,40,40S97.1,115,75,115z"/>
</g>
</svg>
