<?xml version="1.0" encoding="utf-8"?>
<!-- Generator: Adobe Illustrator 19.1.0, SVG Export Plug-In . SVG Version: 6.00 Build 0)  -->
<!DOCTYPE svg PUBLIC "-//W3C//DTD SVG 1.1//EN" "http://www.w3.org/Graphics/SVG/1.1/DTD/svg11.dtd">
<svg version="1.1" id="Layer_2" xmlns="http://www.w3.org/2000/svg" xmlns:xlink="http://www.w3.org/1999/xlink" x="0px" y="0px"
	 width="132px" height="132px" viewBox="0 0 132 132" enable-background="new 0 0 132 132" xml:space="preserve">
<polygon points="80.2,46.2 73.1,53.2 66,60.3 58.9,53.2 51.9,46.2 49.1,49.1 46.2,51.9 53.3,58.9 60.4,66 53.3,73.1 46.2,80.1 
	49.1,83 51.9,85.8 58.9,78.8 66,71.7 73.1,78.8 80.2,85.8 83,83 85.8,80.1 78.8,73.1 71.7,66 78.8,58.9 85.8,51.9 83,49.1 "/>
<path d="M66,18c-13.2,0-25.2,5.4-33.9,14.1S18,52.8,18,66s5.4,25.2,14.1,33.9S52.8,114,66,114s25.2-5.4,33.9-14.1S114,79.2,114,66
	s-5.4-25.2-14.1-33.9S79.2,18,66,18z M66,106c-11.1,0-21.1-4.5-28.3-11.7C30.5,87.1,26,77.1,26,66s4.5-21.1,11.7-28.3
	C44.9,30.5,54.9,26,66,26s21.1,4.5,28.3,11.7C101.5,44.9,106,54.9,106,66s-4.5,21.1-11.7,28.3C87.1,101.5,77.1,106,66,106z"/>
</svg>
