<?xml version="1.0" encoding="utf-8"?>
<!-- Generator: Adobe Illustrator 19.1.0, SVG Export Plug-In . SVG Version: 6.00 Build 0)  -->
<!DOCTYPE svg PUBLIC "-//W3C//DTD SVG 1.1//EN" "http://www.w3.org/Graphics/SVG/1.1/DTD/svg11.dtd">
<svg version="1.1" id="Layer_2" xmlns="http://www.w3.org/2000/svg" xmlns:xlink="http://www.w3.org/1999/xlink" x="0px" y="0px"
	 width="132px" height="132px" viewBox="0 0 132 132" enable-background="new 0 0 132 132" xml:space="preserve">
<polygon points="60,37 66,37 72,37 72,41.6 72,46.1 66,46.1 60,46.1 60,41.6 "/>
<polygon points="72,54 64,54 56,54 56,58 56,62 58,62 60,62 60,73.5 60,85 58,85 56,85 56,89.5 56,94 66,94 76,94 76,89.5 76,85 
	74,85 72,85 72,69.5 "/>
<path d="M66,18c-13.2,0-25.2,5.4-33.9,14.1S18,52.8,18,66s5.4,25.2,14.1,33.9S52.8,114,66,114s25.2-5.4,33.9-14.1S114,79.3,114,66
	s-5.4-25.2-14.1-33.9S79.3,18,66,18z M66,106C55,106,45,101.5,37.7,94.3C30.5,87.1,26,77.1,26,66C26,55,30.5,45,37.7,37.7
	S55,26,66,26s21.1,4.5,28.3,11.7S106,55,106,66c0,11-4.5,21-11.7,28.3C87.1,101.5,77.1,106,66,106z"/>
</svg>
