<?xml version="1.0" encoding="utf-8"?>
<!-- Generator: Adobe Illustrator 19.1.0, SVG Export Plug-In . SVG Version: 6.00 Build 0)  -->
<!DOCTYPE svg PUBLIC "-//W3C//DTD SVG 1.1//EN" "http://www.w3.org/Graphics/SVG/1.1/DTD/svg11.dtd">
<svg version="1.1" id="Layer_2" xmlns="http://www.w3.org/2000/svg" xmlns:xlink="http://www.w3.org/1999/xlink" x="0px" y="0px"
	 width="132px" height="132px" viewBox="0 0 132 132" enable-background="new 0 0 132 132" xml:space="preserve">
<polygon points="60,71.1 54.2,65.3 48.4,59.5 45.2,62.6 42,65.8 51,74.9 60,84 75.1,68.9 90.2,53.8 87,50.6 83.8,47.4 71.9,59.2 "/>
<path d="M66,18c-13.2,0-25.2,5.4-33.9,14.1S18,52.8,18,66s5.4,25.2,14.1,33.9S52.8,114,66,114s25.2-5.4,33.9-14.1S114,79.2,114,66
	s-5.4-25.2-14.1-33.9S79.2,18,66,18z M66,106c-11.1,0-21.1-4.5-28.3-11.7C30.5,87.1,26,77.1,26,66s4.5-21.1,11.7-28.3
	C44.9,30.5,54.9,26,66,26s21.1,4.5,28.3,11.7C101.5,44.9,106,54.9,106,66s-4.5,21.1-11.7,28.3C87.1,101.5,77.1,106,66,106z"/>
</svg>
