<?xml version="1.0" encoding="utf-8"?>
<!-- Generator: Adobe Illustrator 19.1.0, SVG Export Plug-In . SVG Version: 6.00 Build 0)  -->
<!DOCTYPE svg PUBLIC "-//W3C//DTD SVG 1.1//EN" "http://www.w3.org/Graphics/SVG/1.1/DTD/svg11.dtd">
<svg version="1.1" id="Layer_2" xmlns="http://www.w3.org/2000/svg" xmlns:xlink="http://www.w3.org/1999/xlink" x="0px" y="0px"
	 width="150px" height="150px" viewBox="0 0 150 150" enable-background="new 0 0 150 150" xml:space="preserve">
<polygon points="70,91 75,91 80.1,91 80.1,95.6 80.1,100.2 75,100.2 70,100.2 70,95.6 "/>
<polygon points="71,87 75,87 79.1,87 80.1,67 81.1,47 75,47 69,47 70,67 "/>
<path d="M75,27c-13.2,0-25.2,5.4-33.9,14.1C32.4,49.8,27,61.8,27,75s5.4,25.2,14.1,33.9C49.8,117.6,61.8,123,75,123
	s25.2-5.4,33.9-14.1c8.7-8.7,14.1-20.7,14.1-33.9s-5.4-25.2-14.1-33.9C100.2,32.4,88.2,27,75,27z M75,115c-11,0-21-4.5-28.3-11.7
	C39.5,96,35,86,35,75s4.5-21,11.7-28.3C54,39.5,64,35,75,35s21,4.5,28.3,11.7C110.5,54,115,64,115,75s-4.5,21-11.7,28.3
	C96,110.5,86,115,75,115z"/>
</svg>
