<?xml version="1.0" encoding="utf-8"?>
<!-- Generator: Adobe Illustrator 19.1.0, SVG Export Plug-In . SVG Version: 6.00 Build 0)  -->
<!DOCTYPE svg PUBLIC "-//W3C//DTD SVG 1.1//EN" "http://www.w3.org/Graphics/SVG/1.1/DTD/svg11.dtd">
<svg version="1.1" id="Layer_2" xmlns="http://www.w3.org/2000/svg" xmlns:xlink="http://www.w3.org/1999/xlink" x="0px" y="0px"
	 width="132px" height="132px" viewBox="0 0 132 132" enable-background="new 0 0 132 132" xml:space="preserve">
<polygon points="61,82 66,82 71.1,82 71.1,86.6 71.1,91.2 66,91.2 61,91.2 61,86.6 "/>
<polygon points="62,78 66,78 70.1,78 71.1,58 72.1,38 66,38 60,38 61,58 "/>
<path d="M66,18c-13.2,0-25.2,5.4-33.9,14.1C23.4,40.8,18,52.8,18,66s5.4,25.2,14.1,33.9C40.8,108.6,52.8,114,66,114
	s25.2-5.4,33.9-14.1C108.6,91.2,114,79.2,114,66s-5.4-25.2-14.1-33.9C91.2,23.4,79.2,18,66,18z M66,106c-11,0-21-4.5-28.3-11.7
	C30.5,87,26,77,26,66s4.5-21,11.7-28.3C45,30.5,55,26,66,26s21,4.5,28.3,11.7C101.5,45,106,55,106,66s-4.5,21-11.7,28.3
	C87,101.5,77,106,66,106z"/>
</svg>
