<?xml version="1.0" encoding="utf-8"?>
<!-- Generator: Adobe Illustrator 19.1.0, SVG Export Plug-In . SVG Version: 6.00 Build 0)  -->
<!DOCTYPE svg PUBLIC "-//W3C//DTD SVG 1.1//EN" "http://www.w3.org/Graphics/SVG/1.1/DTD/svg11.dtd">
<svg version="1.1" id="Layer_2" xmlns="http://www.w3.org/2000/svg" xmlns:xlink="http://www.w3.org/1999/xlink" x="0px" y="0px"
	 width="132px" height="132px" viewBox="0 0 132 132" enable-background="new 0 0 132 132" xml:space="preserve">
<path d="M89,76.3c-3.8-5.1-9.7-9.5-16.4-9.5h-8.5c-2.3,0-4.5,0-6.8,0c-3.8,0-7.4,0.6-10.8,2.6v10.7V91l9.7,0l9.7,0l-5.8,5.8
	l-5.8,5.8h20.8h20.8v-3.6c0-3,0.1-5.9-0.5-8.8C94.3,85.3,92,80.5,89,76.3C88,75,90,77.7,89,76.3z"/>
<path d="M63.4,62.4c7.2,0,13.9-4.6,16.4-11.4c2.6-6.9,0.4-14.5-5.1-19.3c-5.4-4.7-13.8-5.5-20-1.8c-6.4,3.8-9.6,11.2-8.2,18.5
	C47.9,56.5,55.3,62.4,63.4,62.4z"/>
<path d="M112.1,75.9c-3.4-8.9-10.8-18.7-21.3-18.7h-4.6c-0.7,0-1.3,0-2,0c-0.7,0-1.8-0.2-2.4,0c-0.5,0.2-0.8,0.8-1.1,1.2
	c-0.5,0.6-1,1.2-1.5,1.7c-1.3,1.3-2.7,2.5-4.3,3.4H75c7,0,13.2,4.3,17.3,9.7c4.3,5.5,7.3,12.8,7.6,19.8h7.1h7.1v-3.6
	C114,84.7,113.8,80.3,112.1,75.9C111.5,74.2,112.8,77.6,112.1,75.9z"/>
<path d="M85.4,45.1c0,2.5-0.4,5-1.3,7.4c9.3-1.2,15.9-10.1,14.9-19.3c-1-9-9.1-15.5-18.1-15.2c-5,0.2-9.5,2.5-12.7,6.3
	c4.9,0.9,9.3,3.6,12.5,7.4C83.8,35.5,85.4,40.2,85.4,45.1z"/>
<polygon points="42.6,94.8 42.6,80.7 42.6,66.5 37.2,66.5 31.8,66.5 31.8,80.7 31.8,94.8 24.9,94.8 18,94.8 27.6,104.4 37.2,114 
	46.8,104.4 56.4,94.8 49.5,94.8 "/>
</svg>
