<?xml version="1.0" encoding="utf-8"?>
<!-- Generator: Adobe Illustrator 19.1.0, SVG Export Plug-In . SVG Version: 6.00 Build 0)  -->
<!DOCTYPE svg PUBLIC "-//W3C//DTD SVG 1.1//EN" "http://www.w3.org/Graphics/SVG/1.1/DTD/svg11.dtd">
<svg version="1.1" id="ic" xmlns="http://www.w3.org/2000/svg" xmlns:xlink="http://www.w3.org/1999/xlink" x="0px" y="0px"
	 width="150px" height="150px" viewBox="0 0 150 150" enable-background="new 0 0 150 150" xml:space="preserve">
<g>
	<path d="M98,85.3c-2.1-2.8-4.5-5-7.4-6.8c-2.9-1.8-5.9-2.7-9-2.7H64.6c-3.2,0-6.2,0.9-9,2.6V100L75,100l-11.7,11.7h41.5v-7.2
		c0-3.2-0.6-6.5-1.9-9.9C101.7,91.3,100,88.1,98,85.3z"/>
	<path d="M72.4,71.4c4.8,0,8.9-1.7,12.3-5.1c3.4-3.4,5.1-7.5,5.1-12.2c0-4.8-1.7-9-5.1-12.3c-3.4-3.4-7.5-5-12.3-5
		c-4.8,0-8.9,1.7-12.2,5s-5,7.5-5,12.3c0,4.7,1.7,8.9,5.1,12.2C63.5,69.7,67.6,71.4,72.4,71.4z"/>
	<path d="M121.1,84.9c-1.3-3.4-3-6.5-4.9-9.3c-2.1-2.8-4.5-5-7.4-6.8c-2.9-1.8-5.9-2.7-9-2.7h-9.3c-0.7,1-1.5,2-2.5,2.9
		c-1.4,1.4-2.8,2.5-4.3,3.4h0.4c3.3,0,6.5,0.9,9.6,2.8c3.1,1.9,5.7,4.3,7.9,7.3c2.1,2.9,3.9,6.3,5.3,9.9c1.2,3.2,1.9,6.4,2,9.5H123
		v-7.2C123,91.6,122.4,88.3,121.1,84.9z"/>
	<path d="M94.4,54.1c0,2.6-0.5,5.1-1.3,7.4c3.8-0.5,7-2.1,9.8-5c3.4-3.4,5.1-7.5,5.1-12.2c0-4.8-1.7-9-5.1-12.3
		c-3.4-3.4-7.5-5-12.3-5c-4.8,0-8.9,1.7-12.2,5c-0.4,0.4-0.8,0.8-1.2,1.3c4.2,0.7,7.8,2.7,10.9,5.8C92.3,43.2,94.4,48.2,94.4,54.1z"
		/>
	<polygon points="51.6,103.8 51.6,75.5 40.8,75.5 40.8,103.8 27,103.8 46.2,123 65.4,103.8 	"/>
</g>
</svg>
