<?xml version="1.0" encoding="utf-8"?>
<!-- Generator: Adobe Illustrator 19.1.0, SVG Export Plug-In . SVG Version: 6.00 Build 0)  -->
<!DOCTYPE svg PUBLIC "-//W3C//DTD SVG 1.1//EN" "http://www.w3.org/Graphics/SVG/1.1/DTD/svg11.dtd">
<svg version="1.1" id="icon" xmlns="http://www.w3.org/2000/svg" xmlns:xlink="http://www.w3.org/1999/xlink" x="0px" y="0px"
	 width="150px" height="150px" viewBox="0 0 150 150" enable-background="new 0 0 150 150" xml:space="preserve">
<g>
	<path d="M123,75c0,13.2-5.4,25.2-14.1,33.9C100.2,117.6,88.2,123,75,123c-13.2,0-25.2-5.4-33.9-14.1C32.4,100.2,27,88.2,27,75
		s5.4-25.2,14.1-33.9C49.8,32.4,61.8,27,75,27c13.2,0,25.2,5.4,33.9,14.1C117.6,49.8,123,61.8,123,75z M115.3,75
		c0-11.1-4.5-21.2-11.8-28.5C96.2,39.2,86.1,34.7,75,34.7c-11.1,0-21.2,4.5-28.5,11.8C39.2,53.8,34.7,63.9,34.7,75
		s4.5,21.2,11.8,28.5c7.3,7.3,17.4,11.8,28.5,11.8c11.1,0,21.2-4.5,28.5-11.8C110.8,96.2,115.3,86.1,115.3,75z"/>
	<polygon points="79,71.7 79,59.4 79,47 75,47 71,47 71,61 71,75 71,75 71,75 81,85 91,95 93.8,92.2 96.6,89.4 87.8,80.5 	"/>
</g>
</svg>
