<?xml version="1.0" encoding="utf-8"?>
<!-- Generator: Adobe Illustrator 19.1.0, SVG Export Plug-In . SVG Version: 6.00 Build 0)  -->
<!DOCTYPE svg PUBLIC "-//W3C//DTD SVG 1.1//EN" "http://www.w3.org/Graphics/SVG/1.1/DTD/svg11.dtd">
<svg version="1.1" id="icon" xmlns="http://www.w3.org/2000/svg" xmlns:xlink="http://www.w3.org/1999/xlink" x="0px" y="0px"
	 width="132px" height="132px" viewBox="0 0 132 132" enable-background="new 0 0 132 132" xml:space="preserve">
<g>
	<path d="M114,66c0,13.2-5.4,25.2-14.1,33.9C91.2,108.6,79.2,114,66,114c-13.2,0-25.2-5.4-33.9-14.1C23.4,91.2,18,79.2,18,66
		s5.4-25.2,14.1-33.9C40.8,23.4,52.8,18,66,18c13.2,0,25.2,5.4,33.9,14.1C108.6,40.8,114,52.8,114,66z M106.3,66
		c0-11.1-4.5-21.2-11.8-28.5C87.2,30.2,77.1,25.7,66,25.7c-11.1,0-21.2,4.5-28.5,11.8C30.2,44.8,25.7,54.9,25.7,66
		s4.5,21.2,11.8,28.5c7.3,7.3,17.4,11.8,28.5,11.8c11.1,0,21.2-4.5,28.5-11.8C101.8,87.2,106.3,77.1,106.3,66z"/>
	<polygon points="70,62.7 70,50.4 70,38 66,38 62,38 62,52 62,66 62,66 62,66 72,76 82,86 84.8,83.2 87.6,80.4 78.8,71.5 	"/>
</g>
</svg>
