<?xml version="1.0" encoding="utf-8"?>
<!-- Generator: Adobe Illustrator 19.1.0, SVG Export Plug-In . SVG Version: 6.00 Build 0)  -->
<!DOCTYPE svg PUBLIC "-//W3C//DTD SVG 1.1//EN" "http://www.w3.org/Graphics/SVG/1.1/DTD/svg11.dtd">
<svg version="1.1" id="ic" xmlns="http://www.w3.org/2000/svg" xmlns:xlink="http://www.w3.org/1999/xlink" x="0px" y="0px"
	 width="150px" height="150px" viewBox="0 0 150 150" enable-background="new 0 0 150 150" xml:space="preserve">
<g>
	<polygon points="33,67 67,67 67,33 55.7,44.3 38.6,27.2 27.1,38.7 44.2,55.8 	"/>
	<polygon points="117,67 83,67 83,33 94.3,44.3 111.4,27.2 122.9,38.7 105.8,55.8 	"/>
	<polygon points="33,83 67,83 67,117 55.7,105.7 38.6,122.8 27.1,111.3 44.2,94.2 	"/>
	<polygon points="117,83 83,83 83,117 94.3,105.7 111.4,122.8 122.9,111.3 105.8,94.2 	"/>
</g>
</svg>
