<?xml version="1.0" encoding="utf-8"?>
<!-- Generator: Adobe Illustrator 19.1.0, SVG Export Plug-In . SVG Version: 6.00 Build 0)  -->
<!DOCTYPE svg PUBLIC "-//W3C//DTD SVG 1.1//EN" "http://www.w3.org/Graphics/SVG/1.1/DTD/svg11.dtd">
<svg version="1.1" id="Layer_2" xmlns="http://www.w3.org/2000/svg" xmlns:xlink="http://www.w3.org/1999/xlink" x="0px" y="0px"
	 width="150px" height="150px" viewBox="0 0 150 150" enable-background="new 0 0 150 150" xml:space="preserve">
<polygon points="33,67 50,67 67,67 67,50 67,33 61.3,38.7 55.7,44.3 47.1,35.8 38.6,27.2 32.8,33 27.1,38.7 35.7,47.2 44.2,55.8 
	38.6,61.4 "/>
<polygon points="117,67 100,67 83,67 83,50 83,33 88.7,38.7 94.3,44.3 102.9,35.8 111.4,27.2 117.2,33 122.9,38.7 114.3,47.2 
	105.8,55.8 111.4,61.4 "/>
<polygon points="33,83 50,83 67,83 67,100 67,117 61.3,111.3 55.7,105.7 47.1,114.2 38.6,122.8 32.8,117 27.1,111.3 35.7,102.8 
	44.2,94.2 38.6,88.6 "/>
<polygon points="117,83 100,83 83,83 83,100 83,117 88.7,111.3 94.3,105.7 102.9,114.2 111.4,122.8 117.2,117 122.9,111.3 
	114.3,102.8 105.8,94.2 111.4,88.6 "/>
</svg>
