<?xml version="1.0" encoding="utf-8"?>
<!-- Generator: Adobe Illustrator 19.1.0, SVG Export Plug-In . SVG Version: 6.00 Build 0)  -->
<!DOCTYPE svg PUBLIC "-//W3C//DTD SVG 1.1//EN" "http://www.w3.org/Graphics/SVG/1.1/DTD/svg11.dtd">
<svg version="1.1" id="Layer_2" xmlns="http://www.w3.org/2000/svg" xmlns:xlink="http://www.w3.org/1999/xlink" x="0px" y="0px"
	 width="132px" height="132px" viewBox="0 0 132 132" enable-background="new 0 0 132 132" xml:space="preserve">
<polygon points="82,106 54,106 26,106 26,66 26,26 44,26 62,26 62,36 62,46 72,46 82,46 82,50.6 82,55.2 86,51.2 90,47.2 90,44.6 
	90,42 78,30 66,18 42,18 18,18 18,66 18,114 54,114 90,114 90,96.2 90,78.3 86,82.4 82,86.4 82,96.2 "/>
<polygon points="59,83.9 56.5,91.3 54,98.7 61.4,96.3 68.9,93.8 87.2,75.4 105.6,57 100.7,52.1 95.7,47.1 77.3,65.5 "/>
<polygon points="98.6,44.3 101.4,41.5 104.2,38.6 109.2,43.6 114.1,48.5 111.3,51.4 108.5,54.2 103.5,49.2 "/>
</svg>
