<?xml version="1.0" encoding="utf-8"?>
<!-- Generator: Adobe Illustrator 19.1.0, SVG Export Plug-In . SVG Version: 6.00 Build 0)  -->
<!DOCTYPE svg PUBLIC "-//W3C//DTD SVG 1.1//EN" "http://www.w3.org/Graphics/SVG/1.1/DTD/svg11.dtd">
<svg version="1.1" id="Layer_2" xmlns="http://www.w3.org/2000/svg" xmlns:xlink="http://www.w3.org/1999/xlink" x="0px" y="0px"
	 width="150px" height="150px" viewBox="0 0 150 150" enable-background="new 0 0 150 150" xml:space="preserve">
<polygon points="91,115 63,115 35,115 35,75 35,35 53,35 71,35 71,45 71,55 81,55 91,55 91,59.6 91,64.2 95,60.2 99,56.2 99,53.6 
	99,51 87,39 75,27 51,27 27,27 27,75 27,123 63,123 99,123 99,105.2 99,87.3 95,91.4 91,95.4 91,105.2 "/>
<polygon points="68,92.9 65.5,100.3 63,107.7 70.4,105.3 77.9,102.8 96.2,84.4 114.6,66 109.7,61.1 104.7,56.1 86.3,74.5 "/>
<polygon points="107.6,53.3 110.4,50.5 113.2,47.6 118.2,52.6 123.1,57.5 120.3,60.4 117.5,63.2 112.5,58.2 "/>
</svg>
