<?xml version="1.0" encoding="utf-8"?>
<!-- Generator: Adobe Illustrator 19.1.0, SVG Export Plug-In . SVG Version: 6.00 Build 0)  -->
<!DOCTYPE svg PUBLIC "-//W3C//DTD SVG 1.1//EN" "http://www.w3.org/Graphics/SVG/1.1/DTD/svg11.dtd">
<svg version="1.1" id="ic" xmlns="http://www.w3.org/2000/svg" xmlns:xlink="http://www.w3.org/1999/xlink" x="0px" y="0px"
	 width="150px" height="150px" viewBox="0 0 150 150" enable-background="new 0 0 150 150" xml:space="preserve">
<g>
	<path d="M71,95v28H31V95h5.6c0,0,0-1.1,0-9.7v-0.1c0-8.2,6.4-14.8,14.4-14.8S65.4,77,65.4,85.2c0,0,0,0,0,0.1V95L71,95z M58.7,84.3
		L58.7,84.3c0-4.4-3.4-7.9-7.7-7.9c-4.2,0-7.6,3.5-7.6,7.9v0V95h15.3V84.3z M47.7,116.7h6.6c0.4,0,0.7-0.4,0.5-0.8l-2.8-6.8
		c1.7-0.5,3-2,3-3.8c0-2.5-2.3-4.5-4.9-3.9c-1.6,0.3-2.8,1.6-3.1,3.2c-0.4,2.1,0.9,4,2.9,4.6l-2.8,6.8
		C47,116.3,47.3,116.7,47.7,116.7z"/>
	<path d="M75,123h44V51L95,27H47v40c0,0,1.8-0.6,4-0.6s4,0.6,4,0.6V35h36v20h20v60H75V123z"/>
</g>
</svg>
