<?xml version="1.0" encoding="utf-8"?>
<!-- Generator: Adobe Illustrator 19.1.0, SVG Export Plug-In . SVG Version: 6.00 Build 0)  -->
<!DOCTYPE svg PUBLIC "-//W3C//DTD SVG 1.1//EN" "http://www.w3.org/Graphics/SVG/1.1/DTD/svg11.dtd">
<svg version="1.1" id="ic" xmlns="http://www.w3.org/2000/svg" xmlns:xlink="http://www.w3.org/1999/xlink" x="0px" y="0px"
	 width="150px" height="150px" viewBox="0 0 150 150" enable-background="new 0 0 150 150" xml:space="preserve">
<g>
	<path d="M75,27c-26.5,0-48,21.6-48,48c0,26.4,21.5,48,48,48c26.4,0,48-21.6,48-48C123,48.6,101.4,27,75,27z M57.7,81.3
		c-1,1-3.4,1.6-4.5,0.4c-1.1-1.1-1.1-2.7-0.6-3.4c0.3-0.4,1.4-1.3,1.4-3.1c0-1.3-0.9-2.8-1.2-3.2c-0.9-1.1-0.4-2.3,0.7-3.3
		c1.2-1.1,3.5-0.6,4.5,0.5c1.1,1.2,1.9,3.1,1.9,5.6C59.9,78.2,58.8,80.1,57.7,81.3z M68.5,87.1c-1.2,1.5-3.3,1.8-4.8,0.7
		c-1.5-1.2-1.8-3.4-0.7-4.9c0.4-0.6,2.8-3.7,2.8-8.1c0-4.7-2.1-7.6-2.5-8.2c-1.1-1.6-0.7-3.8,0.8-4.9c1.5-1.1,3.7-0.8,4.8,0.7
		c1.2,1.8,3.9,6.2,3.8,12.4C72.6,81.2,69.8,85.4,68.5,87.1z M75.6,94.4c-1.7-1-2.1-3.2-1.1-4.8c2.6-4.3,4.2-9.2,4.2-14.7
		c0.1-5.4-1.3-10.4-3.8-14.8c-1-1.7-0.5-3.9,1.2-4.8c1.5-1,3.7-0.4,4.7,1.2c3.1,5.4,4.9,11.7,4.8,18.5c-0.1,6.7-2.1,13-5.4,18.3
		C79.3,94.9,77.2,95.4,75.6,94.4z M91.9,100c-0.9,1.7-3.1,2.2-4.7,1.2c-1.6-1-2.1-3.2-1.1-4.8c3.7-6.2,5.8-13.5,6-21.3
		c0.1-7.8-1.8-15.1-5.3-21.5c-1-1.7-0.4-3.8,1.3-4.8c1.6-1,3.8-0.4,4.7,1.3c4.1,7.4,6.4,16,6.3,25C98.8,84.2,96.2,92.8,91.9,100z"/>
</g>
</svg>
