<?xml version="1.0" encoding="utf-8"?>
<!-- Generator: Adobe Illustrator 19.1.0, SVG Export Plug-In . SVG Version: 6.00 Build 0)  -->
<!DOCTYPE svg PUBLIC "-//W3C//DTD SVG 1.1//EN" "http://www.w3.org/Graphics/SVG/1.1/DTD/svg11.dtd">
<svg version="1.1" id="icon" xmlns="http://www.w3.org/2000/svg" xmlns:xlink="http://www.w3.org/1999/xlink" x="0px" y="0px"
	 width="132px" height="132px" viewBox="0 0 132 132" enable-background="new 0 0 132 132" xml:space="preserve">
<g>
	<path d="M66,18c-13.2,0-25.2,5.4-33.9,14.1S18,52.8,18,66s5.4,25.2,14.1,33.9S52.8,114,66,114s25.2-5.4,33.9-14.1S114,79.2,114,66
		s-5.4-25.2-14.1-33.9S79.2,18,66,18z M66,106c-11,0-21-4.5-28.3-11.7C30.5,87.1,26,77.1,26,66s4.5-21.1,11.7-28.3
		C45,30.5,55,26,66,26s21,4.5,28.3,11.7C101.5,44.9,106,54.9,106,66s-4.5,21.1-11.7,28.3C87,101.5,77,106,66,106z"/>
	<path d="M44.5,59.7c-0.5,0.5-1,1.1-1.1,1.6c-0.2,0.6-0.1,1.1,0.4,1.7c0.2,0.2,0.5,0.7,0.8,1.3s0.5,1.3,0.5,1.9
		c0,0.9-0.3,1.6-0.6,2.1s-0.7,0.8-0.8,1c-0.3,0.3-0.4,0.9-0.3,1.5c0.1,0.6,0.4,1.3,0.9,1.9c0.6,0.6,1.5,0.7,2.3,0.6s1.7-0.5,2.2-1
		c0.5-0.6,1.1-1.4,1.5-2.4s0.7-2.4,0.7-4.1c0-1.3-0.2-2.4-0.5-3.3c-0.3-0.9-0.8-1.7-1.3-2.3c-0.5-0.5-1.3-1-2.2-1.1
		C46,59,45.1,59.1,44.5,59.7z"/>
	<path d="M55.1,52.7c-0.8,0.5-1.2,1.4-1.4,2.3c-0.1,0.9,0,1.8,0.6,2.6c0.2,0.3,0.9,1.1,1.4,2.5s1.1,3.3,1.1,5.6
		c0,2.2-0.6,4.1-1.2,5.5s-1.3,2.3-1.6,2.6c-0.6,0.8-0.8,1.7-0.6,2.6s0.6,1.7,1.3,2.3c0.8,0.6,1.7,0.8,2.5,0.7
		c0.9-0.1,1.7-0.6,2.3-1.3c0.6-0.9,1.7-2.3,2.5-4.4c0.9-2.1,1.6-4.7,1.6-7.9c0-3.1-0.6-5.8-1.4-7.9c-0.8-2.1-1.8-3.6-2.4-4.5
		c-0.6-0.8-1.4-1.3-2.2-1.4S55.9,52.1,55.1,52.7z"/>
	<path d="M79,39.8c-0.8,0.5-1.4,1.2-1.6,2.1c-0.2,0.9-0.1,1.8,0.3,2.7c1.7,3.2,3.1,6.6,4,10.2c0.9,3.6,1.4,7.4,1.3,11.3
		c-0.1,3.9-0.6,7.7-1.6,11.2s-2.5,6.9-4.3,10.1c-0.5,0.8-0.6,1.8-0.4,2.7s0.7,1.7,1.5,2.1c0.8,0.5,1.7,0.6,2.6,0.4
		c0.9-0.2,1.6-0.8,2.1-1.6c2.1-3.6,3.9-7.6,5.1-11.7s1.9-8.6,1.9-13.1c0.1-4.5-0.5-8.9-1.6-13.1c-1.1-4.2-2.7-8.2-4.7-11.9
		c-0.5-0.8-1.2-1.4-2-1.6C80.8,39.2,79.8,39.3,79,39.8z"/>
	<path d="M71.8,47.5c-0.5-0.8-1.3-1.4-2.1-1.6s-1.8-0.1-2.5,0.4c-0.8,0.5-1.4,1.3-1.6,2.1s-0.1,1.8,0.4,2.7c1.2,2.2,2.2,4.5,2.9,7
		s1,5.1,0.9,7.8c0,2.7-0.4,5.3-1.2,7.8c-0.7,2.5-1.8,4.8-3.1,6.9c-0.5,0.8-0.6,1.8-0.5,2.6c0.2,0.9,0.7,1.7,1.5,2.2
		c0.8,0.5,1.7,0.7,2.6,0.5s1.6-0.7,2.1-1.6c1.6-2.7,3-5.5,3.9-8.6s1.4-6.3,1.5-9.7c0-3.4-0.4-6.6-1.2-9.7
		C74.6,53.1,73.4,50.2,71.8,47.5z"/>
</g>
</svg>
