<?xml version="1.0" encoding="utf-8"?>
<!-- Generator: Adobe Illustrator 19.1.0, SVG Export Plug-In . SVG Version: 6.00 Build 0)  -->
<svg version="1.1" id="Icons_3_" xmlns="http://www.w3.org/2000/svg" xmlns:xlink="http://www.w3.org/1999/xlink" x="0px" y="0px"
	 viewBox="0 0 150 150" enable-background="new 0 0 150 150" xml:space="preserve">
<g id="Error">
</g>
<g id="View">
</g>
<g id="Video">
</g>
<g id="User_Personal">
</g>
<g id="Upload">
</g>
<g id="Travel">
</g>
<g id="Transfers">
</g>
<g id="Tools">
</g>
<g id="Clock">
</g>
<g id="Fast_Track">
</g>
<g id="Camera">
</g>
<g id="Tablet">
</g>
<g id="Switch">
</g>
<g id="Survey">
</g>
<g id="Minimize">
</g>
<g id="Stock_Up">
</g>
<g id="Stock_Down">
</g>
<g id="Sound">
</g>
<g id="Shopping_Cart">
</g>
<g id="Share">
</g>
<g id="Settings">
</g>
<g id="Secure_Key_Passcode">
</g>
<g id="Search">
</g>
<g id="Script">
</g>
<g id="Staff_Channels">
	<g id="Signature">
	</g>
	<g id="Shortcuts">
	</g>
	<g id="Microphone">
	</g>
	<g id="Dial">
	</g>
</g>
<g id="Social_Icons">
	<g id="Youtube">
	</g>
	<g id="Youtube_Solid">
	</g>
	<g id="Weibo">
	</g>
	<g id="Weibo_Solid">
	</g>
	<g id="Vimeo">
	</g>
	<g id="Vimeo_Solid">
	</g>
	<g id="Twitter">
	</g>
	<g id="Twitter_Solid">
	</g>
	<g id="LinkedIn">
	</g>
	<g id="LinkedIn_Solid">
	</g>
	<g id="GooglePlus">
	</g>
	<g id="GooglePlus_Solid">
	</g>
	<g id="Facebook">
	</g>
	<g id="Facebook_Solid">
	</g>
</g>
<g id="Contactless_Payments_Outline">
	<path d="M75,27c-26.5,0-48,21.5-48,48s21.5,48,48,48s48-21.5,48-48S101.5,27,75,27z M75,115c-22.1,0-40-17.9-40-40
		c0-22.1,17.9-40,40-40s40,17.9,40,40C115,97.1,97.1,115,75,115z"/>
	<path d="M53.5,68.7c-1.1,1-1.6,2.3-0.7,3.3c0.4,0.4,1.2,1.9,1.2,3.2c0,1.9-1.1,2.7-1.4,3.1c-0.5,0.6-0.5,2.3,0.6,3.4
		c1.2,1.2,3.5,0.6,4.5-0.4c1.1-1.2,2.1-3.1,2.1-6.5c0-2.5-0.8-4.4-1.9-5.6C57,68.1,54.7,67.6,53.5,68.7z"/>
	<path d="M64.1,61.7c-1.5,1.1-1.9,3.3-0.8,4.9c0.4,0.6,2.6,3.4,2.5,8.2c0,4.5-2.3,7.6-2.8,8.1c-1.1,1.5-0.8,3.7,0.7,4.9
		c1.5,1.2,3.6,0.8,4.8-0.7c1.3-1.7,4.1-6,4.1-12.3c0.1-6.2-2.6-10.6-3.8-12.4C67.8,60.8,65.7,60.5,64.1,61.7z"/>
	<path d="M88,48.8c-1.6,0.9-2.2,3.1-1.3,4.8c3.5,6.3,5.5,13.7,5.3,21.5c-0.1,7.8-2.3,15.1-6,21.3c-1,1.7-0.5,3.8,1.1,4.8
		c1.6,1,3.7,0.5,4.7-1.2c4.3-7.2,6.9-15.8,7-24.9c0.1-9.1-2.2-17.6-6.3-25.1C91.8,48.4,89.6,47.8,88,48.8z"/>
	<path d="M80.8,56.5c-1-1.7-3.1-2.2-4.7-1.2c-1.7,1-2.2,3.1-1.2,4.8c2.5,4.3,3.9,9.4,3.8,14.8c-0.1,5.5-1.6,10.4-4.2,14.7
		c-1,1.7-0.6,3.8,1.1,4.8c1.6,1,3.7,0.6,4.7-1.1c3.3-5.3,5.3-11.6,5.4-18.3C85.7,68.2,83.9,61.9,80.8,56.5z"/>
</g>
</svg>
