<?xml version="1.0" encoding="utf-8"?>
<!-- Generator: Adobe Illustrator 19.1.0, SVG Export Plug-In . SVG Version: 6.00 Build 0)  -->
<!DOCTYPE svg PUBLIC "-//W3C//DTD SVG 1.1//EN" "http://www.w3.org/Graphics/SVG/1.1/DTD/svg11.dtd">
<svg version="1.1" id="Layer_2" xmlns="http://www.w3.org/2000/svg" xmlns:xlink="http://www.w3.org/1999/xlink" x="0px" y="0px"
	 width="132px" height="132px" viewBox="0 0 132 132" enable-background="new 0 0 132 132" xml:space="preserve">
<polygon points="18,46 28,46 38,46 38,50 38,54 32,54 26,54 26,80 26,106 54,106 82,106 82,98 82,90 86,90 90,90 90,102 90,114 
	54,114 18,114 "/>
<polygon points="58.1,82.2 82.1,82.2 106,82.2 106,54.1 106,26 76,26 46,26 46,48 46,70 42,74.1 38,78.1 38,48.1 38,18 76,18 
	114,18 114,54 114,90 82,90 50,90 54.1,86.1 "/>
<polygon points="50.2,58.2 60.1,58.2 70,58.2 70,68.1 70,78.1 66.5,74.5 62.9,71 49.4,84.5 35.9,98 33.1,95.2 30.2,92.4 43.8,78.8 
	57.3,65.3 53.7,61.8 "/>
<polygon points="54,34 76,34 98,34 98,36.1 98,38.2 76,38.2 54,38.2 54,36.1 "/>
<polygon points="54,46 76,46 98,46 98,48 98,50 76,50 54,50 54,48 "/>
<polygon points="77.9,58 87.9,58 98,58 98,60 98,62 87.9,62 77.9,62 77.9,60 "/>
<polygon points="78,70 88,70 98,70 98,72 98,74 88,74 78,74 78,72 "/>
</svg>
