<?xml version="1.0" encoding="utf-8"?>
<!-- Generator: Adobe Illustrator 19.1.0, SVG Export Plug-In . SVG Version: 6.00 Build 0)  -->
<!DOCTYPE svg PUBLIC "-//W3C//DTD SVG 1.1//EN" "http://www.w3.org/Graphics/SVG/1.1/DTD/svg11.dtd">
<svg version="1.1" id="ic" xmlns="http://www.w3.org/2000/svg" xmlns:xlink="http://www.w3.org/1999/xlink" x="0px" y="0px"
	 width="150px" height="150px" viewBox="0 0 150 150" enable-background="new 0 0 150 150" xml:space="preserve">
<g>
	<path d="M79,72.1V47h-8v25.1c-2.4,1.4-4,4-4,6.9c0,4.4,3.6,8,8,8c4.4,0,8-3.6,8-8C83,76,81.4,73.5,79,72.1z"/>
	<path d="M75,27c-26.5,0-48,21.5-48,48s21.5,48,48,48s48-21.5,48-48S101.5,27,75,27z M75,115c-20.8,0-37.8-15.8-39.8-36H47v-8H35.2
		c0.9-9.4,5.1-17.8,11.4-24.2l8.6,8.6l5.7-5.7l-8.1-8.1c6.4-4.2,14-6.7,22.2-6.7c8.2,0,15.9,2.5,22.3,6.8l-8,8l5.7,5.7l8.6-8.6
		c6.3,6.3,10.4,14.7,11.3,24.1H103v8h11.8C112.8,99.2,95.8,115,75,115z"/>
</g>
</svg>
