<?xml version="1.0" encoding="utf-8"?>
<!-- Generator: Adobe Illustrator 19.1.0, SVG Export Plug-In . SVG Version: 6.00 Build 0)  -->
<!DOCTYPE svg PUBLIC "-//W3C//DTD SVG 1.1//EN" "http://www.w3.org/Graphics/SVG/1.1/DTD/svg11.dtd">
<svg version="1.1" id="Layer_2" xmlns="http://www.w3.org/2000/svg" xmlns:xlink="http://www.w3.org/1999/xlink" x="0px" y="0px"
	 width="132px" height="132px" viewBox="0 0 132 132" enable-background="new 0 0 132 132" xml:space="preserve">
<path d="M112.2,26H65.9H19.7c-0.5,0-0.9,0.2-1.3,0.5c-0.3,0.3-0.5,0.8-0.5,1.3V56v28.2c0,0.5,0.2,1,0.5,1.3c0.3,0.3,0.8,0.5,1.3,0.5
	h17.7H55c0,0,0.4,2.2,0.6,4.8c0.2,2.6,0,5.5-1.1,6.9c-1,1.2-3.1,2.8-5,4c-1.9,1.2-3.5,2.1-3.5,2.1v1.2v1.1h20h20V105v-1.2
	c0,0-1.7-0.9-3.6-2.1c-1.9-1.2-4-2.7-5-4c-1.1-1.5-1.2-4.4-1-6.9S77,86,77,86h17.7h17.7c0.5,0,0.9-0.2,1.3-0.5
	c0.3-0.3,0.5-0.8,0.5-1.3V56V27.8c0-0.5-0.3-1-0.6-1.3C113.1,26.2,112.7,26,112.2,26z M106,78H66H26V56V34h40h40v22V78z"/>
</svg>
