<?xml version="1.0" encoding="utf-8"?>
<!-- Generator: Adobe Illustrator 19.1.0, SVG Export Plug-In . SVG Version: 6.00 Build 0)  -->
<!DOCTYPE svg PUBLIC "-//W3C//DTD SVG 1.1//EN" "http://www.w3.org/Graphics/SVG/1.1/DTD/svg11.dtd">
<svg version="1.1" id="ic" xmlns="http://www.w3.org/2000/svg" xmlns:xlink="http://www.w3.org/1999/xlink" x="0px" y="0px"
	 width="150px" height="150px" viewBox="0 0 150 150" enable-background="new 0 0 150 150" xml:space="preserve">
<g>
	<path d="M121.2,35H28.7c-1,0-1.8,0.8-1.8,1.8v56.5c0,1,0.8,1.8,1.8,1.8H64c0,0,1.7,8.8-0.5,11.6c-2,2.5-8.5,6.1-8.5,6.1v2.3h40
		v-2.3c0,0-6.6-3.5-8.6-6.1C84.2,103.8,86,95,86,95h35.3c1,0,1.8-0.8,1.8-1.8V36.8C123,35.8,122.2,35,121.2,35z M115,87H35V43h80V87
		z"/>
</g>
</svg>
