<?xml version="1.0" encoding="utf-8"?>
<!-- Generator: Adobe Illustrator 19.1.0, SVG Export Plug-In . SVG Version: 6.00 Build 0)  -->
<!DOCTYPE svg PUBLIC "-//W3C//DTD SVG 1.1//EN" "http://www.w3.org/Graphics/SVG/1.1/DTD/svg11.dtd">
<svg version="1.1" id="Layer_2" xmlns="http://www.w3.org/2000/svg" xmlns:xlink="http://www.w3.org/1999/xlink" x="0px" y="0px"
	 width="150px" height="150px" viewBox="0 0 150 150" enable-background="new 0 0 150 150" xml:space="preserve">
<path d="M121.2,35H74.9H28.7c-0.5,0-0.9,0.2-1.3,0.5c-0.3,0.3-0.5,0.8-0.5,1.3V65v28.2c0,0.5,0.2,1,0.5,1.3c0.3,0.3,0.8,0.5,1.3,0.5
	h17.7H64c0,0,0.4,2.2,0.6,4.8c0.2,2.6,0,5.5-1.1,6.9c-1,1.2-3.1,2.8-5,4c-1.9,1.2-3.5,2.1-3.5,2.1v1.2v1.1h20h20V114v-1.2
	c0,0-1.7-0.9-3.6-2.1c-1.9-1.2-4-2.7-5-4c-1.1-1.5-1.2-4.4-1-6.9S86,95,86,95h17.7h17.7c0.5,0,0.9-0.2,1.3-0.5
	c0.3-0.3,0.5-0.8,0.5-1.3V65V36.8c0-0.5-0.3-1-0.6-1.3C122.1,35.2,121.7,35,121.2,35z M115,87H75H35V65V43h40h40v22V87z"/>
</svg>
