<?xml version="1.0" encoding="utf-8"?>
<!-- Generator: Adobe Illustrator 19.1.0, SVG Export Plug-In . SVG Version: 6.00 Build 0)  -->
<!DOCTYPE svg PUBLIC "-//W3C//DTD SVG 1.1//EN" "http://www.w3.org/Graphics/SVG/1.1/DTD/svg11.dtd">
<svg version="1.1" id="Layer_2" xmlns="http://www.w3.org/2000/svg" xmlns:xlink="http://www.w3.org/1999/xlink" x="0px" y="0px"
	 width="150px" height="150px" viewBox="0 0 150 150" enable-background="new 0 0 150 150" xml:space="preserve">
<path d="M121.4,39H81H40.6c-0.4,0-0.8,0.2-1.1,0.5c-0.3,0.3-0.5,0.7-0.5,1.1v3.2V47h37.9h37.9h0.1h0.1v0.8v0.8v1.2V51v17.4v17.4v0.6
	V87H89H63v4v4h3.6h3.6h0.1h0.1c0.2,1.1,0.4,2.8,0.3,4.4c0,1.7-0.3,3.3-1,4.2c-0.9,1.1-2.6,2.5-4.1,3.5c-1.5,1.1-2.8,1.8-2.8,1.8v1v1
	h17h17v-1v-1c0,0-1.3-0.8-2.8-1.8c-1.5-1.1-3.2-2.4-4.1-3.5c-0.7-0.9-0.9-2.5-1-4.2s0.2-3.4,0.3-4.4h0.1h0.1h15.9h15.9
	c0.4,0,0.8-0.2,1.1-0.5c0.3-0.3,0.5-0.7,0.5-1.1V67V40.5c0-0.4-0.2-0.8-0.5-1.1C122.3,39.2,121.9,39,121.4,39"/>
<path d="M59,55.7c0-1-0.3-2.2-1-3.1S56.3,51,55,51H43.3H31.7c-1.3,0-2.5,0.5-3.3,1.4c-0.8,0.8-1.4,2-1.4,3.3V81v25.3
	c0,1.3,0.5,2.5,1.4,3.3s2,1.4,3.3,1.4h11.7H55c1.3,0,2.3-0.5,3-1.4s1-2,1-3.3V81L59,55.7L59,55.7L59,55.7z M38.4,56.7v-0.6v-0.6h4.3
	h4.3v0.6v0.6h-4.3H38.4z M55,101.7H43H31V81V60.3h12h12L55,81L55,101.7z"/>
</svg>
