<?xml version="1.0" encoding="utf-8"?>
<!-- Generator: Adobe Illustrator 19.1.0, SVG Export Plug-In . SVG Version: 6.00 Build 0)  -->
<!DOCTYPE svg PUBLIC "-//W3C//DTD SVG 1.1//EN" "http://www.w3.org/Graphics/SVG/1.1/DTD/svg11.dtd">
<svg version="1.1" id="ic" xmlns="http://www.w3.org/2000/svg" xmlns:xlink="http://www.w3.org/1999/xlink" x="0px" y="0px"
	 width="150px" height="150px" viewBox="0 0 150 150" enable-background="new 0 0 150 150" xml:space="preserve">
<g>
	<path d="M121.4,39H40.6c-0.9,0-1.6,0.7-1.6,1.5V47h75.8h0.2v1.6V51v34.7V87H63v8h7.3h0.2c0.3,2.1,0.8,6.8-0.6,8.6
		c-1.8,2.2-6.9,5.4-6.9,5.4v2H97v-2c0,0-5.1-3.1-6.9-5.4c-1.4-1.8-1-6.5-0.6-8.6h0.2h31.8c0.9,0,1.5-0.7,1.5-1.5V40.5
		C123,39.7,122.3,39,121.4,39"/>
	<path d="M59,55.7c0.1-2.1-1.4-4.7-4-4.7H31.7c-2.6,0-4.7,2.1-4.7,4.7v50.6c0,2.6,2.1,4.7,4.7,4.7H55c2.6,0,4-2.1,4-4.7L59,55.7
		L59,55.7z M38.4,56.7v-1.2h8.5v1.2H38.4z M55,101.7H31V60.3h24L55,101.7z"/>
</g>
</svg>
