<?xml version="1.0" encoding="utf-8"?>
<!-- Generator: Adobe Illustrator 19.1.0, SVG Export Plug-In . SVG Version: 6.00 Build 0)  -->
<!DOCTYPE svg PUBLIC "-//W3C//DTD SVG 1.1//EN" "http://www.w3.org/Graphics/SVG/1.1/DTD/svg11.dtd">
<svg version="1.1" id="Layer_2" xmlns="http://www.w3.org/2000/svg" xmlns:xlink="http://www.w3.org/1999/xlink" x="0px" y="0px"
	 width="132px" height="132px" viewBox="0 0 132 132" enable-background="new 0 0 132 132" xml:space="preserve">
<path d="M112.4,30H72H31.6c-0.4,0-0.8,0.2-1.1,0.5c-0.3,0.3-0.5,0.7-0.5,1.1v3.2V38h37.9h37.9h0.1h0.1v0.8v0.8v1.2V42v17.4v17.4v0.6
	V78H80H54v4v4h3.6h3.6h0.1h0.1c0.2,1.1,0.4,2.8,0.3,4.4c0,1.7-0.3,3.3-1,4.2c-0.9,1.1-2.6,2.5-4.1,3.5C55.3,99.2,54,100,54,100v1v1
	h17h17v-1v-1c0,0-1.3-0.8-2.8-1.8c-1.5-1.1-3.2-2.4-4.1-3.5c-0.7-0.9-0.9-2.5-1-4.2s0.2-3.4,0.3-4.4h0.1h0.1h15.9h15.9
	c0.4,0,0.8-0.2,1.1-0.5c0.3-0.3,0.5-0.7,0.5-1.1V58V31.5c0-0.4-0.2-0.8-0.5-1.1C113.3,30.2,112.9,30,112.4,30"/>
<path d="M50,46.7c0-1-0.3-2.2-1-3.1S47.3,42,46,42H34.3H22.7c-1.3,0-2.5,0.5-3.3,1.4c-0.8,0.8-1.4,2-1.4,3.3V72v25.3
	c0,1.3,0.5,2.5,1.4,3.3s2,1.4,3.3,1.4h11.7H46c1.3,0,2.3-0.5,3-1.4s1-2,1-3.3V72L50,46.7L50,46.7L50,46.7z M29.4,47.7v-0.6v-0.6h4.3
	h4.3v0.6v0.6h-4.3H29.4z M46,92.7H34H22V72V51.3h12h12L46,72L46,92.7z"/>
</svg>
