<?xml version="1.0" encoding="utf-8"?>
<!-- Generator: Adobe Illustrator 19.1.0, SVG Export Plug-In . SVG Version: 6.00 Build 0)  -->
<svg version="1.1" id="Icons_3_" xmlns="http://www.w3.org/2000/svg" xmlns:xlink="http://www.w3.org/1999/xlink" x="0px" y="0px"
	 viewBox="0 0 150 150" enable-background="new 0 0 150 150" xml:space="preserve">
<g id="Savings">
</g>
<g id="Savings_goals">
</g>
<g id="Save">
</g>
<g id="Report">
</g>
<g id="Reply">
</g>
<g id="Renew">
</g>
<g id="Refresh">
</g>
<g id="Rates">
</g>
<g id="Quote_open">
</g>
<g id="Quote_Close">
</g>
<g id="Print">
</g>
<g id="Presentation">
</g>
<g id="Portfolio">
</g>
<g id="Pop_Up_Window">
</g>
<g id="Play">
</g>
<g id="Pin">
</g>
<g id="Phone">
</g>
<g id="PDF">
</g>
<g id="Pay">
</g>
<g id="Rewards">
</g>
<g id="New_Window">
</g>
<g id="Multiple_Users">
</g>
<g id="Articles">
</g>
<g id="More">
</g>
<g id="Mobile">
</g>
<g id="Messages">
</g>
<g id="Menu">
</g>
<g id="Memo">
</g>
<g id="Security_Lock">
</g>
<g id="Location">
</g>
<g id="List">
</g>
<g id="Link">
</g>
<g id="Investment">
</g>
<g id="Intranet">
</g>
<g id="Insurance">
</g>
<g id="Home">
</g>
<g id="Help">
</g>
<g id="Health">
</g>
<g id="Grid_view">
</g>
<g id="Global">
</g>
<g id="Filter">
</g>
<g id="Favourite">
</g>
<g id="Export">
</g>
<g id="Expand">
</g>
<g id="Education">
</g>
<g id="Edit">
</g>
<g id="Download">
</g>
<g id="Dollar_Bill">
</g>
<g id="Document">
</g>
<g id="Do_Not_View">
</g>
<g id="Dining">
</g>
<g id="Devices">
	<path d="M121.4,39H40.6c-0.9,0-1.6,0.7-1.6,1.5V47h75.8h0.2v1.6V51v34.7V87H63v8h7.3h0.2c0.3,2.1,0.8,6.8-0.6,8.6
		c-1.8,2.2-6.9,5.4-6.9,5.4v2H97v-2c0,0-5.1-3.1-6.9-5.4c-1.4-1.8-1-6.5-0.6-8.6h0.2h31.8c0.9,0,1.5-0.7,1.5-1.5V40.5
		C123,39.7,122.3,39,121.4,39"/>
	<path d="M59,55.7c0.1-2.1-1.4-4.7-4-4.7H31.7c-2.6,0-4.7,2.1-4.7,4.7v50.6c0,2.6,2.1,4.7,4.7,4.7H55c2.6,0,4-2.1,4-4.7L59,55.7
		L59,55.7z M38.4,56.7v-1.2h8.5v1.2H38.4z M55,101.7H31V60.3h24L55,101.7L55,101.7z"/>
</g>
<g id="Desktop_Computer">
</g>
<g id="Bin">
</g>
<g id="Dashboard">
</g>
<g id="Copy">
</g>
<g id="Contactless_Payment">
</g>
<g id="Confidential">
</g>
<g id="Compose">
</g>
<g id="Column_View">
</g>
<g id="Collapse">
</g>
<g id="Client_Upload">
</g>
<g id="Client_Download">
</g>
<g id="Circle_Warning">
</g>
<g id="Circle_Error_Solid">
</g>
<g id="Circle_Info">
</g>
<g id="Circle_Fill_Information">
</g>
<g id="Circle_Help">
</g>
<g id="Circle_Help_Solid">
</g>
<g id="Circle_Delete">
</g>
<g id="Circle_Delete_Solid">
</g>
<g id="Circle_Confirmation">
</g>
<g id="Circle_Confirmation_Solid">
</g>
<g id="Chevron_Up">
</g>
<g id="Chevron_Right">
</g>
<g id="Chevron_Right_Small">
</g>
<g id="Chevron_Left">
</g>
<g id="Chevron_Down">
</g>
<g id="Chevron_Double_Right">
</g>
<g id="Chevron_Double_Left">
</g>
<g id="Chat">
</g>
<g id="Pie_Chart">
</g>
<g id="Delete">
</g>
<g id="Calendar">
</g>
<g id="Corporate">
</g>
<g id="Barcode">
</g>
<g id="Banking">
</g>
<g id="Back">
</g>
<g id="Attachment">
</g>
<g id="In_Branch">
</g>
<g id="Assets">
</g>
<g id="Newspaper">
</g>
<g id="Anchor_Up">
</g>
<g id="Anchor_down">
</g>
<g id="Insight">
</g>
<g id="Alert">
</g>
<g id="Agree">
</g>
<g id="Add">
</g>
<g id="Accounts">
</g>
</svg>
