<?xml version="1.0" encoding="utf-8"?>
<!-- Generator: Adobe Illustrator 19.1.0, SVG Export Plug-In . SVG Version: 6.00 Build 0)  -->
<!DOCTYPE svg PUBLIC "-//W3C//DTD SVG 1.1//EN" "http://www.w3.org/Graphics/SVG/1.1/DTD/svg11.dtd">
<svg version="1.1" id="icon" xmlns="http://www.w3.org/2000/svg" xmlns:xlink="http://www.w3.org/1999/xlink" x="0px" y="0px"
	 width="132px" height="132px" viewBox="0 0 132 132" enable-background="new 0 0 132 132" xml:space="preserve">
<g>
	<polygon points="18.1,18.1 32.1,18.1 46.1,18.1 46.1,32.1 46.1,46.1 32.1,46.1 18.1,46.1 18.1,32.1 	"/>
	<polygon points="52,18.1 66,18.1 80,18.1 80,32.1 80,46.1 66,46.1 52,46.1 52,32.1 	"/>
	<polygon points="85.9,18.1 99.9,18.1 113.9,18.1 113.9,32.1 113.9,46.1 99.9,46.1 85.9,46.1 85.9,32.1 	"/>
	<polygon points="18.1,85.9 32.1,85.9 46.1,85.9 46.1,99.9 46.1,113.9 32.1,113.9 18.1,113.9 18.1,99.9 	"/>
	<polygon points="52,85.9 66,85.9 80,85.9 80,99.9 80,113.9 66,113.9 52,113.9 52,99.9 	"/>
	<polygon points="85.9,85.9 99.9,85.9 113.9,85.9 113.9,99.9 113.9,113.9 99.9,113.9 85.9,113.9 85.9,99.9 	"/>
	<polygon points="18.1,52.1 32.1,52.1 46.1,52.1 46.1,66.1 46.1,80.1 32.1,80.1 18.1,80.1 18.1,66.1 	"/>
	<polygon points="52,52.1 66,52.1 80,52.1 80,66.1 80,80.1 66,80.1 52,80.1 52,66.1 	"/>
	<polygon points="85.9,52.1 99.9,52.1 113.9,52.1 113.9,66.1 113.9,80.1 99.9,80.1 85.9,80.1 85.9,66.1 	"/>
</g>
</svg>
