<?xml version="1.0" encoding="utf-8"?>
<!-- Generator: Adobe Illustrator 19.1.0, SVG Export Plug-In . SVG Version: 6.00 Build 0)  -->
<!DOCTYPE svg PUBLIC "-//W3C//DTD SVG 1.1//EN" "http://www.w3.org/Graphics/SVG/1.1/DTD/svg11.dtd">
<svg version="1.1" id="icon" xmlns="http://www.w3.org/2000/svg" xmlns:xlink="http://www.w3.org/1999/xlink" x="0px" y="0px"
	 width="150px" height="150px" viewBox="0 0 150 150" enable-background="new 0 0 150 150" xml:space="preserve">
<g>
	<polygon points="27.1,27.1 41.1,27.1 55.1,27.1 55.1,41.1 55.1,55.1 41.1,55.1 27.1,55.1 27.1,41.1 	"/>
	<polygon points="61,27.1 75,27.1 89,27.1 89,41.1 89,55.1 75,55.1 61,55.1 61,41.1 	"/>
	<polygon points="94.9,27.1 108.9,27.1 122.9,27.1 122.9,41.1 122.9,55.1 108.9,55.1 94.9,55.1 94.9,41.1 	"/>
	<polygon points="27.1,94.9 41.1,94.9 55.1,94.9 55.1,108.9 55.1,122.9 41.1,122.9 27.1,122.9 27.1,108.9 	"/>
	<polygon points="61,94.9 75,94.9 89,94.9 89,108.9 89,122.9 75,122.9 61,122.9 61,108.9 	"/>
	<polygon points="94.9,94.9 108.9,94.9 122.9,94.9 122.9,108.9 122.9,122.9 108.9,122.9 94.9,122.9 94.9,108.9 	"/>
	<polygon points="27.1,61.1 41.1,61.1 55.1,61.1 55.1,75.1 55.1,89.1 41.1,89.1 27.1,89.1 27.1,75.1 	"/>
	<polygon points="61,61.1 75,61.1 89,61.1 89,75.1 89,89.1 75,89.1 61,89.1 61,75.1 	"/>
	<polygon points="94.9,61.1 108.9,61.1 122.9,61.1 122.9,75.1 122.9,89.1 108.9,89.1 94.9,89.1 94.9,75.1 	"/>
</g>
</svg>
