<?xml version="1.0" encoding="utf-8"?>
<!-- Generator: Adobe Illustrator 19.1.0, SVG Export Plug-In . SVG Version: 6.00 Build 0)  -->
<!DOCTYPE svg PUBLIC "-//W3C//DTD SVG 1.1//EN" "http://www.w3.org/Graphics/SVG/1.1/DTD/svg11.dtd">
<svg version="1.1" id="ic" xmlns="http://www.w3.org/2000/svg" xmlns:xlink="http://www.w3.org/1999/xlink" x="0px" y="0px"
	 width="150px" height="150px" viewBox="0 0 150 150" enable-background="new 0 0 150 150" xml:space="preserve">
<g>
	<path d="M115.8,80.9c-0.7,9.1-5.2,22.4-19.7,29h-4.5H56.2h-2.3c-14.5-6.6-19.1-19.9-19.7-29c-0.1-1.3,0-2.4,0-2.4h81.5
		C115.8,78.6,115.9,79.7,115.8,80.9z"/>
	<path d="M95.2,115.3H54.8v5.8c0,1.1,0,1.9,0,1.9h40.3c0,0,0-0.9,0-1.9V115.3z"/>
	<path d="M58.9,70.8c0,0,0.6-0.7,1-1.2c4.3-5.8,7.8-14.3-0.9-23.3C53,40,53.9,36.1,57.9,31.1c0.3-0.4,0.7-1,0.7-1L53.7,27
		c0,0-0.8,0.7-1.2,1.2c-4.3,5.7-7,12.4,2.4,22.5c5.8,6.2,3,12.3,0.1,16.1c-1.2,1.5-0.7,1.4-0.7,1.4L58.9,70.8z"/>
	<path d="M76.5,70.8c0,0,0.6-0.7,1-1.2c4.3-5.8,7.8-14.3-0.9-23.3c-6.1-6.3-5.2-10.2-1.1-15.2c0.3-0.4,0.7-1,0.7-1L71.3,27
		c0,0-0.8,0.7-1.2,1.2c-4.3,5.7-7,12.4,2.4,22.5c5.8,6.2,3,12.3,0.1,16.1c-1.2,1.5-0.7,1.4-0.7,1.4L76.5,70.8z"/>
	<path d="M93.2,70.8c0,0,0.6-0.7,1-1.2c4.3-5.8,7.8-14.3-0.9-23.3c-6.1-6.3-5.2-10.2-1.1-15.2c0.3-0.4,0.7-1,0.7-1L88,27
		c0,0-0.8,0.7-1.2,1.2c-4.3,5.7-7,12.4,2.4,22.5c5.8,6.2,3,12.3,0.1,16.1c-1.2,1.5-0.7,1.4-0.7,1.4L93.2,70.8z"/>
</g>
</svg>
