<?xml version="1.0" encoding="utf-8"?>
<!-- Generator: Adobe Illustrator 19.1.0, SVG Export Plug-In . SVG Version: 6.00 Build 0)  -->
<!DOCTYPE svg PUBLIC "-//W3C//DTD SVG 1.1//EN" "http://www.w3.org/Graphics/SVG/1.1/DTD/svg11.dtd">
<svg version="1.1" id="Layer_2" xmlns="http://www.w3.org/2000/svg" xmlns:xlink="http://www.w3.org/1999/xlink" x="0px" y="0px"
	 width="150px" height="150px" viewBox="0 0 150 150" enable-background="new 0 0 150 150" xml:space="preserve">
<g>
	<path d="M112.9,26.9l-9.7,9.7l-9.7,9.7c-2.7-1.1-5.6-2.1-8.7-2.7s-6.4-1-9.9-1h0h0c-15.9,0-28.1,8.1-36.4,16.3S26.1,75,26.1,75
		s1.8,3.1,4.9,7.3s7.5,9.5,12.7,13.7l-8.3,8.3l-8.3,8.3l1.9,1.9l1.9,1.9l42.9-42.9l42.9-42.9l-1.9-1.9L112.9,26.9z M65.7,53.9
		c0.6-0.2,1.3-0.2,1.9,0s1,0.7,1.2,1.3c0.2,0.6,0.2,1.3,0,1.9s-0.7,1.1-1.4,1.3c-0.2,0.1-1,0.4-1.9,1s-1.9,1.5-2.7,2.9
		c-0.9,1.5-1.2,2.8-1.4,3.9s-0.1,1.8,0,2.1c0,0.6-0.2,1.3-0.6,1.8s-1,0.8-1.7,0.9c-0.6,0-1.3-0.2-1.7-0.5s-0.8-1-0.8-1.7
		c0-0.8-0.1-2,0.2-3.6s0.8-3.4,2-5.3c1.2-1.9,2.6-3.2,3.9-4.2S65,54.2,65.7,53.9z M34,75c1.2-2,3.9-5.9,7.8-10s9.2-8.4,15.6-11.5
		c-2.1,2.2-3.8,4.8-5,7.6s-1.8,6-1.8,9.3c0,2.7,0.4,5.2,1.2,7.6s1.9,4.6,3.4,6.6L52,87.8L48.8,91c-3.7-3-7-6.2-9.6-9.1
		S34.9,76.5,34,75z"/>
	<path d="M99.4,70.4c0-2.2-0.3-4.3-0.8-6.3s-1.3-3.9-2.3-5.7L79.6,75L63,91.6c1.8,1,3.7,1.8,5.7,2.3s4.1,0.8,6.3,0.8
		c6.7,0,12.8-2.7,17.3-7.1S99.4,77.1,99.4,70.4z"/>
	<path d="M103.1,51.5l-2.6,2.6L98,56.7c4.7,3.1,8.7,6.9,11.8,10.2s5.2,6.4,6.2,8.1c-1.6,2.9-6,9.2-12.9,14.9S86.8,100.5,75,100.5h0
		h0c-3.2,0-6.3-0.4-9.1-1s-5.5-1.6-7.9-2.8l-2.6,2.6l-2.6,2.6c3.1,1.6,6.5,3,10.2,4s7.8,1.5,12.1,1.5h0h0c15.9,0,28.1-8.1,36.4-16.3
		S123.9,75,123.9,75s-2.1-3.7-5.7-8.4S109.4,56,103.1,51.5z"/>
</g>
</svg>
