<?xml version="1.0" encoding="utf-8"?>
<!-- Generator: Adobe Illustrator 19.1.0, SVG Export Plug-In . SVG Version: 6.00 Build 0)  -->
<svg version="1.1" id="Icons_3_" xmlns="http://www.w3.org/2000/svg" xmlns:xlink="http://www.w3.org/1999/xlink" x="0px" y="0px"
	 viewBox="0 0 150 150" enable-background="new 0 0 150 150" xml:space="preserve">
<g id="Savings">
</g>
<g id="Savings_goals">
</g>
<g id="Save">
</g>
<g id="Report">
</g>
<g id="Reply">
</g>
<g id="Renew">
</g>
<g id="Refresh">
</g>
<g id="Rates">
</g>
<g id="Quote_open">
</g>
<g id="Quote_Close">
</g>
<g id="Print">
</g>
<g id="Presentation">
</g>
<g id="Portfolio">
</g>
<g id="Pop_Up_Window">
</g>
<g id="Play">
</g>
<g id="Pin">
</g>
<g id="Phone">
</g>
<g id="PDF">
</g>
<g id="Pay">
</g>
<g id="Rewards">
</g>
<g id="New_Window">
</g>
<g id="Multiple_Users">
</g>
<g id="Articles">
</g>
<g id="More">
</g>
<g id="Mobile">
</g>
<g id="Messages">
</g>
<g id="Menu">
</g>
<g id="Memo">
</g>
<g id="Security_Lock">
</g>
<g id="Location">
</g>
<g id="List">
</g>
<g id="Link">
</g>
<g id="Investment">
</g>
<g id="Intranet">
</g>
<g id="Insurance">
</g>
<g id="Home">
</g>
<g id="Help">
</g>
<g id="Health">
</g>
<g id="Grid_view">
</g>
<g id="Global">
</g>
<g id="Filter">
</g>
<g id="Favourite">
</g>
<g id="Export">
</g>
<g id="Expand">
</g>
<g id="Education">
</g>
<g id="Edit">
</g>
<g id="Download">
</g>
<g id="Dollar_Bill">
</g>
<g id="Document">
</g>
<g id="Do_Not_View">
	<g>
		<path d="M112.9,26.9L93.6,46.2C88.2,44,82,42.5,75,42.5c0,0,0,0-0.1,0c-31.9,0-46.5,29.7-47.1,31L27.1,75l0.7,1.5
			c0.4,0.7,5.5,11,15.9,19.6l-16.6,16.6l3.7,3.7l85.8-85.8L112.9,26.9z M65.7,53.9c1.2-0.5,2.7,0.1,3.1,1.3c0.5,1.3-0.1,2.7-1.4,3.2
			c-0.5,0.2-3,1.2-4.6,3.9c-1.7,2.9-1.5,5.4-1.4,5.9c0.1,1.3-1,2.5-2.3,2.7c-1.3,0.1-2.5-0.8-2.6-2.2c-0.1-1.5-0.2-5.1,2.2-8.9
			C61.1,56,64.3,54.4,65.7,53.9z M35,75c2.4-4.1,9.8-15.4,22.4-21.5c-4.2,4.4-6.8,10.3-6.8,16.9c0,5.3,1.7,10.2,4.6,14.2L48.8,91
			C41.3,85.1,36.7,78,35,75z"/>
		<path d="M99.4,70.4c0-4.4-1.2-8.5-3.2-12L63,91.6c3.5,2,7.6,3.2,12,3.2C88.5,94.8,99.4,83.9,99.4,70.4z"/>
		<path d="M122.2,73.5c-0.4-0.8-6.5-13.1-19-21.9L98,56.7c9.4,6.3,15,14.9,17,18.3c-3.3,5.7-16.4,25.5-40,25.5c0,0,0,0,0,0
			c-6.5,0-12.2-1.5-17.1-3.8l-5.3,5.3c6.2,3.3,13.6,5.5,22.3,5.5c0,0,0,0,0.1,0c31.9,0,46.5-29.7,47.1-31l0.7-1.5L122.2,73.5z"/>
	</g>
</g>
<g id="Dining">
</g>
<g id="Devices">
</g>
<g id="Desktop_Computer">
</g>
<g id="Bin">
</g>
<g id="Dashboard">
</g>
<g id="Copy">
</g>
<g id="Contactless_Payment">
</g>
<g id="Confidential">
</g>
<g id="Compose">
</g>
<g id="Column_View">
</g>
<g id="Collapse">
</g>
<g id="Client_Upload">
</g>
<g id="Client_Download">
</g>
<g id="Circle_Warning">
</g>
<g id="Circle_Error_Solid">
</g>
<g id="Circle_Info">
</g>
<g id="Circle_Fill_Information">
</g>
<g id="Circle_Help">
</g>
<g id="Circle_Help_Solid">
</g>
<g id="Circle_Delete">
</g>
<g id="Circle_Delete_Solid">
</g>
<g id="Circle_Confirmation">
</g>
<g id="Circle_Confirmation_Solid">
</g>
<g id="Chevron_Up">
</g>
<g id="Chevron_Right">
</g>
<g id="Chevron_Right_Small">
</g>
<g id="Chevron_Left">
</g>
<g id="Chevron_Down">
</g>
<g id="Chevron_Double_Right">
</g>
<g id="Chevron_Double_Left">
</g>
<g id="Chat">
</g>
<g id="Pie_Chart">
</g>
<g id="Delete">
</g>
<g id="Calendar">
</g>
<g id="Corporate">
</g>
<g id="Barcode">
</g>
<g id="Banking">
</g>
<g id="Back">
</g>
<g id="Attachment">
</g>
<g id="In_Branch">
</g>
<g id="Assets">
</g>
<g id="Newspaper">
</g>
<g id="Anchor_Up">
</g>
<g id="Anchor_down">
</g>
<g id="Insight">
</g>
<g id="Alert">
</g>
<g id="Agree">
</g>
<g id="Add">
</g>
<g id="Accounts">
</g>
</svg>
