<?xml version="1.0" encoding="utf-8"?>
<!-- Generator: Adobe Illustrator 19.1.0, SVG Export Plug-In . SVG Version: 6.00 Build 0)  -->
<!DOCTYPE svg PUBLIC "-//W3C//DTD SVG 1.1//EN" "http://www.w3.org/Graphics/SVG/1.1/DTD/svg11.dtd">
<svg version="1.1" id="ic" xmlns="http://www.w3.org/2000/svg" xmlns:xlink="http://www.w3.org/1999/xlink" x="0px" y="0px"
	 width="150px" height="150px" viewBox="0 0 150 150" enable-background="new 0 0 150 150" xml:space="preserve">
<g>
	<path d="M112.9,26.9L93.6,46.2C88.2,44,82,42.5,75,42.5H75C43.1,42.5,27.1,75,27.1,75s6.2,12.5,16.6,21.1l-16.6,16.6l3.7,3.7
		l85.8-85.8L112.9,26.9z M65.7,53.9c1.2-0.5,2.7,0.1,3.1,1.3c0.5,1.3-0.1,2.7-1.4,3.2c-0.5,0.2-3,1.2-4.6,3.9
		c-1.7,2.9-1.5,5.4-1.4,5.9c0.1,1.3-1,2.5-2.3,2.7c-1.3,0.1-2.5-0.8-2.6-2.2c-0.1-1.5-0.2-5.1,2.2-8.9C61.1,56,64.3,54.4,65.7,53.9z
		 M35,75c2.4-4.1,9.8-15.4,22.4-21.5c-4.2,4.4-6.8,10.3-6.8,16.9c0,5.3,1.7,10.2,4.6,14.2L48.8,91C41.3,85.1,36.7,78,35,75z"/>
	<path d="M99.4,70.4c0-4.4-1.2-8.5-3.2-12L63,91.6c3.5,2,7.6,3.2,12,3.2C88.5,94.8,99.4,83.9,99.4,70.4z"/>
	<path d="M103.1,51.5L98,56.7c9.4,6.3,15,14.9,17,18.3c-3.3,5.7-16.4,25.5-40,25.5h0c-6.5,0-12.2-1.5-17.1-3.8l-5.3,5.3
		c6.2,3.3,13.6,5.5,22.3,5.5H75c31.9,0,47.8-32.5,47.8-32.5S115.7,60.4,103.1,51.5z"/>
</g>
</svg>
