<?xml version="1.0" encoding="utf-8"?>
<!-- Generator: Adobe Illustrator 19.1.0, SVG Export Plug-In . SVG Version: 6.00 Build 0)  -->
<!DOCTYPE svg PUBLIC "-//W3C//DTD SVG 1.1//EN" "http://www.w3.org/Graphics/SVG/1.1/DTD/svg11.dtd">
<svg version="1.1" id="Layer_2" xmlns="http://www.w3.org/2000/svg" xmlns:xlink="http://www.w3.org/1999/xlink" x="0px" y="0px"
	 width="132px" height="132px" viewBox="0 0 132 132" enable-background="new 0 0 132 132" xml:space="preserve">
<path d="M18,38v28v28h48h48V66V38H66H18z M106,74.2c-0.3-0.1-0.7-0.1-1-0.2c-0.3,0-0.7-0.1-1-0.1c-2.8,0-5.3,1.1-7.1,2.9
	C95.1,78.7,94,81.2,94,84c0,0.3,0,0.7,0.1,1s0.1,0.7,0.1,1H66H37.8c0.1-0.3,0.1-0.7,0.1-1s0.1-0.7,0.1-1c0-2.8-1.1-5.3-2.9-7.1
	C33.3,75.1,30.8,74,28,74c-0.3,0-0.7,0-1,0.1s-0.7,0.1-1,0.2V66v-8.2c0.3,0.1,0.7,0.1,1,0.2s0.7,0.1,1,0.1c2.8,0,5.3-1.1,7.1-2.9
	c1.8-1.8,2.9-4.3,2.9-7.1c0-0.3,0-0.7-0.1-1s-0.1-0.7-0.1-1H66h28.2c-0.1,0.3-0.1,0.7-0.2,1S94,47.7,94,48c0,2.8,1.1,5.3,2.9,7.1
	c1.8,1.8,4.3,2.9,7.1,2.9c0.3,0,0.7,0,1-0.1c0.3,0,0.7-0.1,1-0.2V66V74.2z"/>
<path d="M66,50c-4.4,0-8.4,1.8-11.3,4.7C51.8,57.6,50,61.6,50,66s1.8,8.4,4.7,11.3C57.6,80.2,61.6,82,66,82s8.4-1.8,11.3-4.7
	C80.2,74.4,82,70.4,82,66s-1.8-8.4-4.7-11.3C74.4,51.8,70.4,50,66,50z M69.6,78h-3h-3v-9.3v-9.3c-0.8,0.7-1.7,1.4-2.6,1.9
	c-0.9,0.5-1.9,1-2.9,1.3v-2.3v-2.3c1.4-0.5,2.4-1,3.4-1.6c1-0.6,1.9-1.4,2.9-2.4H67h2.6v12V78z"/>
</svg>
