<?xml version="1.0" encoding="utf-8"?>
<!-- Generator: Adobe Illustrator 19.1.0, SVG Export Plug-In . SVG Version: 6.00 Build 0)  -->
<!DOCTYPE svg PUBLIC "-//W3C//DTD SVG 1.1//EN" "http://www.w3.org/Graphics/SVG/1.1/DTD/svg11.dtd">
<svg version="1.1" id="Layer_2" xmlns="http://www.w3.org/2000/svg" xmlns:xlink="http://www.w3.org/1999/xlink" x="0px" y="0px"
	 width="150px" height="150px" viewBox="0 0 150 150" enable-background="new 0 0 150 150" xml:space="preserve">
<path d="M27,47v28v28h48h48V75V47H75H27z M115,83.2c-0.3-0.1-0.7-0.1-1-0.2c-0.3,0-0.7-0.1-1-0.1c-2.8,0-5.3,1.1-7.1,2.9
	c-1.8,1.8-2.9,4.3-2.9,7.1c0,0.3,0,0.7,0.1,1s0.1,0.7,0.1,1H75H46.8c0.1-0.3,0.1-0.7,0.1-1s0.1-0.7,0.1-1c0-2.8-1.1-5.3-2.9-7.1
	C42.3,84.1,39.8,83,37,83c-0.3,0-0.7,0-1,0.1s-0.7,0.1-1,0.2V75v-8.2c0.3,0.1,0.7,0.1,1,0.2s0.7,0.1,1,0.1c2.8,0,5.3-1.1,7.1-2.9
	c1.8-1.8,2.9-4.3,2.9-7.1c0-0.3,0-0.7-0.1-1s-0.1-0.7-0.1-1H75h28.2c-0.1,0.3-0.1,0.7-0.2,1s-0.1,0.7-0.1,1c0,2.8,1.1,5.3,2.9,7.1
	c1.8,1.8,4.3,2.9,7.1,2.9c0.3,0,0.7,0,1-0.1c0.3,0,0.7-0.1,1-0.2V75V83.2z"/>
<path d="M75,59c-4.4,0-8.4,1.8-11.3,4.7C60.8,66.6,59,70.6,59,75s1.8,8.4,4.7,11.3C66.6,89.2,70.6,91,75,91s8.4-1.8,11.3-4.7
	C89.2,83.4,91,79.4,91,75s-1.8-8.4-4.7-11.3C83.4,60.8,79.4,59,75,59z M78.6,87h-3h-3v-9.3v-9.3c-0.8,0.7-1.7,1.4-2.6,1.9
	c-0.9,0.5-1.9,1-2.9,1.3v-2.3v-2.3c1.4-0.5,2.4-1,3.4-1.6c1-0.6,1.9-1.4,2.9-2.4H76h2.6v12V87z"/>
</svg>
