<?xml version="1.0" encoding="utf-8"?>
<!-- Generator: Adobe Illustrator 19.1.0, SVG Export Plug-In . SVG Version: 6.00 Build 0)  -->
<!DOCTYPE svg PUBLIC "-//W3C//DTD SVG 1.1//EN" "http://www.w3.org/Graphics/SVG/1.1/DTD/svg11.dtd">
<svg version="1.1" id="ic" xmlns="http://www.w3.org/2000/svg" xmlns:xlink="http://www.w3.org/1999/xlink" x="0px" y="0px"
	 width="150px" height="150px" viewBox="0 0 150 150" enable-background="new 0 0 150 150" xml:space="preserve">
<g>
	<path d="M27,47v56h96V47H27z M115,83.2c-0.6-0.1-1.3-0.2-2-0.2c-5.5,0-10,4.5-10,10c0,0.7,0.1,1.4,0.2,2H46.8
		c0.1-0.6,0.2-1.3,0.2-2c0-5.5-4.5-10-10-10c-0.7,0-1.4,0.1-2,0.2V66.8c0.6,0.1,1.3,0.2,2,0.2c5.5,0,10-4.5,10-10
		c0-0.7-0.1-1.4-0.2-2h56.4c-0.1,0.6-0.2,1.3-0.2,2c0,5.5,4.5,10,10,10c0.7,0,1.4-0.1,2-0.2V83.2z"/>
	<path d="M75,59c-8.8,0-16,7.2-16,16s7.2,16,16,16s16-7.2,16-16S83.8,59,75,59z M78.6,87h-6V68.4C71,69.9,69,70.9,67,71.6v-4.7
		c2.8-1,4.2-1.9,6.3-3.9h5.3V87z"/>
</g>
</svg>
