<?xml version="1.0" encoding="utf-8"?>
<!-- Generator: Adobe Illustrator 19.1.0, SVG Export Plug-In . SVG Version: 6.00 Build 0)  -->
<!DOCTYPE svg PUBLIC "-//W3C//DTD SVG 1.1//EN" "http://www.w3.org/Graphics/SVG/1.1/DTD/svg11.dtd">
<svg version="1.1" id="Layer_2" xmlns="http://www.w3.org/2000/svg" xmlns:xlink="http://www.w3.org/1999/xlink" x="0px" y="0px"
	 width="132px" height="132px" viewBox="0 0 132 132" enable-background="new 0 0 132 132" xml:space="preserve">
<polygon points="76.5,18 95.2,18 114,18 114,36.8 114,55.5 107.3,48.8 100.5,42.1 90,52.7 79.4,63.2 74.1,57.9 68.8,52.6 79.3,42 
	89.9,31.5 83.2,24.7 "/>
<polygon points="55.5,18 36.8,18 18,18 18,36.8 18,55.5 24.7,48.8 31.5,42.1 42,52.7 52.6,63.2 57.9,57.9 63.3,52.6 52.7,42 
	42.1,31.5 48.8,24.7 "/>
<polygon points="76.5,114 95.2,114 114,114 114,95.2 114,76.5 107.3,83.2 100.5,89.9 90,79.3 79.4,68.8 74.1,74.1 68.8,79.4 
	79.3,90 89.9,100.5 83.2,107.3 "/>
<polygon points="55.5,114 36.8,114 18,114 18,95.2 18,76.5 24.7,83.2 31.5,89.9 42,79.3 52.6,68.8 57.9,74.1 63.2,79.4 52.7,90 
	42.1,100.5 48.8,107.3 "/>
</svg>
