<?xml version="1.0" encoding="utf-8"?>
<!-- Generator: Adobe Illustrator 19.1.0, SVG Export Plug-In . SVG Version: 6.00 Build 0)  -->
<!DOCTYPE svg PUBLIC "-//W3C//DTD SVG 1.1//EN" "http://www.w3.org/Graphics/SVG/1.1/DTD/svg11.dtd">
<svg version="1.1" id="ic" xmlns="http://www.w3.org/2000/svg" xmlns:xlink="http://www.w3.org/1999/xlink" x="0px" y="0px"
	 width="150px" height="150px" viewBox="0 0 150 150" enable-background="new 0 0 150 150" xml:space="preserve">
<g>
	<path d="M102.3,80.6v23.2l-67.5-0.1V67h17.2c1.6-3.4,3.3-5.8,5-7.7H27v52.1h83c0,0,0-26.4,0-37L102.3,80.6z"/>
	<path d="M94.9,48.5V34.6L123,57.5L94.9,80.2V66.3c-3.6-0.1-7.4,0.1-11.4,0.8c-4,0.7-7.1,1.4-9.3,2.1L71,70.3
		c-2.9,1.1-5.5,2.5-7.8,4.1c-2.3,1.6-4,3.1-5.2,4.4c-1.2,1.3-2.2,2.8-3.2,4.4c-1,1.7-1.5,2.8-1.6,3.2c-0.1,0.4-0.3,1.1-0.6,1.9
		c0,0-0.4-10.3,2.6-17.5c0.8-2,3.2-6.5,5.4-8.9c2.1-2.4,4.6-4.5,7.5-6.3c2.9-1.8,6.6-3.4,11.3-4.7C84,49.5,89.2,48.7,94.9,48.5z"/>
</g>
</svg>
