<?xml version="1.0" encoding="utf-8"?>
<!-- Generator: Adobe Illustrator 19.1.0, SVG Export Plug-In . SVG Version: 6.00 Build 0)  -->
<!DOCTYPE svg PUBLIC "-//W3C//DTD SVG 1.1//EN" "http://www.w3.org/Graphics/SVG/1.1/DTD/svg11.dtd">
<svg version="1.1" id="Layer_2" xmlns="http://www.w3.org/2000/svg" xmlns:xlink="http://www.w3.org/1999/xlink" x="0px" y="0px"
	 width="132px" height="132px" viewBox="0 0 132 132" enable-background="new 0 0 132 132" xml:space="preserve">
<g>
	<path d="M93.3,71.6v23.2l-67.5-0.1V58h17.2c1.6-3.4,3.3-5.8,5-7.7H18v52.1h83c0,0,0-26.4,0-37L93.3,71.6z"/>
	<path d="M85.9,39.5V25.6L114,48.5L85.9,71.2V57.3c-3.6-0.1-7.4,0.1-11.4,0.8c-4,0.7-7.1,1.4-9.3,2.1L62,61.3
		c-2.9,1.1-5.5,2.5-7.8,4.1c-2.3,1.6-4,3.1-5.2,4.4c-1.2,1.3-2.2,2.8-3.2,4.4c-1,1.7-1.5,2.8-1.6,3.2c-0.1,0.4-0.3,1.1-0.6,1.9
		c0,0-0.4-10.3,2.6-17.5c0.8-2,3.2-6.5,5.4-8.9c2.1-2.4,4.6-4.5,7.5-6.3c2.9-1.8,6.6-3.4,11.3-4.7C75,40.5,80.2,39.7,85.9,39.5z"/>
</g>
</svg>
