<?xml version="1.0" encoding="utf-8"?>
<!-- Generator: Adobe Illustrator 19.1.0, SVG Export Plug-In . SVG Version: 6.00 Build 0)  -->
<!DOCTYPE svg PUBLIC "-//W3C//DTD SVG 1.1//EN" "http://www.w3.org/Graphics/SVG/1.1/DTD/svg11.dtd">
<svg version="1.1" id="icon" xmlns="http://www.w3.org/2000/svg" xmlns:xlink="http://www.w3.org/1999/xlink" x="0px" y="0px"
	 width="150px" height="150px" viewBox="0 0 150 150" enable-background="new 0 0 150 150" xml:space="preserve">
<g>
	<path d="M77.6,123v-20.4V82.1h-5.4h-5.4v-7.4v-7.4h5.4h5.4c0,0,0-1.5,0-3.8c0-2.3,0-5.5,0-8.7c0-5,1.6-9.7,5.1-13.2
		c3.4-3.5,8.7-5.8,16.1-5.8c3,0,5.6,0.2,7.4,0.3c1.9,0.2,3,0.3,3,0.3l-0.2,6.9l-0.2,6.9c0,0-1.1,0-2.9,0s-4.1,0-6.6,0
		c-2.7,0-4.2,0.6-5.1,1.7s-1.1,2.8-1.1,4.8c0,0.2,0,0.4,0,0.5c0,0.1,0,0.2,0,0.2c0,0.5,0,1.5,0,3.1s0,3.8,0,6.9h8h8l-0.4,7.3
		l-0.4,7.3h-7.7H93v20.4V123h-7.7H77.6z"/>
</g>
</svg>
