<?xml version="1.0" encoding="utf-8"?>
<!-- Generator: Adobe Illustrator 19.1.0, SVG Export Plug-In . SVG Version: 6.00 Build 0)  -->
<!DOCTYPE svg PUBLIC "-//W3C//DTD SVG 1.1//EN" "http://www.w3.org/Graphics/SVG/1.1/DTD/svg11.dtd">
<svg version="1.1" id="icon" xmlns="http://www.w3.org/2000/svg" xmlns:xlink="http://www.w3.org/1999/xlink" x="0px" y="0px"
	 width="132px" height="132px" viewBox="0 0 132 132" enable-background="new 0 0 132 132" xml:space="preserve">
<g>
	<path d="M18,18v48v48h27.4h27.4V96.4V78.7h-4.6h-4.6v-6.4V66h4.6h4.6c0,0,0-1.3,0-3.3c0-2,0-4.7,0-7.5c0-4.3,1.4-8.4,4.4-11.4
		s7.5-5,13.9-5c2.6,0,4.8,0.1,6.4,0.3s2.6,0.3,2.6,0.3l-0.2,5.9l-0.2,5.9c0,0-1,0-2.5,0s-3.5,0-5.7,0c-2.3,0-3.6,0.5-4.4,1.5
		c-0.8,1-0.9,2.4-0.9,4.1c0,0.2,0,0.4,0,0.5s0,0.2,0,0.2c0,0.5,0,1.3,0,2.7s0,3.3,0,6h6.9h6.9l-0.3,6.3l-0.3,6.3h-6.6h-6.6v17.6V114
		h13.9H114V66V18H66H18z"/>
</g>
</svg>
