<?xml version="1.0" encoding="utf-8"?>
<!-- Generator: Adobe Illustrator 19.1.0, SVG Export Plug-In . SVG Version: 6.00 Build 0)  -->
<!DOCTYPE svg PUBLIC "-//W3C//DTD SVG 1.1//EN" "http://www.w3.org/Graphics/SVG/1.1/DTD/svg11.dtd">
<svg version="1.1" id="icon" xmlns="http://www.w3.org/2000/svg" xmlns:xlink="http://www.w3.org/1999/xlink" x="0px" y="0px"
	 width="132px" height="132px" viewBox="0 0 132 132" enable-background="new 0 0 132 132" xml:space="preserve">
<g>
	<path d="M105.8,74c0,11-4.4,21-11.7,28.2S77,114,66,114s-20.9-4.5-28.1-11.8S26.2,85,26.2,74s4.5-21,11.6-28.2S55,34,66,34
		s20.9,4.5,28.2,11.8S105.8,63,105.8,74z M96.1,74c0-8.3-3.4-15.9-8.8-21.4c-5.5-5.5-13-8.9-21.4-8.9c-8.3,0-15.8,3.4-21.3,8.9
		c-5.5,5.5-8.8,13.1-8.8,21.4s3.4,15.9,8.8,21.4c5.5,5.5,13,8.9,21.4,8.9c8.3,0,15.8-3.4,21.3-8.9C92.7,89.9,96.1,82.3,96.1,74z
		 M57.8,19.6c0-0.4,0-0.8,0-1.1c0-0.3,0-0.5,0-0.5h7.7h7.7c0.4,0,0.6,0,0.6,0v5.6v5.6c0,0.5,0,0.8,0,1.1c0,0.3,0,0.5,0,0.5
		s-0.9-0.2-2.4-0.3c-1.4-0.2-3.4-0.4-5.4-0.4c-2,0-4.1,0.2-5.6,0.4c-1.5,0.2-2.6,0.3-2.6,0.3 M87.9,35.4l-0.2-0.2
		c-0.1,0-0.2-0.1-0.3-0.2l1.5-2l1.5-2c0.2-0.3,0.5-0.6,0.6-0.9c0.2-0.2,0.3-0.3,0.3-0.3l4.7,3.5l4.7,3.5c0.3,0.2,0.6,0.5,0.8,0.7
		c0.2,0.2,0.4,0.3,0.4,0.3l-2.1,2.8l-2.1,2.8c-0.2-0.2-0.4-0.4-0.6-0.6c-0.2-0.2-0.4-0.4-0.5-0.5c-0.2-0.2-0.8-0.7-1.4-1.3
		s-1.3-1.2-1.9-1.6c-0.6-0.5-1.1-0.9-1.5-1.2s-0.9-0.7-1.3-1c-0.7-0.5-1.3-0.9-1.8-1.2S88.1,35.5,87.9,35.4z"/>
	<polygon points="69.8,74.7 69.8,62.3 69.8,50 65.8,50 61.8,50 61.8,64 61.8,78 61.8,78 61.9,78 61.8,78 61.8,78 69.8,86 77.8,94 
		80.6,91.2 83.5,88.4 76.6,81.5 	"/>
</g>
</svg>
