<?xml version="1.0" encoding="utf-8"?>
<!-- Generator: Adobe Illustrator 19.1.0, SVG Export Plug-In . SVG Version: 6.00 Build 0)  -->
<!DOCTYPE svg PUBLIC "-//W3C//DTD SVG 1.1//EN" "http://www.w3.org/Graphics/SVG/1.1/DTD/svg11.dtd">
<svg version="1.1" id="icon" xmlns="http://www.w3.org/2000/svg" xmlns:xlink="http://www.w3.org/1999/xlink" x="0px" y="0px"
	 width="150px" height="150px" viewBox="0 0 150 150" enable-background="new 0 0 150 150" xml:space="preserve">
<g>
	<path d="M114.8,83c0,11-4.4,21-11.7,28.2S86,123,75,123s-20.9-4.5-28.1-11.8S35.2,94,35.2,83s4.5-21,11.6-28.2S64,43,75,43
		s20.9,4.5,28.2,11.8S114.8,72,114.8,83z M105.1,83c0-8.3-3.4-15.9-8.8-21.4c-5.5-5.5-13-8.9-21.4-8.9c-8.3,0-15.8,3.4-21.3,8.9
		c-5.5,5.5-8.8,13.1-8.8,21.4s3.4,15.9,8.8,21.4c5.5,5.5,13,8.9,21.4,8.9c8.3,0,15.8-3.4,21.3-8.9C101.7,98.9,105.1,91.3,105.1,83z
		 M66.8,28.6c0-0.4,0-0.8,0-1.1c0-0.3,0-0.5,0-0.5h7.7h7.7c0.4,0,0.6,0,0.6,0v5.6v5.6c0,0.5,0,0.8,0,1.1c0,0.3,0,0.5,0,0.5
		s-0.9-0.2-2.4-0.3c-1.4-0.2-3.4-0.4-5.4-0.4c-2.1,0-4.1,0.2-5.6,0.4c-1.5,0.2-2.6,0.3-2.6,0.3 M96.9,44.4l-0.2-0.2
		c-0.1,0-0.2-0.1-0.3-0.2l1.5-2l1.5-2c0.2-0.3,0.5-0.6,0.6-0.9c0.2-0.2,0.3-0.3,0.3-0.3l4.7,3.5l4.7,3.5c0.3,0.2,0.6,0.5,0.8,0.7
		c0.2,0.2,0.4,0.3,0.4,0.3l-2.1,2.8l-2.1,2.8c-0.2-0.2-0.4-0.4-0.6-0.6c-0.2-0.2-0.4-0.4-0.5-0.5c-0.2-0.2-0.8-0.7-1.4-1.3
		s-1.3-1.2-1.9-1.6c-0.6-0.5-1.1-0.9-1.5-1.2s-0.9-0.7-1.3-1c-0.7-0.5-1.3-0.9-1.8-1.2S97.1,44.5,96.9,44.4z"/>
	<polygon points="78.8,83.7 78.8,71.3 78.8,59 74.8,59 70.8,59 70.8,73 70.8,87 70.8,87 70.9,87 70.8,87 70.8,87 78.8,95 86.8,103 
		89.6,100.2 92.5,97.4 85.6,90.5 	"/>
</g>
</svg>
