<?xml version="1.0" encoding="utf-8"?>
<!-- Generator: Adobe Illustrator 19.1.0, SVG Export Plug-In . SVG Version: 6.00 Build 0)  -->
<svg version="1.1" id="Icons_3_" xmlns="http://www.w3.org/2000/svg" xmlns:xlink="http://www.w3.org/1999/xlink" x="0px" y="0px"
	 viewBox="0 0 150 150" enable-background="new 0 0 150 150" xml:space="preserve">
<g id="Savings">
</g>
<g id="Savings_goals">
</g>
<g id="Save">
</g>
<g id="Report">
</g>
<g id="Reply">
</g>
<g id="Renew">
</g>
<g id="Refresh">
</g>
<g id="Rates">
</g>
<g id="Quote_open">
</g>
<g id="Quote_Close">
</g>
<g id="Print">
</g>
<g id="Presentation">
</g>
<g id="Portfolio">
</g>
<g id="Pop_Up_Window">
</g>
<g id="Play">
</g>
<g id="Pin">
</g>
<g id="Phone">
</g>
<g id="PDF">
</g>
<g id="Pay">
</g>
<g id="Rewards">
</g>
<g id="New_Window">
</g>
<g id="Multiple_Users">
</g>
<g id="Articles">
</g>
<g id="More">
</g>
<g id="Mobile">
</g>
<g id="Messages">
</g>
<g id="Menu">
</g>
<g id="Memo">
</g>
<g id="Security_Lock">
</g>
<g id="Location">
</g>
<g id="List">
</g>
<g id="Link">
</g>
<g id="Investment">
</g>
<g id="Intranet">
</g>
<g id="Insurance">
</g>
<g id="Home">
</g>
<g id="Help">
</g>
<g id="Health">
</g>
<g id="Grid_view">
</g>
<g id="Global">
</g>
<g id="Filter">
</g>
<g id="Favourite">
</g>
<g id="Export">
</g>
<g id="Expand">
</g>
<g id="Education">
</g>
<g id="Edit">
</g>
<g id="Download">
</g>
<g id="Dollar_Bill">
</g>
<g id="Document">
</g>
<g id="Do_Not_View">
</g>
<g id="Dining">
	<path d="M115.8,80.9c-0.7,9.1-5.2,22.4-19.7,29h-4.5H56.2h-2.3c-14.5-6.6-19.1-19.9-19.7-29c-0.1-1.3,0-2.4,0-2.4h81.5
		C115.8,78.6,115.9,79.7,115.8,80.9z"/>
	<path d="M95.2,115.3H54.8v5.8c0,1.1,0,1.9,0,1.9h40.3c0,0,0-0.9,0-1.9V115.3z"/>
	<path d="M58.9,70.8c0,0,0.6-0.7,1-1.2c4.3-5.8,7.8-14.3-0.9-23.3C53,40,53.9,36.1,57.9,31.1c0.3-0.4,0.7-1,0.7-1L53.7,27
		c0,0-0.8,0.7-1.2,1.2c-4.3,5.7-7,12.4,2.4,22.5c5.8,6.2,3,12.3,0.1,16.1c-1.2,1.5-0.7,1.4-0.7,1.4L58.9,70.8z"/>
	<path d="M76.5,70.8c0,0,0.6-0.7,1-1.2c4.3-5.8,7.8-14.3-0.9-23.3c-6.1-6.3-5.2-10.2-1.1-15.2c0.3-0.4,0.7-1,0.7-1L71.3,27
		c0,0-0.8,0.7-1.2,1.2c-4.3,5.7-7,12.4,2.4,22.5c5.8,6.2,3,12.3,0.1,16.1c-1.2,1.5-0.7,1.4-0.7,1.4L76.5,70.8z"/>
	<path d="M93.2,70.8c0,0,0.6-0.7,1-1.2c4.3-5.8,7.8-14.3-0.9-23.3c-6.1-6.3-5.2-10.2-1.1-15.2c0.3-0.4,0.7-1,0.7-1L88,27
		c0,0-0.8,0.7-1.2,1.2c-4.3,5.7-7,12.4,2.4,22.5c5.8,6.2,3,12.3,0.1,16.1c-1.2,1.5-0.7,1.4-0.7,1.4L93.2,70.8z"/>
</g>
<g id="Devices">
</g>
<g id="Desktop_Computer">
</g>
<g id="Bin">
</g>
<g id="Dashboard">
</g>
<g id="Copy">
</g>
<g id="Contactless_Payment">
</g>
<g id="Confidential">
</g>
<g id="Compose">
</g>
<g id="Column_View">
</g>
<g id="Collapse">
</g>
<g id="Client_Upload">
</g>
<g id="Client_Download">
</g>
<g id="Circle_Warning">
</g>
<g id="Circle_Error_Solid">
</g>
<g id="Circle_Info">
</g>
<g id="Circle_Fill_Information">
</g>
<g id="Circle_Help">
</g>
<g id="Circle_Help_Solid">
</g>
<g id="Circle_Delete">
</g>
<g id="Circle_Delete_Solid">
</g>
<g id="Circle_Confirmation">
</g>
<g id="Circle_Confirmation_Solid">
</g>
<g id="Chevron_Up">
</g>
<g id="Chevron_Right">
</g>
<g id="Chevron_Right_Small">
</g>
<g id="Chevron_Left">
</g>
<g id="Chevron_Down">
</g>
<g id="Chevron_Double_Right">
</g>
<g id="Chevron_Double_Left">
</g>
<g id="Chat">
</g>
<g id="Pie_Chart">
</g>
<g id="Delete">
</g>
<g id="Calendar">
</g>
<g id="Corporate">
</g>
<g id="Barcode">
</g>
<g id="Banking">
</g>
<g id="Back">
</g>
<g id="Attachment">
</g>
<g id="In_Branch">
</g>
<g id="Assets">
</g>
<g id="Newspaper">
</g>
<g id="Anchor_Up">
</g>
<g id="Anchor_down">
</g>
<g id="Insight">
</g>
<g id="Alert">
</g>
<g id="Agree">
</g>
<g id="Add">
</g>
<g id="Accounts">
</g>
</svg>
