<?xml version="1.0" encoding="utf-8"?>
<!-- Generator: Adobe Illustrator 19.1.0, SVG Export Plug-In . SVG Version: 6.00 Build 0)  -->
<!DOCTYPE svg PUBLIC "-//W3C//DTD SVG 1.1//EN" "http://www.w3.org/Graphics/SVG/1.1/DTD/svg11.dtd">
<svg version="1.1" id="ic" xmlns="http://www.w3.org/2000/svg" xmlns:xlink="http://www.w3.org/1999/xlink" x="0px" y="0px"
	 width="150px" height="150px" viewBox="0 0 150 150" enable-background="new 0 0 150 150" xml:space="preserve">
<g>
	<path d="M75,27c-26.5,0-48,21.5-48,48s21.5,48,48,48s48-21.5,48-48S101.5,27,75,27z M92.9,37.5c-0.6-0.2-1.3-0.4-1.9-0.5
		c-0.1-0.1-0.1-0.3-0.2-0.4C91.5,36.9,92.2,37.2,92.9,37.5z M103.6,48.5c0,1.7-0.3,3.3-0.7,5c-3.7-3.1-7.7-5.7-11.7-7.7
		c0.2-0.6,0.4-1.3,0.6-2C95.6,45,99.5,46.5,103.6,48.5z M87.9,51.2c0.5,0.2,0.9,0.5,1.4,0.7c4.1,2.2,7.8,4.8,10.9,7.6
		c-1.5,2.4-3.4,4.6-5.6,6.8c-2.9-4.6-6.2-8.6-9.4-12.2C86.1,53.1,87.1,52.1,87.9,51.2z M89.4,70.2c-3.2,2.2-6.9,4-11,5.5
		c-1.7-5.9-3.1-11-4.4-15.5c2-0.7,3.9-1.6,5.6-2.6C83.1,61.2,86.4,65.5,89.4,70.2z M81.6,36.3c2,1,3.5,2.3,3.9,3.9
		c0.2,0.9,0.2,1.9-0.1,2.9c-4.3-1.8-8.4-3.1-11.7-4C76.3,38,79.1,37,81.6,36.3z M81.8,48.4c-2.3,2.1-5.5,4.1-9.4,5.6
		c-1-3.7-1.9-6.8-2.7-9.4C72.8,45.3,77.1,46.5,81.8,48.4z M72.4,77.4c-4.2,0.9-8.3,1.3-12.2,1.1c0.1-5.6,0.7-11,1.6-15.8
		c2-0.1,4.1-0.3,6.2-0.8L72.4,77.4z M63.5,46.4c0.1,0.5,0.3,1,0.4,1.5l2.2,7.8c-2.1,0.4-4.1,0.7-6.1,0.7c-1.8,0-3.4-0.2-4.9-0.5
		C58.2,51.9,61.3,48.6,63.5,46.4z M55.4,62.4c-0.9,4.8-1.5,10-1.6,15.4c-3-0.6-5.9-1.5-8.3-2.8c1.2-4,2.9-8.1,5.2-12.2
		c0.3-0.4,0.5-0.9,0.8-1.3C52.7,61.9,54,62.2,55.4,62.4z M49.1,45.5c2.5-0.7,5.4-1.3,8.2-1.8c-2.4,2.5-5.1,5.7-7.9,9.5
		c-0.8-0.7-1.4-1.5-1.6-2.4C47.3,49.3,47.8,47.5,49.1,45.5z M41.3,50.7c0,0.2,0,0.3,0,0.4c-0.4,0.4-0.8,0.9-1.3,1.4
		C40.5,51.9,40.8,51.3,41.3,50.7z M37.5,90.7L36,89.6c-0.4-1-0.8-2.1-1.1-3.2c-1.2-4.2-1.7-8.5-1.5-12.7c1.4,1.6,3,3.1,4.8,4.4
		C37.5,82.1,37.2,86.3,37.5,90.7z M40,71.4c-1.3-1.2-2.4-2.4-3.2-3.8c2.4-3.8,4.9-7.3,7.6-10.3c0.5,0.5,1,1,1.5,1.4
		C43.6,62.5,41.5,66.8,40,71.4z M44.1,81.3c3,1.3,6.3,2.3,9.8,2.9c0.3,4.9,1,9.8,2.4,14.8c-4.2-0.7-8.1-1.9-11.7-3.7
		C43.6,90.7,43.4,86.1,44.1,81.3z M49.5,107.8c-0.8-1.5-1.6-3-2.3-4.5c3.6,1.2,7.4,2,11.3,2.4c1.2,3.1,2.8,6.2,4.7,9.2
		C58.2,113.4,53.5,110.9,49.5,107.8z M63.1,99.7c-1.6-4.9-2.5-9.9-2.8-14.8c0.6,0,1.1,0,1.7,0c3.9,0,8-0.5,12.1-1.4l4.2,14.6
		C73.1,99.3,68,99.8,63.1,99.7z M75,116.6c-1,0-1.9-0.1-2.9-0.1c-2.6-3.4-4.8-6.9-6.5-10.4c4.7-0.1,9.5-0.6,14.3-1.8l3.3,11.5
		C80.5,116.3,77.8,116.6,75,116.6z M80.2,81.8c4.5-1.6,8.7-3.6,12.4-6.1c2.3,4.3,4.2,9,5.4,14.1c-4.1,2.7-8.7,5-13.6,6.7
		C82.9,91.1,81.5,86.2,80.2,81.8z M99.3,108.8c-3,2.2-6.3,3.9-9.9,5.2c-1.1-4-2.2-7.8-3.2-11.4c4.7-1.6,9.1-3.6,13.1-6.1
		C99.7,100.4,99.8,104.5,99.3,108.8z M97.8,71.7c2.7-2.3,4.9-4.9,6.8-7.6c3.1,3.7,5.4,7.8,6.9,12.2c-2.1,3.3-4.8,6.4-8,9.2
		C102.1,80.6,100.1,76,97.8,71.7z M111.3,95.2c-1.5,2.7-3.3,5.2-5.3,7.4c0-3.5-0.3-6.9-0.8-10.2c3.1-2.4,5.9-5.1,8.3-8.1
		c0.2,1.7,0.4,3.3,0.5,5.1C113.2,91.4,112.4,93.4,111.3,95.2z M107.8,58.2c0.9-2,1.5-4.1,1.8-6.2c2.4,3.5,4.2,7.4,5.4,11.6
		c0.3,1.1,0.5,2.2,0.8,3.3l-0.7,1.7C113.1,64.7,110.6,61.3,107.8,58.2z"/>
</g>
</svg>
