<?xml version="1.0" encoding="utf-8"?>
<!-- Generator: Adobe Illustrator 19.1.0, SVG Export Plug-In . SVG Version: 6.00 Build 0)  -->
<svg version="1.1" id="Icons_3_" xmlns="http://www.w3.org/2000/svg" xmlns:xlink="http://www.w3.org/1999/xlink" x="0px" y="0px"
	 viewBox="0 0 150 150" enable-background="new 0 0 150 150" xml:space="preserve">
<g id="Savings">
</g>
<g id="Savings_goals">
</g>
<g id="Save">
</g>
<g id="Report">
</g>
<g id="Reply">
</g>
<g id="Renew">
</g>
<g id="Refresh">
</g>
<g id="Rates">
</g>
<g id="Quote_open">
</g>
<g id="Quote_Close">
</g>
<g id="Print">
</g>
<g id="Presentation">
</g>
<g id="Portfolio">
</g>
<g id="Pop_Up_Window">
</g>
<g id="Play">
</g>
<g id="Pin">
</g>
<g id="Phone">
</g>
<g id="PDF">
</g>
<g id="Pay">
</g>
<g id="Rewards">
</g>
<g id="New_Window">
</g>
<g id="Multiple_Users">
</g>
<g id="Articles">
</g>
<g id="More">
</g>
<g id="Mobile">
</g>
<g id="Messages">
</g>
<g id="Menu">
</g>
<g id="Memo">
</g>
<g id="Security_Lock">
</g>
<g id="Location">
</g>
<g id="List">
</g>
<g id="Link">
</g>
<g id="Investment">
</g>
<g id="Intranet">
</g>
<g id="Insurance">
</g>
<g id="Home">
</g>
<g id="Help">
</g>
<g id="Health">
</g>
<g id="Grid_view">
</g>
<g id="Global">
	<path d="M121.1,61.9C115.3,41.3,96.3,27,75,27c-4.1,0-8.2,0.6-12.3,1.6c-0.3,0-0.6,0.1-0.9,0.1c-0.6,0.2-1.1,0.3-1.5,0.6
		c-24.5,7.9-38.6,33.8-31.5,58.8C34.7,108.7,53.6,123,75,123c4.4,0,8.8-0.6,13.1-1.8c12.3-3.5,22.5-11.6,28.8-22.8
		C123.1,87.2,124.7,74.2,121.1,61.9 M92.9,37.5c-0.6-0.2-1.3-0.4-1.9-0.5c-0.1-0.1-0.1-0.3-0.2-0.4C91.5,36.9,92.2,37.2,92.9,37.5
		 M103.6,48.5c0,1.7-0.3,3.3-0.7,5c-3.7-3.1-7.7-5.7-11.7-7.7c0.2-0.7,0.5-1.3,0.6-2C95.6,45,99.5,46.5,103.6,48.5 M87.9,51.2
		c0.5,0.2,0.9,0.5,1.4,0.7c4.1,2.2,7.8,4.8,10.9,7.6c-1.5,2.4-3.4,4.6-5.6,6.7c-2.9-4.6-6.2-8.6-9.4-12.2
		C86.1,53.1,87.1,52.1,87.9,51.2 M74.1,60.2c2-0.7,3.9-1.6,5.6-2.6c3.3,3.6,6.7,7.9,9.7,12.6c-3.2,2.2-6.9,4-11,5.5
		C76.8,69.8,75.4,64.6,74.1,60.2 M78.3,98.2c-5.1,1.2-10.2,1.7-15.1,1.5c-1.6-4.9-2.5-9.9-2.8-14.8c0.6,0,1.1,0,1.7,0
		c3.9,0,8-0.5,12.1-1.4L78.3,98.2z M81.6,36.3c2.1,1,3.5,2.3,3.9,3.9c0.2,0.9,0.2,1.9-0.1,2.9c-4.3-1.8-8.4-3.1-11.7-4
		C76.3,38,79.1,37,81.6,36.3 M81.7,48.4c-2.3,2.1-5.5,4.1-9.4,5.6c-1-3.7-1.9-6.8-2.7-9.4C72.8,45.3,77.1,46.5,81.7,48.4 M72.4,77.4
		c-4.2,0.9-8.3,1.3-12.2,1.1c0.1-5.6,0.7-10.9,1.7-15.8c2-0.1,4.1-0.3,6.2-0.8L72.4,77.4z M63.5,46.4c0.1,0.5,0.3,1,0.4,1.5l2.2,7.8
		c-2.1,0.4-4.1,0.7-6.1,0.7c-1.8,0-3.4-0.2-4.8-0.5C58.2,51.9,61.3,48.6,63.5,46.4 M55.4,62.4c-0.9,4.8-1.5,10-1.6,15.4
		c-3-0.6-5.9-1.5-8.3-2.8c1.2-4,2.9-8.1,5.2-12.2c0.3-0.5,0.5-0.9,0.8-1.3C52.7,61.9,54,62.2,55.4,62.4 M49.1,45.5
		c2.5-0.7,5.4-1.4,8.2-1.8c-2.4,2.5-5.1,5.7-7.9,9.5c-0.8-0.7-1.4-1.5-1.6-2.4C47.3,49.3,47.8,47.4,49.1,45.5 M41.3,50.7
		c0,0.1,0,0.3,0,0.4c-0.4,0.4-0.8,0.9-1.3,1.4C40.4,51.9,40.8,51.3,41.3,50.7 M37.5,90.7c-0.5-0.4-0.9-0.8-1.4-1.2L36,89.6
		c-0.4-1.1-0.8-2.1-1.1-3.2c-1.2-4.2-1.7-8.5-1.6-12.7c1.4,1.6,3,3.1,4.8,4.4C37.5,82.1,37.2,86.3,37.5,90.7 M40,71.4
		c-1.3-1.2-2.4-2.4-3.2-3.8c2.4-3.8,4.9-7.3,7.6-10.3c0.5,0.5,1,1,1.5,1.4C43.6,62.5,41.5,66.8,40,71.4 M44.1,81.3
		c3,1.3,6.3,2.3,9.8,2.9c0.3,4.9,1,9.8,2.4,14.8c-4.2-0.7-8.1-1.9-11.7-3.7C43.6,90.7,43.4,86.1,44.1,81.3 M49.4,107.8
		c-0.8-1.5-1.6-3-2.3-4.5c3.6,1.2,7.4,2,11.3,2.4c1.3,3.1,2.8,6.2,4.7,9.2C58.2,113.4,53.5,111,49.4,107.8 M75,116.6
		c-1,0-1.9-0.1-2.9-0.1c-2.6-3.4-4.8-6.8-6.5-10.4c4.7,0,9.5-0.6,14.3-1.8l3.3,11.5C80.5,116.3,77.7,116.6,75,116.6 M80.2,81.8
		c4.5-1.6,8.7-3.6,12.4-6.1c2.3,4.3,4.2,9,5.4,14.1c-4.1,2.7-8.7,5-13.6,6.7C82.9,91.1,81.5,86.3,80.2,81.8 M99.3,108.7
		c-3,2.2-6.3,3.9-9.9,5.3c-1.1-4-2.2-7.8-3.2-11.4c4.7-1.6,9.1-3.6,13.1-6.1C99.7,100.4,99.8,104.5,99.3,108.7 M97.8,71.7
		c2.7-2.4,5-4.9,6.8-7.6c3.1,3.7,5.4,7.8,6.9,12.2c-2.1,3.3-4.8,6.4-8,9.2C102.1,80.6,100.1,76,97.8,71.7 M111.3,95.3
		c-1.5,2.7-3.3,5.2-5.3,7.4c0-3.5-0.3-7-0.8-10.2c3.1-2.5,5.9-5.2,8.3-8.1c0.2,1.6,0.4,3.3,0.5,5.1
		C113.2,91.4,112.4,93.4,111.3,95.3 M115.6,66.9c-0.1,0.6-0.3,1.2-0.5,1.8c-2-3.9-4.5-7.4-7.3-10.4c0.9-2.1,1.5-4.1,1.8-6.2
		c2.3,3.5,4.2,7.4,5.4,11.6c0.3,1.1,0.5,2.2,0.8,3.3L115.6,66.9z"/>
</g>
<g id="Filter">
</g>
<g id="Favourite">
</g>
<g id="Export">
</g>
<g id="Expand">
</g>
<g id="Education">
</g>
<g id="Edit">
</g>
<g id="Download">
</g>
<g id="Dollar_Bill">
</g>
<g id="Document">
</g>
<g id="Do_Not_View">
</g>
<g id="Dining">
</g>
<g id="Devices">
</g>
<g id="Desktop_Computer">
</g>
<g id="Bin">
</g>
<g id="Dashboard">
</g>
<g id="Copy">
</g>
<g id="Contactless_Payment">
</g>
<g id="Confidential">
</g>
<g id="Compose">
</g>
<g id="Column_View">
</g>
<g id="Collapse">
</g>
<g id="Client_Upload">
</g>
<g id="Client_Download">
</g>
<g id="Circle_Warning">
</g>
<g id="Circle_Error_Solid">
</g>
<g id="Circle_Info">
</g>
<g id="Circle_Fill_Information">
</g>
<g id="Circle_Help">
</g>
<g id="Circle_Help_Solid">
</g>
<g id="Circle_Delete">
</g>
<g id="Circle_Delete_Solid">
</g>
<g id="Circle_Confirmation">
</g>
<g id="Circle_Confirmation_Solid">
</g>
<g id="Chevron_Up">
</g>
<g id="Chevron_Right">
</g>
<g id="Chevron_Right_Small">
</g>
<g id="Chevron_Left">
</g>
<g id="Chevron_Down">
</g>
<g id="Chevron_Double_Right">
</g>
<g id="Chevron_Double_Left">
</g>
<g id="Chat">
</g>
<g id="Pie_Chart">
</g>
<g id="Delete">
</g>
<g id="Calendar">
</g>
<g id="Corporate">
</g>
<g id="Barcode">
</g>
<g id="Banking">
</g>
<g id="Back">
</g>
<g id="Attachment">
</g>
<g id="In_Branch">
</g>
<g id="Assets">
</g>
<g id="Newspaper">
</g>
<g id="Anchor_Up">
</g>
<g id="Anchor_down">
</g>
<g id="Insight">
</g>
<g id="Alert">
</g>
<g id="Agree">
</g>
<g id="Add">
</g>
<g id="Accounts">
</g>
</svg>
