<?xml version="1.0" encoding="utf-8"?>
<!-- Generator: Adobe Illustrator 19.1.0, SVG Export Plug-In . SVG Version: 6.00 Build 0)  -->
<!DOCTYPE svg PUBLIC "-//W3C//DTD SVG 1.1//EN" "http://www.w3.org/Graphics/SVG/1.1/DTD/svg11.dtd">
<svg version="1.1" id="icon" xmlns="http://www.w3.org/2000/svg" xmlns:xlink="http://www.w3.org/1999/xlink" x="0px" y="0px"
	 width="150px" height="150px" viewBox="0 0 150 150" enable-background="new 0 0 150 150" xml:space="preserve">
<g>
	<path d="M84.7,35H74H63.4c-1.4,0-2.9,0.1-4.4,0.2c-1.5,0.2-3.1,0.4-4.7,0.7c-1.6,0.4-3.2,1-4.8,1.8c-1.6,0.8-3.1,1.8-4.6,3.1
		c-2.2,2.1-3.8,4.4-4.9,6.8c-1.1,2.4-1.6,4.9-1.6,7.5c0,2.2,0.4,4.2,1.2,6.1c0.8,1.9,1.9,3.7,3.5,5.3c1.5,1.7,3.3,3.1,5.4,4
		c2.2,0.9,4.6,1.4,7.5,1.4c0.5,0,1.1,0,1.7-0.1s1.2-0.1,1.8-0.2c-0.1,0.3-0.2,0.6-0.3,0.9c-0.1,0.3-0.2,0.6-0.3,1
		c-0.1,0.3-0.2,0.7-0.3,1.1c-0.1,0.4-0.1,0.8-0.1,1.3c0,0.8,0.1,1.5,0.3,2.2c0.2,0.7,0.4,1.3,0.8,1.8c0.3,0.6,0.6,1.1,1,1.7
		s0.7,1.1,1.1,1.6c-1.2,0-2.6,0.1-4.2,0.3c-1.6,0.2-3.3,0.4-5.1,0.6c-1.9,0.3-3.7,0.8-5.5,1.5s-3.6,1.5-5.3,2.5
		c-1.5,0.9-2.8,1.9-3.9,3s-1.9,2.2-2.5,3.4c-0.6,1.2-1.1,2.4-1.4,3.5c-0.3,1.1-0.5,2.1-0.5,3.1c0,2,0.5,3.9,1.4,5.6
		c0.9,1.7,2.3,3.3,4.2,4.8c1.8,1.6,4.1,2.7,6.9,3.5c2.8,0.8,6,1.2,9.7,1.2c4.4-0.1,8.4-0.6,11.7-1.7s6.3-2.6,8.6-4.7
		c2.3-2,4-4.1,5.1-6.4c1.1-2.3,1.7-4.7,1.7-7.3c0-1.8-0.3-3.5-0.7-4.9c-0.4-1.5-1-2.8-1.8-3.9C79.2,86,78.3,85,77.3,84
		c-1-1-2-2-3.1-2.9l-1.8-1.5l-1.8-1.5c-0.3-0.3-0.5-0.5-0.8-0.8c-0.3-0.3-0.5-0.6-0.8-1c-0.3-0.4-0.6-0.8-0.7-1.2s-0.2-1-0.2-1.5
		c0-0.6,0.1-1.1,0.2-1.6c0.2-0.5,0.4-1,0.7-1.4c0.3-0.4,0.5-0.8,0.8-1.2s0.6-0.7,0.9-1.1c0.6-0.5,1.1-1,1.6-1.4s1-0.9,1.5-1.4
		c0.4-0.5,0.9-1,1.3-1.5c0.4-0.5,0.8-1,1.2-1.6c0.8-1.1,1.4-2.5,1.8-4s0.6-3.2,0.7-5.1c0-1-0.1-2-0.2-2.9s-0.3-1.8-0.5-2.5
		c-0.3-0.8-0.6-1.5-0.9-2.2c-0.3-0.7-0.7-1.3-1-1.9c-0.4-0.6-0.8-1.2-1.2-1.7c-0.4-0.5-0.8-1-1.2-1.4c-0.4-0.4-0.8-0.7-1.2-1.1
		s-0.7-0.6-1.1-0.8h3.3h3.3l3.3-1.9L84.7,35z M73,93.1c0.9,1,1.5,2.1,2,3.3c0.4,1.2,0.7,2.4,0.7,3.8c0,1.7-0.3,3.2-1,4.5
		c-0.6,1.4-1.6,2.6-2.9,3.6c-1.3,1.1-2.9,1.9-4.8,2.4c-1.9,0.6-4.1,0.8-6.6,0.9c-2.8,0-5.3-0.4-7.5-1c-2.2-0.6-4.1-1.5-5.7-2.8
		c-1.7-1.2-3-2.6-3.8-4.1c-0.8-1.5-1.3-3.2-1.3-5.1c0-1,0.1-1.8,0.3-2.6c0.2-0.8,0.5-1.6,0.9-2.2c0.3-0.6,0.7-1.2,1.1-1.8
		c0.4-0.5,0.9-1,1.4-1.5c0.5-0.4,1-0.8,1.5-1.1s1-0.6,1.5-0.8c0.5-0.2,0.9-0.4,1.3-0.5s0.7-0.3,1-0.4c1.1-0.3,2.3-0.6,3.4-0.9
		c1.1-0.3,2.2-0.5,3.3-0.6c1.1-0.1,2-0.2,2.7-0.2c0.7,0,1.2,0,1.4,0c0.5,0,0.9,0,1.3,0c0.4,0,0.8,0,1.1,0.1c2,1.4,3.7,2.7,5.1,3.8
		C70.9,91.1,72.1,92.1,73,93.1z M69.6,61.7c-0.1,0.7-0.3,1.4-0.6,2.1c-0.3,0.7-0.7,1.4-1.1,2.1c-0.9,1-2,1.7-3.1,2.2
		c-1.2,0.5-2.4,0.8-3.8,0.8c-1.1,0-2.1-0.2-3.1-0.5c-1-0.3-1.9-0.8-2.8-1.5c-0.9-0.7-1.6-1.4-2.3-2.3c-0.7-0.8-1.3-1.7-1.9-2.7
		c-1.1-2.1-2-4.1-2.5-6.1c-0.6-2-0.8-4-0.8-5.9c0-1.5,0.1-2.8,0.5-4.2c0.4-1.3,1-2.6,1.8-3.7c1-1.1,2-2,3.2-2.6
		c1.2-0.6,2.5-0.9,3.9-0.9c1.1,0,2.1,0.2,3.1,0.5c1,0.3,1.9,0.8,2.7,1.4c0.8,0.6,1.6,1.4,2.2,2.2c0.7,0.8,1.2,1.8,1.7,2.8
		c1.1,2.1,1.9,4.3,2.4,6.4c0.5,2.1,0.8,4.2,0.8,6.3c0,0.5,0,1-0.1,1.6C69.7,60.4,69.7,61,69.6,61.7z"/>
	<polygon points="117.7,68.2 117.7,68.2 117.7,68.1 112.2,68.1 106.6,68.1 106.6,62.5 106.6,56.8 103.3,56.8 100.1,56.8 100.1,62.5 
		100.1,68.1 94.4,68.1 88.8,68.1 88.8,71.3 88.8,74.5 88.9,74.5 88.9,74.5 88.9,74.6 88.9,74.7 94.5,74.7 100.1,74.7 100.1,80.3 
		100.1,85.9 103.3,85.9 106.6,85.9 106.6,80.3 106.6,74.7 112.3,74.7 118,74.7 118,71.5 118,68.2 117.9,68.2 	"/>
</g>
</svg>
