<?xml version="1.0" encoding="utf-8"?>
<!-- Generator: Adobe Illustrator 19.1.0, SVG Export Plug-In . SVG Version: 6.00 Build 0)  -->
<svg version="1.1" id="Icons_3_" xmlns="http://www.w3.org/2000/svg" xmlns:xlink="http://www.w3.org/1999/xlink" x="0px" y="0px"
	 viewBox="0 0 150 150" enable-background="new 0 0 150 150" xml:space="preserve">
<g id="Error">
</g>
<g id="View">
</g>
<g id="Video">
</g>
<g id="User_Personal">
</g>
<g id="Upload">
</g>
<g id="Travel">
</g>
<g id="Transfers">
</g>
<g id="Tools">
</g>
<g id="Clock">
</g>
<g id="Fast_Track">
</g>
<g id="Camera">
</g>
<g id="Tablet">
</g>
<g id="Switch">
</g>
<g id="Survey">
</g>
<g id="Minimize">
</g>
<g id="Stock_Up">
</g>
<g id="Stock_Down">
</g>
<g id="Sound">
</g>
<g id="Shopping_Cart">
</g>
<g id="Share">
</g>
<g id="Settings">
</g>
<g id="Secure_Key_Passcode">
</g>
<g id="Search">
</g>
<g id="Script">
</g>
<g id="Staff_Channels">
	<g id="Signature">
	</g>
	<g id="Shortcuts">
	</g>
	<g id="Microphone">
	</g>
	<g id="Dial">
	</g>
</g>
<g id="Social_Icons">
	<g id="Youtube">
	</g>
	<g id="Youtube_Solid">
	</g>
	<g id="Weibo">
	</g>
	<g id="Weibo_Solid">
	</g>
	<g id="Vimeo">
	</g>
	<g id="Vimeo_Solid">
	</g>
	<g id="Twitter">
	</g>
	<g id="Twitter_Solid">
	</g>
	<g id="LinkedIn">
	</g>
	<g id="LinkedIn_Solid">
	</g>
	<g id="GooglePlus">
	</g>
	<g id="GooglePlus_Solid">
		<path d="M64.1,47.6c-1.4-1-3-1.6-4.9-1.6c-2.4,0.1-4.5,1-6.1,3c-1.4,2-2,4.2-2,6.7c0,3.3,0.9,6.7,2.9,10.2c0.9,1.6,2.1,3,3.6,4.2
			c1.5,1.1,3.1,1.7,5,1.7c2.4-0.1,4.3-0.9,5.9-2.6c0.8-1.1,1.2-2.3,1.5-3.5c0.1-1.2,0.2-2.2,0.2-3c0-3.6-0.9-7.1-2.7-10.8
			C66.6,50.1,65.5,48.7,64.1,47.6z"/>
		<path d="M63.5,86.1c-0.5-0.1-1.6,0-3.5,0.2c-1.9,0.3-3.8,0.7-5.7,1.3c-0.5,0.2-1.1,0.4-1.9,0.8c-0.8,0.4-1.7,0.9-2.5,1.6
			c-0.8,0.7-1.5,1.6-2.1,2.7c-0.7,1.1-1,2.5-1,4.1c0,3.2,1.4,5.8,4.3,7.8c2.7,2.1,6.4,3.1,11.2,3.2c4.2-0.1,7.5-1,9.7-2.8
			c2.2-1.8,3.3-4.1,3.3-6.9c0-2.3-0.7-4.3-2.2-6c-1.6-1.6-4-3.6-7.4-5.9C65,86.2,64.3,86.1,63.5,86.1z"/>
		<path d="M27,27v96h96V27H27z M73.6,47.8c0.7,0.7,1.3,1.6,2,2.6c0.6,1,1.2,2.1,1.6,3.4c0.4,1.3,0.6,2.9,0.6,4.6
			c-0.1,3.2-0.8,5.8-2.1,7.7c-0.7,0.9-1.4,1.8-2.1,2.6c-0.8,0.8-1.7,1.6-2.6,2.4c-0.5,0.6-1,1.2-1.5,1.9c-0.5,0.7-0.8,1.6-0.8,2.6
			c0,0.9,0.3,1.7,0.8,2.3c0.5,0.6,0.9,1.1,1.4,1.5l3,2.5c1.9,1.6,3.6,3.3,5,5.1c1.3,1.9,2,4.4,2.1,7.5c0,4.4-1.9,8.2-5.8,11.6
			c-4,3.5-9.7,5.3-17.2,5.4c-6.3-0.1-11-1.4-14.1-4c-3.1-2.5-4.7-5.4-4.7-8.8c0-1.7,0.5-3.5,1.5-5.6c1-2.1,2.8-3.8,5.4-5.4
			c2.9-1.7,6-2.8,9.2-3.3c3.2-0.5,5.8-0.7,7.9-0.8c-0.6-0.9-1.2-1.8-1.7-2.7c-0.6-0.9-0.9-2.1-0.9-3.4c0-0.8,0.1-1.5,0.3-2
			c0.2-0.6,0.4-1.1,0.5-1.5c-1,0.1-2,0.2-2.9,0.2c-4.8-0.1-8.4-1.6-10.9-4.5c-2.6-2.8-3.9-6-3.9-9.6c0-4.4,1.9-8.4,5.6-12.1
			c2.6-2.1,5.2-3.5,8-4.1c2.7-0.6,5.3-0.8,7.7-0.8h18l-5.5,3.2h-5.5C72.2,46.6,72.9,47.1,73.6,47.8z M111,76.6h-9.7v9.4h-5.5v-9.4
			h-9.4v-0.2h-0.1v-5.4h9.5v-9.6h5.5v9.6h9.4v0h0.2V76.6z"/>
	</g>
	<g id="Facebook">
	</g>
	<g id="Facebook_Solid">
	</g>
</g>
</svg>
