<?xml version="1.0" encoding="utf-8"?>
<!-- Generator: Adobe Illustrator 19.1.0, SVG Export Plug-In . SVG Version: 6.00 Build 0)  -->
<!DOCTYPE svg PUBLIC "-//W3C//DTD SVG 1.1//EN" "http://www.w3.org/Graphics/SVG/1.1/DTD/svg11.dtd">
<svg version="1.1" xmlns="http://www.w3.org/2000/svg" xmlns:xlink="http://www.w3.org/1999/xlink" x="0px" y="0px" width="150px"
	 height="150px" viewBox="0 0 150 150" enable-background="new 0 0 150 150" xml:space="preserve">
<g id="Grid" display="none">
	
		<line display="inline" fill="none" stroke="#E7E7E5" stroke-width="0.25" stroke-miterlimit="10" x1="15" y1="75" x2="135" y2="75"/>
	
		<line display="inline" fill="none" stroke="#E7E7E5" stroke-width="0.25" stroke-miterlimit="10" x1="15" y1="79" x2="135" y2="79"/>
	
		<line display="inline" fill="none" stroke="#E7E7E5" stroke-width="0.25" stroke-miterlimit="10" x1="15" y1="83" x2="135" y2="83"/>
	
		<line display="inline" fill="none" stroke="#E7E7E5" stroke-width="0.25" stroke-miterlimit="10" x1="15" y1="87" x2="135" y2="87"/>
	
		<line display="inline" fill="none" stroke="#E7E7E5" stroke-width="0.25" stroke-miterlimit="10" x1="15" y1="91" x2="135" y2="91"/>
	
		<line display="inline" fill="none" stroke="#E7E7E5" stroke-width="0.25" stroke-miterlimit="10" x1="15" y1="95" x2="135" y2="95"/>
	
		<line display="inline" fill="none" stroke="#E7E7E5" stroke-width="0.25" stroke-miterlimit="10" x1="15" y1="99" x2="135" y2="99"/>
	
		<line display="inline" fill="none" stroke="#E7E7E5" stroke-width="0.25" stroke-miterlimit="10" x1="15" y1="103" x2="135" y2="103"/>
	
		<line display="inline" fill="none" stroke="#E7E7E5" stroke-width="0.25" stroke-miterlimit="10" x1="15" y1="107" x2="135" y2="107"/>
	
		<line display="inline" fill="none" stroke="#E7E7E5" stroke-width="0.25" stroke-miterlimit="10" x1="15" y1="111" x2="135" y2="111"/>
	
		<line display="inline" fill="none" stroke="#E7E7E5" stroke-width="0.25" stroke-miterlimit="10" x1="15" y1="115" x2="135" y2="115"/>
	
		<line display="inline" fill="none" stroke="#E7E7E5" stroke-width="0.25" stroke-miterlimit="10" x1="15" y1="119" x2="135" y2="119"/>
	
		<line display="inline" fill="none" stroke="#E7E7E5" stroke-width="0.25" stroke-miterlimit="10" x1="15" y1="123" x2="135" y2="123"/>
	
		<line display="inline" fill="none" stroke="#E7E7E5" stroke-width="0.25" stroke-miterlimit="10" x1="15" y1="127" x2="135" y2="127"/>
	
		<line display="inline" fill="none" stroke="#E7E7E5" stroke-width="0.25" stroke-miterlimit="10" x1="15" y1="131" x2="135" y2="131"/>
	
		<line display="inline" fill="none" stroke="#E7E7E5" stroke-width="0.25" stroke-miterlimit="10" x1="15" y1="135" x2="135" y2="135"/>
	
		<line display="inline" fill="none" stroke="#E7E7E5" stroke-width="0.25" stroke-miterlimit="10" x1="15" y1="71" x2="135" y2="71"/>
	
		<line display="inline" fill="none" stroke="#E7E7E5" stroke-width="0.25" stroke-miterlimit="10" x1="15" y1="67" x2="135" y2="67"/>
	
		<line display="inline" fill="none" stroke="#E7E7E5" stroke-width="0.25" stroke-miterlimit="10" x1="15" y1="63" x2="135" y2="63"/>
	
		<line display="inline" fill="none" stroke="#E7E7E5" stroke-width="0.25" stroke-miterlimit="10" x1="15" y1="59" x2="135" y2="59"/>
	
		<line display="inline" fill="none" stroke="#E7E7E5" stroke-width="0.25" stroke-miterlimit="10" x1="15" y1="55" x2="135" y2="55"/>
	
		<line display="inline" fill="none" stroke="#E7E7E5" stroke-width="0.25" stroke-miterlimit="10" x1="15" y1="51" x2="135" y2="51"/>
	
		<line display="inline" fill="none" stroke="#E7E7E5" stroke-width="0.25" stroke-miterlimit="10" x1="15" y1="47" x2="135" y2="47"/>
	
		<line display="inline" fill="none" stroke="#E7E7E5" stroke-width="0.25" stroke-miterlimit="10" x1="15" y1="43" x2="135" y2="43"/>
	
		<line display="inline" fill="none" stroke="#E7E7E5" stroke-width="0.25" stroke-miterlimit="10" x1="15" y1="39" x2="135" y2="39"/>
	
		<line display="inline" fill="none" stroke="#E7E7E5" stroke-width="0.25" stroke-miterlimit="10" x1="15" y1="35" x2="135" y2="35"/>
	
		<line display="inline" fill="none" stroke="#E7E7E5" stroke-width="0.25" stroke-miterlimit="10" x1="15" y1="31" x2="135" y2="31"/>
	
		<line display="inline" fill="none" stroke="#E7E7E5" stroke-width="0.25" stroke-miterlimit="10" x1="15" y1="27" x2="135" y2="27"/>
	
		<line display="inline" fill="none" stroke="#E7E7E5" stroke-width="0.25" stroke-miterlimit="10" x1="15" y1="23" x2="135" y2="23"/>
	
		<line display="inline" fill="none" stroke="#E7E7E5" stroke-width="0.25" stroke-miterlimit="10" x1="15" y1="19" x2="135" y2="19"/>
	
		<line display="inline" fill="none" stroke="#E7E7E5" stroke-width="0.25" stroke-miterlimit="10" x1="15" y1="15" x2="135" y2="15"/>
	
		<line display="inline" fill="none" stroke="#E7E7E5" stroke-width="0.25" stroke-miterlimit="10" x1="75" y1="135" x2="75" y2="15"/>
	
		<line display="inline" fill="none" stroke="#E7E7E5" stroke-width="0.25" stroke-miterlimit="10" x1="71" y1="135" x2="71" y2="15"/>
	
		<line display="inline" fill="none" stroke="#E7E7E5" stroke-width="0.25" stroke-miterlimit="10" x1="67" y1="135" x2="67" y2="15"/>
	
		<line display="inline" fill="none" stroke="#E7E7E5" stroke-width="0.25" stroke-miterlimit="10" x1="63" y1="135" x2="63" y2="15"/>
	
		<line display="inline" fill="none" stroke="#E7E7E5" stroke-width="0.25" stroke-miterlimit="10" x1="59" y1="135" x2="59" y2="15"/>
	
		<line display="inline" fill="none" stroke="#E7E7E5" stroke-width="0.25" stroke-miterlimit="10" x1="55" y1="135" x2="55" y2="15"/>
	
		<line display="inline" fill="none" stroke="#E7E7E5" stroke-width="0.25" stroke-miterlimit="10" x1="51" y1="135" x2="51" y2="15"/>
	
		<line display="inline" fill="none" stroke="#E7E7E5" stroke-width="0.25" stroke-miterlimit="10" x1="47" y1="135" x2="47" y2="15"/>
	
		<line display="inline" fill="none" stroke="#E7E7E5" stroke-width="0.25" stroke-miterlimit="10" x1="43" y1="135" x2="43" y2="15"/>
	
		<line display="inline" fill="none" stroke="#E7E7E5" stroke-width="0.25" stroke-miterlimit="10" x1="39" y1="135" x2="39" y2="15"/>
	
		<line display="inline" fill="none" stroke="#E7E7E5" stroke-width="0.25" stroke-miterlimit="10" x1="35" y1="135" x2="35" y2="15"/>
	
		<line display="inline" fill="none" stroke="#E7E7E5" stroke-width="0.25" stroke-miterlimit="10" x1="31" y1="135" x2="31" y2="15"/>
	
		<line display="inline" fill="none" stroke="#E7E7E5" stroke-width="0.25" stroke-miterlimit="10" x1="27" y1="135" x2="27" y2="15"/>
	
		<line display="inline" fill="none" stroke="#E7E7E5" stroke-width="0.25" stroke-miterlimit="10" x1="23" y1="135" x2="23" y2="15"/>
	
		<line display="inline" fill="none" stroke="#E7E7E5" stroke-width="0.25" stroke-miterlimit="10" x1="19" y1="135" x2="19" y2="15"/>
	
		<line display="inline" fill="none" stroke="#E7E7E5" stroke-width="0.25" stroke-miterlimit="10" x1="15" y1="135" x2="15" y2="15"/>
	
		<line display="inline" fill="none" stroke="#E7E7E5" stroke-width="0.25" stroke-miterlimit="10" x1="79" y1="135" x2="79" y2="15"/>
	
		<line display="inline" fill="none" stroke="#E7E7E5" stroke-width="0.25" stroke-miterlimit="10" x1="83" y1="135" x2="83" y2="15"/>
	
		<line display="inline" fill="none" stroke="#E7E7E5" stroke-width="0.25" stroke-miterlimit="10" x1="87" y1="135" x2="87" y2="15"/>
	
		<line display="inline" fill="none" stroke="#E7E7E5" stroke-width="0.25" stroke-miterlimit="10" x1="91" y1="135" x2="91" y2="15"/>
	
		<line display="inline" fill="none" stroke="#E7E7E5" stroke-width="0.25" stroke-miterlimit="10" x1="95" y1="135" x2="95" y2="15"/>
	
		<line display="inline" fill="none" stroke="#E7E7E5" stroke-width="0.25" stroke-miterlimit="10" x1="99" y1="135" x2="99" y2="15"/>
	
		<line display="inline" fill="none" stroke="#E7E7E5" stroke-width="0.25" stroke-miterlimit="10" x1="103" y1="135" x2="103" y2="15"/>
	
		<line display="inline" fill="none" stroke="#E7E7E5" stroke-width="0.25" stroke-miterlimit="10" x1="107" y1="39" x2="107" y2="15"/>
	
		<line display="inline" fill="none" stroke="#E7E7E5" stroke-width="0.25" stroke-miterlimit="10" x1="107" y1="135" x2="107" y2="39"/>
	
		<line display="inline" fill="none" stroke="#E7E7E5" stroke-width="0.25" stroke-miterlimit="10" x1="111" y1="135" x2="111" y2="15"/>
	
		<line display="inline" fill="none" stroke="#E7E7E5" stroke-width="0.25" stroke-miterlimit="10" x1="115" y1="135" x2="115" y2="15"/>
	
		<line display="inline" fill="none" stroke="#E7E7E5" stroke-width="0.25" stroke-miterlimit="10" x1="119" y1="135" x2="119" y2="15"/>
	
		<line display="inline" fill="none" stroke="#E7E7E5" stroke-width="0.25" stroke-miterlimit="10" x1="123" y1="135" x2="123" y2="15"/>
	
		<line display="inline" fill="none" stroke="#E7E7E5" stroke-width="0.25" stroke-miterlimit="10" x1="127" y1="135" x2="127" y2="15"/>
	
		<line display="inline" fill="none" stroke="#E7E7E5" stroke-width="0.25" stroke-miterlimit="10" x1="131" y1="135" x2="131" y2="15"/>
	
		<line display="inline" fill="none" stroke="#E7E7E5" stroke-width="0.25" stroke-miterlimit="10" x1="135" y1="135" x2="135" y2="15"/>
	
		<line display="inline" fill="none" stroke="#878A8B" stroke-width="0.25" stroke-miterlimit="10" x1="15" y1="15" x2="135" y2="135"/>
	
		<line display="inline" fill="none" stroke="#878A8B" stroke-width="0.25" stroke-miterlimit="10" x1="135" y1="15" x2="15" y2="135"/>
	<circle display="inline" fill="none" stroke="#878A8B" stroke-width="0.25" stroke-miterlimit="10" cx="75" cy="75" r="48"/>
	
		<rect x="15" y="15" display="inline" fill="none" stroke="#878A8B" stroke-width="0.25" stroke-miterlimit="10" width="120" height="120"/>
	
		<line display="inline" fill="none" stroke="#878A8B" stroke-width="0.25" stroke-miterlimit="10" x1="123" y1="15" x2="123" y2="135"/>
	
		<line display="inline" fill="none" stroke="#878A8B" stroke-width="0.25" stroke-miterlimit="10" x1="27" y1="135" x2="27" y2="15"/>
	
		<line display="inline" fill="none" stroke="#878A8B" stroke-width="0.25" stroke-miterlimit="10" x1="135" y1="123" x2="15" y2="123"/>
	
		<line display="inline" fill="none" stroke="#878A8B" stroke-width="0.25" stroke-miterlimit="10" x1="15" y1="27" x2="135" y2="27"/>
	
		<line display="inline" fill="none" stroke="#878A8B" stroke-width="0.25" stroke-miterlimit="10" x1="75" y1="135" x2="75" y2="15"/>
	
		<line display="inline" fill="none" stroke="#878A8B" stroke-width="0.25" stroke-miterlimit="10" x1="15" y1="75" x2="135" y2="75"/>
</g>
<g id="Icons_3_">
	<g id="Error">
	</g>
	<g id="View">
	</g>
	<g id="Video">
	</g>
	<g id="User_Personal">
	</g>
	<g id="Upload">
	</g>
	<g id="Travel">
	</g>
	<g id="Transfers">
	</g>
	<g id="Tools">
	</g>
	<g id="Clock">
	</g>
	<g id="Fast_Track">
	</g>
	<g id="Camera">
	</g>
	<g id="Tablet">
	</g>
	<g id="Switch">
	</g>
	<g id="Survey">
	</g>
	<g id="Minimize">
	</g>
	<g id="Stock_Up">
	</g>
	<g id="Stock_Down">
	</g>
	<g id="Sound">
	</g>
	<g id="Shopping_Cart">
	</g>
	<g id="Share">
	</g>
	<g id="Settings">
	</g>
	<g id="Secure_Key_Passcode">
	</g>
	<g id="Search">
	</g>
	<g id="Script">
	</g>
	<g id="Staff_Channels">
		<g id="Signature">
		</g>
		<g id="Shortcuts">
		</g>
		<g id="Microphone">
		</g>
		<g id="Dial">
		</g>
	</g>
	<g id="Social_Icons">
		<g id="Youtube">
		</g>
		<g id="Youtube_Solid">
		</g>
		<g id="Weibo">
		</g>
		<g id="Weibo_Solid">
		</g>
		<g id="Vimeo">
		</g>
		<g id="Vimeo_Solid">
		</g>
		<g id="Twitter">
		</g>
		<g id="Twitter_Solid">
		</g>
		<g id="LinkedIn">
		</g>
		<g id="LinkedIn_Solid">
		</g>
		<g id="GooglePlus">
		</g>
		<g id="GooglePlus_Solid">
		</g>
		<g id="Facebook">
		</g>
		<g id="Facebook_Solid">
		</g>
	</g>
	<path d="M84.7,35H63.4c-2.8,0-5.8,0.3-9,1c-3.2,0.8-6.4,2.4-9.4,4.9c-4.4,4.3-6.6,9-6.6,14.2c0,4.3,1.5,8.1,4.6,11.4
		c3,3.5,7.3,5.3,12.9,5.4c1.1,0,2.2-0.1,3.4-0.2c-0.2,0.6-0.4,1.2-0.6,1.8c-0.3,0.6-0.4,1.4-0.4,2.3c0,1.6,0.3,2.9,1,4
		c0.6,1.1,1.3,2.2,2,3.2c-2.5,0.1-5.6,0.4-9.3,0.9c-3.8,0.7-7.4,2-10.8,3.9c-3.1,1.8-5.2,4-6.3,6.4c-1.2,2.4-1.8,4.6-1.8,6.6
		c0,4,1.8,7.5,5.5,10.4c3.7,3.1,9.2,4.7,16.6,4.8c8.9-0.1,15.7-2.3,20.4-6.4c4.5-4,6.8-8.6,6.8-13.7c-0.1-3.6-0.9-6.6-2.5-8.8
		c-1.7-2.2-3.6-4.2-5.9-6.1l-3.6-3c-0.5-0.5-1.1-1.1-1.6-1.8c-0.6-0.7-1-1.6-1-2.8c0-1.1,0.3-2.1,0.9-3c0.5-0.8,1.1-1.6,1.8-2.2
		c1.1-1,2.1-1.9,3.1-2.9c0.9-0.9,1.7-2,2.5-3.1c1.6-2.3,2.4-5.3,2.5-9.1c0-2.1-0.2-3.9-0.7-5.5c-0.6-1.6-1.2-2.9-1.9-4.1
		c-0.8-1.2-1.6-2.2-2.3-3.1c-0.8-0.8-1.6-1.4-2.2-1.8h6.5L84.7,35z M73,93.1c1.8,2,2.6,4.4,2.6,7.1c0,3.3-1.3,6-3.8,8.2
		c-2.6,2.1-6.5,3.3-11.4,3.3c-5.6-0.1-10-1.3-13.2-3.7c-3.4-2.4-5.1-5.5-5.1-9.2c0-1.9,0.4-3.5,1.2-4.9c0.7-1.3,1.5-2.4,2.5-3.2
		c1-0.8,2-1.5,3-1.9c1-0.4,1.7-0.7,2.3-0.9c2.3-0.7,4.5-1.2,6.7-1.5c2.2-0.2,3.6-0.3,4.2-0.2c0.9,0,1.7,0,2.4,0.1
		C68.3,88.8,71.2,91.2,73,93.1z M69.6,61.7c-0.3,1.4-0.8,2.8-1.7,4.2c-1.9,1.9-4.2,2.9-7,3c-2.2,0-4.2-0.7-5.9-2
		c-1.7-1.4-3.1-3-4.2-4.9c-2.2-4.2-3.4-8.2-3.4-12c-0.1-2.9,0.7-5.6,2.3-7.9c1.9-2.3,4.3-3.4,7.2-3.5c2.2,0.1,4.1,0.7,5.8,1.9
		c1.6,1.3,3,2.9,4,5c2.1,4.3,3.2,8.5,3.2,12.7C69.8,59.1,69.7,60.3,69.6,61.7z"/>
	<polygon points="117.7,68.2 117.7,68.1 106.6,68.1 106.6,56.8 100.1,56.8 100.1,68.1 88.8,68.1 88.8,74.5 88.9,74.5 88.9,74.7 
		100.1,74.7 100.1,85.9 106.6,85.9 106.6,74.7 118,74.7 118,68.2 	"/>
</g>
</svg>
