<?xml version="1.0" encoding="utf-8"?>
<!-- Generator: Adobe Illustrator 19.1.0, SVG Export Plug-In . SVG Version: 6.00 Build 0)  -->
<!DOCTYPE svg PUBLIC "-//W3C//DTD SVG 1.1//EN" "http://www.w3.org/Graphics/SVG/1.1/DTD/svg11.dtd">
<svg version="1.1" id="Layer_2" xmlns="http://www.w3.org/2000/svg" xmlns:xlink="http://www.w3.org/1999/xlink" x="0px" y="0px"
	 width="132px" height="132px" viewBox="0 0 132 132" enable-background="new 0 0 132 132" xml:space="preserve">
<path d="M18,57.7h20h20V37.8V18H38H18v19.8V57.7z M26,25.7h12h12v12.2V50H38H26V37.8V25.7z"/>
<path d="M74.1,18v19.8v19.8h20h20V37.8V18H94H74.1z M106,50H94H82V37.8V25.7h12h12v12.2V50z"/>
<path d="M18,114h20h20V94.2V74.3H38H18v19.8V114z M26,82h12h12v12.2v12.2H38H26V94.2V82z"/>
<path d="M74.1,114h20h20V94.2V74.3H94h-20v19.8V114z M82,82h12h12v12.2v12.2H94H82V94.2V82z"/>
</svg>
