<?xml version="1.0" encoding="utf-8"?>
<!-- Generator: Adobe Illustrator 19.1.0, SVG Export Plug-In . SVG Version: 6.00 Build 0)  -->
<!DOCTYPE svg PUBLIC "-//W3C//DTD SVG 1.1//EN" "http://www.w3.org/Graphics/SVG/1.1/DTD/svg11.dtd">
<svg version="1.1" id="Layer_2" xmlns="http://www.w3.org/2000/svg" xmlns:xlink="http://www.w3.org/1999/xlink" x="0px" y="0px"
	 width="150px" height="150px" viewBox="0 0 150 150" enable-background="new 0 0 150 150" xml:space="preserve">
<path d="M27,66.7h20h20V46.8V27H47H27v19.8V66.7z M35,34.7h12h12v12.2V59H47H35V46.8V34.7z"/>
<path d="M83.1,27v19.8v19.8h20h20V46.8V27h-20H83.1z M115,59h-12H91V46.8V34.7h12h12v12.2V59z"/>
<path d="M27,123h20h20v-19.8V83.3H47H27v19.8V123z M35,91h12h12v12.2v12.2H47H35v-12.2V91z"/>
<path d="M83.1,123h20h20v-19.8V83.3h-20h-20v19.8V123z M91,91h12h12v12.2v12.2h-12H91v-12.2V91z"/>
</svg>
