<?xml version="1.0" encoding="utf-8"?>
<!-- Generator: Adobe Illustrator 19.1.0, SVG Export Plug-In . SVG Version: 6.00 Build 0)  -->
<!DOCTYPE svg PUBLIC "-//W3C//DTD SVG 1.1//EN" "http://www.w3.org/Graphics/SVG/1.1/DTD/svg11.dtd">
<svg version="1.1" id="ic" xmlns="http://www.w3.org/2000/svg" xmlns:xlink="http://www.w3.org/1999/xlink" x="0px" y="0px"
	 width="150px" height="150px" viewBox="0 0 150 150" enable-background="new 0 0 150 150" xml:space="preserve">
<g>
	<path d="M115.6,74.5H83.4l-4.6,10.6L68.6,51.8L58.4,74.5H34.2C30,68.2,27,62.6,27,55c0-13.8,11.2-25,25.2-25
		c10.1,0,18.8,6,22.8,14.5C79,36,87.7,30,97.8,30c13.9,0,25.1,11.2,25.2,25C123,62.6,119.9,68.1,115.6,74.5z M86.1,78.4h26.8
		c0,0-14.7,19.4-35.1,38.8c-0.8,0.7-2.8,2.4-2.8,2.4s-2.1-1.6-2.9-2.4C51.6,97.8,37,78.4,37,78.4h23.9l7.4-16.9l10.2,34.3L86.1,78.4
		z"/>
</g>
</svg>
