<?xml version="1.0" encoding="utf-8"?>
<!-- Generator: Adobe Illustrator 19.1.0, SVG Export Plug-In . SVG Version: 6.00 Build 0)  -->
<!DOCTYPE svg PUBLIC "-//W3C//DTD SVG 1.1//EN" "http://www.w3.org/Graphics/SVG/1.1/DTD/svg11.dtd">
<svg version="1.1" id="Layer_2" xmlns="http://www.w3.org/2000/svg" xmlns:xlink="http://www.w3.org/1999/xlink" x="0px" y="0px"
	 width="132px" height="132px" viewBox="0 0 132 132" enable-background="new 0 0 132 132" xml:space="preserve">
<path d="M106.6,65.5H90.5H74.4l-2.3,5.3l-2.3,5.3l-5.1-16.6l-5.1-16.6l-5.1,11.3l-5.1,11.3H37.3H25.2c-2.1-3.2-3.9-6.2-5.2-9.3
	s-2-6.4-2-10.2c0-6.9,2.8-13.1,7.4-17.7c4.5-4.5,10.8-7.3,17.8-7.3c5.1,0,9.7,1.5,13.7,4c3.9,2.6,7.1,6.2,9.1,10.5
	c2-4.3,5.2-7.9,9.2-10.5c4-2.6,8.7-4,13.7-4c6.9,0,13.2,2.8,17.8,7.3c4.6,4.5,7.4,10.8,7.4,17.7c0,3.8-0.8,7.1-2.1,10.2
	C110.6,59.3,108.8,62.3,106.6,65.5z M77.1,69.4h13.4h13.4c0,0-3.7,4.9-9.9,12.1c-6.2,7.3-15,17-25.2,26.7c-0.4,0.4-1.1,1-1.7,1.5
	c-0.6,0.5-1.1,0.9-1.1,0.9s-0.5-0.4-1.1-0.9c-0.6-0.5-1.3-1.1-1.7-1.5c-10.3-9.7-19.1-19.4-25.3-26.7C31.6,74.2,28,69.4,28,69.4
	h11.9h11.9l3.7-8.5l3.7-8.5l5.1,17.1l5.1,17.1l3.9-8.7L77.1,69.4z"/>
</svg>
