<?xml version="1.0" encoding="utf-8"?>
<!-- Generator: Adobe Illustrator 19.1.0, SVG Export Plug-In . SVG Version: 6.00 Build 0)  -->
<!DOCTYPE svg PUBLIC "-//W3C//DTD SVG 1.1//EN" "http://www.w3.org/Graphics/SVG/1.1/DTD/svg11.dtd">
<svg version="1.1" id="ic" xmlns="http://www.w3.org/2000/svg" xmlns:xlink="http://www.w3.org/1999/xlink" x="0px" y="0px"
	 width="150px" height="150px" viewBox="0 0 150 150" enable-background="new 0 0 150 150" xml:space="preserve">
<g>
	<path d="M85.7,78.5c-5,3.9-6.6,5.9-6.6,12.1V97H63.4v-9c0-6.6,1.3-8.6,9.8-16.5c8.3-7.8,11.6-12,11.6-18.3c0-9-8.1-12.9-18.2-12.9
		c-4.7,0-9,0.8-13.6,2.1V28.8c5.9-1,12-1.8,18.1-1.8c16.3,0,33.7,5.2,33.7,24.2C104.9,62.6,97.5,69.3,85.7,78.5z M62,123v-17h19v17
		H62z"/>
</g>
</svg>
