<?xml version="1.0" encoding="utf-8"?>
<!-- Generator: Adobe Illustrator 19.1.0, SVG Export Plug-In . SVG Version: 6.00 Build 0)  -->
<!DOCTYPE svg PUBLIC "-//W3C//DTD SVG 1.1//EN" "http://www.w3.org/Graphics/SVG/1.1/DTD/svg11.dtd">
<svg version="1.1" id="ic" xmlns="http://www.w3.org/2000/svg" xmlns:xlink="http://www.w3.org/1999/xlink" x="0px" y="0px"
	 width="150px" height="150px" viewBox="0 0 150 150" enable-background="new 0 0 150 150" xml:space="preserve">
<g>
	<path d="M74.1,71.5c6.2,0,11.4-2.1,15.8-6.6c4.3-4.3,6.6-9.6,6.6-15.7c0-6.2-2.1-11.5-6.6-15.8c-4.3-4.3-9.6-6.4-15.8-6.4
		c-6.2,0-11.4,2.1-15.7,6.4C54.1,37.7,52,43,52,49.2c0,6.1,2.1,11.4,6.6,15.7C62.8,69.3,68.1,71.5,74.1,71.5"/>
	<path d="M59.8,92.2c0,12.2,4.8,30.8,4.8,30.8H34.4v-9.2c0-5.4,1.3-11.1,3.9-16.7c2.7-5.7,6.3-10.4,10.9-14.3
		c3.8-3.1,7.8-4.9,12-5.5C61.2,77.3,59.8,85,59.8,92.2 M90.2,92.9c0-5.2-1.5-15.6-1.5-15.6l0.3,0.1c2.9,0.4,5.6,1.5,8.3,3.2
		c3.7,2.3,6.8,5.2,9.5,8.7c2.5,3.5,4.7,7.6,6.3,11.9c1.6,4.3,2.4,8.6,2.4,12.6v9.2h-30C89.1,110.9,90.2,101.6,90.2,92.9z M64.6,123
		l7.4-32.7l-7.4-13.2h20.8l-7.5,13.2l7.6,32.7H64.6 M107.1,99h-12v6h12V99z"/>
</g>
</svg>
