<?xml version="1.0" encoding="utf-8"?>
<!-- Generator: Adobe Illustrator 19.1.0, SVG Export Plug-In . SVG Version: 6.00 Build 0)  -->
<!DOCTYPE svg PUBLIC "-//W3C//DTD SVG 1.1//EN" "http://www.w3.org/Graphics/SVG/1.1/DTD/svg11.dtd">
<svg version="1.1" id="Layer_2" xmlns="http://www.w3.org/2000/svg" xmlns:xlink="http://www.w3.org/1999/xlink" x="0px" y="0px"
	 width="150px" height="150px" viewBox="0 0 150 150" enable-background="new 0 0 150 150" xml:space="preserve">
<path d="M74.1,71.5c3.1,0,5.9-0.5,8.6-1.6c2.6-1.1,5-2.7,7.2-5c2.2-2.2,3.8-4.6,4.9-7.2c1.1-2.6,1.7-5.5,1.7-8.5
	c0-3.1-0.5-6-1.6-8.6c-1.1-2.6-2.7-5-5-7.2c-2.2-2.2-4.5-3.8-7.2-4.8C80,27.5,77.2,27,74.1,27c-3.1,0-5.9,0.5-8.6,1.6
	c-2.6,1.1-5,2.7-7.1,4.8c-2.2,2.1-3.7,4.6-4.8,7.2c-1.1,2.6-1.6,5.5-1.6,8.6c0,3,0.5,5.9,1.6,8.5c1.1,2.6,2.7,5,5,7.2
	c2.1,2.2,4.5,3.9,7.1,5C68.2,71,71.1,71.5,74.1,71.5"/>
<path d="M59.8,92.2c0,6.1,1.2,13.8,2.4,20c1.2,6.2,2.4,10.8,2.4,10.8H49.5H34.4v-4.6v-4.6c0-2.7,0.3-5.5,1-8.3
	c0.6-2.8,1.6-5.6,2.9-8.4c1.3-2.8,2.9-5.4,4.7-7.8c1.8-2.4,3.9-4.5,6.2-6.5c1.9-1.5,3.8-2.8,5.8-3.7s4-1.5,6.2-1.8
	c0,0-0.4,1.9-0.7,4.8S59.8,88.6,59.8,92.2 M90.2,92.9c0-2.6-0.4-6.5-0.8-9.8c-0.4-3.3-0.8-5.9-0.8-5.9l0.2,0.1l0.2,0.1
	c1.4,0.2,2.8,0.6,4.2,1.1c1.4,0.5,2.7,1.2,4.1,2.1c1.8,1.2,3.6,2.5,5.1,3.9c1.6,1.4,3,3,4.4,4.8c1.2,1.8,2.4,3.7,3.5,5.7
	s2,4.1,2.8,6.2c0.8,2.1,1.4,4.3,1.8,6.4s0.6,4.2,0.6,6.2v4.6v4.6h-15h-15c1.8-6,2.9-11.4,3.7-16.3S90.2,97.2,90.2,92.9z M64.6,123
	l3.7-16.4l3.7-16.4l-3.7-6.6l-3.7-6.6h10.4h10.4l-3.8,6.6l-3.8,6.6l3.8,16.4l3.8,16.4H75H64.6 M107.1,99h-6h-6v3v3h6h6v-3V99z"/>
</svg>
