<?xml version="1.0" encoding="utf-8"?>
<!-- Generator: Adobe Illustrator 19.1.0, SVG Export Plug-In . SVG Version: 6.00 Build 0)  -->
<!DOCTYPE svg PUBLIC "-//W3C//DTD SVG 1.1//EN" "http://www.w3.org/Graphics/SVG/1.1/DTD/svg11.dtd">
<svg version="1.1" id="ic" xmlns="http://www.w3.org/2000/svg" xmlns:xlink="http://www.w3.org/1999/xlink" x="0px" y="0px"
	 width="150px" height="150px" viewBox="0 0 150 150" enable-background="new 0 0 150 150" xml:space="preserve">
<g>
	<path d="M90.8,89c10.2-5.6,17-16.5,17-28.9C107.8,41.8,93,27,74.8,27c-18.3,0-33.1,14.8-33.1,33.1c0,12.4,6.9,23.3,17,28.9v6.1
		h32.1V89z M58.7,99.2h32.1v4H58.7V99.2z M58.7,107.2h32.1v4H58.7V107.2z"/>
	<path d="M84.6,115.2c-1,4.5-5,7.8-9.8,7.8c-4.8,0-8.8-3.3-9.8-7.8H84.6z"/>
</g>
</svg>
