<?xml version="1.0" encoding="utf-8"?>
<!-- Generator: Adobe Illustrator 19.1.0, SVG Export Plug-In . SVG Version: 6.00 Build 0)  -->
<!DOCTYPE svg PUBLIC "-//W3C//DTD SVG 1.1//EN" "http://www.w3.org/Graphics/SVG/1.1/DTD/svg11.dtd">
<svg version="1.1" id="Layer_2" xmlns="http://www.w3.org/2000/svg" xmlns:xlink="http://www.w3.org/1999/xlink" x="0px" y="0px"
	 width="132px" height="132px" viewBox="0 0 132 132" enable-background="new 0 0 132 132" xml:space="preserve">
<polygon points="49.7,90.2 49.7,92.2 49.7,94.2 65.8,94.2 81.8,94.2 81.8,92.2 81.8,90.2 65.8,90.2 "/>
<polygon points="49.7,98.2 49.7,100.2 49.7,102.2 65.8,102.2 81.8,102.2 81.8,100.2 81.8,98.2 65.8,98.2 "/>
<path d="M89.2,27.7c-6-6-14.3-9.7-23.4-9.7c-9.1,0-17.4,3.7-23.4,9.7c-6,6-9.7,14.3-9.7,23.4c0,6.2,1.7,12,4.7,17
	c3,5,7.2,9.1,12.3,11.9v3.1v3.1h16h16v-3.1V80c5.1-2.8,9.3-6.9,12.3-11.9c3-5,4.7-10.8,4.7-17C98.8,41.9,95.1,33.7,89.2,27.7z"/>
<path d="M56,106.2c0.5,2.2,1.8,4.2,3.5,5.6s3.9,2.2,6.3,2.2c2.4,0,4.6-0.8,6.3-2.2s3-3.3,3.5-5.6h-9.8H56z"/>
</svg>
