<?xml version="1.0" encoding="utf-8"?>
<!-- Generator: Adobe Illustrator 19.1.0, SVG Export Plug-In . SVG Version: 6.00 Build 0)  -->
<!DOCTYPE svg PUBLIC "-//W3C//DTD SVG 1.1//EN" "http://www.w3.org/Graphics/SVG/1.1/DTD/svg11.dtd">
<svg version="1.1" id="ic" xmlns="http://www.w3.org/2000/svg" xmlns:xlink="http://www.w3.org/1999/xlink" x="0px" y="0px"
	 width="150px" height="150px" viewBox="0 0 150 150" enable-background="new 0 0 150 150" xml:space="preserve">
<g>
	<path d="M78.8,33.6V27h-7.5v6.6C46.5,34.8,27,47.6,27,63.2c0,0.2,0,0.3,0,0.5c3.2-1.2,7.1-1.9,11.4-1.9c7.4,0,13.7,2.1,17,5.2
		c3.2-2.6,9-4.5,15.8-5.1v50.1c0,6,4.9,10.9,10.9,10.9c6,0,10.9-4.9,10.9-10.9h-7.5c0,1.9-1.5,3.4-3.4,3.4c-1.9,0-3.4-1.5-3.4-3.4
		V62c6.7,0.5,12.4,2.3,15.6,4.9c3.3-3,9.6-5,16.8-5c4.4,0,8.5,0.8,11.8,2c0-0.2,0-0.4,0-0.6C123,47.6,103.5,34.8,78.8,33.6"/>
</g>
</svg>
