<?xml version="1.0" encoding="utf-8"?>
<!-- Generator: Adobe Illustrator 19.1.0, SVG Export Plug-In . SVG Version: 6.00 Build 0)  -->
<!DOCTYPE svg PUBLIC "-//W3C//DTD SVG 1.1//EN" "http://www.w3.org/Graphics/SVG/1.1/DTD/svg11.dtd">
<svg version="1.1" id="Layer_2" xmlns="http://www.w3.org/2000/svg" xmlns:xlink="http://www.w3.org/1999/xlink" x="0px" y="0px"
	 width="150px" height="150px" viewBox="0 0 150 150" enable-background="new 0 0 150 150" xml:space="preserve">
<path d="M78.8,33.6v-3.3V27H75h-3.8v3.3v3.3c-12.4,0.6-23.4,4.1-31.4,9.4C31.9,48.3,27,55.4,27,63.2l0,0.2l0,0.2
	c1.6-0.6,3.4-1.1,5.3-1.4s4-0.5,6.1-0.5c3.7,0,7.1,0.5,10,1.4c2.9,0.9,5.3,2.2,7,3.8c1.6-1.3,3.8-2.4,6.5-3.3
	c2.7-0.9,5.9-1.5,9.3-1.7V87v25.1c0,3,1.2,5.7,3.2,7.7s4.7,3.2,7.7,3.2c3,0,5.7-1.2,7.7-3.2s3.2-4.7,3.2-7.7h-3.8h-3.8
	c0,0.9-0.4,1.8-1,2.4c-0.6,0.6-1.4,1-2.4,1c-0.9,0-1.8-0.4-2.4-1c-0.6-0.6-1-1.4-1-2.4V87V62c3.4,0.3,6.5,0.8,9.1,1.7
	s4.9,1.9,6.5,3.2c1.6-1.5,4-2.8,6.9-3.6c2.9-0.9,6.3-1.4,9.9-1.4c2.2,0,4.3,0.2,6.3,0.5s3.8,0.9,5.4,1.5c0-0.1,0-0.2,0-0.3
	c0-0.1,0-0.2,0-0.3c0-7.8-4.9-14.9-12.8-20.2S91.1,34.2,78.8,33.6"/>
</svg>
