<?xml version="1.0" encoding="utf-8"?>
<!-- Generator: Adobe Illustrator 19.1.0, SVG Export Plug-In . SVG Version: 6.00 Build 0)  -->
<!DOCTYPE svg PUBLIC "-//W3C//DTD SVG 1.1//EN" "http://www.w3.org/Graphics/SVG/1.1/DTD/svg11.dtd">
<svg version="1.1" id="Layer_2" xmlns="http://www.w3.org/2000/svg" xmlns:xlink="http://www.w3.org/1999/xlink" x="0px" y="0px"
	 width="132px" height="132px" viewBox="0 0 132 132" enable-background="new 0 0 132 132" xml:space="preserve">
<polygon points="29.9,102 29.9,94.5 29.9,86.9 37.9,78.9 45.9,71 55.9,81 66,91 66,91 66,91 66,91 66,91 83.9,73.1 101.9,55.1 
	103.7,56.9 105.4,58.6 109.7,54.4 113.9,50.1 107.9,44.1 101.9,38.1 83.9,56.1 66,74 56,64 45.9,54 37.9,62 29.9,70 29.9,44 
	29.9,18 24,18 18,18 18,66 18,114 66,114 114,114 114,108 114,102 72,102 "/>
</svg>
