<?xml version="1.0" encoding="utf-8"?>
<!-- Generator: Adobe Illustrator 19.1.0, SVG Export Plug-In . SVG Version: 6.00 Build 0)  -->
<!DOCTYPE svg PUBLIC "-//W3C//DTD SVG 1.1//EN" "http://www.w3.org/Graphics/SVG/1.1/DTD/svg11.dtd">
<svg version="1.1" id="Layer_2" xmlns="http://www.w3.org/2000/svg" xmlns:xlink="http://www.w3.org/1999/xlink" x="0px" y="0px"
	 width="150px" height="150px" viewBox="0 0 150 150" enable-background="new 0 0 150 150" xml:space="preserve">
<polygon points="38.9,111 38.9,103.5 38.9,95.9 46.9,87.9 54.9,80 64.9,90 75,100 75,100 75,100 75,100 75,100 92.9,82.1 
	110.9,64.1 112.7,65.9 114.4,67.6 118.7,63.4 122.9,59.1 116.9,53.1 110.9,47.1 92.9,65.1 75,83 65,73 54.9,63 46.9,71 38.9,79 
	38.9,53 38.9,27 33,27 27,27 27,75 27,123 75,123 123,123 123,117 123,111 81,111 "/>
</svg>
