<?xml version="1.0" encoding="utf-8"?>
<!-- Generator: Adobe Illustrator 19.1.0, SVG Export Plug-In . SVG Version: 6.00 Build 0)  -->
<!DOCTYPE svg PUBLIC "-//W3C//DTD SVG 1.1//EN" "http://www.w3.org/Graphics/SVG/1.1/DTD/svg11.dtd">
<svg version="1.1" id="icon" xmlns="http://www.w3.org/2000/svg" xmlns:xlink="http://www.w3.org/1999/xlink" x="0px" y="0px"
	 width="132px" height="132px" viewBox="0 0 132 132" enable-background="new 0 0 132 132" xml:space="preserve">
<g>
	<path d="M18,18v48v48h48h48V66V18H66H18z M41.2,34c2.2,0,3.9,0.8,5.2,2.1c1.2,1.3,1.9,3.1,2,5.1c0,2-0.7,3.8-1.9,5.1
		c-1.2,1.3-3.1,2.1-5.3,2.1h-0.1H41c-2.1,0-3.9-0.8-5.1-2.1C34.7,45,34,43.2,34,41.2c0-2,0.7-3.8,2-5.1C37.2,34.8,39,34,41.2,34z
		 M49.2,96.6H42h-7.2V74.9V53.2H42h7.2v21.7V96.6z M101.9,96.6h-7.1h-7.1V85.2V73.9c0-2.8-0.4-5.2-1.5-6.9c-1.1-1.7-2.8-2.6-5.3-2.6
		c-2,0-3.5,0.7-4.7,1.6c-1.2,1-2.1,2.3-2.6,3.5c-0.2,0.4-0.3,1-0.3,1.6c-0.1,0.6-0.1,1.2-0.1,1.8v11.8v11.8h-7.3h-7.3
		c0,0,0.1-9.9,0.1-20.3c0-10.4,0-21.3-0.1-23.2h7.3h7.3v3v3c0.9-1.4,2.2-3.2,4.3-4.6c2-1.4,4.8-2.4,8.5-2.4c4.7,0,8.6,1.8,11.4,5.2
		c2.8,3.4,4.5,8.5,4.5,15v12.1V96.6z"/>
</g>
</svg>
