<?xml version="1.0" encoding="utf-8"?>
<!-- Generator: Adobe Illustrator 19.1.0, SVG Export Plug-In . SVG Version: 6.00 Build 0)  -->
<!DOCTYPE svg PUBLIC "-//W3C//DTD SVG 1.1//EN" "http://www.w3.org/Graphics/SVG/1.1/DTD/svg11.dtd">
<svg version="1.1" id="icon" xmlns="http://www.w3.org/2000/svg" xmlns:xlink="http://www.w3.org/1999/xlink" x="0px" y="0px"
	 width="150px" height="150px" viewBox="0 0 150 150" enable-background="new 0 0 150 150" xml:space="preserve">
<g>
	<path d="M27,27v48v48h48h48V75V27H75H27z M50.2,43c2.2,0,3.9,0.8,5.2,2.1c1.2,1.3,1.9,3.1,2,5.1c0,2-0.7,3.8-1.9,5.1
		c-1.2,1.3-3.1,2.1-5.3,2.1h-0.1H50c-2.1,0-3.9-0.8-5.1-2.1C43.7,54,43,52.2,43,50.2c0-2,0.7-3.8,2-5.1C46.2,43.8,48,43,50.2,43z
		 M58.2,105.6H51h-7.2V83.9V62.2H51h7.2v21.7V105.6z M110.9,105.6h-7.1h-7.1V94.2V82.9c0-2.8-0.4-5.2-1.5-6.9
		c-1.1-1.7-2.8-2.6-5.3-2.6c-2,0-3.5,0.7-4.7,1.6c-1.2,1-2.1,2.3-2.6,3.5c-0.2,0.4-0.3,1-0.3,1.6c-0.1,0.6-0.1,1.2-0.1,1.8v11.8
		v11.8h-7.3h-7.3c0,0,0.1-9.9,0.1-20.3c0-10.4,0-21.3-0.1-23.2h7.3h7.3v3v3c0.9-1.4,2.2-3.2,4.3-4.6c2-1.4,4.8-2.4,8.5-2.4
		c4.7,0,8.6,1.8,11.4,5.2c2.8,3.4,4.5,8.5,4.5,15v12.1V105.6z"/>
</g>
</svg>
