<?xml version="1.0" encoding="utf-8"?>
<!-- Generator: Adobe Illustrator 19.1.0, SVG Export Plug-In . SVG Version: 6.00 Build 0)  -->
<!DOCTYPE svg PUBLIC "-//W3C//DTD SVG 1.1//EN" "http://www.w3.org/Graphics/SVG/1.1/DTD/svg11.dtd">
<svg version="1.1" id="Layer_2" xmlns="http://www.w3.org/2000/svg" xmlns:xlink="http://www.w3.org/1999/xlink" x="0px" y="0px"
	 width="150px" height="150px" viewBox="0 0 150 150" enable-background="new 0 0 150 150" xml:space="preserve">
<polygon points="73.1,93.3 63.8,102.7 54.5,112.1 46.2,103.8 37.9,95.5 47.3,86.2 56.7,76.9 58,78.3 59.4,79.7 62.1,76.9 64.8,74.1 
	60.7,70.1 56.7,66 41.8,80.8 27,95.5 40.7,109.3 54.5,123 69.2,108.2 84,93.3 79.9,89.3 75.9,85.2 73.1,87.9 70.3,90.6 71.7,92 "/>
<polygon points="76.9,56.7 86.2,47.3 95.5,37.9 103.8,46.2 112.1,54.5 102.7,63.8 93.3,73.1 92,71.7 90.6,70.3 87.9,73.1 85.2,75.9 
	89.3,79.9 93.3,84 108.2,69.2 123,54.5 109.3,40.7 95.5,27 80.8,41.8 66,56.7 70.1,60.7 74.1,64.8 76.9,62.1 79.7,59.4 78.3,58 "/>
<polygon points="60.7,94.9 57.9,92.1 55.2,89.4 72.3,72.3 89.5,55.1 92.2,57.9 95,60.6 77.8,77.7 "/>
</svg>
