<?xml version="1.0" encoding="utf-8"?>
<!-- Generator: Adobe Illustrator 19.1.0, SVG Export Plug-In . SVG Version: 6.00 Build 0)  -->
<!DOCTYPE svg PUBLIC "-//W3C//DTD SVG 1.1//EN" "http://www.w3.org/Graphics/SVG/1.1/DTD/svg11.dtd">
<svg version="1.1" id="Layer_2" xmlns="http://www.w3.org/2000/svg" xmlns:xlink="http://www.w3.org/1999/xlink" x="0px" y="0px"
	 width="132px" height="132px" viewBox="0 0 132 132" enable-background="new 0 0 132 132" xml:space="preserve">
<polygon points="64.1,84.3 54.8,93.7 45.5,103.1 37.2,94.8 28.9,86.5 38.3,77.2 47.7,67.9 49,69.3 50.4,70.7 53.1,67.9 55.8,65.1 
	51.7,61.1 47.7,57 32.8,71.8 18,86.5 31.7,100.3 45.5,114 60.2,99.2 75,84.3 70.9,80.3 66.9,76.2 64.1,78.9 61.3,81.6 62.7,83 "/>
<polygon points="67.9,47.7 77.2,38.3 86.5,28.9 94.8,37.2 103.1,45.5 93.7,54.8 84.3,64.1 83,62.7 81.6,61.3 78.9,64.1 76.2,66.9 
	80.3,70.9 84.3,75 99.2,60.2 114,45.5 100.3,31.7 86.5,18 71.8,32.8 57,47.7 61.1,51.7 65.1,55.8 67.9,53.1 70.7,50.4 69.3,49 "/>
<polygon points="51.7,85.9 48.9,83.1 46.2,80.4 63.3,63.3 80.5,46.1 83.2,48.9 86,51.6 68.8,68.7 "/>
</svg>
