<?xml version="1.0" encoding="utf-8"?>
<!-- Generator: Adobe Illustrator 19.1.0, SVG Export Plug-In . SVG Version: 6.00 Build 0)  -->
<!DOCTYPE svg PUBLIC "-//W3C//DTD SVG 1.1//EN" "http://www.w3.org/Graphics/SVG/1.1/DTD/svg11.dtd">
<svg version="1.1" id="icon" xmlns="http://www.w3.org/2000/svg" xmlns:xlink="http://www.w3.org/1999/xlink" x="0px" y="0px"
	 width="132px" height="132px" viewBox="0 0 132 132" enable-background="new 0 0 132 132" xml:space="preserve">
<g>
	<path d="M34.4,29.6c2.5,0,4.6,0.9,6,2.4c1.4,1.5,2.2,3.6,2.3,5.9c0,2.3-0.8,4.4-2.2,5.9s-3.5,2.4-6.1,2.4h-0.1h-0.1
		c-2.5,0-4.5-1-5.9-2.5S26,40.3,26,38c0-2.3,0.8-4.4,2.3-5.9S31.8,29.6,34.4,29.6z M43.6,102h-8.4h-8.4V76.9V51.8h8.4h8.4v25.1
		L43.6,102L43.6,102L43.6,102z M104.6,102h-8.2h-8.2V88.9V75.8c0-3.3-0.5-6.1-1.7-8s-3.2-3-6.2-3c-2.3,0-4.1,0.8-5.5,1.9
		s-2.4,2.6-3,4.1c-0.2,0.5-0.3,1.1-0.4,1.8c-0.1,0.7-0.1,1.4-0.1,2.1v13.7V102h-8.4h-8.4c0,0,0.1-11.4,0.1-23.4
		c0-12,0-24.6-0.1-26.9h8.5h8.5v3.5v3.5c1.1-1.6,2.6-3.7,4.9-5.3c2.3-1.6,5.5-2.8,9.9-2.8c5.4,0,10,2.1,13.2,6.1
		c3.2,4,5.1,9.8,5.1,17.4v14L104.6,102L104.6,102L104.6,102z"/>
</g>
</svg>
