<?xml version="1.0" encoding="utf-8"?>
<!-- Generator: Adobe Illustrator 19.1.0, SVG Export Plug-In . SVG Version: 6.00 Build 0)  -->
<!DOCTYPE svg PUBLIC "-//W3C//DTD SVG 1.1//EN" "http://www.w3.org/Graphics/SVG/1.1/DTD/svg11.dtd">
<svg version="1.1" id="ic" xmlns="http://www.w3.org/2000/svg" xmlns:xlink="http://www.w3.org/1999/xlink" x="0px" y="0px"
	 width="150px" height="150px" viewBox="0 0 150 150" enable-background="new 0 0 150 150" xml:space="preserve">
<g>
	<polygon points="73.1,93.3 54.5,112.1 37.9,95.5 56.7,76.9 59.4,79.7 64.8,74.1 56.7,66 27,95.5 54.5,123 84,93.3 75.9,85.2 
		70.3,90.6 	"/>
	<polygon points="76.9,56.7 95.5,37.9 112.1,54.5 93.3,73.1 90.6,70.3 85.2,75.9 93.3,84 123,54.5 95.5,27 66,56.7 74.1,64.8 
		79.7,59.4 	"/>
	<rect x="71.2" y="50.8" transform="matrix(0.7071 0.7071 -0.7071 0.7071 75.021 -31.1143)" width="7.8" height="48.5"/>
</g>
</svg>
