<?xml version="1.0" encoding="utf-8"?>
<!-- Generator: Adobe Illustrator 19.1.0, SVG Export Plug-In . SVG Version: 6.00 Build 0)  -->
<!DOCTYPE svg PUBLIC "-//W3C//DTD SVG 1.1//EN" "http://www.w3.org/Graphics/SVG/1.1/DTD/svg11.dtd">
<svg version="1.1" id="Layer_2" xmlns="http://www.w3.org/2000/svg" xmlns:xlink="http://www.w3.org/1999/xlink" x="0px" y="0px"
	 width="150px" height="150px" viewBox="0 0 150 150" enable-background="new 0 0 150 150" xml:space="preserve">
<polygon points="47,33 85,33 123,33 123,39 123,45 85,45 47,45 47,39 "/>
<polygon points="47,57 85,57 123,57 123,63 123,69 85,69 47,69 47,63 "/>
<polygon points="47,81 85,81 123,81 123,87 123,93 85,93 47,93 47,87 "/>
<polygon points="47,105 85,105 123,105 123,111 123,117 85,117 47,117 47,111 "/>
<path d="M33,33c1.7,0,3.2,0.7,4.2,1.8S39,37.4,39,39s-0.7,3.2-1.8,4.2C36.2,44.3,34.7,45,33,45s-3.2-0.7-4.2-1.8
	C27.7,42.2,27,40.7,27,39s0.7-3.2,1.8-4.2S31.4,33,33,33z"/>
<path d="M33,57c1.7,0,3.2,0.7,4.2,1.8c1.1,1.1,1.8,2.6,1.8,4.2s-0.7,3.2-1.8,4.2C36.2,68.3,34.7,69,33,69s-3.2-0.7-4.2-1.8
	C27.7,66.2,27,64.7,27,63s0.7-3.2,1.8-4.2C29.9,57.7,31.4,57,33,57z"/>
<path d="M33,81c1.7,0,3.2,0.7,4.2,1.8S39,85.3,39,87s-0.7,3.2-1.8,4.2S34.7,93,33,93s-3.2-0.7-4.2-1.8S27,88.7,27,87
	s0.7-3.2,1.8-4.2S31.4,81,33,81z"/>
<path d="M33,105c1.7,0,3.2,0.7,4.2,1.8s1.8,2.6,1.8,4.2c0,1.7-0.7,3.2-1.8,4.2S34.7,117,33,117s-3.2-0.7-4.2-1.8S27,112.7,27,111
	c0-1.7,0.7-3.2,1.8-4.2S31.4,105,33,105z"/>
</svg>
