<?xml version="1.0" encoding="utf-8"?>
<!-- Generator: Adobe Illustrator 19.1.0, SVG Export Plug-In . SVG Version: 6.00 Build 0)  -->
<!DOCTYPE svg PUBLIC "-//W3C//DTD SVG 1.1//EN" "http://www.w3.org/Graphics/SVG/1.1/DTD/svg11.dtd">
<svg version="1.1" id="Layer_2" xmlns="http://www.w3.org/2000/svg" xmlns:xlink="http://www.w3.org/1999/xlink" x="0px" y="0px"
	 width="132px" height="132px" viewBox="0 0 132 132" enable-background="new 0 0 132 132" xml:space="preserve">
<path d="M97.7,49.1c0,2.3-0.3,4.5-0.8,6.7c-0.5,2.1-1.2,4.2-2,6.2v0v0c-0.3,0.7-0.6,1.3-1,1.9c-0.4,0.6-0.7,1.2-1.1,1.9L79.4,89.9
	L66,114L52.7,89.9L39.3,65.9c-0.4-0.6-0.7-1.3-1.1-1.9c-0.3-0.6-0.7-1.3-1-1.9v0v0c-1-2-1.7-4-2.2-6.2c-0.5-2.2-0.8-4.4-0.8-6.7
	c0-8.6,3.5-16.4,9.3-22C49.3,21.5,57.3,18,66,18c8.7,0,16.6,3.5,22.4,9.1C94.1,32.8,97.7,40.5,97.7,49.1z M79.2,49.1
	c0-3.6-1.5-6.8-3.8-9.1c-2.4-2.3-5.7-3.7-9.3-3.7c-3.6,0-6.9,1.4-9.3,3.7s-3.8,5.5-3.8,9.1c0,3.6,1.5,6.8,3.8,9.1
	c2.4,2.3,5.7,3.8,9.3,3.8c3.6,0,6.9-1.4,9.3-3.8C77.7,55.9,79.2,52.7,79.2,49.1z"/>
</svg>
