<?xml version="1.0" encoding="utf-8"?>
<!-- Generator: Adobe Illustrator 19.1.0, SVG Export Plug-In . SVG Version: 6.00 Build 0)  -->
<!DOCTYPE svg PUBLIC "-//W3C//DTD SVG 1.1//EN" "http://www.w3.org/Graphics/SVG/1.1/DTD/svg11.dtd">
<svg version="1.1" id="ic" xmlns="http://www.w3.org/2000/svg" xmlns:xlink="http://www.w3.org/1999/xlink" x="0px" y="0px"
	 width="150px" height="150px" viewBox="0 0 150 150" enable-background="new 0 0 150 150" xml:space="preserve">
<g>
	<path d="M106.7,58.1c0,4.6-1.3,8.8-2.9,12.9v0.1c-0.6,1.4-1.4,2.5-2.1,3.8L75,123L48.3,74.9c-0.7-1.3-1.4-2.6-2.1-3.8V71
		c-1.9-3.9-2.9-8.2-2.9-12.9C43.3,40.9,57.5,27,75,27C92.5,27,106.7,40.9,106.7,58.1z M88.2,58.1c0-7.2-5.9-12.9-13.2-12.9
		c-7.3,0-13.2,5.7-13.2,12.9C61.9,65.3,67.7,71,75,71C82.3,71,88.2,65.3,88.2,58.1z"/>
</g>
</svg>
