<?xml version="1.0" encoding="utf-8"?>
<!-- Generator: Adobe Illustrator 19.1.0, SVG Export Plug-In . SVG Version: 6.00 Build 0)  -->
<!DOCTYPE svg PUBLIC "-//W3C//DTD SVG 1.1//EN" "http://www.w3.org/Graphics/SVG/1.1/DTD/svg11.dtd">
<svg version="1.1" id="icon" xmlns="http://www.w3.org/2000/svg" xmlns:xlink="http://www.w3.org/1999/xlink" x="0px" y="0px"
	 width="132px" height="132px" viewBox="0 0 132 132" enable-background="new 0 0 132 132" xml:space="preserve">
<g>
	<polygon points="96,18 96,66 96,114 105,114 114,114 114,66 114,18 105,18 	"/>
	<polygon points="70,114 79,114 88,114 88,84 88,54 79,54 70,54 70,84 	"/>
	<polygon points="44,114 53,114 62,114 62,100 62,86 53,86 44,86 44,100 	"/>
	<polygon points="18,114 27,114 36,114 36,92 36,70 27,70 18,70 18,92 	"/>
</g>
</svg>
