<?xml version="1.0" encoding="utf-8"?>
<!-- Generator: Adobe Illustrator 19.1.0, SVG Export Plug-In . SVG Version: 6.00 Build 0)  -->
<!DOCTYPE svg PUBLIC "-//W3C//DTD SVG 1.1//EN" "http://www.w3.org/Graphics/SVG/1.1/DTD/svg11.dtd">
<svg version="1.1" id="Layer_2" xmlns="http://www.w3.org/2000/svg" xmlns:xlink="http://www.w3.org/1999/xlink" x="0px" y="0px"
	 width="150px" height="150px" viewBox="0 0 150 150" enable-background="new 0 0 150 150" xml:space="preserve">
<path d="M92.3,27H76H59.7c-2.1,0-4.1,0.9-5.5,2.3S52,32.6,52,34.7V75v40.3c0,2.1,0.8,4.1,2.2,5.5c1.4,1.4,3.3,2.2,5.5,2.2H76h16.3
	c2.1,0,4-0.9,5.4-2.3c1.4-1.4,2.3-3.3,2.3-5.4V75V34.7c0-2.1-0.8-4-2.2-5.4S94.4,27,92.3,27z M68.8,35H76h7.2v2v2H76h-7.2v-2V35z
	 M92,107H76H60V75V43h16h16v32V107z"/>
</svg>
