<?xml version="1.0" encoding="utf-8"?>
<!-- Generator: Adobe Illustrator 19.1.0, SVG Export Plug-In . SVG Version: 6.00 Build 0)  -->
<!DOCTYPE svg PUBLIC "-//W3C//DTD SVG 1.1//EN" "http://www.w3.org/Graphics/SVG/1.1/DTD/svg11.dtd">
<svg version="1.1" id="icon" xmlns="http://www.w3.org/2000/svg" xmlns:xlink="http://www.w3.org/1999/xlink" x="0px" y="0px"
	 width="132px" height="132px" viewBox="0 0 132 132" enable-background="new 0 0 132 132" xml:space="preserve">
<g>
	<path d="M58,106c0-2.2,0.9-4.2,2.3-5.7S63.8,98,66,98s4.2,0.9,5.7,2.3s2.3,3.4,2.3,5.7s-0.9,4.2-2.3,5.7S68.2,114,66,114
		s-4.2-0.9-5.7-2.3S58,108.2,58,106z"/>
	<path d="M58,66c0-2.2,0.9-4.2,2.3-5.7S63.8,58,66,58s4.2,0.9,5.7,2.3S74,63.8,74,66s-0.9,4.2-2.3,5.7S68.2,74,66,74
		s-4.2-0.9-5.7-2.3S58,68.2,58,66z"/>
	<path d="M58,26c0-2.2,0.9-4.2,2.3-5.7S63.8,18,66,18s4.2,0.9,5.7,2.3S74,23.8,74,26s-0.9,4.2-2.3,5.7S68.2,34,66,34
		s-4.2-0.9-5.7-2.3S58,28.2,58,26z"/>
</g>
</svg>
