<?xml version="1.0" encoding="utf-8"?>
<!-- Generator: Adobe Illustrator 19.1.0, SVG Export Plug-In . SVG Version: 6.00 Build 0)  -->
<!DOCTYPE svg PUBLIC "-//W3C//DTD SVG 1.1//EN" "http://www.w3.org/Graphics/SVG/1.1/DTD/svg11.dtd">
<svg version="1.1" id="Layer_2" xmlns="http://www.w3.org/2000/svg" xmlns:xlink="http://www.w3.org/1999/xlink" x="0px" y="0px"
	 width="132px" height="132px" viewBox="0 0 132 132" enable-background="new 0 0 132 132" xml:space="preserve">
<path d="M26,58c2.2,0,4.2,0.9,5.7,2.3c1.4,1.4,2.3,3.4,2.3,5.7s-0.9,4.2-2.3,5.7C30.2,73.1,28.2,74,26,74s-4.2-0.9-5.7-2.3
	C18.9,70.2,18,68.2,18,66s0.9-4.2,2.3-5.7C21.8,58.9,23.8,58,26,58z"/>
<path d="M66,58c2.2,0,4.2,0.9,5.7,2.3c1.4,1.4,2.3,3.4,2.3,5.7s-0.9,4.2-2.3,5.7C70.2,73.1,68.2,74,66,74c-2.2,0-4.2-0.9-5.7-2.3
	C58.9,70.2,58,68.2,58,66s0.9-4.2,2.3-5.7C61.8,58.9,63.8,58,66,58z"/>
<path d="M106,58c2.2,0,4.2,0.9,5.7,2.3c1.4,1.4,2.3,3.4,2.3,5.7s-0.9,4.2-2.3,5.7c-1.4,1.4-3.4,2.3-5.7,2.3s-4.2-0.9-5.7-2.3
	C98.9,70.2,98,68.2,98,66s0.9-4.2,2.3-5.7C101.8,58.9,103.8,58,106,58z"/>
</svg>
