<?xml version="1.0" encoding="utf-8"?>
<!-- Generator: Adobe Illustrator 19.1.0, SVG Export Plug-In . SVG Version: 6.00 Build 0)  -->
<!DOCTYPE svg PUBLIC "-//W3C//DTD SVG 1.1//EN" "http://www.w3.org/Graphics/SVG/1.1/DTD/svg11.dtd">
<svg version="1.1" id="Layer_2" xmlns="http://www.w3.org/2000/svg" xmlns:xlink="http://www.w3.org/1999/xlink" x="0px" y="0px"
	 width="132px" height="132px" viewBox="0 0 132 132" enable-background="new 0 0 132 132" xml:space="preserve">
<path d="M46.1,73.6h9.6c3.7,0,7.5-0.3,11.3,0.1c9.5,0.9,16.6,8.8,20.5,16.8c2.4,4.8,3.9,9.9,3.9,15.3v4.1v4.1H55.7H20v-4.1
	c0-1.4,0-2.7,0-4.1c0-3.8,0.7-7.6,2-11.2c2.4-6.7,6.7-13.2,12.7-17.3C38.1,75.1,42,73.6,46.1,73.6z"/>
<path d="M55,68.7c8.1,0,15.7-5.2,18.5-12.9c2.9-7.8,0.4-16.6-6-21.9c-6.2-5.2-15.7-5.9-22.7-1.6c-7.1,4.3-10.5,12.6-9,20.7
	C37.6,62,45.9,68.7,55,68.7z"/>
<path d="M112,94.9c0-7.6-3.1-15.1-7.4-21.3c-4.2-6-11.1-10.9-18.7-10.9h-5.2c-0.7,0-1.4,0-2,0c-0.9,0-2.1-0.2-2.9,0
	c-0.5,0.1-0.5,0.4-0.9,0.9c-0.6,0.8-1.3,1.6-2,2.3c-1.5,1.5-3.2,2.8-5,4H68c6.1,0,11.6,2.9,16,6.9c4.6,4.3,7.7,9.7,10,15.5
	c1.3,3.4,2.1,7.1,2.2,10.7h7.9h7.9V99V94.9z"/>
<path d="M79.7,49.2c0,2.8-0.5,5.7-1.5,8.3c5-0.7,9.6-3.4,12.7-7.3c3.1-3.9,4.5-8.9,4.1-13.9c-0.4-5.1-2.8-9.5-6.6-12.9
	c-3.8-3.4-8.7-5-13.8-4.8c-2.8,0.1-5.5,0.7-8,1.9c-2.6,1.3-4.4,3.1-6.4,5.1c5.6,1,10.3,4.1,14,8.3C78,38.2,79.7,43.6,79.7,49.2z"/>
</svg>
