<?xml version="1.0" encoding="utf-8"?>
<!-- Generator: Adobe Illustrator 19.1.0, SVG Export Plug-In . SVG Version: 6.00 Build 0)  -->
<!DOCTYPE svg PUBLIC "-//W3C//DTD SVG 1.1//EN" "http://www.w3.org/Graphics/SVG/1.1/DTD/svg11.dtd">
<svg version="1.1" id="icon" xmlns="http://www.w3.org/2000/svg" xmlns:xlink="http://www.w3.org/1999/xlink" x="0px" y="0px"
	 width="150px" height="150px" viewBox="0 0 150 150" enable-background="new 0 0 150 150" xml:space="preserve">
<g>
	<path d="M29,109c0,0.8,0.3,1.6,0.9,2.1c0.5,0.5,1.3,0.9,2.1,0.9h33h33c0.8,0,1.6-0.3,2.1-0.9c0.5-0.5,0.9-1.3,0.9-2.1V85V61
		c0-0.8-0.3-1.6-0.9-2.1C99.6,58.3,98.8,58,98,58H65H32c-0.8,0-1.6,0.3-2.1,0.9C29.3,59.4,29,60.2,29,61 M35,65.5
		c0-0.4,0.2-0.8,0.4-1.1c0.3-0.3,0.6-0.4,1.1-0.4H65h28.5c0.4,0,0.8,0.2,1.1,0.4c0.3,0.3,0.4,0.6,0.4,1.1v2.3v2.3H65H35l0-2.3V65.5z
		 M93.5,106H65H36.5c-0.4,0-0.8-0.2-1.1-0.4c-0.3-0.3-0.4-0.6-0.4-1.1V93.3V82.1h30h30v11.2v11.2c0,0.4-0.2,0.8-0.4,1.1
		C94.3,105.8,93.9,106,93.5,106z"/>
	<path d="M108,48H75H42c-0.8,0-1.6,0.3-2.1,0.9C39.3,49.4,39,50.2,39,51v1.5V54h31.5H102c0.8,0,1.6,0.3,2.1,0.9
		c0.5,0.5,0.9,1.3,0.9,2.1v22.5V102h1.5h1.5c0.8,0,1.6-0.3,2.1-0.9c0.5-0.5,0.9-1.3,0.9-2.1V75V51c0-0.8-0.3-1.6-0.9-2.1
		C109.6,48.3,108.8,48,108,48z"/>
	<path d="M118,38H85H52c-0.8,0-1.6,0.3-2.1,0.9C49.3,39.4,49,40.2,49,41v1.5V44h31.5H112c0.8,0,1.6,0.3,2.1,0.9
		c0.5,0.5,0.9,1.3,0.9,2.1v22.5V92h1.5h1.5c0.8,0,1.6-0.3,2.1-0.9c0.5-0.5,0.9-1.3,0.9-2.1V65V41c0-0.8-0.3-1.6-0.9-2.1
		C119.6,38.3,118.8,38,118,38z"/>
</g>
</svg>
