<?xml version="1.0" encoding="utf-8"?>
<!-- Generator: Adobe Illustrator 19.1.0, SVG Export Plug-In . SVG Version: 6.00 Build 0)  -->
<!DOCTYPE svg PUBLIC "-//W3C//DTD SVG 1.1//EN" "http://www.w3.org/Graphics/SVG/1.1/DTD/svg11.dtd">
<svg version="1.1" id="icon" xmlns="http://www.w3.org/2000/svg" xmlns:xlink="http://www.w3.org/1999/xlink" x="0px" y="0px"
	 width="132px" height="132px" viewBox="0 0 132 132" enable-background="new 0 0 132 132" xml:space="preserve">
<g>
	<path d="M20,100c0,0.8,0.3,1.6,0.9,2.1c0.5,0.5,1.3,0.9,2.1,0.9h33h33c0.8,0,1.6-0.3,2.1-0.9c0.5-0.5,0.9-1.3,0.9-2.1V76V52
		c0-0.8-0.3-1.6-0.9-2.1C90.6,49.3,89.8,49,89,49H56H23c-0.8,0-1.6,0.3-2.1,0.9C20.3,50.4,20,51.2,20,52 M26,56.5
		c0-0.4,0.2-0.8,0.4-1.1c0.3-0.3,0.6-0.4,1.1-0.4H56h28.5c0.4,0,0.8,0.2,1.1,0.4c0.3,0.3,0.4,0.6,0.4,1.1v2.3v2.3H56H26l0-2.3V56.5z
		 M84.5,97H56H27.5c-0.4,0-0.8-0.2-1.1-0.4c-0.3-0.3-0.4-0.6-0.4-1.1V84.3V73.1h30h30v11.2v11.2c0,0.4-0.2,0.8-0.4,1.1
		C85.3,96.8,84.9,97,84.5,97z"/>
	<path d="M99,39H66H33c-0.8,0-1.6,0.3-2.1,0.9C30.3,40.4,30,41.2,30,42v1.5V45h31.5H93c0.8,0,1.6,0.3,2.1,0.9
		c0.5,0.5,0.9,1.3,0.9,2.1v22.5V93h1.5H99c0.8,0,1.6-0.3,2.1-0.9c0.5-0.5,0.9-1.3,0.9-2.1V66V42c0-0.8-0.3-1.6-0.9-2.1
		C100.6,39.3,99.8,39,99,39z"/>
	<path d="M109,29H76H43c-0.8,0-1.6,0.3-2.1,0.9C40.3,30.4,40,31.2,40,32v1.5V35h31.5H103c0.8,0,1.6,0.3,2.1,0.9
		c0.5,0.5,0.9,1.3,0.9,2.1v22.5V83h1.5h1.5c0.8,0,1.6-0.3,2.1-0.9c0.5-0.5,0.9-1.3,0.9-2.1V56V32c0-0.8-0.3-1.6-0.9-2.1
		C110.6,29.3,109.8,29,109,29z"/>
</g>
</svg>
