<?xml version="1.0" encoding="utf-8"?>
<!-- Generator: Adobe Illustrator 19.1.0, SVG Export Plug-In . SVG Version: 6.00 Build 0)  -->
<svg version="1.1" id="Icons_3_" xmlns="http://www.w3.org/2000/svg" xmlns:xlink="http://www.w3.org/1999/xlink" x="0px" y="0px"
	 viewBox="0 0 150 150" enable-background="new 0 0 150 150" xml:space="preserve">
<g id="Savings">
</g>
<g id="Savings_goals">
</g>
<g id="Save">
</g>
<g id="Report">
</g>
<g id="Reply">
</g>
<g id="Renew">
</g>
<g id="Refresh">
</g>
<g id="Rates">
</g>
<g id="Quote_open">
</g>
<g id="Quote_Close">
</g>
<g id="Print">
</g>
<g id="Presentation">
</g>
<g id="Portfolio">
</g>
<g id="Pop_Up_Window">
</g>
<g id="Play">
</g>
<g id="Pin">
</g>
<g id="Phone">
</g>
<g id="PDF">
</g>
<g id="Pay">
</g>
<g id="Rewards">
</g>
<g id="New_Window">
</g>
<g id="Multiple_Users">
	<path d="M55.1,82.6h19.2c3.5,0,6.9,1,10.1,3c3.2,2,6,4.6,8.3,7.6c2.2,3.1,4.1,6.7,5.6,10.4c1.5,3.8,2.1,7.6,2.1,11.1v8.1H29v-8.1
		c0-4.8,1.1-9.7,3.5-14.7c2.3-5,5.6-9.1,9.5-12.5C46.2,84.3,50.5,82.6,55.1,82.6z"/>
	<path d="M64,77.7c5.5,0,10-1.9,13.9-5.8c3.8-3.8,5.8-8.4,5.8-13.8c0-5.5-1.9-10.1-5.8-13.9c-3.8-3.8-8.4-5.7-13.9-5.7
		c-5.5,0-10,1.9-13.8,5.7s-5.7,8.4-5.7,13.9c0,5.4,1.9,10,5.8,13.8C53.9,75.8,58.6,77.7,64,77.7z"/>
	<path d="M121,103.9c0-3.6-0.7-7.4-2.1-11.1c-1.5-3.8-3.4-7.4-5.6-10.4c-2.3-3.1-5.1-5.7-8.3-7.7c-3.2-2-6.7-3-10.1-3H84.4
		c-0.8,1.2-1.7,2.3-2.8,3.3c-1.5,1.5-3.2,2.8-4.9,3.9h0.4c3.7,0,7.4,1.1,10.8,3.2c3.5,2.1,6.4,4.9,8.9,8.1c2.4,3.3,4.4,7.2,6,11.1
		c1.4,3.6,2.1,7.3,2.2,10.7H121V103.9L121,103.9z"/>
	<path d="M88.7,58.2c0,3-0.5,5.8-1.5,8.3c4.3-0.6,7.8-2.4,11.1-5.6c3.8-3.8,5.8-8.4,5.8-13.8c0-5.5-1.9-10.1-5.8-13.9
		c-3.8-3.8-8.4-5.7-13.9-5.7s-10,1.9-13.8,5.7c-0.5,0.5-0.9,1-1.3,1.4c4.7,0.8,8.8,3,12.3,6.6C86.4,45.8,88.7,51.5,88.7,58.2z"/>
</g>
<g id="Articles">
</g>
<g id="More">
</g>
<g id="Mobile">
</g>
<g id="Messages">
</g>
<g id="Menu">
</g>
<g id="Memo">
</g>
<g id="Security_Lock">
</g>
<g id="Location">
</g>
<g id="List">
</g>
<g id="Link">
</g>
<g id="Investment">
</g>
<g id="Intranet">
</g>
<g id="Insurance">
</g>
<g id="Home">
</g>
<g id="Help">
</g>
<g id="Health">
</g>
<g id="Grid_view">
</g>
<g id="Global">
</g>
<g id="Filter">
</g>
<g id="Favourite">
</g>
<g id="Export">
</g>
<g id="Expand">
</g>
<g id="Education">
</g>
<g id="Edit">
</g>
<g id="Download">
</g>
<g id="Dollar_Bill">
</g>
<g id="Document">
</g>
<g id="Do_Not_View">
</g>
<g id="Dining">
</g>
<g id="Devices">
</g>
<g id="Desktop_Computer">
</g>
<g id="Bin">
</g>
<g id="Dashboard">
</g>
<g id="Copy">
</g>
<g id="Contactless_Payment">
</g>
<g id="Confidential">
</g>
<g id="Compose">
</g>
<g id="Column_View">
</g>
<g id="Collapse">
</g>
<g id="Client_Upload">
</g>
<g id="Client_Download">
</g>
<g id="Circle_Warning">
</g>
<g id="Circle_Error_Solid">
</g>
<g id="Circle_Info">
</g>
<g id="Circle_Fill_Information">
</g>
<g id="Circle_Help">
</g>
<g id="Circle_Help_Solid">
</g>
<g id="Circle_Delete">
</g>
<g id="Circle_Delete_Solid">
</g>
<g id="Circle_Confirmation">
</g>
<g id="Circle_Confirmation_Solid">
</g>
<g id="Chevron_Up">
</g>
<g id="Chevron_Right">
</g>
<g id="Chevron_Right_Small">
</g>
<g id="Chevron_Left">
</g>
<g id="Chevron_Down">
</g>
<g id="Chevron_Double_Right">
</g>
<g id="Chevron_Double_Left">
</g>
<g id="Chat">
</g>
<g id="Pie_Chart">
</g>
<g id="Delete">
</g>
<g id="Calendar">
</g>
<g id="Corporate">
</g>
<g id="Barcode">
</g>
<g id="Banking">
</g>
<g id="Back">
</g>
<g id="Attachment">
</g>
<g id="In_Branch">
</g>
<g id="Assets">
</g>
<g id="Newspaper">
</g>
<g id="Anchor_Up">
</g>
<g id="Anchor_down">
</g>
<g id="Insight">
</g>
<g id="Alert">
</g>
<g id="Agree">
</g>
<g id="Add">
</g>
<g id="Accounts">
</g>
</svg>
