<?xml version="1.0" encoding="utf-8"?>
<!-- Generator: Adobe Illustrator 19.1.0, SVG Export Plug-In . SVG Version: 6.00 Build 0)  -->
<!DOCTYPE svg PUBLIC "-//W3C//DTD SVG 1.1//EN" "http://www.w3.org/Graphics/SVG/1.1/DTD/svg11.dtd">
<svg version="1.1" id="Layer_2" xmlns="http://www.w3.org/2000/svg" xmlns:xlink="http://www.w3.org/1999/xlink" x="0px" y="0px"
	 width="132px" height="132px" viewBox="0 0 132 132" enable-background="new 0 0 132 132" xml:space="preserve">
<polygon points="71.5,46 48.8,46 26,46 26,76 26,106 55.9,106 85.9,106 85.9,83.2 86,60.5 90.4,56.1 94.8,51.7 94.8,82.8 94.8,114 
	56.4,114 18,114 18,75.6 18,37.2 49.2,37.2 80.3,37.2 75.9,41.6 "/>
<polygon points="76.5,18 95.2,18 114,18 114,36.8 114,55.5 107.2,48.8 100.5,42.1 79.9,62.7 59.3,83.3 54,78 48.7,72.7 69.3,52.1 
	89.9,31.5 83.2,24.8 "/>
</svg>
