<?xml version="1.0" encoding="utf-8"?>
<!-- Generator: Adobe Illustrator 19.1.0, SVG Export Plug-In . SVG Version: 6.00 Build 0)  -->
<!DOCTYPE svg PUBLIC "-//W3C//DTD SVG 1.1//EN" "http://www.w3.org/Graphics/SVG/1.1/DTD/svg11.dtd">
<svg version="1.1" id="ic" xmlns="http://www.w3.org/2000/svg" xmlns:xlink="http://www.w3.org/1999/xlink" x="0px" y="0px"
	 width="150px" height="150px" viewBox="0 0 150 150" enable-background="new 0 0 150 150" xml:space="preserve">
<g>
	<path d="M111,75l0-12H83V47h12L75.1,27L55,47.1h12V63H27v48h12v12h84V75H111z M33,105V69h72v6H39v30H33z M117,107.3
		c-0.6-0.2-1.3-0.3-2-0.3c-4.4,0-8,3.6-8,8c0,0.7,0.1,1.4,0.3,2H54.7c0.2-0.6,0.3-1.3,0.3-2c0-4.4-3.6-8-8-8c-0.7,0-1.4,0.1-2,0.3
		V90.8c0.6,0.2,1.3,0.3,2,0.3c4.4,0,8-3.6,8-8c0-0.7-0.1-1.4-0.3-2h52.5c-0.2,0.6-0.3,1.3-0.3,2c0,4.4,3.6,8,8,8
		c0.7,0,1.4-0.1,2-0.3V107.3z"/>
	<circle cx="79" cy="99" r="12"/>
</g>
</svg>
