<?xml version="1.0" encoding="utf-8"?>
<!-- Generator: Adobe Illustrator 19.1.0, SVG Export Plug-In . SVG Version: 6.00 Build 0)  -->
<!DOCTYPE svg PUBLIC "-//W3C//DTD SVG 1.1//EN" "http://www.w3.org/Graphics/SVG/1.1/DTD/svg11.dtd">
<svg version="1.1" id="Layer_2" xmlns="http://www.w3.org/2000/svg" xmlns:xlink="http://www.w3.org/1999/xlink" x="0px" y="0px"
	 width="132px" height="132px" viewBox="0 0 132 132" enable-background="new 0 0 132 132" xml:space="preserve">
<path d="M102,66l0-6l0-6H88H74v-8v-8h6h6L76,28l-10-10L56,28.1L46,38.1h6h6v7.9V54H38H18v24v24h6h6v6v6h42h42V90V66h-6H102z M24,96
	V78V60h36h36v3v3H63H30v15v15h-3H24z M108,98.3c-0.3-0.1-0.7-0.1-1-0.2c-0.3,0-0.7-0.1-1-0.1c-2.2,0-4.2,0.9-5.7,2.3
	c-1.4,1.4-2.3,3.4-2.3,5.7c0,0.3,0,0.7,0.1,1c0,0.3,0.1,0.7,0.2,1H72H45.7c0.1-0.3,0.1-0.6,0.2-1c0-0.3,0.1-0.7,0.1-1
	c0-2.2-0.9-4.2-2.3-5.7C42.2,98.9,40.2,98,38,98c-0.3,0-0.7,0-1,0.1c-0.3,0-0.7,0.1-1,0.2V90v-8.3c0.3,0.1,0.6,0.1,1,0.2
	c0.3,0,0.7,0.1,1,0.1c2.2,0,4.2-0.9,5.7-2.3c1.4-1.4,2.3-3.4,2.3-5.7c0-0.3,0-0.7-0.1-1c0-0.3-0.1-0.7-0.2-1H72h26.3
	c-0.1,0.3-0.1,0.6-0.2,1S98,73.7,98,74c0,2.2,0.9,4.2,2.3,5.7c1.4,1.4,3.4,2.3,5.7,2.3c0.3,0,0.7,0,1-0.1c0.3,0,0.7-0.1,1-0.2V90
	V98.3z"/>
<path d="M70,78c3.3,0,6.3,1.3,8.5,3.5c2.2,2.2,3.5,5.2,3.5,8.5s-1.3,6.3-3.5,8.5c-2.2,2.2-5.2,3.5-8.5,3.5s-6.3-1.3-8.5-3.5
	C59.3,96.3,58,93.3,58,90s1.3-6.3,3.5-8.5C63.7,79.3,66.7,78,70,78z"/>
</svg>
