<?xml version="1.0" encoding="utf-8"?>
<!-- Generator: Adobe Illustrator 19.1.0, SVG Export Plug-In . SVG Version: 6.00 Build 0)  -->
<!DOCTYPE svg PUBLIC "-//W3C//DTD SVG 1.1//EN" "http://www.w3.org/Graphics/SVG/1.1/DTD/svg11.dtd">
<svg version="1.1" id="Layer_2" xmlns="http://www.w3.org/2000/svg" xmlns:xlink="http://www.w3.org/1999/xlink" x="0px" y="0px"
	 width="132px" height="132px" viewBox="0 0 132 132" enable-background="new 0 0 132 132" xml:space="preserve">
<path d="M47.8,72.8c0-0.5-0.1-0.9-0.2-1.2s-0.3-0.6-0.5-0.8c-0.2-0.2-0.5-0.3-0.9-0.4s-0.7-0.1-1.1-0.1h-1.7h-1.7v2.6v2.6h1.7h1.7
	c0.4,0,0.8-0.1,1.1-0.2c0.3-0.1,0.6-0.3,0.9-0.5c0.2-0.2,0.4-0.5,0.5-0.8C47.7,73.6,47.8,73.2,47.8,72.8z"/>
<path d="M63.1,70.2h-1.7h-1.7V76v5.9h1.7h1.7c0.9,0,1.6-0.2,2.3-0.7s1.1-1.1,1.5-2c0.2-0.5,0.3-1,0.4-1.6c0.1-0.6,0.1-1.2,0.1-1.8
	c0-0.9-0.1-1.7-0.2-2.4c-0.1-0.7-0.4-1.3-0.6-1.8c-0.3-0.5-0.7-0.9-1.3-1.1C64.7,70.3,64,70.2,63.1,70.2z"/>
<path d="M81.9,18h-24h-24v20v20h-4h-4v18v18h4h4v10v10h36h36V78V42l-12-12L81.9,18z M41.7,85h-1.9H38v-9v-9h3.9h3.9
	c0.9,0,1.7,0.1,2.4,0.3c0.7,0.2,1.3,0.6,1.9,1c0.5,0.5,0.9,1.1,1.2,1.8c0.3,0.7,0.4,1.6,0.4,2.5c0,1.1-0.1,2-0.4,2.7
	c-0.3,0.7-0.7,1.3-1.2,1.8c-0.5,0.4-1.2,0.8-1.9,1c-0.8,0.2-1.6,0.3-2.6,0.3h-1.9h-1.9v3.2L41.7,85L41.7,85L41.7,85z M97.9,106h-28
	h-28v-6v-6h28h28v6V106z M56,85v-9v-9h3.9h3.9c0.6,0,1.1,0,1.5,0.1s0.9,0.2,1.3,0.3c0.6,0.2,1.2,0.5,1.7,0.9c0.5,0.4,1,0.8,1.4,1.4
	c0.3,0.4,0.6,0.9,0.8,1.4s0.4,1,0.5,1.5c0.1,0.5,0.2,1,0.3,1.5s0.1,1,0.1,1.5c0,1.2-0.1,2.3-0.4,3.3s-0.6,1.9-1.1,2.8
	c-0.7,1.1-1.5,2-2.5,2.5S65.1,85,63.8,85h-3.9H56z M87.2,74.3v1.6v1.6h-4h-4v3.8V85h-1.9h-1.9v-9v-9h6.4h6.4v1.6v1.6h-4.5h-4.5v2.1
	v2.1h4H87.2z M97.9,58h-28h-28V42V26h18h18v10v10h10h10v6V58z"/>
</svg>
