<?xml version="1.0" encoding="utf-8"?>
<!-- Generator: Adobe Illustrator 19.1.0, SVG Export Plug-In . SVG Version: 6.00 Build 0)  -->
<!DOCTYPE svg PUBLIC "-//W3C//DTD SVG 1.1//EN" "http://www.w3.org/Graphics/SVG/1.1/DTD/svg11.dtd">
<svg version="1.1" id="ic" xmlns="http://www.w3.org/2000/svg" xmlns:xlink="http://www.w3.org/1999/xlink" x="0px" y="0px"
	 width="150px" height="150px" viewBox="0 0 150 150" enable-background="new 0 0 150 150" xml:space="preserve">
<g>
	<path d="M56.8,81.8c0-0.9-0.2-1.6-0.7-2c-0.5-0.4-1.1-0.6-2-0.6h-3.4v5.3h3.4c0.9,0,1.5-0.2,2-0.6C56.5,83.4,56.8,82.7,56.8,81.8z"
		/>
	<path d="M72.1,79.2h-3.5v11.7h3.5c1.8,0,3-0.9,3.7-2.6c0.4-1,0.6-2.1,0.6-3.4c0-1.8-0.3-3.2-0.9-4.2C75,79.6,73.8,79.2,72.1,79.2z"
		/>
	<path d="M90.9,27h-48v40H35v36h7.9v20h72V51L90.9,27z M50.7,94H47V76h7.7c1.8,0,3.2,0.5,4.3,1.4c1.1,0.9,1.6,2.4,1.6,4.3
		c0,2.1-0.5,3.6-1.6,4.5c-1.1,0.9-2.6,1.3-4.5,1.3h-3.7L50.7,94L50.7,94z M106.9,115h-56v-12h56V115z M65,94V76h7.7
		c1.1,0,2,0.1,2.8,0.4c1.3,0.4,2.3,1.2,3.1,2.3c0.6,0.9,1.1,1.9,1.3,2.9c0.2,1,0.3,2,0.3,3c0,2.4-0.5,4.4-1.4,6.1
		c-1.3,2.2-3.3,3.4-6,3.4H65z M96.2,83.3v3.1h-8V94h-3.7V76.1h12.8v3.2h-9.1v4.1H96.2z M106.9,67h-56V35h36v20h20V67z"/>
</g>
</svg>
