<?xml version="1.0" encoding="utf-8"?>
<!-- Generator: Adobe Illustrator 19.1.0, SVG Export Plug-In . SVG Version: 6.00 Build 0)  -->
<!DOCTYPE svg PUBLIC "-//W3C//DTD SVG 1.1//EN" "http://www.w3.org/Graphics/SVG/1.1/DTD/svg11.dtd">
<svg version="1.1" id="Layer_2" xmlns="http://www.w3.org/2000/svg" xmlns:xlink="http://www.w3.org/1999/xlink" x="0px" y="0px"
	 width="132px" height="132px" viewBox="0 0 132 132" enable-background="new 0 0 132 132" xml:space="preserve">
<path d="M32.2,18.3c6-1.9,11.2,4.7,14.9,11.8s5.8,14.7,5.8,14.7l-5.5,4.6l-5.5,4.6c0,0,0.8,2.6,3,6.7s5.8,9.6,11.4,15.3
	c5.6,5.7,11,9.4,15,11.7s6.6,3.1,6.6,3.1l4.9-6l4.9-6c0,0,3.4,0.8,8.3,2.4s11.3,4.3,17.1,8c0.3,0.2,0.6,0.5,0.8,0.9
	c0.2,0.4,0.2,0.8,0.2,1.2c-1.2,7.2-4.3,13.2-9,17.2c-4.7,4-11,5.9-18.6,5.2c-3.3-0.3-15.6-3.1-29.3-12.3
	c-13.7-9.2-28.8-24.8-37.7-50.9c-1.9-5.4-1.7-12.5,0.5-18.8C22,25.7,26.1,20.3,32.2,18.3z"/>
</svg>
