<?xml version="1.0" encoding="utf-8"?>
<!-- Generator: Adobe Illustrator 19.1.0, SVG Export Plug-In . SVG Version: 6.00 Build 0)  -->
<!DOCTYPE svg PUBLIC "-//W3C//DTD SVG 1.1//EN" "http://www.w3.org/Graphics/SVG/1.1/DTD/svg11.dtd">
<svg version="1.1" id="Layer_2" xmlns="http://www.w3.org/2000/svg" xmlns:xlink="http://www.w3.org/1999/xlink" x="0px" y="0px"
	 width="132px" height="132px" viewBox="0 0 132 132" enable-background="new 0 0 132 132" xml:space="preserve">
<path d="M107.9,52.5c0.8,2.4,1.5,4.9,1.9,7.4c0.4,2.5,0.7,5.2,0.7,7.8c0,12.8-5.2,24.3-13.5,32.7C88.6,108.8,77,114,64.2,114
	c-12.8,0-24.3-5.2-32.7-13.5S18,80.5,18,67.8c0-12.8,5.2-24.3,13.5-32.7s19.9-13.5,32.7-13.5c2.7,0,5.3,0.2,7.8,0.7
	c2.5,0.4,5,1.1,7.4,1.9l-7.6,21.8l-7.6,21.8l21.8-7.6L107.9,52.5z"/>
<path d="M85.6,18c6.6,2.3,12.6,6.1,17.5,11s8.7,10.8,11,17.5l-21.8,7.6l-21.8,7.6l7.6-21.8L85.6,18z"/>
</svg>
