<?xml version="1.0" encoding="utf-8"?>
<!-- Generator: Adobe Illustrator 19.1.0, SVG Export Plug-In . SVG Version: 6.00 Build 0)  -->
<!DOCTYPE svg PUBLIC "-//W3C//DTD SVG 1.1//EN" "http://www.w3.org/Graphics/SVG/1.1/DTD/svg11.dtd">
<svg version="1.1" id="Layer_2" xmlns="http://www.w3.org/2000/svg" xmlns:xlink="http://www.w3.org/1999/xlink" x="0px" y="0px"
	 width="132px" height="132px" viewBox="0 0 132 132" enable-background="new 0 0 132 132" xml:space="preserve">
<path d="M112.5,56c-2.3,2.4-6.1,1.7-8.9,0.7c0,0-21.2,22.7-21.9,23.7c-0.4,0.5-0.2,0.4,0.1,1.2c0.7,1.6,1.3,3.1,1.8,4.8
	c0.9,2.8,1.4,5.8,0.9,8.7c-0.4,2.4-1.8,4.6-4.1,5.7c-2.5,1.2-5.4,0.9-8,0.4c-6.9-1.6-13.2-5.8-18.6-10.2l-18,11.6L18,114l11.9-17.5
	c3.5-5.2,7-10.3,10.5-15.5c0.3-0.5,0.6-0.9,1-1.4c0.1-0.1,0.4-0.4,0.4-0.6c0-0.3-1.1-1.4-1.3-1.7c-0.6-0.9-1.3-1.7-1.8-2.6
	c-1-1.5-2-3.1-2.9-4.7c-1.6-2.9-2.9-6-3.7-9.2c-0.7-2.9-1-6.2,0.3-9c3.5-7.5,14.1-3.6,19.5-0.9c0,0,23.6-21.6,23.8-21.9
	c0.1-0.3-0.2-0.9-0.3-1.2c-0.3-1-0.5-2-0.5-3c-0.3-3.3,1.1-6.2,4.6-6.7c3.4-0.5,6.9,1,9.9,2.5c6.9,3.5,12.9,9,17.6,15.1
	c2.3,3.1,4.4,6.4,5.8,10C113.9,48.7,115.1,53.3,112.5,56z"/>
</svg>
