<?xml version="1.0" encoding="utf-8"?>
<!-- Generator: Adobe Illustrator 19.1.0, SVG Export Plug-In . SVG Version: 6.00 Build 0)  -->
<!DOCTYPE svg PUBLIC "-//W3C//DTD SVG 1.1//EN" "http://www.w3.org/Graphics/SVG/1.1/DTD/svg11.dtd">
<svg version="1.1" id="ic" xmlns="http://www.w3.org/2000/svg" xmlns:xlink="http://www.w3.org/1999/xlink" x="0px" y="0px"
	 width="150px" height="150px" viewBox="0 0 150 150" enable-background="new 0 0 150 150" xml:space="preserve">
<g>
	<path d="M121.5,65c-1.9,1.9-5,2-8.9,0.7l-22.1,24c3.9,8.1,4.6,15.1,1.1,18.6c-5,5.1-16.8,1.2-28.6-8.4L27,123l23.8-35
		c-9.4-12-13-24.3-8-29.3c3.5-3.5,10.2-2.9,18.1,1.1l23.8-22c-1.3-4-1.3-7.5,0.5-9.3c4.2-4.2,15.9,0.6,25.9,10.6
		C121.1,49.3,125.6,60.8,121.5,65z"/>
</g>
</svg>
