<?xml version="1.0" encoding="utf-8"?>
<!-- Generator: Adobe Illustrator 19.1.0, SVG Export Plug-In . SVG Version: 6.00 Build 0)  -->
<!DOCTYPE svg PUBLIC "-//W3C//DTD SVG 1.1//EN" "http://www.w3.org/Graphics/SVG/1.1/DTD/svg11.dtd">
<svg version="1.1" id="Layer_2" xmlns="http://www.w3.org/2000/svg" xmlns:xlink="http://www.w3.org/1999/xlink" x="0px" y="0px"
	 width="150px" height="150px" viewBox="0 0 150 150" enable-background="new 0 0 150 150" xml:space="preserve">
<path d="M123,69l-10.2,21.2l-10.2,21.2c-0.7,1.5-1.9,2.9-3.5,4c-1.6,1-3.5,1.7-5.9,1.7H63.3H33.4c-2.6,0-4.2-0.8-5.2-1.8
	c-1-1.1-1.3-2.5-1.3-3.8l10.2-21.2L47.4,69h37.8H123z M75,49.2h-2.9h-2.9v-4.1V41c0-0.6-0.2-1.1-0.6-1.5c-0.4-0.4-0.9-0.6-1.5-0.6
	h-6.9h-6.9c-0.6,0-1.1,0.2-1.4,0.6c-0.4,0.4-0.6,0.9-0.6,1.5v4.1v4.1h-3h-3v-4.1V41c0-2.5,1-4.5,2.6-5.9c1.6-1.4,3.8-2.2,6.3-2.2
	h5.9H66c2.5,0,4.7,0.8,6.4,2.2C74,36.6,75,38.6,75,41v4.1V49.2z M99.7,73h-3h-3v5.4v5.4c0,0.6-0.2,1.1-0.6,1.5
	c-0.4,0.4-0.9,0.6-1.4,0.6h-8.1h-8.1c-0.6,0-1.1-0.2-1.5-0.6c-0.4-0.4-0.6-0.9-0.6-1.5v-5.4V73h-2.9h-2.9v4.9v4.9
	c0,2.5,1,4.7,2.6,6.4c1.6,1.6,3.9,2.6,6.4,2.6h7.1h7.1c2.5,0,4.7-1,6.3-2.6s2.6-3.9,2.6-6.4v-4.9L99.7,73L99.7,73L99.7,73z"/>
<polygon points="45.1,64.5 72.4,64.5 99.7,64.5 99.7,59 99.7,53.5 63.7,53.5 27.7,53.5 27.7,77 27.7,100.5 36.4,82.5 "/>
</svg>
