<?xml version="1.0" encoding="utf-8"?>
<!-- Generator: Adobe Illustrator 19.1.0, SVG Export Plug-In . SVG Version: 6.00 Build 0)  -->
<!DOCTYPE svg PUBLIC "-//W3C//DTD SVG 1.1//EN" "http://www.w3.org/Graphics/SVG/1.1/DTD/svg11.dtd">
<svg version="1.1" id="ic" xmlns="http://www.w3.org/2000/svg" xmlns:xlink="http://www.w3.org/1999/xlink" x="0px" y="0px"
	 width="150px" height="150px" viewBox="0 0 150 150" enable-background="new 0 0 150 150" xml:space="preserve">
<g>
	<path d="M123,69l-20.4,42.4c-1.4,3.1-4.7,5.6-9.3,5.6H33.4c-5.1,0-6.5-3.1-6.4-5.6L47.4,69H123z M75,49.2h-5.9V41
		c0-1.1-1-2.1-2.2-2.1H53.2c-1.1,0-2,1-2,2.1v8.2h-5.9V41c0-4.9,4-8,8.9-8H66c5,0,9,3.1,9,8V49.2z M99.7,73h-5.9v10.8
		c0,1.1-0.9,2.1-2,2.1H75.6c-1.2,0-2.2-1-2.2-2.1V73h-5.9v9.8c0,5,4,9,9,9h14.2c4.9,0,8.9-4,8.9-9L99.7,73L99.7,73z"/>
	<polygon points="45.1,64.5 99.7,64.5 99.7,53.5 27.7,53.5 27.7,100.5 	"/>
</g>
</svg>
