<?xml version="1.0" encoding="utf-8"?>
<!-- Generator: Adobe Illustrator 19.1.0, SVG Export Plug-In . SVG Version: 6.00 Build 0)  -->
<svg version="1.1" id="Icons_3_" xmlns="http://www.w3.org/2000/svg" xmlns:xlink="http://www.w3.org/1999/xlink" x="0px" y="0px"
	 viewBox="0 0 150 150" enable-background="new 0 0 150 150" xml:space="preserve">
<g id="Savings">
</g>
<g id="Savings_goals">
</g>
<g id="Save">
</g>
<g id="Report">
</g>
<g id="Reply">
</g>
<g id="Renew">
</g>
<g id="Refresh">
</g>
<g id="Rates">
</g>
<g id="Quote_open">
</g>
<g id="Quote_Close">
</g>
<g id="Print">
</g>
<g id="Presentation">
</g>
<g id="Portfolio">
	<path d="M123,69l-20.4,42.4c-1.4,3.1-4.7,5.6-9.3,5.6H33.4c-5.1,0-6.5-3.1-6.4-5.6L47.4,69L123,69z M75,49.2h-5.9V41
		c0-1.1-1-2.1-2.2-2.1H53.2c-1.1,0-2,1-2,2.1v8.2h-6V41c0-4.9,4-8,8.9-8H66c5,0,9,3.1,9,8V49.2L75,49.2z M99.7,73h-5.9v10.8
		c0,1.1-0.9,2.1-2,2.1H75.6c-1.2,0-2.2-1-2.2-2.1V73h-5.9v9.8c0,5,4,9,9,9h14.2c4.9,0,8.9-4,8.9-9L99.7,73L99.7,73z"/>
	<polygon points="45.1,64.5 99.7,64.5 99.7,53.5 27.7,53.5 27.7,100.5 	"/>
</g>
<g id="Pop_Up_Window">
</g>
<g id="Play">
</g>
<g id="Pin">
</g>
<g id="Phone">
</g>
<g id="PDF">
</g>
<g id="Pay">
</g>
<g id="Rewards">
</g>
<g id="New_Window">
</g>
<g id="Multiple_Users">
</g>
<g id="Articles">
</g>
<g id="More">
</g>
<g id="Mobile">
</g>
<g id="Messages">
</g>
<g id="Menu">
</g>
<g id="Memo">
</g>
<g id="Security_Lock">
</g>
<g id="Location">
</g>
<g id="List">
</g>
<g id="Link">
</g>
<g id="Investment">
</g>
<g id="Intranet">
</g>
<g id="Insurance">
</g>
<g id="Home">
</g>
<g id="Help">
</g>
<g id="Health">
</g>
<g id="Grid_view">
</g>
<g id="Global">
</g>
<g id="Filter">
</g>
<g id="Favourite">
</g>
<g id="Export">
</g>
<g id="Expand">
</g>
<g id="Education">
</g>
<g id="Edit">
</g>
<g id="Download">
</g>
<g id="Dollar_Bill">
</g>
<g id="Document">
</g>
<g id="Do_Not_View">
</g>
<g id="Dining">
</g>
<g id="Devices">
</g>
<g id="Desktop_Computer">
</g>
<g id="Bin">
</g>
<g id="Dashboard">
</g>
<g id="Copy">
</g>
<g id="Contactless_Payment">
</g>
<g id="Confidential">
</g>
<g id="Compose">
</g>
<g id="Column_View">
</g>
<g id="Collapse">
</g>
<g id="Client_Upload">
</g>
<g id="Client_Download">
</g>
<g id="Circle_Warning">
</g>
<g id="Circle_Error_Solid">
</g>
<g id="Circle_Info">
</g>
<g id="Circle_Fill_Information">
</g>
<g id="Circle_Help">
</g>
<g id="Circle_Help_Solid">
</g>
<g id="Circle_Delete">
</g>
<g id="Circle_Delete_Solid">
</g>
<g id="Circle_Confirmation">
</g>
<g id="Circle_Confirmation_Solid">
</g>
<g id="Chevron_Up">
</g>
<g id="Chevron_Right">
</g>
<g id="Chevron_Right_Small">
</g>
<g id="Chevron_Left">
</g>
<g id="Chevron_Down">
</g>
<g id="Chevron_Double_Right">
</g>
<g id="Chevron_Double_Left">
</g>
<g id="Chat">
</g>
<g id="Pie_Chart">
</g>
<g id="Delete">
</g>
<g id="Calendar">
</g>
<g id="Corporate">
</g>
<g id="Barcode">
</g>
<g id="Banking">
</g>
<g id="Back">
</g>
<g id="Attachment">
</g>
<g id="In_Branch">
</g>
<g id="Assets">
</g>
<g id="Newspaper">
</g>
<g id="Anchor_Up">
</g>
<g id="Anchor_down">
</g>
<g id="Insight">
</g>
<g id="Alert">
</g>
<g id="Agree">
</g>
<g id="Add">
</g>
<g id="Accounts">
</g>
</svg>
