<?xml version="1.0" encoding="utf-8"?>
<!-- Generator: Adobe Illustrator 19.1.0, SVG Export Plug-In . SVG Version: 6.00 Build 0)  -->
<!DOCTYPE svg PUBLIC "-//W3C//DTD SVG 1.1//EN" "http://www.w3.org/Graphics/SVG/1.1/DTD/svg11.dtd">
<svg version="1.1" id="Layer_2" xmlns="http://www.w3.org/2000/svg" xmlns:xlink="http://www.w3.org/1999/xlink" x="0px" y="0px"
	 width="150px" height="150px" viewBox="0 0 150 150" enable-background="new 0 0 150 150" xml:space="preserve">
<path d="M77.9,32.8v-2.9V27H75h-2.9v2.9v2.9H49.6H27v33.6V100h48h48V66.4V32.8h-22.6H77.9z M117.2,94.3H75H32.8V66.4V38.6H75h42.2
	v27.8L117.2,94.3L117.2,94.3L117.2,94.3z"/>
<polygon points="72.1,100 75,100 77.9,100 77.9,107.7 77.9,115.4 75,115.4 72.1,115.4 72.1,107.7 "/>
<polygon points="45.2,123 49.1,123 52.9,123 62.5,111.5 72.1,100 68.3,100 64.4,100 54.8,111.5 "/>
<polygon points="77.9,100 87.5,111.5 97.1,123 100.9,123 104.8,123 95.2,111.5 85.6,100 81.7,100 "/>
<path d="M44.3,47.2c1.1,0,2,0.4,2.7,1.1s1.1,1.7,1.1,2.7s-0.4,2-1.1,2.7c-0.7,0.7-1.7,1.1-2.7,1.1s-2-0.4-2.7-1.1
	c-0.7-0.7-1.1-1.7-1.1-2.7s0.4-2,1.1-2.7C42.3,47.7,43.2,47.2,44.3,47.2z"/>
<polygon points="53.9,47.2 81.7,47.2 109.6,47.2 109.6,51.1 109.6,54.9 81.7,54.9 53.9,54.9 53.9,51.1 "/>
<path d="M44.3,62.6c1.1,0,2,0.4,2.7,1.1c0.7,0.7,1.1,1.7,1.1,2.7c0,1.1-0.4,2-1.1,2.7c-0.7,0.7-1.7,1.1-2.7,1.1s-2-0.4-2.7-1.1
	c-0.7-0.7-1.1-1.7-1.1-2.7c0-1.1,0.4-2,1.1-2.7C42.3,63,43.2,62.6,44.3,62.6z"/>
<polygon points="53.9,62.6 81.7,62.6 109.6,62.6 109.6,66.4 109.6,70.3 81.7,70.3 53.9,70.3 53.9,66.4 "/>
<path d="M44.3,78c1.1,0,2,0.4,2.7,1.1c0.7,0.7,1.1,1.7,1.1,2.7s-0.4,2-1.1,2.7c-0.7,0.7-1.7,1.1-2.7,1.1s-2-0.4-2.7-1.1
	c-0.7-0.7-1.1-1.7-1.1-2.7s0.4-2,1.1-2.7C42.3,78.4,43.2,78,44.3,78z"/>
<polygon points="53.9,78 81.7,78 109.6,78 109.6,81.8 109.6,85.7 81.7,85.7 53.9,85.7 53.9,81.8 "/>
</svg>
