<?xml version="1.0" encoding="utf-8"?>
<!-- Generator: Adobe Illustrator 19.1.0, SVG Export Plug-In . SVG Version: 6.00 Build 0)  -->
<!DOCTYPE svg PUBLIC "-//W3C//DTD SVG 1.1//EN" "http://www.w3.org/Graphics/SVG/1.1/DTD/svg11.dtd">
<svg version="1.1" id="ic" xmlns="http://www.w3.org/2000/svg" xmlns:xlink="http://www.w3.org/1999/xlink" x="0px" y="0px"
	 width="150px" height="150px" viewBox="0 0 150 150" enable-background="new 0 0 150 150" xml:space="preserve">
<g>
	<path d="M77.9,32.8V27h-5.8v5.8H27V100h96V32.8H77.9z M117.2,94.3H32.8V38.6h84.5L117.2,94.3L117.2,94.3z"/>
	<rect x="72.1" y="100" width="5.8" height="15.4"/>
	<polygon points="45.2,123 52.9,123 72.1,100 64.4,100 	"/>
	<polygon points="77.9,100 97.1,123 104.8,123 85.6,100 	"/>
	<circle cx="44.3" cy="51.1" r="3.8"/>
	<rect x="53.9" y="47.2" width="55.7" height="7.7"/>
	<circle cx="44.3" cy="66.4" r="3.8"/>
	<rect x="53.9" y="62.6" width="55.7" height="7.7"/>
	<circle cx="44.3" cy="81.8" r="3.8"/>
	<rect x="53.9" y="78" width="55.7" height="7.7"/>
</g>
</svg>
