<?xml version="1.0" encoding="utf-8"?>
<!-- Generator: Adobe Illustrator 19.1.0, SVG Export Plug-In . SVG Version: 6.00 Build 0)  -->
<!DOCTYPE svg PUBLIC "-//W3C//DTD SVG 1.1//EN" "http://www.w3.org/Graphics/SVG/1.1/DTD/svg11.dtd">
<svg version="1.1" id="Layer_2" xmlns="http://www.w3.org/2000/svg" xmlns:xlink="http://www.w3.org/1999/xlink" x="0px" y="0px"
	 width="132px" height="132px" viewBox="0 0 132 132" enable-background="new 0 0 132 132" xml:space="preserve">
<path d="M68.9,23.8v-2.9V18H66h-2.9v2.9v2.9H40.6H18v33.6V91h48h48V57.4V23.8H91.4H68.9z M108.2,85.3H66H23.8V57.4V29.6H66h42.2
	v27.8L108.2,85.3L108.2,85.3L108.2,85.3z"/>
<polygon points="63.1,91 66,91 68.9,91 68.9,98.7 68.9,106.4 66,106.4 63.1,106.4 63.1,98.7 "/>
<polygon points="36.2,114 40.1,114 43.9,114 53.5,102.5 63.1,91 59.3,91 55.4,91 45.8,102.5 "/>
<polygon points="68.9,91 78.5,102.5 88.1,114 91.9,114 95.8,114 86.2,102.5 76.6,91 72.7,91 "/>
<path d="M35.3,38.2c1.1,0,2,0.4,2.7,1.1s1.1,1.7,1.1,2.7s-0.4,2-1.1,2.7c-0.7,0.7-1.7,1.1-2.7,1.1s-2-0.4-2.7-1.1
	c-0.7-0.7-1.1-1.7-1.1-2.7s0.4-2,1.1-2.7C33.3,38.7,34.2,38.2,35.3,38.2z"/>
<polygon points="44.9,38.2 72.7,38.2 100.6,38.2 100.6,42.1 100.6,45.9 72.7,45.9 44.9,45.9 44.9,42.1 "/>
<path d="M35.3,53.6c1.1,0,2,0.4,2.7,1.1c0.7,0.7,1.1,1.7,1.1,2.7c0,1.1-0.4,2-1.1,2.7c-0.7,0.7-1.7,1.1-2.7,1.1s-2-0.4-2.7-1.1
	c-0.7-0.7-1.1-1.7-1.1-2.7c0-1.1,0.4-2,1.1-2.7C33.3,54,34.2,53.6,35.3,53.6z"/>
<polygon points="44.9,53.6 72.7,53.6 100.6,53.6 100.6,57.4 100.6,61.3 72.7,61.3 44.9,61.3 44.9,57.4 "/>
<path d="M35.3,69c1.1,0,2,0.4,2.7,1.1c0.7,0.7,1.1,1.7,1.1,2.7s-0.4,2-1.1,2.7c-0.7,0.7-1.7,1.1-2.7,1.1s-2-0.4-2.7-1.1
	c-0.7-0.7-1.1-1.7-1.1-2.7s0.4-2,1.1-2.7C33.3,69.4,34.2,69,35.3,69z"/>
<polygon points="44.9,69 72.7,69 100.6,69 100.6,72.8 100.6,76.7 72.7,76.7 44.9,76.7 44.9,72.8 "/>
</svg>
