<?xml version="1.0" encoding="utf-8"?>
<!-- Generator: Adobe Illustrator 19.1.0, SVG Export Plug-In . SVG Version: 6.00 Build 0)  -->
<!DOCTYPE svg PUBLIC "-//W3C//DTD SVG 1.1//EN" "http://www.w3.org/Graphics/SVG/1.1/DTD/svg11.dtd">
<svg version="1.1" id="Layer_2" xmlns="http://www.w3.org/2000/svg" xmlns:xlink="http://www.w3.org/1999/xlink" x="0px" y="0px"
	 width="132px" height="132px" viewBox="0 0 132 132" enable-background="new 0 0 132 132" xml:space="preserve">
<path d="M102,70V56V42L90,30L78,18H54H30v26v26h-6h-6v22v22h48h48V92V70h-6H102z M38,26h18h18v10v10h10h10v12v12H66H38V48V26z
	 M98,98c-1.7,0-3.2-0.7-4.2-1.8C92.7,95.2,92,93.7,92,92s0.7-3.2,1.8-4.2c1.1-1.1,2.6-1.8,4.2-1.8s3.2,0.7,4.2,1.8
	c1.1,1.1,1.8,2.6,1.8,4.2s-0.7,3.2-1.8,4.2C101.2,97.3,99.7,98,98,98z"/>
</svg>
