<?xml version="1.0" encoding="utf-8"?>
<!-- Generator: Adobe Illustrator 19.1.0, SVG Export Plug-In . SVG Version: 6.00 Build 0)  -->
<!DOCTYPE svg PUBLIC "-//W3C//DTD SVG 1.1//EN" "http://www.w3.org/Graphics/SVG/1.1/DTD/svg11.dtd">
<svg version="1.1" id="icon" xmlns="http://www.w3.org/2000/svg" xmlns:xlink="http://www.w3.org/1999/xlink" x="0px" y="0px"
	 width="150px" height="150px" viewBox="0 0 150 150" enable-background="new 0 0 150 150" xml:space="preserve">
<g>
	<polygon points="99,27 75,27 51,27 51,50 51,73 55,73 59,73 59,54 59,35 77,35 95,35 95,45 95,55 105,55 115,55 115,85 115,115 
		103.5,115 92,115 92,119 92,123 107.5,123 123,123 123,87 123,51 111,39 	"/>
	<path d="M27,120.5c0,0.7,0.3,1.3,0.7,1.8c0.5,0.5,1.1,0.7,1.8,0.7H57h27.5c0.7,0,1.3-0.3,1.8-0.7s0.7-1.1,0.7-1.8v-20v-20
		c0-0.7-0.3-1.3-0.7-1.8c-0.5-0.5-1.1-0.7-1.8-0.7H57H29.5c-0.7,0-1.3,0.3-1.8,0.7c-0.5,0.5-0.7,1.1-0.7,1.8v20V120.5z M32,84.2
		c0-0.3,0.1-0.7,0.4-0.9c0.2-0.2,0.5-0.4,0.9-0.4H57h23.7c0.3,0,0.7,0.1,0.9,0.4c0.2,0.2,0.4,0.5,0.4,0.9v1.9v1.9H57H32v-1.9V84.2z
		 M80.8,118H57H33.3c-0.3,0-0.7-0.1-0.9-0.4s-0.4-0.5-0.4-0.9v-9.3v-9.3h25h25v9.3v9.3c0,0.3-0.1,0.7-0.4,0.9S81.1,118,80.8,118z"/>
</g>
</svg>
