<?xml version="1.0" encoding="utf-8"?>
<!-- Generator: Adobe Illustrator 19.1.0, SVG Export Plug-In . SVG Version: 6.00 Build 0)  -->
<!DOCTYPE svg PUBLIC "-//W3C//DTD SVG 1.1//EN" "http://www.w3.org/Graphics/SVG/1.1/DTD/svg11.dtd">
<svg version="1.1" id="icon" xmlns="http://www.w3.org/2000/svg" xmlns:xlink="http://www.w3.org/1999/xlink" x="0px" y="0px"
	 width="132px" height="132px" viewBox="0 0 132 132" enable-background="new 0 0 132 132" xml:space="preserve">
<g>
	<polygon points="90,18 66,18 42,18 42,41 42,64 46,64 50,64 50,45 50,26 68,26 86,26 86,36 86,46 96,46 106,46 106,76 106,106 
		94.5,106 83,106 83,110 83,114 98.5,114 114,114 114,78 114,42 102,30 	"/>
	<path d="M18,111.5c0,0.7,0.3,1.3,0.7,1.8c0.5,0.5,1.1,0.7,1.8,0.7H48h27.5c0.7,0,1.3-0.3,1.8-0.7s0.7-1.1,0.7-1.8v-20v-20
		c0-0.7-0.3-1.3-0.7-1.8c-0.5-0.5-1.1-0.7-1.8-0.7H48H20.5c-0.7,0-1.3,0.3-1.8,0.7c-0.5,0.5-0.7,1.1-0.7,1.8v20V111.5z M23,75.2
		c0-0.3,0.1-0.7,0.4-0.9c0.2-0.2,0.5-0.4,0.9-0.4H48h23.7c0.3,0,0.7,0.1,0.9,0.4c0.2,0.2,0.4,0.5,0.4,0.9v1.9v1.9H48H23v-1.9V75.2z
		 M71.8,109H48H24.3c-0.3,0-0.7-0.1-0.9-0.4s-0.4-0.5-0.4-0.9v-9.3v-9.3h25h25v9.3v9.3c0,0.3-0.1,0.7-0.4,0.9S72.1,109,71.8,109z"/>
</g>
</svg>
