<?xml version="1.0" encoding="utf-8"?>
<!-- Generator: Adobe Illustrator 19.1.0, SVG Export Plug-In . SVG Version: 6.00 Build 0)  -->
<!DOCTYPE svg PUBLIC "-//W3C//DTD SVG 1.1//EN" "http://www.w3.org/Graphics/SVG/1.1/DTD/svg11.dtd">
<svg version="1.1" id="Layer_2" xmlns="http://www.w3.org/2000/svg" xmlns:xlink="http://www.w3.org/1999/xlink" x="0px" y="0px"
	 width="150px" height="150px" viewBox="0 0 150 150" enable-background="new 0 0 150 150" xml:space="preserve">
<path d="M88.1,35.3h17.4h17.4v12.4v12.4c0,5.1-0.2,9.6-0.7,13.5c-0.4,4-1.1,7.4-2,10.4c-0.9,2.9-2.2,5.7-3.8,8.3s-3.7,5.1-6.1,7.4
	c-2.4,2.3-5.1,4.4-8.2,6.2s-6.4,3.4-10.1,4.7l-3.4-7.2l-3.4-7.2c3.5-1.2,6.4-2.5,8.9-4.1c2.5-1.6,4.5-3.5,6-5.6
	c1.5-2,2.6-4.4,3.5-7.2c0.8-2.8,1.2-5.8,1.3-9.3h-8.4H88V52.7V35.3H88.1L88.1,35.3z M29.9,35.3h17.4h17.4v12.4v12.4
	c0,5.1-0.2,9.6-0.7,13.6c-0.5,4-1.1,7.4-2,10.3s-2.2,5.7-3.8,8.2c-1.7,2.6-3.7,5-6.1,7.3s-5.1,4.4-8.2,6.2c-3,1.8-6.4,3.4-10.1,4.7
	l-3.4-7.2L27,96.2c3.5-1.1,6.4-2.5,8.9-4.1c2.5-1.6,4.5-3.5,6-5.6c1.5-2.1,2.6-4.4,3.5-7.2c0.8-2.8,1.2-5.9,1.3-9.3h-8.4h-8.5V52.7
	V35.3H29.9L29.9,35.3z"/>
</svg>
