<?xml version="1.0" encoding="utf-8"?>
<!-- Generator: Adobe Illustrator 19.1.0, SVG Export Plug-In . SVG Version: 6.00 Build 0)  -->
<!DOCTYPE svg PUBLIC "-//W3C//DTD SVG 1.1//EN" "http://www.w3.org/Graphics/SVG/1.1/DTD/svg11.dtd">
<svg version="1.1" id="ic" xmlns="http://www.w3.org/2000/svg" xmlns:xlink="http://www.w3.org/1999/xlink" x="0px" y="0px"
	 width="150px" height="150px" viewBox="0 0 150 150" enable-background="new 0 0 150 150" xml:space="preserve">
<g>
	<path d="M61.8,110.7H27V85.8c0-10.1,0.9-18,2.7-23.9c1.8-5.8,5.1-11.1,9.9-15.7c4.8-4.6,10.9-8.3,18.3-10.9l6.8,14.4
		c-6.9,2.3-11.9,5.5-14.9,9.7c-3,4.1-4.6,9.6-4.8,16.5h16.9v34.8H61.8z M120,110.7H85.2V85.8c0-10.2,0.9-18.1,2.7-23.9
		c1.8-5.8,5.1-11,9.9-15.6c4.8-4.6,10.9-8.3,18.3-10.9l6.8,14.4c-6.9,2.3-11.9,5.5-14.9,9.7c-3,4.1-4.6,9.6-4.8,16.5h16.9v34.7H120z
		"/>
</g>
</svg>
