<?xml version="1.0" encoding="utf-8"?>
<!-- Generator: Adobe Illustrator 19.1.0, SVG Export Plug-In . SVG Version: 6.00 Build 0)  -->
<!DOCTYPE svg PUBLIC "-//W3C//DTD SVG 1.1//EN" "http://www.w3.org/Graphics/SVG/1.1/DTD/svg11.dtd">
<svg version="1.1" id="ic" xmlns="http://www.w3.org/2000/svg" xmlns:xlink="http://www.w3.org/1999/xlink" x="0px" y="0px"
	 width="150px" height="150px" viewBox="0 0 150 150" enable-background="new 0 0 150 150" xml:space="preserve">
<g>
	<polygon points="106.4,37.3 113.6,44.7 45.7,113.1 38.4,105.7 	"/>
	<path d="M64.9,54.1c0,5.6-4.5,10.2-10.1,10.2s-10.1-4.6-10.1-10.2s4.5-10.2,10.1-10.2S64.9,48.5,64.9,54.1z M54.9,34.7
		c-10.6,0-19.2,8.7-19.2,19.4c0,10.7,8.6,19.4,19.2,19.4s19.2-8.7,19.2-19.4C74.1,43.4,65.5,34.7,54.9,34.7z"/>
	<path d="M107.2,95.9c0,5.6-4.5,10.2-10.1,10.2c-5.6,0-10.1-4.6-10.1-10.2c0-5.6,4.5-10.2,10.1-10.2
		C102.7,85.7,107.2,90.3,107.2,95.9z M97.1,76.5c-10.6,0-19.2,8.7-19.2,19.4c0,10.7,8.6,19.4,19.2,19.4c10.6,0,19.2-8.7,19.2-19.4
		C116.3,85.2,107.7,76.5,97.1,76.5z"/>
</g>
</svg>
