<?xml version="1.0" encoding="utf-8"?>
<!-- Generator: Adobe Illustrator 19.1.0, SVG Export Plug-In . SVG Version: 6.00 Build 0)  -->
<!DOCTYPE svg PUBLIC "-//W3C//DTD SVG 1.1//EN" "http://www.w3.org/Graphics/SVG/1.1/DTD/svg11.dtd">
<svg version="1.1" id="Layer_2" xmlns="http://www.w3.org/2000/svg" xmlns:xlink="http://www.w3.org/1999/xlink" x="0px" y="0px"
	 width="132px" height="132px" viewBox="0 0 132 132" enable-background="new 0 0 132 132" xml:space="preserve">
<polygon points="97.4,28.3 101,32 104.6,35.7 70.6,69.9 36.7,104.1 33.1,100.4 29.4,96.7 63.4,62.5 "/>
<path d="M55.9,45.1c0,2.8-1.1,5.3-2.9,7.2c-1.8,1.8-4.3,3-7.1,3s-5.3-1.2-7.2-3c-1.8-1.9-2.9-4.4-2.9-7.2s1.1-5.3,2.9-7.2
	c1.8-1.8,4.3-3,7.2-3s5.3,1.2,7.1,3S55.9,42.3,55.9,45.1z M45.9,25.7c-5.3,0-10.1,2.2-13.6,5.7c-3.5,3.5-5.6,8.4-5.6,13.7
	s2.2,10.2,5.6,13.7c3.5,3.5,8.3,5.7,13.6,5.7s10.1-2.2,13.6-5.7s5.6-8.4,5.6-13.7S63,34.9,59.5,31.4C56,27.9,51.2,25.7,45.9,25.7z"
	/>
<path d="M98.2,86.9c0,2.8-1.1,5.3-2.9,7.2s-4.4,3-7.1,3c-2.8,0-5.3-1.2-7.2-3S78,89.7,78,86.9c0-2.8,1.1-5.4,2.9-7.2s4.4-3,7.2-3
	c2.8,0,5.3,1.2,7.1,3C97.1,81.6,98.2,84.1,98.2,86.9z M88.1,67.5c-5.3,0-10.1,2.2-13.6,5.7s-5.6,8.4-5.6,13.7s2.1,10.2,5.6,13.7
	c3.5,3.5,8.3,5.7,13.6,5.7c5.3,0,10.1-2.2,13.6-5.7c3.5-3.5,5.6-8.4,5.6-13.7c0-5.4-2.2-10.2-5.6-13.7
	C98.2,69.7,93.4,67.5,88.1,67.5z"/>
</svg>
