<?xml version="1.0" encoding="utf-8"?>
<!-- Generator: Adobe Illustrator 19.1.0, SVG Export Plug-In . SVG Version: 6.00 Build 0)  -->
<!DOCTYPE svg PUBLIC "-//W3C//DTD SVG 1.1//EN" "http://www.w3.org/Graphics/SVG/1.1/DTD/svg11.dtd">
<svg version="1.1" id="Layer_2" xmlns="http://www.w3.org/2000/svg" xmlns:xlink="http://www.w3.org/1999/xlink" x="0px" y="0px"
	 width="132px" height="132px" viewBox="0 0 132 132" enable-background="new 0 0 132 132" xml:space="preserve">
<path d="M99.9,32c-4.3-4.3-9.5-7.9-15.3-10.3C79,19.3,72.6,18,66,18c-13.3,0-25.3,5.4-33.9,14.1C23.4,40.7,18,52.7,18,66
	s5.4,25.3,14.1,33.9C40.8,108.6,52.8,114,66,114s25.3-5.4,33.9-14.1C108.6,91.3,114,79.3,114,66h-6h-6c0,9.9-4,18.9-10.5,25.5
	C85,98,76,102,66,102c-9.9,0-18.9-4-25.5-10.5C34,84.9,30,75.9,30,66s4-18.9,10.5-25.5C47.1,34,56.1,30,66,30c5,0,9.7,1,14,2.8
	c4.3,1.8,8.2,4.5,11.4,7.7l-7.4,7.4l-7.4,7.4l18.7,0l18.7,0l0-18.7l0-18.7l-7,7L99.9,32z"/>
</svg>
