<?xml version="1.0" encoding="utf-8"?>
<!-- Generator: Adobe Illustrator 19.1.0, SVG Export Plug-In . SVG Version: 6.00 Build 0)  -->
<!DOCTYPE svg PUBLIC "-//W3C//DTD SVG 1.1//EN" "http://www.w3.org/Graphics/SVG/1.1/DTD/svg11.dtd">
<svg version="1.1" id="Layer_2" xmlns="http://www.w3.org/2000/svg" xmlns:xlink="http://www.w3.org/1999/xlink" x="0px" y="0px"
	 width="132px" height="132px" viewBox="0 0 132 132" enable-background="new 0 0 132 132" xml:space="preserve">
<path d="M30,66c0-9.9,4-18.9,10.5-25.5C47.1,34,56.1,30,66,30c5,0,9.7,1,14,2.8c4.3,1.8,8.2,4.5,11.4,7.7l-7.4,7.4l-7.4,7.4l18.7,0
	l18.7,0l0-18.7l0-18.7l-7,7l-7,7c-4.3-4.3-9.5-7.9-15.3-10.3C79,19.3,72.6,18,66,18c-13.3,0-25.3,5.4-33.9,14.1
	C23.4,40.7,18,52.7,18,66"/>
<path d="M102,66c0,9.9-4,18.9-10.5,25.5C85,98,76,102,66,102c-5,0-9.7-1-14-2.8c-4.3-1.8-8.2-4.5-11.4-7.7l7.4-7.4l7.4-7.4l-18.7,0
	l-18.7,0l0,18.7l0,18.7l7-7l7-7c4.3,4.3,9.5,7.9,15.3,10.3c5.7,2.4,12.1,3.8,18.7,3.8c13.3,0,25.3-5.4,33.9-14.1
	C108.6,91.3,114,79.3,114,66"/>
</svg>
