<?xml version="1.0" encoding="utf-8"?>
<!-- Generator: Adobe Illustrator 19.1.0, SVG Export Plug-In . SVG Version: 6.00 Build 0)  -->
<!DOCTYPE svg PUBLIC "-//W3C//DTD SVG 1.1//EN" "http://www.w3.org/Graphics/SVG/1.1/DTD/svg11.dtd">
<svg version="1.1" id="Layer_2" xmlns="http://www.w3.org/2000/svg" xmlns:xlink="http://www.w3.org/1999/xlink" x="0px" y="0px"
	 width="150px" height="150px" viewBox="0 0 150 150" enable-background="new 0 0 150 150" xml:space="preserve">
<path d="M63,57.9V46.4V35L45,53L27,71l18,18l18,18V94.5V82c2.5-0.1,5.5-0.1,8.7,0.1s6.4,0.5,9.1,1c2.7,0.5,5.2,0.9,7.3,1.4
	c2.1,0.5,3.9,1,5.4,1.5l2.2,0.8l2.2,0.8c2,0.7,3.9,1.6,5.6,2.5s3.4,2,5,3.1c1.6,1.1,2.9,2.2,4.1,3.2s2.2,1.9,3,2.8
	c0.8,0.9,1.6,1.8,2.3,2.8c0.7,1,1.4,2.1,2.1,3.2c0.6,1.2,1.2,2.1,1.5,2.8s0.6,1.2,0.7,1.5c0.1,0.3,0.2,0.7,0.3,1.1
	c0.1,0.4,0.3,0.9,0.4,1.4c0,0,0.1-3.5-0.2-8.2c-0.4-4.7-1.2-10.6-3.3-15.5c-0.6-1.3-1.7-3.6-3-5.9c-1.3-2.3-2.9-4.7-4.3-6.3
	c-1.4-1.6-3-3.2-4.7-4.6c-1.7-1.4-3.5-2.8-5.5-4c-1.9-1.2-4.2-2.4-6.8-3.4s-5.4-2.1-8.6-3c-3.2-0.9-7.1-1.6-11.2-2.2
	C71.3,58.4,67,58.1,63,57.9z"/>
</svg>
