<?xml version="1.0" encoding="utf-8"?>
<!-- Generator: Adobe Illustrator 19.1.0, SVG Export Plug-In . SVG Version: 6.00 Build 0)  -->
<!DOCTYPE svg PUBLIC "-//W3C//DTD SVG 1.1//EN" "http://www.w3.org/Graphics/SVG/1.1/DTD/svg11.dtd">
<svg version="1.1" id="ic" xmlns="http://www.w3.org/2000/svg" xmlns:xlink="http://www.w3.org/1999/xlink" x="0px" y="0px"
	 width="150px" height="150px" viewBox="0 0 150 150" enable-background="new 0 0 150 150" xml:space="preserve">
<g>
	<path d="M63,57.9V35L27,71l36,36V82c4.9-0.2,12.3,0.2,17.8,1.1C86.3,84,90.5,85,93.5,86l4.4,1.5c4,1.5,7.5,3.3,10.6,5.6
		c3.1,2.2,5.5,4.2,7.1,5.9c1.6,1.7,3.1,3.7,4.3,6c1.3,2.3,2,3.8,2.2,4.4c0.2,0.6,0.4,1.5,0.8,2.5c0,0,0.6-14-3.5-23.7
		c-1.1-2.7-4.4-8.9-7.3-12.2c-2.9-3.3-6.3-6.1-10.2-8.6c-3.9-2.4-9-4.6-15.4-6.4C80.2,59.3,70.9,58.2,63,57.9z"/>
</g>
</svg>
