<?xml version="1.0" encoding="utf-8"?>
<!-- Generator: Adobe Illustrator 19.1.0, SVG Export Plug-In . SVG Version: 6.00 Build 0)  -->
<svg version="1.1" id="Icons_3_" xmlns="http://www.w3.org/2000/svg" xmlns:xlink="http://www.w3.org/1999/xlink" x="0px" y="0px"
	 viewBox="0 0 150 150" enable-background="new 0 0 150 150" xml:space="preserve">
<g id="Savings">
</g>
<g id="Savings_goals">
</g>
<g id="Save">
</g>
<g id="Report">
</g>
<g id="Reply">
</g>
<g id="Renew">
</g>
<g id="Refresh">
</g>
<g id="Rates">
</g>
<g id="Quote_open">
</g>
<g id="Quote_Close">
</g>
<g id="Print">
</g>
<g id="Presentation">
</g>
<g id="Portfolio">
</g>
<g id="Pop_Up_Window">
</g>
<g id="Play">
</g>
<g id="Pin">
</g>
<g id="Phone">
</g>
<g id="PDF">
</g>
<g id="Pay">
</g>
<g id="Rewards">
	<path d="M27,28.9c0-1,0-1.9,0-1.9h42.9v26.3c-2.4-2.6-5.1-5-8.2-7C55.1,41.7,47.8,39,42.2,39c-5.1,0-7.6,2.2-8.9,4
		c-4.9,7.2,2.9,18.1,13.3,25.3c1.8,1.3,3.7,2.4,5.6,3.3H27V28.9z M51.7,105.6l7.4,3.8l10.8-21V123H27c0,0,0-0.9,0-1.9V79h37.8
		L51.7,105.6z M68.2,66.8c-0.2,0.1-0.7,0.4-2.1,0.4c-3,0-8.4-1.6-14.7-5.9C42.2,55,39.8,48.7,40.3,47.6c0.1-0.1,0.7-0.4,2-0.4
		c3,0,8.4,1.6,14.7,5.9C66.2,59.6,68.6,65.8,68.2,66.8z M78.2,56.2L78.3,27H121c1.2,0,2,0,2,0v44.6H98.7c8.3-6.6,11.5-15.5,7.4-21.2
		c-1.8-2.5-5-3.9-8.8-3.9c-4.5,0-9.9,2-14.5,5.5C81.2,53.3,79.5,54.7,78.2,56.2z M83.7,79H123v44c0,0-0.9,0-2,0H78.2V86.3l8.9,9.7
		l6.1-5.5L83.7,79z M99.4,55.4c0.7,1.1-0.8,6-6.5,10.2c-3.1,2.3-6.8,3.8-9.4,3.8c-1.2,0-1.9-0.3-2.1-0.6c-0.2-0.3-0.3-1.5,0.5-3.2
		c1.1-2.3,3.2-4.9,6-7c3.1-2.3,6.8-3.7,9.5-3.7C98.6,54.9,99.2,55.2,99.4,55.4z"/>
</g>
<g id="New_Window">
</g>
<g id="Multiple_Users">
</g>
<g id="Articles">
</g>
<g id="More">
</g>
<g id="Mobile">
</g>
<g id="Messages">
</g>
<g id="Menu">
</g>
<g id="Memo">
</g>
<g id="Security_Lock">
</g>
<g id="Location">
</g>
<g id="List">
</g>
<g id="Link">
</g>
<g id="Investment">
</g>
<g id="Intranet">
</g>
<g id="Insurance">
</g>
<g id="Home">
</g>
<g id="Help">
</g>
<g id="Health">
</g>
<g id="Grid_view">
</g>
<g id="Global">
</g>
<g id="Filter">
</g>
<g id="Favourite">
</g>
<g id="Export">
</g>
<g id="Expand">
</g>
<g id="Education">
</g>
<g id="Edit">
</g>
<g id="Download">
</g>
<g id="Dollar_Bill">
</g>
<g id="Document">
</g>
<g id="Do_Not_View">
</g>
<g id="Dining">
</g>
<g id="Devices">
</g>
<g id="Desktop_Computer">
</g>
<g id="Bin">
</g>
<g id="Dashboard">
</g>
<g id="Copy">
</g>
<g id="Contactless_Payment">
</g>
<g id="Confidential">
</g>
<g id="Compose">
</g>
<g id="Column_View">
</g>
<g id="Collapse">
</g>
<g id="Client_Upload">
</g>
<g id="Client_Download">
</g>
<g id="Circle_Warning">
</g>
<g id="Circle_Error_Solid">
</g>
<g id="Circle_Info">
</g>
<g id="Circle_Fill_Information">
</g>
<g id="Circle_Help">
</g>
<g id="Circle_Help_Solid">
</g>
<g id="Circle_Delete">
</g>
<g id="Circle_Delete_Solid">
</g>
<g id="Circle_Confirmation">
</g>
<g id="Circle_Confirmation_Solid">
</g>
<g id="Chevron_Up">
</g>
<g id="Chevron_Right">
</g>
<g id="Chevron_Right_Small">
</g>
<g id="Chevron_Left">
</g>
<g id="Chevron_Down">
</g>
<g id="Chevron_Double_Right">
</g>
<g id="Chevron_Double_Left">
</g>
<g id="Chat">
</g>
<g id="Pie_Chart">
</g>
<g id="Delete">
</g>
<g id="Calendar">
</g>
<g id="Corporate">
</g>
<g id="Barcode">
</g>
<g id="Banking">
</g>
<g id="Back">
</g>
<g id="Attachment">
</g>
<g id="In_Branch">
</g>
<g id="Assets">
</g>
<g id="Newspaper">
</g>
<g id="Anchor_Up">
</g>
<g id="Anchor_down">
</g>
<g id="Insight">
</g>
<g id="Alert">
</g>
<g id="Agree">
</g>
<g id="Add">
</g>
<g id="Accounts">
</g>
</svg>
