<?xml version="1.0" encoding="utf-8"?>
<!-- Generator: Adobe Illustrator 19.1.0, SVG Export Plug-In . SVG Version: 6.00 Build 0)  -->
<!DOCTYPE svg PUBLIC "-//W3C//DTD SVG 1.1//EN" "http://www.w3.org/Graphics/SVG/1.1/DTD/svg11.dtd">
<svg version="1.1" id="ic" xmlns="http://www.w3.org/2000/svg" xmlns:xlink="http://www.w3.org/1999/xlink" x="0px" y="0px"
	 width="150px" height="150px" viewBox="0 0 150 150" enable-background="new 0 0 150 150" xml:space="preserve">
<g>
	<path d="M27,28.9c0-1,0-1.9,0-1.9h42.9v26.3c-2.4-2.6-5.1-5-8.2-7C55.1,41.7,47.8,39,42.2,39c-5.1,0-7.6,2.2-8.9,4
		c-4.9,7.2,2.9,18.1,13.3,25.3c1.8,1.3,3.7,2.4,5.6,3.3H27V28.9z M51.7,105.6l7.4,3.8l10.8-21V123H27c0,0,0-0.9,0-1.9V79h37.8
		L51.7,105.6z M68.2,66.8c-0.2,0.1-0.7,0.4-2.1,0.4c-3,0-8.4-1.6-14.7-5.9C42.2,55,39.8,48.7,40.3,47.6c0.1-0.1,0.7-0.4,2-0.4
		c3,0,8.4,1.6,14.7,5.9C66.2,59.6,68.6,65.8,68.2,66.8z M78.2,56.2L78.3,27H121c1.2,0,2,0,2,0v44.6H98.7c8.3-6.6,11.5-15.5,7.4-21.2
		c-1.8-2.5-5-3.9-8.8-3.9c-4.5,0-9.9,2-14.5,5.5C81.2,53.3,79.5,54.7,78.2,56.2z M83.7,79H123v44c0,0-0.9,0-2,0H78.2V86.3l8.9,9.7
		l6.1-5.5L83.7,79z M99.4,55.4c0.7,1.1-0.8,6-6.5,10.2c-3.1,2.3-6.8,3.8-9.4,3.8c-1.2,0-1.9-0.3-2.1-0.6c-0.2-0.3-0.3-1.5,0.5-3.2
		c1.1-2.3,3.2-4.9,6-7c3.1-2.3,6.8-3.7,9.5-3.7C98.6,54.9,99.2,55.2,99.4,55.4z"/>
</g>
</svg>
