<?xml version="1.0" encoding="utf-8"?>
<!-- Generator: Adobe Illustrator 19.1.0, SVG Export Plug-In . SVG Version: 6.00 Build 0)  -->
<!DOCTYPE svg PUBLIC "-//W3C//DTD SVG 1.1//EN" "http://www.w3.org/Graphics/SVG/1.1/DTD/svg11.dtd">
<svg version="1.1" id="Layer_2" xmlns="http://www.w3.org/2000/svg" xmlns:xlink="http://www.w3.org/1999/xlink" x="0px" y="0px"
	 width="132px" height="132px" viewBox="0 0 132 132" enable-background="new 0 0 132 132" xml:space="preserve">
<path d="M18,19.9c0-0.5,0-1,0-1.3c0-0.3,0-0.6,0-0.6h21.5h21.4v13.2v13.2c-1.2-1.3-2.5-2.6-3.8-3.7c-1.4-1.2-2.8-2.3-4.4-3.3
	c-3.3-2.3-6.8-4.1-10.1-5.4C39.2,30.7,36,30,33.2,30c-2.5,0-4.5,0.6-5.9,1.3c-1.4,0.8-2.4,1.8-3,2.7c-2.5,3.6-1.7,8.1,0.9,12.7
	c2.6,4.5,7.2,9,12.4,12.7c0.9,0.6,1.8,1.2,2.8,1.8s1.9,1,2.8,1.5H30.6H18V41.2V19.9z M42.7,96.6l3.7,1.9l3.7,1.9l5.4-10.5l5.4-10.5
	v17.3V114H39.5H18c0,0,0-0.2,0-0.6c0-0.4,0-0.8,0-1.3v-21V70h18.9h18.9l-6.5,13.3L42.7,96.6z M59.2,57.8c-0.1,0.1-0.3,0.1-0.6,0.2
	c-0.3,0.1-0.8,0.2-1.5,0.2c-1.5,0-3.6-0.4-6.1-1.3c-2.5-0.9-5.4-2.4-8.6-4.6c-4.6-3.2-7.5-6.3-9.2-8.8s-2.2-4.4-1.9-4.9
	c0,0,0.2-0.2,0.6-0.2c0.3-0.1,0.8-0.2,1.4-0.2c1.5,0,3.6,0.4,6.1,1.3c2.5,0.9,5.4,2.4,8.6,4.6c4.6,3.2,7.5,6.4,9.2,8.9
	C58.9,55.5,59.4,57.3,59.2,57.8z M69.2,47.2l0-14.6l0-14.6h21.4H112c0.6,0,1.1,0,1.4,0c0.4,0,0.6,0,0.6,0v22.3v22.3h-12.1H89.7
	c4.1-3.3,7-7.2,8.4-10.9c1.3-3.8,1.1-7.4-1-10.3c-0.9-1.2-2.2-2.2-3.7-2.9c-1.5-0.7-3.2-1-5.2-1c-2.2,0-4.7,0.5-7.2,1.4
	c-2.5,0.9-5,2.3-7.3,4.1c-0.8,0.7-1.6,1.3-2.4,2C70.6,45.7,69.9,46.4,69.2,47.2z M74.7,70h19.6H114v22v22c0,0-0.2,0-0.6,0
	c-0.4,0-0.9,0-1.4,0H90.6H69.2V95.7V77.3l4.5,4.8l4.4,4.8l3.1-2.8l3.1-2.8l-4.8-5.8L74.7,70z M90.4,46.4c0.3,0.5,0.1,2-0.9,3.9
	c-1,1.9-2.8,4.2-5.6,6.3c-1.6,1.2-3.3,2.1-4.9,2.8c-1.6,0.7-3.2,1-4.5,1c-0.6,0-1.1-0.1-1.4-0.2c-0.4-0.1-0.6-0.3-0.7-0.4
	s-0.2-0.5-0.1-1.1c0-0.6,0.2-1.3,0.6-2.1c0.6-1.2,1.3-2.4,2.4-3.6c1-1.2,2.2-2.4,3.6-3.4c1.6-1.2,3.2-2.1,4.9-2.7
	c1.7-0.6,3.2-1,4.6-1c0.6,0,1.1,0.1,1.4,0.2C90.1,46.2,90.3,46.3,90.4,46.4z"/>
</svg>
