<?xml version="1.0" encoding="utf-8"?>
<!-- Generator: Adobe Illustrator 19.1.0, SVG Export Plug-In . SVG Version: 6.00 Build 0)  -->
<!DOCTYPE svg PUBLIC "-//W3C//DTD SVG 1.1//EN" "http://www.w3.org/Graphics/SVG/1.1/DTD/svg11.dtd">
<svg version="1.1" id="Layer_2" xmlns="http://www.w3.org/2000/svg" xmlns:xlink="http://www.w3.org/1999/xlink" x="0px" y="0px"
	 width="150px" height="150px" viewBox="0 0 150 150" enable-background="new 0 0 150 150" xml:space="preserve">
<path d="M123,39v42v42c0,0-0.5,0-1.4,0s-2.1,0-3.4,0H72.6H27v-2.4v-2.4V75V31.8v-2.4V27h42h42l6,6L123,39z M107,71V53V35l-32,0
	l-32,0v18v18l32,0L107,71z"/>
<polygon points="47,39 55,39 63,39 63,53 63,67 55,67 47,67 47,53 "/>
</svg>
