<?xml version="1.0" encoding="utf-8"?>
<!-- Generator: Adobe Illustrator 19.1.0, SVG Export Plug-In . SVG Version: 6.00 Build 0)  -->
<!DOCTYPE svg PUBLIC "-//W3C//DTD SVG 1.1//EN" "http://www.w3.org/Graphics/SVG/1.1/DTD/svg11.dtd">
<svg version="1.1" id="ic" xmlns="http://www.w3.org/2000/svg" xmlns:xlink="http://www.w3.org/1999/xlink" x="0px" y="0px"
	 width="150px" height="150px" viewBox="0 0 150 150" enable-background="new 0 0 150 150" xml:space="preserve">
<g>
	<path d="M115.3,35.1V27l-7.7,7.4v5.7L91.3,56.3C84.5,50,75.4,46.2,65.4,46.2C44.2,46.2,27,63.4,27,84.6c0,21.2,17.2,38.4,38.4,38.4
		c21.2,0,38.4-17.2,38.4-38.4c0-8.4-2.7-16.2-7.3-22.5l-4,3.9c3.6,5.3,5.7,11.7,5.7,18.6c0,18.1-14.7,32.8-32.8,32.8
		s-32.8-14.7-32.8-32.8c0-18.1,14.7-32.8,32.8-32.8c8.5,0,16.2,3.1,22,8.4l-4.2,4.1c-4.8-4.2-11.1-6.8-18-6.8
		c-15.1,0-27.3,12.2-27.3,27.3c0,15.1,12.2,27.3,27.3,27.3c15.1,0,27.3-12.2,27.3-27.3c0-5.3-1.5-10.3-4.2-14.5l-4.8,4.8
		c1.5,2.9,2.4,6.2,2.4,9.7c0,11.4-9.3,20.7-20.7,20.7c-11.4,0-20.7-9.3-20.7-20.7c0-11.4,9.3-20.7,20.7-20.7c5.1,0,9.7,1.8,13.4,4.8
		l-4.2,4.2c-2.5-1.9-5.6-3.1-8.9-3.1c-8,0-14.6,6.5-14.6,14.6c0,8,6.5,14.6,14.6,14.6c8,0,14.6-6.5,14.6-14.6c0-1.8-0.3-3.5-0.9-5.1
		l-9.4,9.4L66.8,86l0.5-0.5l43-42.7h5l7.8-7.7H115.3z"/>
</g>
</svg>
