<?xml version="1.0" encoding="utf-8"?>
<!-- Generator: Adobe Illustrator 19.1.0, SVG Export Plug-In . SVG Version: 6.00 Build 0)  -->
<!DOCTYPE svg PUBLIC "-//W3C//DTD SVG 1.1//EN" "http://www.w3.org/Graphics/SVG/1.1/DTD/svg11.dtd">
<svg version="1.1" id="Layer_2" xmlns="http://www.w3.org/2000/svg" xmlns:xlink="http://www.w3.org/1999/xlink" x="0px" y="0px"
	 width="132px" height="132px" viewBox="0 0 132 132" enable-background="new 0 0 132 132" xml:space="preserve">
<path d="M110.2,26.1h-3.9v-4.1V18l-3.8,3.7l-3.9,3.7v2.9v2.9L82.3,47.3c-3-2.7-6.3-5-10-6.7c-4.8-2.2-10.2-3.4-15.9-3.4
	c-10.6,0-20.2,4.3-27.2,11.2C22.3,55.4,18,65,18,75.6c0,10.6,4.3,20.2,11.2,27.2c6.9,7,16.6,11.3,27.2,11.3s20.2-4.3,27.2-11.3
	c6.9-7,11.2-16.6,11.2-27.1c0-4.2-0.7-8.2-1.9-12c-1.2-3.8-3.1-7.3-5.4-10.5l-2,2l-2,1.9c1.8,2.7,3.2,5.6,4.2,8.7s1.5,6.4,1.5,9.9
	c0,9.1-3.7,17.3-9.6,23.2c-5.9,5.9-14.1,9.6-23.2,9.6s-17.2-3.7-23.2-9.6c-5.9-5.9-9.6-14.1-9.6-23.2c0-9,3.7-17.2,9.6-23.2
	c5.9-5.9,14.1-9.6,23.2-9.6c4.9,0,9.5,1.1,13.7,2.9c3,1.4,5.8,3.2,8.3,5.4l-1.6,1.6l-2.6,2.6c-2-1.7-4.1-3.1-6.5-4.2
	c-3.5-1.6-7.4-2.6-11.6-2.6c-7.6,0-14.4,3.1-19.3,8s-8,11.8-8,19.3s3,14.4,8,19.3s11.8,8,19.3,8s14.4-3,19.3-8s8-11.8,8-19.3
	c0-2.7-0.4-5.2-1.1-7.7c-0.7-2.4-1.8-4.7-3.1-6.8l-2.4,2.4l-2.4,2.4c0.8,1.5,1.3,3,1.8,4.6c0.4,1.6,0.6,3.3,0.6,5.1
	c0,5.7-2.3,10.9-6.1,14.6s-8.9,6.1-14.6,6.1c-5.7,0-10.9-2.3-14.6-6.1s-6.1-8.9-6.1-14.6s2.3-10.9,6.1-14.6s8.9-6.1,14.6-6.1
	c3.2,0,6.2,0.7,9,2c1.6,0.8,3,1.7,4.4,2.8l-4.2,4.2c-0.7-0.6-1.5-1.1-2.4-1.5c-2-1-4.2-1.6-6.6-1.6c-4,0-7.7,1.6-10.3,4.3
	c-2.7,2.6-4.3,6.3-4.3,10.3c0,4,1.6,7.7,4.3,10.3c2.6,2.7,6.3,4.3,10.3,4.3c4,0,7.7-1.6,10.3-4.3c2.7-2.6,4.3-6.3,4.3-10.3
	c0-0.9-0.1-1.8-0.2-2.6s-0.4-1.7-0.7-2.5l-4.7,4.7l-4.7,4.7l-1.5-1.5L57.8,77l0.5-0.5l21.3-21.1l21.7-21.6h2.5h2.5l3.9-3.8l3.9-3.8
	H110.2z"/>
</svg>
