<?xml version="1.0" encoding="utf-8"?>
<!-- Generator: Adobe Illustrator 19.1.0, SVG Export Plug-In . SVG Version: 6.00 Build 0)  -->
<!DOCTYPE svg PUBLIC "-//W3C//DTD SVG 1.1//EN" "http://www.w3.org/Graphics/SVG/1.1/DTD/svg11.dtd">
<svg version="1.1" id="Layer_2" xmlns="http://www.w3.org/2000/svg" xmlns:xlink="http://www.w3.org/1999/xlink" x="0px" y="0px"
	 width="150px" height="150px" viewBox="0 0 150 150" enable-background="new 0 0 150 150" xml:space="preserve">
<path d="M48.8,45.5c-6.1,0-11.5-0.8-15.4-2.2S27,40.2,27,38.2v3.9V46c0,2,2.4,3.8,6.4,5.2c4,1.3,9.4,2.1,15.4,2.1s11.6-0.8,15.6-2.1
	c4-1.3,6.6-3.2,6.6-5.2v-3.9v-3.9c0,2-2.5,3.8-6.6,5.1S54.9,45.5,48.8,45.5z"/>
<path d="M48.8,57.1c-6.1,0-11.5-0.8-15.4-2.2S27,51.8,27,49.8v3.9v3.9c0,2,2.4,3.8,6.4,5.2c4,1.3,9.4,2.2,15.4,2.2
	s11.6-0.8,15.6-2.2c4-1.3,6.6-3.2,6.6-5.2v-3.9v-3.9c0,2-2.5,3.8-6.6,5.2S54.9,57.1,48.8,57.1z"/>
<path d="M48.8,68.7c-6.1,0-11.5-0.8-15.4-2.2S27,63.3,27,61.3v3.9v3.9c0,2,2.4,3.8,6.4,5.2c4,1.3,9.4,2.1,15.4,2.1
	s11.6-0.8,15.6-2.1c4-1.3,6.6-3.2,6.6-5.2v-3.9v-3.9c0,2-2.5,3.8-6.6,5.2C60.4,67.8,54.9,68.7,48.8,68.7z"/>
<path d="M48.8,80.4c-6.1,0-11.5-0.8-15.4-2.2c-3.9-1.3-6.4-3.2-6.4-5.2V77v3.9c0,2,2.4,3.8,6.4,5.2s9.4,2.2,15.4,2.2
	s11.6-0.8,15.6-2.2s6.6-3.2,6.6-5.2V77v-3.9c0,2-2.5,3.8-6.6,5.2C60.4,79.5,54.9,80.4,48.8,80.4z"/>
<path d="M48.8,92c-6,0-11.4-0.8-15.4-2.2S27,86.7,27,84.7v3.9v3.9c0,2,2.4,3.8,6.4,5.1c4,1.3,9.4,2.1,15.4,2.1s11.6-0.8,15.6-2.1
	c4-1.3,6.6-3.1,6.6-5.1v-3.9v-3.9c0,2-2.5,3.8-6.6,5.2S54.9,92,48.8,92z"/>
<path d="M48.8,103.6c-6.1,0-11.5-0.8-15.4-2.1S27,98.3,27,96.3v3.9v3.9c0,2,2.4,3.8,6.4,5.2c4,1.3,9.4,2.2,15.4,2.2
	s11.6-0.8,15.6-2.2c4-1.3,6.6-3.2,6.6-5.2v-3.9v-3.9c0,2-2.5,3.8-6.6,5.1S54.9,103.6,48.8,103.6z"/>
<path d="M48.8,115.3c-6-0.1-11.4-0.9-15.4-2.2s-6.4-3.1-6.4-5.1v3.9v3.9c0,2,2.4,3.8,6.4,5.1s9.4,2.1,15.4,2.1s11.6-0.8,15.6-2.1
	s6.6-3.1,6.6-5.1v-3.9v-3.9c0,2-2.5,3.8-6.6,5.2C60.4,114.4,54.9,115.3,48.8,115.3z"/>
<path d="M48.8,41.6c6.1,0,11.6-0.8,15.6-2.2s6.6-3.2,6.6-5.2s-2.5-3.8-6.6-5.2s-9.6-2.2-15.6-2.2c-6,0-11.4,0.8-15.4,2.2
	S27,32.2,27,34.2s2.4,3.8,6.4,5.2S42.8,41.6,48.8,41.6z"/>
<path d="M101.2,80.3c-6,0-11.6-0.8-15.6-2.2S79,74.9,79,72.9v3.9v3.9c0,2,2.5,3.8,6.6,5.1s9.6,2.1,15.6,2.1s11.5-0.8,15.4-2.1
	s6.4-3.1,6.4-5.1v-3.9v-3.9c0,2-2.4,3.8-6.4,5.2C112.6,79.4,107.2,80.3,101.2,80.3z"/>
<path d="M101.2,91.9c-6,0-11.6-0.8-15.6-2.2c-4-1.3-6.6-3.2-6.6-5.2v3.9v3.9c0,2,2.5,3.8,6.6,5.2s9.6,2.2,15.6,2.2
	s11.5-0.8,15.4-2.2s6.4-3.2,6.4-5.2v-3.9v-3.9c0,2-2.4,3.8-6.4,5.2C112.6,91,107.2,91.9,101.2,91.9z"/>
<path d="M101.2,103.6c-6,0-11.6-0.8-15.6-2.1S79,98.3,79,96.3v3.8v3.8c0,2,2.5,3.8,6.6,5.2s9.6,2.2,15.6,2.2s11.5-0.8,15.4-2.2
	s6.4-3.2,6.4-5.2v-3.8v-3.8c0,2-2.4,3.8-6.4,5.1S107.2,103.6,101.2,103.6z"/>
<path d="M101.2,115.2c-6,0-11.6-0.8-15.6-2.2s-6.6-3.2-6.6-5.2v3.9v3.9c0,2,2.5,3.8,6.6,5.2s9.6,2.2,15.6,2.2s11.5-0.8,15.4-2.2
	s6.4-3.2,6.4-5.2v-3.9v-3.9c0,2-2.4,3.8-6.4,5.2S107.2,115.2,101.2,115.2z"/>
<path d="M101.2,76.4c6,0,11.4-0.8,15.4-2.2c4-1.3,6.4-3.2,6.4-5.2s-2.4-3.8-6.4-5.1s-9.4-2.1-15.4-2.1s-11.6,0.8-15.6,2.1
	S79,67.1,79,69.1s2.6,3.8,6.6,5.2C89.6,75.5,95.2,76.4,101.2,76.4z"/>
</svg>
