<?xml version="1.0" encoding="utf-8"?>
<!-- Generator: Adobe Illustrator 19.1.0, SVG Export Plug-In . SVG Version: 6.00 Build 0)  -->
<!DOCTYPE svg PUBLIC "-//W3C//DTD SVG 1.1//EN" "http://www.w3.org/Graphics/SVG/1.1/DTD/svg11.dtd">
<svg version="1.1" id="ic" xmlns="http://www.w3.org/2000/svg" xmlns:xlink="http://www.w3.org/1999/xlink" x="0px" y="0px"
	 width="150px" height="150px" viewBox="0 0 150 150" enable-background="new 0 0 150 150" xml:space="preserve">
<g>
	<path d="M48.8,45.5c-12.1,0-21.8-3.3-21.8-7.3V46c0,4,9.8,7.3,21.8,7.3S71,50,71,46v-7.8C71,42.2,60.9,45.5,48.8,45.5z"/>
	<path d="M48.8,57.1c-12.1,0-21.8-3.3-21.8-7.3v7.8c0,4,9.8,7.3,21.8,7.3S71,61.6,71,57.6v-7.8C71,53.8,60.9,57.1,48.8,57.1z"/>
	<path d="M48.8,68.7c-12.1,0-21.8-3.3-21.8-7.3v7.8c0,4,9.8,7.3,21.8,7.3S71,73.2,71,69.2v-7.8C71,65.4,60.9,68.7,48.8,68.7z"/>
	<path d="M48.8,80.4c-12.1,0-21.8-3.3-21.8-7.3v7.8c0,4,9.8,7.3,21.8,7.3S71,84.9,71,80.9v-7.8C71,77.1,60.9,80.4,48.8,80.4z"/>
	<path d="M48.8,92c-12,0-21.8-3.3-21.8-7.3v7.8c0,4,9.8,7.3,21.8,7.3S71,96.5,71,92.5v-7.8C71,88.7,60.9,92,48.8,92z"/>
	<path d="M48.8,103.6c-12.1,0-21.8-3.3-21.8-7.3v7.8c0,4,9.8,7.3,21.8,7.3s22.2-3.3,22.2-7.3v-7.8C71,100.3,60.9,103.6,48.8,103.6z"
		/>
	<path d="M48.8,115.3c-12-0.1-21.8-3.3-21.8-7.3v7.8c0,4,9.8,7.3,21.8,7.3s22.2-3.3,22.2-7.3v-7.8C71,112,60.9,115.3,48.8,115.3z"/>
	<path d="M48.8,41.6c12.1,0,22.2-3.3,22.2-7.3s-10.1-7.3-22.2-7.3c-12,0-21.8,3.3-21.8,7.3S36.7,41.6,48.8,41.6z"/>
	<path d="M101.2,80.3c-12,0-22.2-3.3-22.2-7.3v7.8c0,4,10.1,7.3,22.2,7.3c12.1,0,21.8-3.3,21.8-7.3v-7.8
		C123,77,113.2,80.3,101.2,80.3z"/>
	<path d="M101.2,91.9c-12,0-22.2-3.3-22.2-7.3v7.8c0,4,10.1,7.3,22.2,7.3c12.1,0,21.8-3.3,21.8-7.3v-7.8
		C123,88.6,113.2,91.9,101.2,91.9z"/>
	<path d="M101.2,103.6c-12,0-22.2-3.3-22.2-7.3v7.7c0,4,10.1,7.3,22.2,7.3c12.1,0,21.8-3.3,21.8-7.3v-7.7
		C123,100.3,113.2,103.6,101.2,103.6z"/>
	<path d="M101.2,115.2c-12,0-22.2-3.3-22.2-7.3v7.8c0,4,10.1,7.3,22.2,7.3c12.1,0,21.8-3.3,21.8-7.3v-7.8
		C123,111.9,113.2,115.2,101.2,115.2z"/>
	<path d="M101.2,76.4c12,0,21.8-3.3,21.8-7.3s-9.7-7.3-21.8-7.3c-12.1,0-22.2,3.3-22.2,7.3S89.2,76.4,101.2,76.4z"/>
</g>
</svg>
