<?xml version="1.0" encoding="utf-8"?>
<!-- Generator: Adobe Illustrator 19.1.0, SVG Export Plug-In . SVG Version: 6.00 Build 0)  -->
<svg version="1.1" id="Icons_3_" xmlns="http://www.w3.org/2000/svg" xmlns:xlink="http://www.w3.org/1999/xlink" x="0px" y="0px"
	 viewBox="0 0 150 150" enable-background="new 0 0 150 150" xml:space="preserve">
<g id="Savings">
	<path d="M48.8,45.5c-12.1,0-21.8-3.3-21.8-7.3V46c0,4,9.8,7.3,21.8,7.3S71,50,71,46v-7.8C71,42.2,60.9,45.5,48.8,45.5z"/>
	<path d="M48.8,57C36.7,57,27,53.8,27,49.8v7.8c0,4,9.8,7.3,21.8,7.3S71,61.5,71,57.5v-7.8C71,53.8,60.9,57,48.8,57z"/>
	<path d="M48.8,68.7c-12.1,0-21.8-3.3-21.8-7.3v7.8c0,4,9.8,7.3,21.8,7.3S71,73.2,71,69.2v-7.8C71,65.4,60.9,68.7,48.8,68.7z"/>
	<path d="M48.8,80.4c-12.1,0-21.8-3.3-21.8-7.3v7.8c0,4,9.8,7.3,21.8,7.3S71,84.9,71,80.9v-7.8C71,77.1,60.9,80.4,48.8,80.4z"/>
	<path d="M48.8,92c-12,0-21.8-3.3-21.8-7.3v7.8c0,4,9.8,7.3,21.8,7.3S71,96.5,71,92.5v-7.8C71,88.7,60.9,92,48.8,92z"/>
	<path d="M48.8,103.6c-12.1,0-21.8-3.3-21.8-7.3v7.8c0,4,9.8,7.3,21.8,7.3s22.2-3.3,22.2-7.3v-7.8C71,100.3,60.9,103.6,48.8,103.6z"
		/>
	<path d="M48.8,115.3c-12-0.1-21.8-3.3-21.8-7.3v7.8c0,4,9.8,7.3,21.8,7.3s22.2-3.3,22.2-7.3v-7.8C71,112,60.9,115.3,48.8,115.3z"/>
	<path d="M48.8,41.5c12.1,0,22.2-3.3,22.2-7.3S60.9,27,48.8,27c-12,0-21.8,3.3-21.8,7.3S36.7,41.5,48.8,41.5z"/>
	<path d="M101.2,80.3c-12,0-22.2-3.3-22.2-7.3v7.8c0,4,10.1,7.3,22.2,7.3s21.8-3.3,21.8-7.3v-7.8C123,77,113.2,80.3,101.2,80.3z"/>
	<path d="M101.2,91.9c-12,0-22.2-3.3-22.2-7.3v7.8c0,4,10.1,7.3,22.2,7.3s21.8-3.3,21.8-7.3v-7.8C123,88.6,113.2,91.9,101.2,91.9z"
		/>
	<path d="M101.2,103.6c-12,0-22.2-3.3-22.2-7.3v7.7c0,4,10.1,7.3,22.2,7.3S123,108,123,104v-7.7C123,100.3,113.2,103.6,101.2,103.6z
		"/>
	<path d="M101.2,115.2c-12,0-22.2-3.3-22.2-7.3v7.8c0,4,10.1,7.3,22.2,7.3s21.8-3.3,21.8-7.3v-7.8
		C123,111.9,113.2,115.2,101.2,115.2z"/>
	<path d="M101.2,76.4c12,0,21.8-3.3,21.8-7.3s-9.7-7.3-21.8-7.3c-12.1,0-22.2,3.3-22.2,7.3S89.2,76.4,101.2,76.4z"/>
</g>
<g id="Savings_goals">
</g>
<g id="Save">
</g>
<g id="Report">
</g>
<g id="Reply">
</g>
<g id="Renew">
</g>
<g id="Refresh">
</g>
<g id="Rates">
</g>
<g id="Quote_open">
</g>
<g id="Quote_Close">
</g>
<g id="Print">
</g>
<g id="Presentation">
</g>
<g id="Portfolio">
</g>
<g id="Pop_Up_Window">
</g>
<g id="Play">
</g>
<g id="Pin">
</g>
<g id="Phone">
</g>
<g id="PDF">
</g>
<g id="Pay">
</g>
<g id="Rewards">
</g>
<g id="New_Window">
</g>
<g id="Multiple_Users">
</g>
<g id="Articles">
</g>
<g id="More">
</g>
<g id="Mobile">
</g>
<g id="Messages">
</g>
<g id="Menu">
</g>
<g id="Memo">
</g>
<g id="Security_Lock">
</g>
<g id="Location">
</g>
<g id="List">
</g>
<g id="Link">
</g>
<g id="Investment">
</g>
<g id="Intranet">
</g>
<g id="Insurance">
</g>
<g id="Home">
</g>
<g id="Help">
</g>
<g id="Health">
</g>
<g id="Grid_view">
</g>
<g id="Global">
</g>
<g id="Filter">
</g>
<g id="Favourite">
</g>
<g id="Export">
</g>
<g id="Expand">
</g>
<g id="Education">
</g>
<g id="Edit">
</g>
<g id="Download">
</g>
<g id="Dollar_Bill">
</g>
<g id="Document">
</g>
<g id="Do_Not_View">
</g>
<g id="Dining">
</g>
<g id="Devices">
</g>
<g id="Desktop_Computer">
</g>
<g id="Bin">
</g>
<g id="Dashboard">
</g>
<g id="Copy">
</g>
<g id="Contactless_Payment">
</g>
<g id="Confidential">
</g>
<g id="Compose">
</g>
<g id="Column_View">
</g>
<g id="Collapse">
</g>
<g id="Client_Upload">
</g>
<g id="Client_Download">
</g>
<g id="Circle_Warning">
</g>
<g id="Circle_Error_Solid">
</g>
<g id="Circle_Info">
</g>
<g id="Circle_Fill_Information">
</g>
<g id="Circle_Help">
</g>
<g id="Circle_Help_Solid">
</g>
<g id="Circle_Delete">
</g>
<g id="Circle_Delete_Solid">
</g>
<g id="Circle_Confirmation">
</g>
<g id="Circle_Confirmation_Solid">
</g>
<g id="Chevron_Up">
</g>
<g id="Chevron_Right">
</g>
<g id="Chevron_Right_Small">
</g>
<g id="Chevron_Left">
</g>
<g id="Chevron_Down">
</g>
<g id="Chevron_Double_Right">
</g>
<g id="Chevron_Double_Left">
</g>
<g id="Chat">
</g>
<g id="Pie_Chart">
</g>
<g id="Delete">
</g>
<g id="Calendar">
</g>
<g id="Corporate">
</g>
<g id="Barcode">
</g>
<g id="Banking">
</g>
<g id="Back">
</g>
<g id="Attachment">
</g>
<g id="In_Branch">
</g>
<g id="Assets">
</g>
<g id="Newspaper">
</g>
<g id="Anchor_Up">
</g>
<g id="Anchor_down">
</g>
<g id="Insight">
</g>
<g id="Alert">
</g>
<g id="Agree">
</g>
<g id="Add">
</g>
<g id="Accounts">
</g>
</svg>
