<?xml version="1.0" encoding="utf-8"?>
<!-- Generator: Adobe Illustrator 19.1.0, SVG Export Plug-In . SVG Version: 6.00 Build 0)  -->
<svg version="1.1" id="Icons_3_" xmlns="http://www.w3.org/2000/svg" xmlns:xlink="http://www.w3.org/1999/xlink" x="0px" y="0px"
	 viewBox="0 0 150 150" enable-background="new 0 0 150 150" xml:space="preserve">
<g id="Error">
</g>
<g id="View">
</g>
<g id="Video">
</g>
<g id="User_Personal">
</g>
<g id="Upload">
</g>
<g id="Travel">
</g>
<g id="Transfers">
</g>
<g id="Tools">
</g>
<g id="Clock">
</g>
<g id="Fast_Track">
</g>
<g id="Camera">
</g>
<g id="Tablet">
</g>
<g id="Switch">
</g>
<g id="Survey">
</g>
<g id="Minimize">
</g>
<g id="Stock_Up">
</g>
<g id="Stock_Down">
</g>
<g id="Sound">
</g>
<g id="Shopping_Cart">
</g>
<g id="Share">
</g>
<g id="Settings">
</g>
<g id="Secure_Key_Passcode">
</g>
<g id="Search">
</g>
<g id="Script">
	<path id="Fill-1" d="M50.9,47.2h35.9v3.9H50.9V47.2z"/>
	<path id="Fill-2" d="M50.9,59h35.9v3.9H50.9V59z"/>
	<path id="Fill-3" d="M50.9,71h35.9v3.9H50.9V71z"/>
	<path id="Fill-4" d="M51,83h24v4.1H51V83z"/>
	<path id="Fill-5" d="M122.5,41c0-7.7-6.2-13.9-13.9-13.9c0,0-0.1,0-0.1,0l-57.2,0c-8.9,0-16.1,7.2-16.1,16.1v63.7h-7.8
		c0,0,0,0.1,0,0.1c0,8.8,7.1,15.9,15.9,15.9c0.3,0,0.6,0,0.8,0l0,0l30.3,0h12.2v0c8.8,0,16-7.2,16-16.1v-7.8V41.1h19.9
		C122.5,41.1,122.5,41,122.5,41L122.5,41z M94.8,64.9v41.8c0,4.6-3.7,8.3-8.3,8.3H86c-4.2-0.3-7.4-3.8-7.4-8.1c0,0,0,0,0-0.1H43.1
		V43.2c0-4.6,3.7-8.3,8.3-8.3l44.8,0c-0.9,1.8-1.4,3.9-1.4,6c0,0,0,0.1,0,0.1h0V64.9L94.8,64.9z"/>
</g>
<g id="Staff_Channels">
	<g id="Signature">
	</g>
	<g id="Shortcuts">
	</g>
	<g id="Microphone">
	</g>
	<g id="Dial">
	</g>
</g>
<g id="Social_Icons">
	<g id="Youtube">
	</g>
	<g id="Youtube_Solid">
	</g>
	<g id="Weibo">
	</g>
	<g id="Weibo_Solid">
	</g>
	<g id="Vimeo">
	</g>
	<g id="Vimeo_Solid">
	</g>
	<g id="Twitter">
	</g>
	<g id="Twitter_Solid">
	</g>
	<g id="LinkedIn">
	</g>
	<g id="LinkedIn_Solid">
	</g>
	<g id="GooglePlus">
	</g>
	<g id="GooglePlus_Solid">
	</g>
	<g id="Facebook">
	</g>
	<g id="Facebook_Solid">
	</g>
</g>
</svg>
