<?xml version="1.0" encoding="utf-8"?>
<!-- Generator: Adobe Illustrator 19.1.0, SVG Export Plug-In . SVG Version: 6.00 Build 0)  -->
<!DOCTYPE svg PUBLIC "-//W3C//DTD SVG 1.1//EN" "http://www.w3.org/Graphics/SVG/1.1/DTD/svg11.dtd">
<svg version="1.1" id="icon" xmlns="http://www.w3.org/2000/svg" xmlns:xlink="http://www.w3.org/1999/xlink" x="0px" y="0px"
	 width="132px" height="132px" viewBox="0 0 132 132" enable-background="new 0 0 132 132" xml:space="preserve">
<g>
	<polygon points="41.9,38.2 59.9,38.2 77.8,38.2 77.8,40.1 77.8,42.1 59.9,42.1 41.9,42.1 41.9,40.1 	"/>
	<polygon points="41.9,50 59.9,50 77.8,50 77.8,52 77.8,53.9 59.9,53.9 41.9,53.9 41.9,52 	"/>
	<polygon points="41.9,62 59.9,62 77.8,62 77.8,64 77.8,65.9 59.9,65.9 41.9,65.9 41.9,64 	"/>
	<polygon points="42,74 54,74 66,74 66,76.1 66,78.1 54,78.1 42,78.1 42,76.1 	"/>
	<path d="M113.5,32c0-3.8-1.6-7.3-4.1-9.8s-6-4.1-9.8-4.1l-0.1,0l-0.1,0l-28.6,0l-28.6,0c-4.4,0-8.5,1.8-11.4,4.7s-4.7,6.9-4.7,11.4
		v31.8v31.8h-3.9h-3.9l0,0.1l0,0.1c0,4.4,1.8,8.3,4.6,11.2s6.8,4.6,11.2,4.6c0.1,0,0.3,0,0.4,0c0.1,0,0.3,0,0.4,0l0,0l0,0l15.2,0
		l15.2,0h6.1h6.1v0v0c4.4,0,8.4-1.8,11.3-4.7s4.7-6.9,4.7-11.3v-3.9v-3.9V61V32.1h10h10L113.5,32L113.5,32z M85.8,97.8
		c0,2.3-0.9,4.3-2.4,5.8c-1.5,1.5-3.6,2.4-5.8,2.4h-0.3H77c-2.1-0.2-3.9-1.1-5.3-2.6c-1.3-1.4-2.2-3.4-2.2-5.5l0,0l0,0H51.8H34.1
		V66.1V34.2c0-2.3,0.9-4.3,2.4-5.8c1.5-1.5,3.6-2.4,5.8-2.4l22.4,0l22.4,0c-0.4,0.9-0.8,1.9-1,2.9c-0.2,1-0.4,2.1-0.4,3.1l0,0.1
		l0,0.1h0h0V97.8z"/>
</g>
</svg>
