<?xml version="1.0" encoding="utf-8"?>
<!-- Generator: Adobe Illustrator 19.1.0, SVG Export Plug-In . SVG Version: 6.00 Build 0)  -->
<!DOCTYPE svg PUBLIC "-//W3C//DTD SVG 1.1//EN" "http://www.w3.org/Graphics/SVG/1.1/DTD/svg11.dtd">
<svg version="1.1" id="icon" xmlns="http://www.w3.org/2000/svg" xmlns:xlink="http://www.w3.org/1999/xlink" x="0px" y="0px"
	 width="150px" height="150px" viewBox="0 0 150 150" enable-background="new 0 0 150 150" xml:space="preserve">
<g>
	<polygon points="50.9,47.2 68.9,47.2 86.8,47.2 86.8,49.1 86.8,51.1 68.9,51.1 50.9,51.1 50.9,49.1 	"/>
	<polygon points="50.9,59 68.9,59 86.8,59 86.8,61 86.8,62.9 68.9,62.9 50.9,62.9 50.9,61 	"/>
	<polygon points="50.9,71 68.9,71 86.8,71 86.8,73 86.8,74.9 68.9,74.9 50.9,74.9 50.9,73 	"/>
	<polygon points="51,83 63,83 75,83 75,85.1 75,87.1 63,87.1 51,87.1 51,85.1 	"/>
	<path d="M122.5,41c0-3.8-1.6-7.3-4.1-9.8s-6-4.1-9.8-4.1l-0.1,0l-0.1,0l-57.2,0c-4.4,0-8.5,1.8-11.4,4.7s-4.7,6.9-4.7,11.4v63.7
		h-7.8l0,0.1l0,0.1c0,4.4,1.8,8.3,4.6,11.2s6.8,4.6,11.2,4.6c0.1,0,43.3,0,43.3,0v0v0c4.4,0,8.4-1.8,11.3-4.7s4.7-6.9,4.7-11.3V41.1
		h19.9L122.5,41L122.5,41z M94.8,106.8c-0.4,2.3-0.9,4.3-2.4,5.8c-1.5,1.5-3.6,2.4-5.8,2.4H86c-2.1-0.2-3.9-1.1-5.3-2.6
		c-1.3-1.4-2.2-3.4-2.2-5.5l0,0l0,0H43.1V75.1V43.2c0-2.3,0.9-4.3,2.4-5.8c1.5-1.5,3.6-2.4,5.8-2.4l22.4,0l22.4,0
		c-0.4,0.9-0.8,1.9-1,2.9c-0.2,1-0.4,2.1-0.4,3.1l0,0.1l0,0.1h0h0V106.8z"/>
</g>
</svg>
