<?xml version="1.0" encoding="utf-8"?>
<!-- Generator: Adobe Illustrator 19.1.0, SVG Export Plug-In . SVG Version: 6.00 Build 0)  -->
<!DOCTYPE svg PUBLIC "-//W3C//DTD SVG 1.1//EN" "http://www.w3.org/Graphics/SVG/1.1/DTD/svg11.dtd">
<svg version="1.1" id="icon" xmlns="http://www.w3.org/2000/svg" xmlns:xlink="http://www.w3.org/1999/xlink" x="0px" y="0px"
	 width="132px" height="132px" viewBox="0 0 132 132" enable-background="new 0 0 132 132" xml:space="preserve">
<g>
	<path d="M30,18v48v48h36h36V66V18H66H30z M54,106h-8h-8v-8v-8h8h8v8V106z M54,86h-8h-8v-8v-8h8h8v8V86z M54,66h-8h-8v-8v-8h8h8v8
		V66z M74,106h-8h-8v-8v-8h8h8v8V106z M74,86h-8h-8v-8v-8h8h8v8V86z M74,66h-8h-8v-8v-8h8h8v8V66z M94,106h-8h-8v-8v-8h8h8v8V106z
		 M94,86h-8h-8v-8v-8h8h8v8V86z M94,66h-8h-8v-8v-8h8h8v8V66z M94,42H66H38v-8v-8h28h28v8V42z"/>
</g>
</svg>
