<?xml version="1.0" encoding="utf-8"?>
<!-- Generator: Adobe Illustrator 19.1.0, SVG Export Plug-In . SVG Version: 6.00 Build 0)  -->
<!DOCTYPE svg PUBLIC "-//W3C//DTD SVG 1.1//EN" "http://www.w3.org/Graphics/SVG/1.1/DTD/svg11.dtd">
<svg version="1.1" id="Layer_2" xmlns="http://www.w3.org/2000/svg" xmlns:xlink="http://www.w3.org/1999/xlink" x="0px" y="0px"
	 width="132px" height="132px" viewBox="0 0 132 132" enable-background="new 0 0 132 132" xml:space="preserve">
<path d="M102,62v26v26H66H30V88V62h4h4c0,0,0-0.3,0-2.6c0-2.3,0-6.5,0-14.4V45v-0.1c0-7.4,3.3-14.1,8.3-19S58.2,18,65.4,18
	s14.4,3,19.7,7.9c5.3,4.9,8.9,11.6,8.9,19v0V45v8.5V62l4,0L102,62z M81.9,43.3L81.9,43.3L81.9,43.3c0-4-2.2-7.6-5.3-10.2
	s-7.3-4.2-11.1-4.2c-3.8,0-7.6,1.6-10.4,4.2s-4.7,6.2-4.7,10.2v0v0v9.3V62h15.8h15.8v-9.3L81.9,43.3L81.9,43.3z M60,102h6h6
	c0.4,0,0.7-0.2,0.8-0.4c0.2-0.3,0.2-0.6,0.1-0.9l-2.5-6.2l-2.5-6.2c1.6-0.5,2.9-1.4,3.9-2.6s1.5-2.7,1.5-4.4c0-2.3-1.1-4.3-2.7-5.7
	c-1.6-1.3-3.9-2-6.2-1.5c-1.4,0.3-2.7,1-3.7,2.1c-1,1-1.7,2.3-1.9,3.7c-0.3,1.9,0.1,3.8,1,5.2c1,1.5,2.4,2.6,4.2,3l-2.5,6.2
	l-2.5,6.2c-0.1,0.3-0.1,0.7,0.1,0.9C59.4,101.8,59.7,102,60,102z"/>
</svg>
