<?xml version="1.0" encoding="utf-8"?>
<!-- Generator: Adobe Illustrator 19.1.0, SVG Export Plug-In . SVG Version: 6.00 Build 0)  -->
<!DOCTYPE svg PUBLIC "-//W3C//DTD SVG 1.1//EN" "http://www.w3.org/Graphics/SVG/1.1/DTD/svg11.dtd">
<svg version="1.1" id="ic" xmlns="http://www.w3.org/2000/svg" xmlns:xlink="http://www.w3.org/1999/xlink" x="0px" y="0px"
	 width="150px" height="150px" viewBox="0 0 150 150" enable-background="new 0 0 150 150" xml:space="preserve">
<g>
	<path d="M111,71v52H39V71h8c0,0,0-1.3,0-17v-0.2C47,39,60,27,74.4,27S103,39,103,53.9c0,0,0,0,0,0.2v17L111,71z M90.9,52.3
		L90.9,52.3c0-8-8.7-14.4-16.4-14.4c-7.6,0-15.2,6.4-15.2,14.4v0.1V71h31.6L90.9,52.3L90.9,52.3z M69,111h12.1
		c0.7,0,1.2-0.7,0.9-1.4l-5.1-12.3c3.2-0.9,5.4-3.7,5.4-7c0-4.6-4.3-8.1-8.9-7.1c-2.8,0.6-5.1,3-5.6,5.8c-0.7,3.9,1.7,7.3,5.3,8.3
		l-5,12.3C67.8,110.3,68.3,111,69,111z"/>
</g>
</svg>
