<?xml version="1.0" encoding="utf-8"?>
<!-- Generator: Adobe Illustrator 19.1.0, SVG Export Plug-In . SVG Version: 6.00 Build 0)  -->
<!DOCTYPE svg PUBLIC "-//W3C//DTD SVG 1.1//EN" "http://www.w3.org/Graphics/SVG/1.1/DTD/svg11.dtd">
<svg version="1.1" id="icon" xmlns="http://www.w3.org/2000/svg" xmlns:xlink="http://www.w3.org/1999/xlink" x="0px" y="0px"
	 width="132px" height="132px" viewBox="0 0 132 132" enable-background="new 0 0 132 132" xml:space="preserve">
<g>
	<path d="M99.6,85.2c-2.3,0-4.4,0.5-6.3,1.5s-3.6,2.3-4.9,3.9L67.5,79.5L46.6,68.4c0.1-0.4,0.1-0.8,0.2-1.2c0-0.4,0.1-0.8,0.1-1.2
		c0-0.5,0-1-0.1-1.4c0-0.5-0.1-0.9-0.2-1.4l20.8-11.1l20.8-11.1c1.3,1.7,3,3.2,5,4.2c2,1,4.2,1.6,6.5,1.6c4,0,7.6-1.6,10.2-4.2
		c2.6-2.6,4.2-6.2,4.2-10.2s-1.6-7.6-4.2-10.2c-2.6-2.6-6.2-4.2-10.2-4.2s-7.6,1.6-10.2,4.2c-2.6,2.6-4.2,6.2-4.2,10.2
		c0,0.2,0,0.5,0,0.7c0,0.2,0,0.5,0.1,0.7L64.2,45.1L43,56.3c-1.3-1.4-2.9-2.6-4.7-3.5c-1.8-0.8-3.8-1.3-5.9-1.3
		c-4,0-7.6,1.6-10.2,4.2C19.6,58.4,18,62,18,66s1.6,7.6,4.2,10.2c2.6,2.6,6.2,4.2,10.2,4.2c2.2,0,4.3-0.5,6.1-1.4
		c1.9-0.9,3.5-2.1,4.8-3.7l21,11.2l21,11.2c0,0.3-0.1,0.6-0.1,1s0,0.6,0,1c0,4,1.6,7.6,4.2,10.2c2.6,2.6,6.2,4.2,10.2,4.2
		c4,0,7.6-1.6,10.2-4.2c2.6-2.6,4.2-6.2,4.2-10.2c0-4-1.6-7.6-4.2-10.2C107.2,86.8,103.6,85.2,99.6,85.2z"/>
</g>
</svg>
