<?xml version="1.0" encoding="utf-8"?>
<!-- Generator: Adobe Illustrator 19.1.0, SVG Export Plug-In . SVG Version: 6.00 Build 0)  -->
<!DOCTYPE svg PUBLIC "-//W3C//DTD SVG 1.1//EN" "http://www.w3.org/Graphics/SVG/1.1/DTD/svg11.dtd">
<svg version="1.1" id="icon" xmlns="http://www.w3.org/2000/svg" xmlns:xlink="http://www.w3.org/1999/xlink" x="0px" y="0px"
	 width="132px" height="132px" viewBox="0 0 132 132" enable-background="new 0 0 132 132" xml:space="preserve">
<g>
	<path d="M31,33l-6.5,0L18,33v-3.2v-3.2h9h9l1.7,6.4l1.7,6.4h37.4H114l-5.9,22.4l-5.9,22.4H73.4H44.5l-6.7-25.6L31,33z M105.8,45.8
		H73.4H41l1.7,6.4l1.7,6.4h29h29l1.7-6.4L105.8,45.8z M100.7,65H73.4H46.1l1.7,6.4l1.7,6.4h23.9h23.9l1.7-6.4L100.7,65z"/>
	<path d="M54.8,87.4c2.2,0,4.2,0.9,5.7,2.3c1.4,1.4,2.3,3.4,2.3,5.7c0,2.2-0.9,4.2-2.3,5.7c-1.4,1.4-3.4,2.3-5.7,2.3
		s-4.2-0.9-5.7-2.3c-1.4-1.4-2.3-3.4-2.3-5.7c0-2.2,0.9-4.2,2.3-5.7C50.6,88.3,52.6,87.4,54.8,87.4z"/>
	<path d="M93.2,87.4c2.2,0,4.2,0.9,5.7,2.3c1.4,1.4,2.3,3.4,2.3,5.7c0,2.2-0.9,4.2-2.3,5.7c-1.4,1.4-3.4,2.3-5.7,2.3
		s-4.2-0.9-5.7-2.3c-1.4-1.4-2.3-3.4-2.3-5.7c0-2.2,0.9-4.2,2.3-5.7C89,88.3,91,87.4,93.2,87.4z"/>
</g>
</svg>
