<?xml version="1.0" encoding="utf-8"?>
<!-- Generator: Adobe Illustrator 19.1.0, SVG Export Plug-In . SVG Version: 6.00 Build 0)  -->
<!DOCTYPE svg PUBLIC "-//W3C//DTD SVG 1.1//EN" "http://www.w3.org/Graphics/SVG/1.1/DTD/svg11.dtd">
<svg version="1.1" id="icon" xmlns="http://www.w3.org/2000/svg" xmlns:xlink="http://www.w3.org/1999/xlink" x="0px" y="0px"
	 width="150px" height="150px" viewBox="0 0 150 150" enable-background="new 0 0 150 150" xml:space="preserve">
<g>
	<path d="M40,42l-6.5,0L27,42v-3.2v-3.2h9h9l1.7,6.4l1.7,6.4h37.4H123l-5.9,22.4l-5.9,22.4H82.4H53.5l-6.7-25.6L40,42z M114.8,54.8
		H82.4H50l1.7,6.4l1.7,6.4h29h29l1.7-6.4L114.8,54.8z M109.7,74H82.4H55.1l1.7,6.4l1.7,6.4h23.9h23.9l1.7-6.4L109.7,74z"/>
	<path d="M63.8,96.4c2.2,0,4.2,0.9,5.7,2.3c1.4,1.4,2.3,3.4,2.3,5.7c0,2.2-0.9,4.2-2.3,5.7c-1.4,1.4-3.4,2.3-5.7,2.3
		s-4.2-0.9-5.7-2.3c-1.4-1.4-2.3-3.4-2.3-5.7c0-2.2,0.9-4.2,2.3-5.7C59.6,97.3,61.6,96.4,63.8,96.4z"/>
	<path d="M102.2,96.4c2.2,0,4.2,0.9,5.7,2.3c1.4,1.4,2.3,3.4,2.3,5.7c0,2.2-0.9,4.2-2.3,5.7c-1.4,1.4-3.4,2.3-5.7,2.3
		s-4.2-0.9-5.7-2.3c-1.4-1.4-2.3-3.4-2.3-5.7c0-2.2,0.9-4.2,2.3-5.7C98,97.3,100,96.4,102.2,96.4z"/>
</g>
</svg>
