<?xml version="1.0" encoding="utf-8"?>
<!-- Generator: Adobe Illustrator 19.1.0, SVG Export Plug-In . SVG Version: 6.00 Build 0)  -->
<!DOCTYPE svg PUBLIC "-//W3C//DTD SVG 1.1//EN" "http://www.w3.org/Graphics/SVG/1.1/DTD/svg11.dtd">
<svg version="1.1" id="icon" xmlns="http://www.w3.org/2000/svg" xmlns:xlink="http://www.w3.org/1999/xlink" x="0px" y="0px"
	 width="132px" height="132px" viewBox="0 0 132 132" enable-background="new 0 0 132 132" xml:space="preserve">
<g>
	<polygon points="18.2,38.2 26.2,38.2 34.2,38.2 34.2,46.2 34.2,54.2 26.2,54.2 18.2,54.2 18.2,46.2 	"/>
	<polygon points="38,38.2 46,38.2 54,38.2 54,46.2 54,54.2 46,54.2 38,54.2 38,46.2 	"/>
	<polygon points="58,38.2 66,38.2 74,38.2 74,46.2 74,54.2 66,54.2 58,54.2 58,46.2 	"/>
	<polygon points="77.9,38.2 85.9,38.2 93.9,38.2 93.9,46.2 93.9,54.2 85.9,54.2 77.9,54.2 77.9,46.2 	"/>
	<polygon points="97.9,38.2 105.9,38.2 113.9,38.2 113.9,46.2 113.9,54.2 105.9,54.2 97.9,54.2 97.9,46.2 	"/>
	<polygon points="28.1,58.1 36.1,58.1 44.1,58.1 44.1,66.1 44.1,74.1 36.1,74.1 28.1,74.1 28.1,66.1 	"/>
	<polygon points="48,58.1 56,58.1 64,58.1 64,66.1 64,74.1 56,74.1 48,74.1 48,66.1 	"/>
	<polygon points="68,58.1 76,58.1 84,58.1 84,66.1 84,74.1 76,74.1 68,74.1 68,66.1 	"/>
	<polygon points="87.9,58.1 95.9,58.1 103.9,58.1 103.9,66.1 103.9,74.1 95.9,74.1 87.9,74.1 87.9,66.1 	"/>
	<polygon points="30.1,78 66,78 101.8,78 101.8,86 101.8,94 66,94 30.1,94 30.1,86 	"/>
</g>
</svg>
