<?xml version="1.0" encoding="utf-8"?>
<!-- Generator: Adobe Illustrator 19.1.0, SVG Export Plug-In . SVG Version: 6.00 Build 0)  -->
<svg version="1.1" id="Icons_3_" xmlns="http://www.w3.org/2000/svg" xmlns:xlink="http://www.w3.org/1999/xlink" x="0px" y="0px"
	 viewBox="0 0 150 150" enable-background="new 0 0 150 150" xml:space="preserve">
<g id="Error">
</g>
<g id="View">
</g>
<g id="Video">
</g>
<g id="User_Personal">
</g>
<g id="Upload">
</g>
<g id="Travel">
</g>
<g id="Transfers">
</g>
<g id="Tools">
</g>
<g id="Clock">
</g>
<g id="Fast_Track">
</g>
<g id="Camera">
</g>
<g id="Tablet">
</g>
<g id="Switch">
</g>
<g id="Survey">
</g>
<g id="Minimize">
</g>
<g id="Stock_Up">
</g>
<g id="Stock_Down">
</g>
<g id="Sound">
</g>
<g id="Shopping_Cart">
</g>
<g id="Share">
</g>
<g id="Settings">
</g>
<g id="Secure_Key_Passcode">
</g>
<g id="Search">
</g>
<g id="Script">
</g>
<g id="Staff_Channels">
	<g id="Signature">
	</g>
	<g id="Shortcuts">
		<path id="Fill-1_3_" d="M27.2,47.2h16v16h-16V47.2z"/>
		<path id="Fill-2_3_" d="M47,47.2h16v16H47V47.2z"/>
		<path id="Fill-3_2_" d="M67,47.2h16v16H67V47.2z"/>
		<path id="Fill-4_2_" d="M86.9,47.2h16v16h-16V47.2z"/>
		<path id="Fill-5_2_" d="M106.9,47.2h16v16h-16V47.2z"/>
		<path id="Fill-6_1_" d="M37.1,67.1h16v16h-16V67.1z"/>
		<path id="Fill-7_1_" d="M57,67.1h16v16H57V67.1z"/>
		<path id="Fill-8_1_" d="M77,67.1h16v16H77V67.1z"/>
		<path id="Fill-9_1_" d="M96.9,67.1h16v16h-16V67.1z"/>
		<path id="Fill-10" d="M39.1,87h71.7v16H39.1V87z"/>
	</g>
	<g id="Microphone">
	</g>
	<g id="Dial">
	</g>
</g>
<g id="Social_Icons">
	<g id="Youtube">
	</g>
	<g id="Youtube_Solid">
	</g>
	<g id="Weibo">
	</g>
	<g id="Weibo_Solid">
	</g>
	<g id="Vimeo">
	</g>
	<g id="Vimeo_Solid">
	</g>
	<g id="Twitter">
	</g>
	<g id="Twitter_Solid">
	</g>
	<g id="LinkedIn">
	</g>
	<g id="LinkedIn_Solid">
	</g>
	<g id="GooglePlus">
	</g>
	<g id="GooglePlus_Solid">
	</g>
	<g id="Facebook">
	</g>
	<g id="Facebook_Solid">
	</g>
</g>
</svg>
