<?xml version="1.0" encoding="utf-8"?>
<!-- Generator: Adobe Illustrator 19.1.0, SVG Export Plug-In . SVG Version: 6.00 Build 0)  -->
<!DOCTYPE svg PUBLIC "-//W3C//DTD SVG 1.1//EN" "http://www.w3.org/Graphics/SVG/1.1/DTD/svg11.dtd">
<svg version="1.1" id="icon" xmlns="http://www.w3.org/2000/svg" xmlns:xlink="http://www.w3.org/1999/xlink" x="0px" y="0px"
	 width="150px" height="150px" viewBox="0 0 150 150" enable-background="new 0 0 150 150" xml:space="preserve">
<g>
	<polyline points="122.7,47.1 119.3,50.4 115.9,53.7 110.1,47.8 104.2,41.9 107.6,38.5 111,35.1 116.8,41.1 122.7,47.1 	"/>
	<polyline points="101.6,44.6 107.4,50.5 113.3,56.4 94.9,74.8 76.4,93.2 67.7,96 59,98.7 61.8,90 64.6,81.3 83.1,62.9 101.6,44.6 	
		"/>
	<polygon points="27.4,106.6 75.1,106.6 122.7,106.6 122.7,110.8 122.7,114.9 75.1,114.9 27.4,114.9 27.4,110.8 	"/>
	<polyline points="55.5,74.6 53.5,72.6 51.4,70.6 46.4,75.6 41.4,80.6 36.4,75.6 31.3,70.6 29.3,72.6 27.3,74.6 32.3,79.6 
		37.4,84.7 32.3,89.7 27.3,94.7 29.3,96.7 31.3,98.7 36.4,93.7 41.4,88.7 46.4,93.7 51.4,98.7 53.5,96.7 55.5,94.7 50.4,89.7 
		45.4,84.7 50.4,79.6 55.5,74.6 	"/>
</g>
</svg>
