<?xml version="1.0" encoding="utf-8"?>
<!-- Generator: Adobe Illustrator 19.1.0, SVG Export Plug-In . SVG Version: 6.00 Build 0)  -->
<!DOCTYPE svg PUBLIC "-//W3C//DTD SVG 1.1//EN" "http://www.w3.org/Graphics/SVG/1.1/DTD/svg11.dtd">
<svg version="1.1" id="icon" xmlns="http://www.w3.org/2000/svg" xmlns:xlink="http://www.w3.org/1999/xlink" x="0px" y="0px"
	 width="132px" height="132px" viewBox="0 0 132 132" enable-background="new 0 0 132 132" xml:space="preserve">
<g>
	<polyline points="113.7,38.1 110.3,41.4 106.9,44.7 101.1,38.8 95.2,32.9 98.6,29.5 102,26.1 107.8,32.1 113.7,38.1 	"/>
	<polyline points="92.6,35.6 98.4,41.5 104.3,47.4 85.9,65.8 67.4,84.2 58.7,87 50,89.7 52.8,81 55.6,72.3 74.1,53.9 92.6,35.6 	"/>
	<polygon points="18.4,97.6 66.1,97.6 113.7,97.6 113.7,101.8 113.7,105.9 66.1,105.9 18.4,105.9 18.4,101.8 	"/>
	<polyline points="46.5,65.6 44.5,63.6 42.4,61.6 37.4,66.6 32.4,71.6 27.4,66.6 22.3,61.6 20.3,63.6 18.3,65.6 23.3,70.6 
		28.4,75.7 23.3,80.7 18.3,85.7 20.3,87.7 22.3,89.7 27.4,84.7 32.4,79.7 37.4,84.7 42.4,89.7 44.5,87.7 46.5,85.7 41.4,80.7 
		36.4,75.7 41.4,70.6 46.5,65.6 	"/>
</g>
</svg>
