<?xml version="1.0" encoding="utf-8"?>
<!-- Generator: Adobe Illustrator 19.1.0, SVG Export Plug-In . SVG Version: 6.00 Build 0)  -->
<!DOCTYPE svg PUBLIC "-//W3C//DTD SVG 1.1//EN" "http://www.w3.org/Graphics/SVG/1.1/DTD/svg11.dtd">
<svg version="1.1" id="icon" xmlns="http://www.w3.org/2000/svg" xmlns:xlink="http://www.w3.org/1999/xlink" x="0px" y="0px"
	 width="132px" height="132px" viewBox="0 0 132 132" enable-background="new 0 0 132 132" xml:space="preserve">
<g>
	<path d="M98,38v38v38H66H34V76V38h6h6v6v6h20h20l0-6l0-6l6,0L98,38z M50,46v-2.8v-2.8c0-0.7,0-2.3,0.7-3.7s2-2.7,4.7-2.7
		c2.6,0,3.5-1.3,3.7-3c0.2-1.7-0.3-3.9-0.3-5.9c0-1.9,0.8-3.7,2.1-5c1.3-1.3,3.1-2.1,5.2-2.1c2.1,0,3.9,0.8,5.1,2.1
		c1.3,1.3,2,3.1,2,5c0,1.9-0.5,4.1-0.4,5.9c0.1,1.7,1,3,3.6,3c2.7,0,4.1,1.3,4.8,2.7c0.7,1.4,0.8,3,0.8,3.7v2.8V46H66H50z
		 M69.3,25.3c0-0.9-0.4-1.8-1-2.4c-0.6-0.6-1.4-1-2.4-1c-0.9,0-1.8,0.4-2.4,1c-0.6,0.6-1,1.4-1,2.4c0,0.9,0.4,1.8,1,2.4
		c0.6,0.6,1.5,1,2.4,1c0.9,0,1.8-0.4,2.4-1C69,27.1,69.3,26.3,69.3,25.3z"/>
</g>
</svg>
