<?xml version="1.0" encoding="utf-8"?>
<!-- Generator: Adobe Illustrator 19.1.0, SVG Export Plug-In . SVG Version: 6.00 Build 0)  -->
<!DOCTYPE svg PUBLIC "-//W3C//DTD SVG 1.1//EN" "http://www.w3.org/Graphics/SVG/1.1/DTD/svg11.dtd">
<svg version="1.1" id="icon" xmlns="http://www.w3.org/2000/svg" xmlns:xlink="http://www.w3.org/1999/xlink" x="0px" y="0px"
	 width="132px" height="132px" viewBox="0 0 132 132" enable-background="new 0 0 132 132" xml:space="preserve">
<g>
	<polygon points="118,46 103.9,32 89.9,18 75.9,32 62,46 72,46 82,46 82,78 82,110 90,110 98,110 98,78 98,46 108,46 	"/>
	<polygon points="14,86 28.1,100 42.1,114 56.1,100 70,86 60,86 50,86 50,54 50,22 42,22 34,22 34,54 34,86 24,86 	"/>
</g>
</svg>
