<?xml version="1.0" encoding="utf-8"?>
<!-- Generator: Adobe Illustrator 19.1.0, SVG Export Plug-In . SVG Version: 6.00 Build 0)  -->
<!DOCTYPE svg PUBLIC "-//W3C//DTD SVG 1.1//EN" "http://www.w3.org/Graphics/SVG/1.1/DTD/svg11.dtd">
<svg version="1.1" id="icon" xmlns="http://www.w3.org/2000/svg" xmlns:xlink="http://www.w3.org/1999/xlink" x="0px" y="0px"
	 width="132px" height="132px" viewBox="0 0 132 132" enable-background="new 0 0 132 132" xml:space="preserve">
<g>
	<path d="M106.3,30H66H25.7c-2.1,0-4.1,0.9-5.5,2.3c-1.4,1.4-2.3,3.3-2.3,5.4V66v28.3c0,2.1,0.9,4.1,2.3,5.4
		c1.4,1.4,3.3,2.3,5.5,2.3H66h40.3c2.1,0,4.1-0.9,5.5-2.3c1.4-1.4,2.3-3.3,2.3-5.4V66V37.7c0-2.1-0.9-4-2.3-5.4
		C110.4,30.9,108.4,30,106.3,30z M104.9,93.8H66H27.1V66V38.2H66h38.9V66V93.8z M109.2,67.9c-0.5,0-1-0.2-1.4-0.6
		c-0.3-0.3-0.6-0.8-0.6-1.4c0-0.5,0.2-1,0.6-1.4c0.3-0.3,0.8-0.6,1.4-0.6c0.5,0,1,0.2,1.4,0.6c0.3,0.3,0.6,0.8,0.6,1.4
		c0,0.5-0.2,1-0.6,1.4S109.7,67.9,109.2,67.9z"/>
</g>
</svg>
