<?xml version="1.0" encoding="utf-8"?>
<!-- Generator: Adobe Illustrator 19.1.0, SVG Export Plug-In . SVG Version: 6.00 Build 0)  -->
<!DOCTYPE svg PUBLIC "-//W3C//DTD SVG 1.1//EN" "http://www.w3.org/Graphics/SVG/1.1/DTD/svg11.dtd">
<svg version="1.1" id="icon" xmlns="http://www.w3.org/2000/svg" xmlns:xlink="http://www.w3.org/1999/xlink" x="0px" y="0px"
	 width="150px" height="150px" viewBox="0 0 150 150" enable-background="new 0 0 150 150" xml:space="preserve">
<g>
	<path d="M27,95v10v10h48h48v-10V95H75H27z M119,111H89H59v-6v-6h30h30v6V111z"/>
	<path d="M27,65v10v10h48h48V75V65H75H27z M119,81h-10H99v-6v-6h10h10v6V81z"/>
	<path d="M27,35v10v10h48h48V45V35H75H27z M119,51h-18H83v-6v-6h18h18v6V51z"/>
</g>
</svg>
