<?xml version="1.0" encoding="utf-8"?>
<!-- Generator: Adobe Illustrator 19.1.0, SVG Export Plug-In . SVG Version: 6.00 Build 0)  -->
<!DOCTYPE svg PUBLIC "-//W3C//DTD SVG 1.1//EN" "http://www.w3.org/Graphics/SVG/1.1/DTD/svg11.dtd">
<svg version="1.1" id="icon" xmlns="http://www.w3.org/2000/svg" xmlns:xlink="http://www.w3.org/1999/xlink" x="0px" y="0px"
	 width="132px" height="132px" viewBox="0 0 132 132" enable-background="new 0 0 132 132" xml:space="preserve">
<g>
	<path d="M18,86v10v10h48h48V96V86H66H18z M110,102H80H50v-6v-6h30h30v6V102z"/>
	<path d="M18,56v10v10h48h48V66V56H66H18z M110,72h-10H90v-6v-6h10h10v6V72z"/>
	<path d="M18,26v10v10h48h48V36V26H66H18z M110,42H92H74v-6v-6h18h18v6V42z"/>
</g>
</svg>
