<?xml version="1.0" encoding="utf-8"?>
<!-- Generator: Adobe Illustrator 19.1.0, SVG Export Plug-In . SVG Version: 6.00 Build 0)  -->
<svg version="1.1" id="Icons_3_" xmlns="http://www.w3.org/2000/svg" xmlns:xlink="http://www.w3.org/1999/xlink" x="0px" y="0px"
	 viewBox="0 0 150 150" enable-background="new 0 0 150 150" xml:space="preserve">
<g id="Error">
</g>
<g id="View">
</g>
<g id="Video">
</g>
<g id="User_Personal">
</g>
<g id="Upload">
</g>
<g id="Travel">
</g>
<g id="Transfers">
</g>
<g id="Tools">
	<path d="M121.7,111.1c1.7,1.7,1.7,4.5,0,6.2l-4.5,4.5c-1.7,1.6-4.5,1.6-6.2,0l-32-32c-1.5-1.5-1.6-3.5-0.4-5.2l-2.2-2.1l-31.6,37.4
		c-6.1,5.3-11.2,1.6-11.2,1.6c-1.2-0.9-2-1.2-2.6-1.9c-1-0.7-1.6-1.7-2.3-2.7c0,0-4.1-4.6,0.9-11.1l35.6-34.6L44.3,50.8l-6-3.4
		l-6.7-9.9l5-5l10,6.6l3.4,5.7l21.1,20.8l0.6-0.7l10.3-10.4c-0.6-0.4-1.9-6.6-1.9-6.6c-1.8-6.2,3.2-14,9.8-18.1
		c6.6-4,16.6-2.8,17.4-2.3c0,0,1,0.5,0.3,1.6L94.9,41.6l-0.3,2.8l3.6,3l3.6,3.1l2.6-0.3L116,37c1.1-0.7,1.7,0,1.7,0
		c0.6,0.8,2.4,10.7-1.1,17.5c-3.6,6.8-10.9,12.2-17.3,10.9c0,0-6.4-0.9-6.9-1.5L82.1,75.8l-0.5,0.5l2.7,2.3c1.6-0.9,5.3,0.5,5.3,0.5
		L121.7,111.1z"/>
</g>
<g id="Clock">
</g>
<g id="Fast_Track">
</g>
<g id="Camera">
</g>
<g id="Tablet">
</g>
<g id="Switch">
</g>
<g id="Survey">
</g>
<g id="Minimize">
</g>
<g id="Stock_Up">
</g>
<g id="Stock_Down">
</g>
<g id="Sound">
</g>
<g id="Shopping_Cart">
</g>
<g id="Share">
</g>
<g id="Settings">
</g>
<g id="Secure_Key_Passcode">
</g>
<g id="Search">
</g>
<g id="Script">
</g>
<g id="Staff_Channels">
	<g id="Signature">
	</g>
	<g id="Shortcuts">
	</g>
	<g id="Microphone">
	</g>
	<g id="Dial">
	</g>
</g>
<g id="Social_Icons">
	<g id="Youtube">
	</g>
	<g id="Youtube_Solid">
	</g>
	<g id="Weibo">
	</g>
	<g id="Weibo_Solid">
	</g>
	<g id="Vimeo">
	</g>
	<g id="Vimeo_Solid">
	</g>
	<g id="Twitter">
	</g>
	<g id="Twitter_Solid">
	</g>
	<g id="LinkedIn">
	</g>
	<g id="LinkedIn_Solid">
	</g>
	<g id="GooglePlus">
	</g>
	<g id="GooglePlus_Solid">
	</g>
	<g id="Facebook">
	</g>
	<g id="Facebook_Solid">
	</g>
</g>
</svg>
