<?xml version="1.0" encoding="utf-8"?>
<!-- Generator: Adobe Illustrator 19.1.0, SVG Export Plug-In . SVG Version: 6.00 Build 0)  -->
<!DOCTYPE svg PUBLIC "-//W3C//DTD SVG 1.1//EN" "http://www.w3.org/Graphics/SVG/1.1/DTD/svg11.dtd">
<svg version="1.1" id="icon" xmlns="http://www.w3.org/2000/svg" xmlns:xlink="http://www.w3.org/1999/xlink" x="0px" y="0px"
	 width="132px" height="132px" viewBox="0 0 132 132" enable-background="new 0 0 132 132" xml:space="preserve">
<g>
	<path d="M112.7,102.1c0.9,0.9,1.3,2,1.3,3.1s-0.4,2.2-1.3,3.1l-2.3,2.2l-2.3,2.2c-0.8,0.8-2,1.2-3.1,1.2s-2.3-0.4-3.1-1.2l-16-16
		l-16-16c-0.7-0.7-1.1-1.6-1.2-2.5s0.2-1.9,0.8-2.7l-1.1-1l-1.1-1L51.5,92.2l-15.8,18.7c-3,2.7-5.8,3.1-7.9,2.8s-3.3-1.2-3.3-1.2
		c-0.6-0.4-1.1-0.7-1.5-1c-0.4-0.3-0.8-0.5-1.1-0.9c-0.5-0.3-0.9-0.8-1.2-1.2c-0.4-0.5-0.7-1-1.1-1.4c0,0-1-1.1-1.4-3.1
		c-0.4-2-0.2-4.7,2.3-8l17.8-17.3l17.8-17.3L45.7,52L35.3,41.8l-3-1.7l-3-1.7L26,33.5l-3.3-4.9l2.5-2.5l2.5-2.5l5,3.3l5,3.3l1.7,2.8
		l1.7,2.8l10.6,10.4l10.6,10.4l0.3-0.3l0.3-0.3l5.2-5.2l5.2-5.2c-0.3-0.2-0.8-1.9-1.2-3.5c-0.4-1.6-0.7-3.1-0.7-3.1
		c-0.9-3.1-0.1-6.6,1.7-9.8c1.9-3.2,4.8-6.2,8.1-8.2c3.3-2,7.4-2.7,10.9-2.8c3.4-0.2,6.1,0.3,6.5,0.5c0,0,0.2,0.1,0.4,0.4
		s0.2,0.7-0.1,1.2l-6.3,6.2l-6.3,6.2L85.8,34l-0.1,1.4l1.8,1.5l1.8,1.5l1.8,1.5l1.8,1.5l1.3-0.1l1.3-0.1l5.7-6.6L107,28
		c0.6-0.3,1-0.3,1.3-0.3c0.3,0.1,0.4,0.3,0.4,0.3c0.3,0.4,0.9,3.1,1,6.5c0.1,3.4-0.3,7.6-2.1,11c-1.8,3.4-4.6,6.4-7.6,8.5
		c-3.1,2-6.5,3.1-9.7,2.4c0,0-1.6-0.2-3.3-0.5c-1.7-0.3-3.4-0.7-3.6-1l-5.2,5.9l-5.2,5.9L72.8,67l-0.3,0.3l1.3,1.2l1.3,1.2
		c0.8-0.4,2.1-0.3,3.2-0.1c1.1,0.2,2.1,0.6,2.1,0.6l16.1,16L112.7,102.1z"/>
</g>
</svg>
