<?xml version="1.0" encoding="utf-8"?>
<!-- Generator: Adobe Illustrator 19.1.0, SVG Export Plug-In . SVG Version: 6.00 Build 0)  -->
<!DOCTYPE svg PUBLIC "-//W3C//DTD SVG 1.1//EN" "http://www.w3.org/Graphics/SVG/1.1/DTD/svg11.dtd">
<svg version="1.1" id="icon" xmlns="http://www.w3.org/2000/svg" xmlns:xlink="http://www.w3.org/1999/xlink" x="0px" y="0px"
	 width="132px" height="132px" viewBox="0 0 132 132" enable-background="new 0 0 132 132" xml:space="preserve">
<g>
	<polygon points="46,14 32,28.1 18,42.1 32,56.1 46,70 46,60 46,50 78,50 110,50 110,42 110,34 78,34 46,34 46,24 	"/>
	<polygon points="86,118 100,103.9 114,89.9 100,75.9 86,62 86,72 86,82 54,82 22,82 22,90 22,98 54,98 86,98 86,108 	"/>
</g>
</svg>
