<?xml version="1.0" encoding="utf-8"?>
<!-- Generator: Adobe Illustrator 19.1.0, SVG Export Plug-In . SVG Version: 6.00 Build 0)  -->
<svg version="1.1" id="Icons_3_" xmlns="http://www.w3.org/2000/svg" xmlns:xlink="http://www.w3.org/1999/xlink" x="0px" y="0px"
	 viewBox="0 0 150 150" enable-background="new 0 0 150 150" xml:space="preserve">
<g id="Error">
</g>
<g id="View">
</g>
<g id="Video">
</g>
<g id="User_Personal">
</g>
<g id="Upload">
</g>
<g id="Travel">
	<path d="M84.4,78.4c-11.4,10.8-16.8,15.6-24.8,23.1c-0.5,0.5-0.8,1.2-0.7,1.9l1.7,15.6c0.1,0.7-0.2,1.4-0.7,1.9l-1.6,1.5
		c-1.1,1-2.9,0.7-3.6-0.6l-8.5-17c-0.2-0.4-0.6-0.8-1-1l-17-8.6c-1.4-0.7-1.7-2.5-0.6-3.6l1.5-1.5c0.5-0.5,1.2-0.8,1.9-0.7l15.6,1.7
		c0.7,0.1,1.4-0.2,1.9-0.7c7.5-7.9,12.3-13.3,23.2-24.8c0.6-0.7,0.3-1.7-0.6-1.9l-37.3-6.4c-1.8-0.3-2.5-2.6-1.2-3.8l5.2-5.1
		c0.4-0.4,0.9-0.6,1.5-0.6l50.6-2.1c0.6,0,1.1-0.3,1.5-0.7c6.3-6.6,8.9-9.5,10.5-11c0.5-0.5,0.9-0.8,1.5-1.2
		c4.6-3.8,11.2-5.4,15.3-5.6c2-0.2,3.4-0.1,3.9,0.4c0.5,0.5,0.6,1.9,0.4,3.9c-0.3,4.1-1.9,10.6-5.6,15.3c-0.5,0.6-0.8,1-1.3,1.5
		c-1.6,1.5-4.4,4.2-11,10.5c-0.4,0.4-0.7,1-0.7,1.5l-2,50.6c0,0.6-0.2,1.1-0.6,1.5l-5.2,5.3c-1.3,1.3-3.5,0.6-3.8-1.2l-6.4-37.2
		C86.1,78.2,85,77.8,84.4,78.4z"/>
</g>
<g id="Transfers">
</g>
<g id="Tools">
</g>
<g id="Clock">
</g>
<g id="Fast_Track">
</g>
<g id="Camera">
</g>
<g id="Tablet">
</g>
<g id="Switch">
</g>
<g id="Survey">
</g>
<g id="Minimize">
</g>
<g id="Stock_Up">
</g>
<g id="Stock_Down">
</g>
<g id="Sound">
</g>
<g id="Shopping_Cart">
</g>
<g id="Share">
</g>
<g id="Settings">
</g>
<g id="Secure_Key_Passcode">
</g>
<g id="Search">
</g>
<g id="Script">
</g>
<g id="Staff_Channels">
	<g id="Signature">
	</g>
	<g id="Shortcuts">
	</g>
	<g id="Microphone">
	</g>
	<g id="Dial">
	</g>
</g>
<g id="Social_Icons">
	<g id="Youtube">
	</g>
	<g id="Youtube_Solid">
	</g>
	<g id="Weibo">
	</g>
	<g id="Weibo_Solid">
	</g>
	<g id="Vimeo">
	</g>
	<g id="Vimeo_Solid">
	</g>
	<g id="Twitter">
	</g>
	<g id="Twitter_Solid">
	</g>
	<g id="LinkedIn">
	</g>
	<g id="LinkedIn_Solid">
	</g>
	<g id="GooglePlus">
	</g>
	<g id="GooglePlus_Solid">
	</g>
	<g id="Facebook">
	</g>
	<g id="Facebook_Solid">
	</g>
</g>
</svg>
