<?xml version="1.0" encoding="utf-8"?>
<!-- Generator: Adobe Illustrator 19.1.0, SVG Export Plug-In . SVG Version: 6.00 Build 0)  -->
<svg version="1.1" id="Icons_3_" xmlns="http://www.w3.org/2000/svg" xmlns:xlink="http://www.w3.org/1999/xlink" x="0px" y="0px"
	 viewBox="0 0 150 150" enable-background="new 0 0 150 150" xml:space="preserve">
<g id="Error">
</g>
<g id="View">
</g>
<g id="Video">
</g>
<g id="User_Personal">
</g>
<g id="Upload">
</g>
<g id="Travel">
</g>
<g id="Transfers">
</g>
<g id="Tools">
</g>
<g id="Clock">
</g>
<g id="Fast_Track">
</g>
<g id="Camera">
</g>
<g id="Tablet">
</g>
<g id="Switch">
</g>
<g id="Survey">
</g>
<g id="Minimize">
</g>
<g id="Stock_Up">
</g>
<g id="Stock_Down">
</g>
<g id="Sound">
</g>
<g id="Shopping_Cart">
</g>
<g id="Share">
</g>
<g id="Settings">
</g>
<g id="Secure_Key_Passcode">
</g>
<g id="Search">
</g>
<g id="Script">
</g>
<g id="Staff_Channels">
	<g id="Signature">
	</g>
	<g id="Shortcuts">
	</g>
	<g id="Microphone">
	</g>
	<g id="Dial">
	</g>
</g>
<g id="Social_Icons">
	<g id="Youtube">
	</g>
	<g id="Youtube_Solid">
	</g>
	<g id="Weibo">
	</g>
	<g id="Weibo_Solid">
	</g>
	<g id="Vimeo">
	</g>
	<g id="Vimeo_Solid">
	</g>
	<g id="Twitter">
		<path d="M110.5,56.9c0.1,0.8,0.1,1.6,0.1,2.3c0,24-18.2,51.7-51.7,51.7c-10.2,0-19.8-3-27.9-8.3c1.4,0.2,2.9,0.3,4.4,0.3
			c8.6,0,16.4-2.9,22.6-7.8c-8-0.2-14.7-5.4-17-12.6c1,0.3,2.3,0.3,3.4,0.3c1.6,0,3.2-0.2,4.7-0.7c-8.3-1.6-14.6-9.1-14.6-17.8
			c0-0.1,0-0.2,0-0.3c2.4,1.4,5.3,2.3,8.3,2.3c-4.8-3.2-8.1-8.8-8.1-15.1c0-3.3,0.9-6.4,2.5-9.2c8.9,11.1,22.4,18.5,37.5,19.2
			c-0.3-1.4-0.5-2.8-0.5-4.1C74.3,47,82.4,39,92.4,39c5.3,0,10,2.3,13.3,5.7c4.1-0.9,8-2.3,11.6-4.5c-1.4,4.2-4.2,7.9-8,10.1
			c3.7-0.5,7.2-1.4,10.4-2.9C117.2,51,114.1,54.1,110.5,56.9z"/>
	</g>
	<g id="Twitter_Solid">
	</g>
	<g id="LinkedIn">
	</g>
	<g id="LinkedIn_Solid">
	</g>
	<g id="GooglePlus">
	</g>
	<g id="GooglePlus_Solid">
	</g>
	<g id="Facebook">
	</g>
	<g id="Facebook_Solid">
	</g>
</g>
</svg>
