<?xml version="1.0" encoding="utf-8"?>
<!-- Generator: Adobe Illustrator 19.1.0, SVG Export Plug-In . SVG Version: 6.00 Build 0)  -->
<svg version="1.1" id="Icons_3_" xmlns="http://www.w3.org/2000/svg" xmlns:xlink="http://www.w3.org/1999/xlink" x="0px" y="0px"
	 viewBox="0 0 150 150" enable-background="new 0 0 150 150" xml:space="preserve">
<g id="Error">
</g>
<g id="View">
</g>
<g id="Video">
</g>
<g id="User_Personal">
</g>
<g id="Upload">
</g>
<g id="Travel">
</g>
<g id="Transfers">
</g>
<g id="Tools">
</g>
<g id="Clock">
</g>
<g id="Fast_Track">
</g>
<g id="Camera">
</g>
<g id="Tablet">
</g>
<g id="Switch">
</g>
<g id="Survey">
</g>
<g id="Minimize">
</g>
<g id="Stock_Up">
</g>
<g id="Stock_Down">
</g>
<g id="Sound">
</g>
<g id="Shopping_Cart">
</g>
<g id="Share">
</g>
<g id="Settings">
</g>
<g id="Secure_Key_Passcode">
</g>
<g id="Search">
</g>
<g id="Script">
</g>
<g id="Staff_Channels">
	<g id="Signature">
	</g>
	<g id="Shortcuts">
	</g>
	<g id="Microphone">
	</g>
	<g id="Dial">
	</g>
</g>
<g id="Social_Icons">
	<g id="Youtube">
	</g>
	<g id="Youtube_Solid">
	</g>
	<g id="Weibo">
	</g>
	<g id="Weibo_Solid">
	</g>
	<g id="Vimeo">
	</g>
	<g id="Vimeo_Solid">
	</g>
	<g id="Twitter">
	</g>
	<g id="Twitter_Solid">
		<path d="M27,27v96h96V27H27z M104.1,60.3c0.1,0.7,0.1,1.3,0.1,1.9c0,19.6-14.9,42.4-42.4,42.4c-8.4,0-16.2-2.4-22.8-6.8
			c1.1,0.2,2.3,0.3,3.6,0.3c7,0,13.4-2.3,18.5-6.4c-6.6-0.2-12-4.4-13.9-10.3c0.8,0.3,1.9,0.3,2.8,0.3c1.3,0,2.6-0.2,3.8-0.6
			c-6.8-1.3-11.9-7.4-11.9-14.6c0-0.1,0-0.2,0-0.3c2,1.1,4.3,1.9,6.8,1.9c-3.9-2.6-6.7-7.2-6.7-12.4c0-2.7,0.8-5.3,2.1-7.5
			c7.3,9.1,18.3,15.1,30.7,15.7c-0.3-1.1-0.4-2.3-0.4-3.4c0-8.3,6.7-14.8,14.8-14.8c4.3,0,8.2,1.9,10.9,4.7c3.4-0.8,6.6-1.9,9.5-3.7
			c-1.1,3.5-3.5,6.5-6.6,8.3c3-0.4,5.9-1.1,8.5-2.3C109.5,55.5,107,58,104.1,60.3z"/>
	</g>
	<g id="LinkedIn">
	</g>
	<g id="LinkedIn_Solid">
	</g>
	<g id="GooglePlus">
	</g>
	<g id="GooglePlus_Solid">
	</g>
	<g id="Facebook">
	</g>
	<g id="Facebook_Solid">
	</g>
</g>
</svg>
