<?xml version="1.0" encoding="utf-8"?>
<!-- Generator: Adobe Illustrator 19.1.0, SVG Export Plug-In . SVG Version: 6.00 Build 0)  -->
<!DOCTYPE svg PUBLIC "-//W3C//DTD SVG 1.1//EN" "http://www.w3.org/Graphics/SVG/1.1/DTD/svg11.dtd">
<svg version="1.1" id="icon" xmlns="http://www.w3.org/2000/svg" xmlns:xlink="http://www.w3.org/1999/xlink" x="0px" y="0px"
	 width="132px" height="132px" viewBox="0 0 132 132" enable-background="new 0 0 132 132" xml:space="preserve">
<g>
	<polygon points="98,98 98,84 98,69.9 106,69.9 114,69.9 114,92 114,114 66,114 18,114 18,92 18,70 26,70 34,70 34,84 34,98 66,98 	
		"/>
	<polygon points="92,44 79,31 66,18 53,31 40,44 49,44 58,44 58,63.6 58,83.3 66,83.3 74,83.3 74,63.6 74,44 83,44 	"/>
</g>
</svg>
