<?xml version="1.0" encoding="utf-8"?>
<!-- Generator: Adobe Illustrator 19.1.0, SVG Export Plug-In . SVG Version: 6.00 Build 0)  -->
<!DOCTYPE svg PUBLIC "-//W3C//DTD SVG 1.1//EN" "http://www.w3.org/Graphics/SVG/1.1/DTD/svg11.dtd">
<svg version="1.1" id="icon" xmlns="http://www.w3.org/2000/svg" xmlns:xlink="http://www.w3.org/1999/xlink" x="0px" y="0px"
	 width="150px" height="150px" viewBox="0 0 150 150" enable-background="new 0 0 150 150" xml:space="preserve">
<g>
	<polygon points="107,107 107,93 107,78.9 115,78.9 123,78.9 123,101 123,123 75,123 27,123 27,101 27,79 35,79 43,79 43,93 43,107 
		75,107 	"/>
	<polygon points="101,53 88,40 75,27 62,40 49,53 58,53 67,53 67,72.6 67,92.3 75,92.3 83,92.3 83,72.6 83,53 92,53 	"/>
</g>
</svg>
