<?xml version="1.0" encoding="utf-8"?>
<!-- Generator: Adobe Illustrator 19.1.0, SVG Export Plug-In . SVG Version: 6.00 Build 0)  -->
<!DOCTYPE svg PUBLIC "-//W3C//DTD SVG 1.1//EN" "http://www.w3.org/Graphics/SVG/1.1/DTD/svg11.dtd">
<svg version="1.1" id="icon" xmlns="http://www.w3.org/2000/svg" xmlns:xlink="http://www.w3.org/1999/xlink" x="0px" y="0px"
	 width="132px" height="132px" viewBox="0 0 132 132" enable-background="new 0 0 132 132" xml:space="preserve">
<g>
	<path d="M82.8,38v28v28c0,0-0.2,0-0.6,0c-0.3,0-0.8,0-1.4,0H49.5H18.1c0,0,0-0.4-0.1-0.9c0-0.5-0.1-1.1-0.1-1.6V65.9V40.4
		c0-0.5,0-1.1,0-1.6c0-0.5,0-0.8,0-0.8h31.4h31.4c0.5,0,1,0,1.4,0S82.8,38,82.8,38z"/>
	<polygon points="86,73.8 86,65.9 86,58 100,44 114,30.1 114,66 114,101.9 100,87.9 	"/>
</g>
</svg>
