<?xml version="1.0" encoding="utf-8"?>
<!-- Generator: Adobe Illustrator 19.1.0, SVG Export Plug-In . SVG Version: 6.00 Build 0)  -->
<svg version="1.1" id="Icons_3_" xmlns="http://www.w3.org/2000/svg" xmlns:xlink="http://www.w3.org/1999/xlink" x="0px" y="0px"
	 viewBox="0 0 150 150" enable-background="new 0 0 150 150" xml:space="preserve">
<g id="Error">
</g>
<g id="View">
	<path d="M122.2,73.5c-0.6-1.3-15.3-30.9-47.1-31c0,0,0,0-0.1,0c-31.9,0-46.5,29.7-47.1,31L27.1,75l0.7,1.5
		c0.6,1.3,15.3,30.9,47.1,31c0,0,0,0,0.1,0c31.9,0,46.5-29.7,47.1-31l0.7-1.5L122.2,73.5z M61.4,68.2c0.1,1.3-1,2.5-2.3,2.7
		c-1.3,0.1-2.5-0.8-2.6-2.2c-0.1-1.5-0.2-5.1,2.2-8.9c2.4-3.8,5.6-5.4,7-5.9c1.2-0.5,2.7,0.1,3.1,1.3c0.5,1.3-0.1,2.7-1.4,3.2
		c-0.5,0.2-3,1.2-4.6,3.9C61.1,65.2,61.3,67.7,61.4,68.2z M75,100.5C75,100.5,75,100.5,75,100.5C51.5,100.5,38.3,80.7,35,75
		c2.4-4.1,9.8-15.4,22.4-21.5c-4.2,4.4-6.8,10.3-6.8,16.9c0,13.5,10.9,24.4,24.4,24.4s24.4-10.9,24.4-24.4c0-6.5-2.6-12.4-6.7-16.8
		c12.6,6.1,20,17.4,22.3,21.4C111.7,80.7,98.6,100.5,75,100.5z"/>
</g>
<g id="Video">
</g>
<g id="User_Personal">
</g>
<g id="Upload">
</g>
<g id="Travel">
</g>
<g id="Transfers">
</g>
<g id="Tools">
</g>
<g id="Clock">
</g>
<g id="Fast_Track">
</g>
<g id="Camera">
</g>
<g id="Tablet">
</g>
<g id="Switch">
</g>
<g id="Survey">
</g>
<g id="Minimize">
</g>
<g id="Stock_Up">
</g>
<g id="Stock_Down">
</g>
<g id="Sound">
</g>
<g id="Shopping_Cart">
</g>
<g id="Share">
</g>
<g id="Settings">
</g>
<g id="Secure_Key_Passcode">
</g>
<g id="Search">
</g>
<g id="Script">
</g>
<g id="Staff_Channels">
	<g id="Signature">
	</g>
	<g id="Shortcuts">
	</g>
	<g id="Microphone">
	</g>
	<g id="Dial">
	</g>
</g>
<g id="Social_Icons">
	<g id="Youtube">
	</g>
	<g id="Youtube_Solid">
	</g>
	<g id="Weibo">
	</g>
	<g id="Weibo_Solid">
	</g>
	<g id="Vimeo">
	</g>
	<g id="Vimeo_Solid">
	</g>
	<g id="Twitter">
	</g>
	<g id="Twitter_Solid">
	</g>
	<g id="LinkedIn">
	</g>
	<g id="LinkedIn_Solid">
	</g>
	<g id="GooglePlus">
	</g>
	<g id="GooglePlus_Solid">
	</g>
	<g id="Facebook">
	</g>
	<g id="Facebook_Solid">
	</g>
</g>
</svg>
