<?xml version="1.0" encoding="utf-8"?>
<!-- Generator: Adobe Illustrator 19.1.0, SVG Export Plug-In . SVG Version: 6.00 Build 0)  -->
<!DOCTYPE svg PUBLIC "-//W3C//DTD SVG 1.1//EN" "http://www.w3.org/Graphics/SVG/1.1/DTD/svg11.dtd">
<svg version="1.1" id="icon" xmlns="http://www.w3.org/2000/svg" xmlns:xlink="http://www.w3.org/1999/xlink" x="0px" y="0px"
	 width="132px" height="132px" viewBox="0 0 132 132" enable-background="new 0 0 132 132" xml:space="preserve">
<g>
	<polygon points="18,106 34,106 50,106 50,90 50,74 34,74 18,74 18,90 	"/>
	<polygon points="18,58 34,58 50,58 50,42 50,26 34,26 18,26 18,42 	"/>
	<polygon points="66,42 90,42 114,42 114,34 114,26 90,26 66,26 66,34 	"/>
	<polygon points="66,106 90,106 114,106 114,98 114,90 90,90 66,90 66,98 	"/>
	<polygon points="66,74 90,74 114,74 114,66 114,58 90,58 66,58 66,66 	"/>
</g>
</svg>
