<?xml version="1.0" encoding="utf-8"?>
<!-- Generator: Adobe Illustrator 19.1.0, SVG Export Plug-In . SVG Version: 6.00 Build 0)  -->
<!DOCTYPE svg PUBLIC "-//W3C//DTD SVG 1.1//EN" "http://www.w3.org/Graphics/SVG/1.1/DTD/svg11.dtd">
<svg version="1.1" id="icon" xmlns="http://www.w3.org/2000/svg" xmlns:xlink="http://www.w3.org/1999/xlink" x="0px" y="0px"
	 width="132px" height="132px" viewBox="0 0 132 132" enable-background="new 0 0 132 132" xml:space="preserve">
<g>
	<path d="M113.2,64.5c-0.3-0.6-4.1-8.4-11.9-15.9s-19.4-15-35.3-15h0h0c-15.9,0-27.6,7.4-35.3,15s-11.5,15.3-11.8,16l-0.4,0.8
		L18.1,66l0.4,0.8l0.4,0.8c0.3,0.6,4.1,8.4,11.9,15.9s19.4,15,35.3,15h0h0c15.9,0,27.6-7.4,35.3-15s11.5-15.3,11.8-16l0.4-0.8
		l0.4-0.8l-0.4-0.8L113.2,64.5z M52.4,59.2c0,0.6-0.2,1.3-0.6,1.8c-0.4,0.5-1,0.8-1.7,0.9c-0.6,0-1.3-0.2-1.8-0.5
		c-0.5-0.4-0.8-1-0.8-1.7c0-0.8-0.1-2,0.2-3.6s0.8-3.4,2-5.3c1.2-1.9,2.6-3.2,3.9-4.2c1.3-0.9,2.4-1.5,3.1-1.7
		c0.6-0.2,1.3-0.2,1.9,0s1,0.7,1.2,1.3c0.2,0.6,0.2,1.3,0,1.9c-0.2,0.6-0.7,1-1.4,1.3c-0.2,0.1-1,0.4-1.9,1
		c-0.9,0.6-1.9,1.5-2.7,2.9c-0.9,1.5-1.2,2.8-1.4,3.9C52.3,58.2,52.4,59,52.4,59.2z M66,91.5L66,91.5L66,91.5
		c-11.8,0-21-5-27.6-10.6S27.6,68.8,26,66c1.2-2,3.6-5.9,7.3-10s8.7-8.4,15.1-11.5c-2.1,2.2-3.8,4.8-5,7.6c-1.2,2.9-1.8,6-1.8,9.3
		c0,6.7,2.7,12.8,7.1,17.3c4.4,4.4,10.5,7.1,17.3,7.1s12.8-2.7,17.3-7.1c4.4-4.4,7.1-10.5,7.1-17.3c0-3.3-0.6-6.4-1.8-9.2
		c-1.2-2.8-2.8-5.4-4.9-7.6C90,47.6,95,52,98.7,56.1c3.7,4.1,6.2,7.9,7.3,9.9c-1.6,2.9-5.7,9.2-12.4,14.9S77.8,91.5,66,91.5z"/>
</g>
</svg>
