<?xml version="1.0" encoding="utf-8"?>
<!-- Generator: Adobe Illustrator 19.1.0, SVG Export Plug-In . SVG Version: 6.00 Build 0)  -->
<svg version="1.1" id="Icons_3_" xmlns="http://www.w3.org/2000/svg" xmlns:xlink="http://www.w3.org/1999/xlink" x="0px" y="0px"
	 viewBox="0 0 150 150" enable-background="new 0 0 150 150" xml:space="preserve">
<g id="Error">
</g>
<g id="View">
</g>
<g id="Video">
</g>
<g id="User_Personal">
</g>
<g id="Upload">
</g>
<g id="Travel">
</g>
<g id="Transfers">
</g>
<g id="Tools">
</g>
<g id="Clock">
</g>
<g id="Fast_Track">
</g>
<g id="Camera">
</g>
<g id="Tablet">
</g>
<g id="Switch">
</g>
<g id="Survey">
</g>
<g id="Minimize">
</g>
<g id="Stock_Up">
</g>
<g id="Stock_Down">
</g>
<g id="Sound">
</g>
<g id="Shopping_Cart">
</g>
<g id="Share">
</g>
<g id="Settings">
</g>
<g id="Secure_Key_Passcode">
</g>
<g id="Search">
</g>
<g id="Script">
</g>
<g id="Staff_Channels">
	<g id="Signature">
	</g>
	<g id="Shortcuts">
	</g>
	<g id="Microphone">
	</g>
	<g id="Dial">
	</g>
</g>
<g id="Social_Icons">
	<g id="Youtube">
	</g>
	<g id="Youtube_Solid">
	</g>
	<g id="Weibo">
	</g>
	<g id="Weibo_Solid">
	</g>
	<g id="Vimeo">
		<path d="M115,55.9C114.6,64,109,75,98.1,89c-11.2,14.6-20.8,22-28.5,22c-4.8,0-8.9-4.5-12.2-13.4c-2.2-8.2-4.4-16.3-6.7-24.5
			c-2.5-8.9-5.1-13.4-8-13.4c-0.6,0-2.8,1.3-6.5,3.9l-3.9-5c4.1-3.6,8.1-7.2,12.1-10.8c5.4-4.7,9.5-7.2,12.3-7.4
			c6.4-0.6,10.4,3.8,11.9,13.2c1.6,10.2,2.7,16.5,3.3,19c1.9,8.4,3.9,12.7,6.1,12.7c1.7,0,4.3-2.7,7.8-8.2c3.5-5.5,5.3-9.6,5.6-12.5
			c0.5-4.7-1.4-7.1-5.6-7.1c-2,0-4,0.5-6.1,1.4C83.7,45.4,91.5,39,103,39.3C111.5,39.6,115.5,45.1,115,55.9z"/>
	</g>
	<g id="Vimeo_Solid">
	</g>
	<g id="Twitter">
	</g>
	<g id="Twitter_Solid">
	</g>
	<g id="LinkedIn">
	</g>
	<g id="LinkedIn_Solid">
	</g>
	<g id="GooglePlus">
	</g>
	<g id="GooglePlus_Solid">
	</g>
	<g id="Facebook">
	</g>
	<g id="Facebook_Solid">
	</g>
</g>
</svg>
