<?xml version="1.0" encoding="utf-8"?>
<!-- Generator: Adobe Illustrator 19.1.0, SVG Export Plug-In . SVG Version: 6.00 Build 0)  -->
<!DOCTYPE svg PUBLIC "-//W3C//DTD SVG 1.1//EN" "http://www.w3.org/Graphics/SVG/1.1/DTD/svg11.dtd">
<svg version="1.1" id="icon" xmlns="http://www.w3.org/2000/svg" xmlns:xlink="http://www.w3.org/1999/xlink" x="0px" y="0px"
	 width="132px" height="132px" viewBox="0 0 132 132" enable-background="new 0 0 132 132" xml:space="preserve">
<g>
	<path d="M18,18v48v48h48h48V66V18H66H18z M98,54c-0.1,3.2-1.3,7-3.6,11.5c-2.2,4.4-5.5,9.4-9.9,15c-4.5,5.9-8.6,10.2-12.4,13.2
		c-3.8,2.9-7.3,4.4-10.4,4.4c-1.9,0-3.7-0.9-5.3-2.7s-3.1-4.5-4.4-8c-0.9-3.3-1.8-6.5-2.7-9.8c-0.9-3.3-1.8-6.5-2.7-9.8
		c-1-3.6-2-6.2-3.1-8c-1.1-1.8-2.2-2.7-3.3-2.7c-0.2,0-0.8,0.3-1.7,0.8s-2,1.3-3.5,2.3l-1.6-2l-1.6-2c1.6-1.4,3.3-2.9,4.9-4.3
		c1.6-1.4,3.2-2.9,4.8-4.3c2.2-1.9,4.1-3.3,5.7-4.3c1.6-1,3-1.5,4.1-1.6c2.6-0.2,4.6,0.5,6.2,2.3s2.7,4.5,3.3,8.3
		c0.6,4.1,1.2,7.4,1.6,9.9c0.4,2.5,0.8,4.3,1,5.3c0.7,3.4,1.5,5.9,2.3,7.6c0.8,1.7,1.7,2.5,2.6,2.5c0.7,0,1.6-0.5,2.6-1.6
		s2.3-2.7,3.6-4.9c1.4-2.2,2.4-4.1,3.2-5.8c0.7-1.7,1.2-3.1,1.3-4.2c0.2-1.9-0.1-3.3-0.8-4.3c-0.7-0.9-2-1.4-3.6-1.4
		c-0.8,0-1.6,0.1-2.4,0.3c-0.8,0.2-1.6,0.5-2.5,0.8c1.6-5.3,4-9.3,7.1-11.9c3.1-2.6,6.9-3.8,11.5-3.7c3.4,0.1,5.9,1.3,7.5,3.5
		C97.5,46.4,98.2,49.7,98,54z"/>
</g>
</svg>
