<?xml version="1.0" encoding="utf-8"?>
<!-- Generator: Adobe Illustrator 19.1.0, SVG Export Plug-In . SVG Version: 6.00 Build 0)  -->
<!DOCTYPE svg PUBLIC "-//W3C//DTD SVG 1.1//EN" "http://www.w3.org/Graphics/SVG/1.1/DTD/svg11.dtd">
<svg version="1.1" id="icon" xmlns="http://www.w3.org/2000/svg" xmlns:xlink="http://www.w3.org/1999/xlink" x="0px" y="0px"
	 width="132px" height="132px" viewBox="0 0 132 132" enable-background="new 0 0 132 132" xml:space="preserve">
<g>
	<path d="M106,46.9c-0.2,4-1.7,8.8-4.5,14.3C98.7,66.8,94.5,73,89.1,80c-5.6,7.3-10.8,12.8-15.6,16.5c-4.8,3.7-9.1,5.5-13,5.5
		c-2.4,0-4.6-1.1-6.7-3.3c-2-2.2-3.9-5.6-5.6-10c-1.1-4.1-2.2-8.2-3.3-12.3c-1.1-4.1-2.2-8.2-3.3-12.3c-1.2-4.5-2.5-7.8-3.8-10
		s-2.7-3.3-4.1-3.3c-0.3,0-1,0.3-2.1,1c-1.1,0.7-2.5,1.6-4.4,2.9l-1.9-2.5l-1.9-2.5c2-1.8,4.1-3.6,6.1-5.4s4-3.6,6-5.4
		c2.7-2.4,5.1-4.2,7.1-5.4c2-1.2,3.7-1.9,5.1-2c3.2-0.3,5.8,0.6,7.8,2.8c2,2.2,3.3,5.7,4.1,10.4c0.8,5.1,1.5,9.2,2,12.4
		c0.6,3.2,1,5.4,1.3,6.6c0.9,4.2,1.9,7.4,2.9,9.5s2.1,3.2,3.2,3.2c0.9,0,1.9-0.7,3.2-2.1c1.3-1.4,2.8-3.4,4.5-6.2
		c1.7-2.7,3.1-5.2,4-7.2c0.9-2.1,1.5-3.8,1.6-5.3c0.2-2.4-0.1-4.1-1-5.3c-0.9-1.2-2.4-1.8-4.5-1.8c-1,0-2,0.1-3,0.3s-2.1,0.6-3.1,1
		c2-6.7,5-11.6,8.9-14.9c3.9-3.2,8.7-4.8,14.4-4.6c4.2,0.1,7.4,1.6,9.4,4.3C105.3,37.4,106.2,41.5,106,46.9z"/>
</g>
</svg>
