<?xml version="1.0" encoding="utf-8"?>
<!-- Generator: Adobe Illustrator 19.1.0, SVG Export Plug-In . SVG Version: 6.00 Build 0)  -->
<svg version="1.1" id="Icons_3_" xmlns="http://www.w3.org/2000/svg" xmlns:xlink="http://www.w3.org/1999/xlink" x="0px" y="0px"
	 viewBox="0 0 150 150" enable-background="new 0 0 150 150" xml:space="preserve">
<g id="Error">
</g>
<g id="View">
</g>
<g id="Video">
</g>
<g id="User_Personal">
</g>
<g id="Upload">
</g>
<g id="Travel">
</g>
<g id="Transfers">
</g>
<g id="Tools">
</g>
<g id="Clock">
</g>
<g id="Fast_Track">
</g>
<g id="Camera">
</g>
<g id="Tablet">
</g>
<g id="Switch">
</g>
<g id="Survey">
</g>
<g id="Minimize">
</g>
<g id="Stock_Up">
</g>
<g id="Stock_Down">
</g>
<g id="Sound">
</g>
<g id="Shopping_Cart">
</g>
<g id="Share">
</g>
<g id="Settings">
</g>
<g id="Secure_Key_Passcode">
</g>
<g id="Search">
</g>
<g id="Script">
</g>
<g id="Staff_Channels">
	<g id="Signature">
	</g>
	<g id="Shortcuts">
	</g>
	<g id="Microphone">
	</g>
	<g id="Dial">
	</g>
</g>
<g id="Social_Icons">
	<g id="Youtube">
	</g>
	<g id="Youtube_Solid">
	</g>
	<g id="Weibo">
	</g>
	<g id="Weibo_Solid">
		<path d="M62.7,85.8c-2.5,0-4.6,1.9-4.6,4.1c0,2.1,1.5,3.5,3.8,3.5c2,0,4.5-1.9,4.5-4.2C66.3,87.4,65.2,85.8,62.7,85.8z"/>
		<path d="M68.6,83.9c-1.3,0-1.8,1-1.8,1.6c0,0.6,0.5,1.4,1.4,1.4c1.2,0,1.8-1.1,1.8-1.7C69.9,84.6,69.7,83.9,68.6,83.9z"/>
		<path d="M69.4,70.9c-15,0-24.5,8.9-24.5,16.2c0,7.2,8.5,13.8,20.7,13.8c12.2,0,24.5-7.2,24.5-16.2C90.2,75.9,79.7,70.9,69.4,70.9z
			 M65,97.8c-8,0-10.9-6-10.9-9.6c0-5.7,5.9-11.1,12.9-11.1c6.9,0,10.9,4.6,10.9,9.5C77.9,91.5,73,97.8,65,97.8z"/>
		<path d="M27,27v96h96V27H27z M68.6,105.1c-14.3,0-31.1-7-31.1-20.1c0-12.3,19-32.1,31.3-32.1c3.5,0,6,1.8,6,5.6
			c0,3.6-0.8,4.8-0.8,5.3c0,0.6,0.5,0.6,0.8,0.6c1,0,6.1-2.9,11.6-2.9c5.6,0,7.2,3.1,7.2,5.7c0,2.7-1.2,4-1.2,5.3
			c0,1.2,10.5,2.3,10.5,11.1C103,94.3,87.7,105.1,68.6,105.1z M92.5,59.3c-0.5,0-1.2,0.2-1.7,0.2c-1.2,0-2.2-1-2.2-2.5
			c0-1.5,1.2-2.7,3.9-2.7c3.7,0,9.8,2.6,9.8,9.8c0,4.3-1.8,4.6-2.8,4.6c-1,0-2.4-0.8-2.4-2.4c0-0.6,0.3-1.2,0.3-2.4
			C97.4,62.2,95.9,59.3,92.5,59.3z M108.8,72.3c-1.9,0-2.9-1.7-2.9-2.8c0-1.2,0.9-1.8,0.9-5.5c0-8.5-7.1-14.1-14.2-14.1
			c-2.3,0-2.5,0.5-3.6,0.5c-2,0-2.9-1.6-2.9-2.9c0-1.9,1.4-3.3,6.4-3.3c8.2,0,19.8,6.4,19.8,19.8C112.6,70.4,111,72.3,108.8,72.3z"
			/>
	</g>
	<g id="Vimeo">
	</g>
	<g id="Vimeo_Solid">
	</g>
	<g id="Twitter">
	</g>
	<g id="Twitter_Solid">
	</g>
	<g id="LinkedIn">
	</g>
	<g id="LinkedIn_Solid">
	</g>
	<g id="GooglePlus">
	</g>
	<g id="GooglePlus_Solid">
	</g>
	<g id="Facebook">
	</g>
	<g id="Facebook_Solid">
	</g>
</g>
</svg>
