<?xml version="1.0" encoding="utf-8"?>
<!-- Generator: Adobe Illustrator 19.1.0, SVG Export Plug-In . SVG Version: 6.00 Build 0)  -->
<svg version="1.1" id="Icons_3_" xmlns="http://www.w3.org/2000/svg" xmlns:xlink="http://www.w3.org/1999/xlink" x="0px" y="0px"
	 viewBox="0 0 150 150" enable-background="new 0 0 150 150" xml:space="preserve">
<g id="Error">
</g>
<g id="View">
</g>
<g id="Video">
</g>
<g id="User_Personal">
</g>
<g id="Upload">
</g>
<g id="Travel">
</g>
<g id="Transfers">
</g>
<g id="Tools">
</g>
<g id="Clock">
</g>
<g id="Fast_Track">
</g>
<g id="Camera">
</g>
<g id="Tablet">
</g>
<g id="Switch">
</g>
<g id="Survey">
</g>
<g id="Minimize">
</g>
<g id="Stock_Up">
</g>
<g id="Stock_Down">
</g>
<g id="Sound">
</g>
<g id="Shopping_Cart">
</g>
<g id="Share">
</g>
<g id="Settings">
</g>
<g id="Secure_Key_Passcode">
</g>
<g id="Search">
</g>
<g id="Script">
</g>
<g id="Staff_Channels">
	<g id="Signature">
	</g>
	<g id="Shortcuts">
	</g>
	<g id="Microphone">
	</g>
	<g id="Dial">
	</g>
</g>
<g id="Social_Icons">
	<g id="Youtube">
	</g>
	<g id="Youtube_Solid">
	</g>
	<g id="Weibo">
		<path d="M97.1,71.8c0-1.6,1.5-3.3,1.5-6.6c0-3.4-2.1-7.3-9.1-7.3c-6.9,0-13.4,3.6-14.7,3.6c-0.4,0-1,0-1-0.8c0-0.6,1-2.1,1-6.6
			c0-4.8-3.3-7-7.6-7c-15.5,0-39.6,25-39.6,40.6c0,16.5,21.3,25.4,39.3,25.4c24.2,0,43.5-13.7,43.5-27.3
			C110.3,74.7,97.1,73.3,97.1,71.8z M63.3,107.7c-15.4,0-26.2-8.3-26.2-17.4c0-9.1,12-20.4,30.9-20.4c12.9,0,26.2,6.3,26.2,17.4
			C94.2,98.6,78.7,107.7,63.3,107.7z"/>
		<path d="M106.1,67.2c1.3,0,3.5-0.4,3.5-5.8c0-9.1-7.8-12.4-12.4-12.4c-3.4,0-4.9,1.5-4.9,3.4c0,1.9,1.3,3.1,2.8,3.1
			c0.6,0,1.5-0.3,2.1-0.3c4.3,0,6.1,3.6,6.3,5.9c0,1.5-0.4,2.3-0.4,3C103.1,66.2,104.8,67.2,106.1,67.2z"/>
		<path d="M97.3,36.4c-6.4,0-8.1,1.8-8.1,4.1c0,1.6,1.1,3.6,3.6,3.6c1.4,0,1.6-0.6,4.5-0.6c8.9,0,17.9,7,17.9,17.8
			c0,4.6-1.1,5.4-1.1,6.9c0,1.4,1.3,3.5,3.6,3.5c2.8,0,4.8-2.4,4.6-10.3C122.4,44.5,107.7,36.4,97.3,36.4z"/>
		<path d="M64.9,77.7c-8.8,0-16.3,6.8-16.3,14c0,4.5,3.6,12.1,13.8,12.1c10.1,0,16.3-7.9,16.3-14.2C78.7,83.4,73.6,77.7,64.9,77.7z
			 M58.5,98.2c-2.9,0-4.8-1.8-4.8-4.4c0-2.8,2.6-5.1,5.8-5.1c3.1,0,4.5,2,4.6,4.3C64.1,95.8,61,98.2,58.5,98.2z M66.4,90.1
			c-1.1,0-1.8-1-1.8-1.8c0-0.8,0.6-2,2.3-2c1.5,0,1.8,0.9,1.8,1.6C68.6,88.7,67.9,90.1,66.4,90.1z"/>
	</g>
	<g id="Weibo_Solid">
	</g>
	<g id="Vimeo">
	</g>
	<g id="Vimeo_Solid">
	</g>
	<g id="Twitter">
	</g>
	<g id="Twitter_Solid">
	</g>
	<g id="LinkedIn">
	</g>
	<g id="LinkedIn_Solid">
	</g>
	<g id="GooglePlus">
	</g>
	<g id="GooglePlus_Solid">
	</g>
	<g id="Facebook">
	</g>
	<g id="Facebook_Solid">
	</g>
</g>
</svg>
