<?xml version="1.0" encoding="utf-8"?>
<!-- Generator: Adobe Illustrator 19.1.0, SVG Export Plug-In . SVG Version: 6.00 Build 0)  -->
<!DOCTYPE svg PUBLIC "-//W3C//DTD SVG 1.1//EN" "http://www.w3.org/Graphics/SVG/1.1/DTD/svg11.dtd">
<svg version="1.1" id="icon" xmlns="http://www.w3.org/2000/svg" xmlns:xlink="http://www.w3.org/1999/xlink" x="0px" y="0px"
	 width="132px" height="132px" viewBox="0 0 132 132" enable-background="new 0 0 132 132" xml:space="preserve">
<g>
	<path d="M53.7,76.8c-1.2,0-2.4,0.5-3.2,1.2c-0.8,0.7-1.4,1.8-1.4,2.8c0,1,0.4,1.9,1,2.5c0.7,0.6,1.6,1,2.7,1c1,0,2.1-0.5,3-1.2
		c0.9-0.8,1.5-1.8,1.5-2.9c-0.1-0.9-0.3-1.7-0.9-2.4S54.9,76.8,53.7,76.8z"/>
	<path d="M59.6,74.9c-0.6,0-1.1,0.2-1.4,0.6c-0.3,0.3-0.4,0.7-0.4,1c0,0.3,0.1,0.6,0.4,0.9s0.6,0.5,1,0.5c0.6,0,1-0.3,1.3-0.6
		c0.3-0.3,0.4-0.8,0.4-1.1c0-0.3-0.1-0.6-0.2-0.9C60.5,75.1,60.1,74.9,59.6,74.9z"/>
	<path d="M60.4,61.9c-7.5,0-13.6,2.2-17.9,5.4c-4.3,3.1-6.6,7.2-6.6,10.8c0,3.6,2.1,7.1,5.8,9.6c3.7,2.5,8.8,4.2,14.9,4.2
		c6.1,0,12.2-1.8,16.8-4.7c4.6-2.9,7.7-7,7.7-11.4c0-4.4-2.6-7.9-6.5-10.2C70.7,63.2,65.6,61.9,60.4,61.9z M56,88.8
		c-4,0-6.7-1.5-8.5-3.5c-1.7-2-2.4-4.4-2.4-6.1c0-2.9,1.5-5.7,3.8-7.7s5.6-3.4,9-3.4c3.5,0,6.2,1.1,8.1,2.9s2.8,4.1,2.8,6.6
		c0,2.5-1.2,5.3-3.4,7.5C63.2,87.2,60,88.8,56,88.8z"/>
	<path d="M18,18v48v48h48h48V66V18H66H18z M59.6,96.1c-7.1,0-14.9-1.8-20.9-5.2c-6-3.4-10.2-8.4-10.2-15c0-6.1,4.8-14.2,11.1-20.7
		c6.3-6.5,14.1-11.4,20.3-11.4c1.7,0,3.2,0.4,4.3,1.4c1.1,0.9,1.7,2.3,1.7,4.2c0,1.8-0.2,3-0.4,3.8C65.2,54,65,54.4,65,54.7
		c0,0.3,0.1,0.4,0.3,0.5c0.2,0.1,0.4,0.1,0.5,0.1c0.5,0,2-0.7,4.1-1.4s4.7-1.4,7.5-1.4c2.8,0,4.6,0.8,5.7,1.9
		c1.1,1.1,1.5,2.5,1.5,3.9c0,1.3-0.3,2.3-0.6,3.1s-0.6,1.5-0.6,2.1c0,0.6,2.6,1.2,5.3,2.7c2.6,1.5,5.3,4,5.3,8.4
		c0,5.4-3.8,10.8-10,14.9S69.1,96.1,59.6,96.1z M83.5,50.3c-0.2,0-0.5,0-0.8,0.1c-0.3,0-0.6,0.1-0.8,0.1c-0.6,0-1.1-0.2-1.5-0.7
		c-0.4-0.4-0.6-1.1-0.6-1.8c0-0.7,0.3-1.4,0.9-1.9c0.6-0.5,1.6-0.8,2.9-0.8c1.8,0,4.3,0.6,6.3,2.2c2,1.5,3.5,4,3.5,7.6
		c0,2.1-0.4,3.3-1,3.9c-0.6,0.6-1.3,0.7-1.8,0.7c-0.5,0-1.1-0.2-1.6-0.6c-0.5-0.4-0.8-1-0.8-1.8c0-0.3,0.1-0.6,0.1-1
		c0.1-0.4,0.1-0.8,0.1-1.4c0-0.9-0.4-2.1-1.3-3C86.4,51,85.2,50.3,83.5,50.3z M99.8,63.3c-0.9,0-1.7-0.4-2.1-1
		c-0.5-0.6-0.7-1.3-0.7-1.8c0-0.6,0.2-1,0.4-1.8c0.2-0.8,0.4-1.8,0.4-3.7c0-4.3-1.8-7.8-4.4-10.2c-2.7-2.5-6.2-3.8-9.7-3.8
		c-1.1,0-1.8,0.1-2.2,0.2c-0.5,0.1-0.8,0.2-1.3,0.2c-1,0-1.7-0.4-2.2-1c-0.5-0.6-0.7-1.3-0.7-1.9c0-0.9,0.3-1.8,1.3-2.3
		s2.6-0.9,5.1-0.9c4.1,0,9.1,1.6,13,4.9s6.8,8.2,6.8,14.9c0,3.1-0.3,5.2-1,6.4C101.8,62.8,100.9,63.3,99.8,63.3z"/>
</g>
</svg>
