<?xml version="1.0" encoding="utf-8"?>
<!-- Generator: Adobe Illustrator 19.1.0, SVG Export Plug-In . SVG Version: 6.00 Build 0)  -->
<svg version="1.1" id="Icons_3_" xmlns="http://www.w3.org/2000/svg" xmlns:xlink="http://www.w3.org/1999/xlink" x="0px" y="0px"
	 viewBox="0 0 150 150" enable-background="new 0 0 150 150" xml:space="preserve">
<g id="Error">
</g>
<g id="View">
</g>
<g id="Video">
</g>
<g id="User_Personal">
</g>
<g id="Upload">
</g>
<g id="Travel">
</g>
<g id="Transfers">
</g>
<g id="Tools">
</g>
<g id="Clock">
</g>
<g id="Fast_Track">
</g>
<g id="Camera">
</g>
<g id="Tablet">
</g>
<g id="Switch">
</g>
<g id="Survey">
</g>
<g id="Minimize">
</g>
<g id="Stock_Up">
</g>
<g id="Stock_Down">
</g>
<g id="Sound">
</g>
<g id="Shopping_Cart">
</g>
<g id="Share">
</g>
<g id="Settings">
</g>
<g id="Secure_Key_Passcode">
</g>
<g id="Search">
</g>
<g id="Script">
</g>
<g id="Staff_Channels">
	<g id="Signature">
	</g>
	<g id="Shortcuts">
	</g>
	<g id="Microphone">
	</g>
	<g id="Dial">
	</g>
</g>
<g id="Social_Icons">
	<g id="Youtube">
		<path d="M118.1,57.3c0,0-0.9-6.1-3.5-8.8c-3.4-3.5-7.1-3.5-8.9-3.7c-12.4-0.9-30.9-0.9-30.9-0.9h0c0,0-18.6,0-30.9,0.9
			C42.1,45,38.4,45,35,48.6c-2.7,2.7-3.5,8.8-3.5,8.8s-0.9,7.2-0.9,14.3v6.7c0,7.2,0.9,14.3,0.9,14.3s0.9,6.1,3.5,8.8
			c3.4,3.5,7.8,3.4,9.7,3.8c7.1,0.7,30.1,0.9,30.1,0.9s18.6,0,30.9-0.9c1.7-0.2,5.5-0.2,8.9-3.7c2.7-2.7,3.5-8.8,3.5-8.8
			s0.9-7.2,0.9-14.3v-6.7C119,64.5,118.1,57.3,118.1,57.3z M65.7,86.5l0-24.8l23.9,12.5L65.7,86.5z"/>
	</g>
	<g id="Youtube_Solid">
	</g>
	<g id="Weibo">
	</g>
	<g id="Weibo_Solid">
	</g>
	<g id="Vimeo">
	</g>
	<g id="Vimeo_Solid">
	</g>
	<g id="Twitter">
	</g>
	<g id="Twitter_Solid">
	</g>
	<g id="LinkedIn">
	</g>
	<g id="LinkedIn_Solid">
	</g>
	<g id="GooglePlus">
	</g>
	<g id="GooglePlus_Solid">
	</g>
	<g id="Facebook">
	</g>
	<g id="Facebook_Solid">
	</g>
</g>
</svg>
