<?xml version="1.0" encoding="utf-8"?>
<!-- Generator: Adobe Illustrator 19.1.0, SVG Export Plug-In . SVG Version: 6.00 Build 0)  -->
<!DOCTYPE svg PUBLIC "-//W3C//DTD SVG 1.1//EN" "http://www.w3.org/Graphics/SVG/1.1/DTD/svg11.dtd">
<svg version="1.1" id="icon" xmlns="http://www.w3.org/2000/svg" xmlns:xlink="http://www.w3.org/1999/xlink" x="0px" y="0px"
	 width="150px" height="150px" viewBox="0 0 150 150" enable-background="new 0 0 150 150" xml:space="preserve">
<g>
	<path d="M118.1,57.3c0,0-0.2-1.5-0.8-3.4c-0.5-1.9-1.4-4.1-2.8-5.4c-1.7-1.8-3.5-2.6-5-3.1c-1.6-0.5-3-0.5-3.8-0.6
		c-6.2-0.4-13.9-0.7-20.1-0.8c-6.2-0.1-10.8-0.1-10.8-0.1h0h0c0,0-4.6,0-10.8,0.1c-6.2,0.1-13.9,0.3-20.1,0.8
		c-0.9,0.1-2.2,0.2-3.8,0.6c-1.6,0.5-3.4,1.4-5,3.1c-1.3,1.3-2.2,3.5-2.8,5.4c-0.5,1.9-0.8,3.4-0.8,3.4s-0.2,1.8-0.4,4.5
		c-0.2,2.7-0.4,6.3-0.4,9.8V75v3.4c0,3.6,0.2,7.2,0.4,9.8c0.2,2.7,0.4,4.5,0.4,4.5s0.2,1.5,0.8,3.4c0.5,1.9,1.4,4.1,2.8,5.4
		c1.7,1.8,3.6,2.6,5.4,3.1c1.8,0.5,3.4,0.5,4.4,0.7c3.5,0.3,11,0.6,17.7,0.7c6.6,0.1,12.4,0.2,12.4,0.2s4.6,0,10.8-0.1
		c6.2-0.1,13.9-0.4,20.1-0.8c0.9-0.1,2.2-0.2,3.8-0.6c1.6-0.5,3.4-1.4,5-3.1c1.3-1.3,2.2-3.5,2.8-5.4c0.5-1.9,0.8-3.4,0.8-3.4
		s0.2-1.8,0.4-4.5c0.2-2.7,0.4-6.3,0.4-9.8V75v-3.4c0-3.6-0.2-7.2-0.4-9.8C118.4,59.1,118.1,57.3,118.1,57.3z M65.7,86.5l0-12.4
		l0-12.4l11.9,6.2l11.9,6.2l-11.9,6.2L65.7,86.5z"/>
</g>
</svg>
