<?xml version="1.0" encoding="utf-8"?>
<!-- Generator: Adobe Illustrator 19.1.0, SVG Export Plug-In . SVG Version: 6.00 Build 0)  -->
<svg version="1.1" id="Icons_3_" xmlns="http://www.w3.org/2000/svg" xmlns:xlink="http://www.w3.org/1999/xlink" x="0px" y="0px"
	 viewBox="0 0 150 150" enable-background="new 0 0 150 150" xml:space="preserve">
<g id="Error">
</g>
<g id="View">
</g>
<g id="Video">
</g>
<g id="User_Personal">
</g>
<g id="Upload">
</g>
<g id="Travel">
</g>
<g id="Transfers">
</g>
<g id="Tools">
</g>
<g id="Clock">
</g>
<g id="Fast_Track">
</g>
<g id="Camera">
</g>
<g id="Tablet">
</g>
<g id="Switch">
</g>
<g id="Survey">
</g>
<g id="Minimize">
</g>
<g id="Stock_Up">
</g>
<g id="Stock_Down">
</g>
<g id="Sound">
</g>
<g id="Shopping_Cart">
</g>
<g id="Share">
</g>
<g id="Settings">
</g>
<g id="Secure_Key_Passcode">
</g>
<g id="Search">
</g>
<g id="Script">
</g>
<g id="Staff_Channels">
	<g id="Signature">
	</g>
	<g id="Shortcuts">
	</g>
	<g id="Microphone">
	</g>
	<g id="Dial">
	</g>
</g>
<g id="Social_Icons">
	<g id="Youtube">
	</g>
	<g id="Youtube_Solid">
		<path d="M27,27v96h96V27H27z M110.6,78.7c0,3.3-0.3,7.9-0.7,10.5c-0.4,2.6-1.4,6.1-3.7,8c-1.6,1.4-3.3,2-6.1,2.2
			c-3.2,0.3-16.3,0.8-25.2,0.8c-6,0-24-0.4-27.3-1.2c-3-0.7-4.9-1.9-6.2-4.3c-1.4-2.6-1.7-4.5-1.9-6.8c-0.2-2.2-0.5-5.4-0.5-9
			c0-2.2,0-5,0-7.7c0-2.7,0.4-8.9,0.8-11.2c0.5-2.2,0.9-4.3,2.5-6.3c1.5-1.9,3.8-2.9,6.1-3.2c2.8-0.4,18.7-0.8,26.6-0.8
			c8,0,22.4,0.3,26.1,0.9c3.6,0.5,5,1.9,5.7,2.6c1.3,1.4,2.5,3.7,3,7.2c0.6,4.1,0.7,8.2,0.7,10.7C110.6,73.8,110.6,75.4,110.6,78.7z
			"/>
		<polygon points="67.8,85 87.1,75 67.8,64.9 		"/>
	</g>
	<g id="Weibo">
	</g>
	<g id="Weibo_Solid">
	</g>
	<g id="Vimeo">
	</g>
	<g id="Vimeo_Solid">
	</g>
	<g id="Twitter">
	</g>
	<g id="Twitter_Solid">
	</g>
	<g id="LinkedIn">
	</g>
	<g id="LinkedIn_Solid">
	</g>
	<g id="GooglePlus">
	</g>
	<g id="GooglePlus_Solid">
	</g>
	<g id="Facebook">
	</g>
	<g id="Facebook_Solid">
	</g>
</g>
</svg>
