<?xml version="1.0" encoding="utf-8"?>
<!-- Generator: Adobe Illustrator 19.1.0, SVG Export Plug-In . SVG Version: 6.00 Build 0)  -->
<!DOCTYPE svg PUBLIC "-//W3C//DTD SVG 1.1//EN" "http://www.w3.org/Graphics/SVG/1.1/DTD/svg11.dtd">
<svg version="1.1" id="icon" xmlns="http://www.w3.org/2000/svg" xmlns:xlink="http://www.w3.org/1999/xlink" x="0px" y="0px"
	 width="132px" height="132px" viewBox="0 0 132 132" enable-background="new 0 0 132 132" xml:space="preserve">
<g>
	<path d="M18,18v48v48h48h48V66V18H66H18z M101.6,69.7c0,1.7-0.1,3.6-0.2,5.5c-0.1,1.9-0.3,3.7-0.5,4.9c-0.2,1.3-0.5,2.8-1.1,4.2
		c-0.6,1.4-1.4,2.8-2.5,3.7c-0.8,0.7-1.6,1.2-2.6,1.5c-1,0.4-2.1,0.6-3.5,0.7c-1.6,0.2-5.7,0.4-10.5,0.5c-4.8,0.2-10.3,0.3-14.8,0.3
		c-3,0-9-0.1-14.6-0.3c-5.7-0.2-11-0.5-12.6-0.9c-1.5-0.4-2.7-0.8-3.7-1.5c-1-0.7-1.8-1.6-2.5-2.8c-0.7-1.3-1.1-2.4-1.4-3.5
		s-0.4-2.1-0.5-3.3s-0.2-2.5-0.4-4c-0.1-1.5-0.2-3.2-0.2-5c0-1.1,0-2.3,0-3.6c0-1.3,0-2.7,0-4c0-1.3,0.1-3.6,0.2-5.8
		c0.1-2.2,0.3-4.3,0.6-5.4c0.2-1.1,0.4-2.2,0.8-3.2c0.4-1,0.9-2.1,1.7-3.1c0.8-0.9,1.7-1.7,2.8-2.2c1.1-0.5,2.2-0.9,3.4-1
		c1.4-0.2,6.1-0.4,11.4-0.6s11.3-0.3,15.2-0.3c4,0,9.6,0.1,14.7,0.2c5.1,0.1,9.6,0.4,11.5,0.6c1.8,0.3,3.1,0.7,4,1.2
		c0.9,0.5,1.4,1,1.7,1.4c0.7,0.7,1.3,1.6,1.8,2.8c0.5,1.2,1,2.6,1.2,4.4c0.3,2.1,0.5,4.1,0.6,5.9c0.1,1.8,0.1,3.5,0.1,4.8
		c0,1.3,0,2.3,0,3.4S101.6,68,101.6,69.7z"/>
	<polygon points="58.8,76 68.5,71 78.1,66 68.5,61 58.8,55.9 58.8,66 	"/>
</g>
</svg>
